<svg width="1920" height="58" viewBox="0 0 1920 58" fill="none" xmlns="http://www.w3.org/2000/svg">
<g clip-path="url(#clip0_21_22)">
<path d="M1920 0H0V58H1920V0Z" fill="#D4F570"/>
<path d="M28.8528 12.6158H45.3328L40.9728 33.2558H38.4528L42.3728 14.7358H30.9328L27.0128 33.2558H24.4928L28.8528 12.6158ZM50.1038 12.6158H52.4238L51.5838 16.5358H51.6638C52.5704 15.0958 53.7571 13.9891 55.2238 13.2158C56.7171 12.4158 58.3038 12.0158 59.9838 12.0158C61.5571 12.0158 62.8638 12.3091 63.9037 12.8958C64.9438 13.4825 65.7438 14.2825 66.3038 15.2958C66.8638 16.2825 67.1838 17.4425 67.2638 18.7758C67.3704 20.0825 67.2638 21.4691 66.9438 22.9358C66.6238 24.4291 66.1438 25.8291 65.5038 27.1358C64.8638 28.4425 64.0504 29.6025 63.0638 30.6158C62.0771 31.6025 60.9438 32.3891 59.6638 32.9758C58.3838 33.5358 56.9571 33.8158 55.3838 33.8158C54.6104 33.8158 53.8771 33.7225 53.1838 33.5358C52.4904 33.3491 51.8504 33.0691 51.2638 32.6958C50.7038 32.3225 50.2371 31.8558 49.8638 31.2958C49.4904 30.7358 49.2504 30.0825 49.1438 29.3358H49.0638L46.6238 40.8558H44.1038L50.1038 12.6158ZM55.8238 31.7358C57.0238 31.7358 58.1038 31.4825 59.0638 30.9758C60.0238 30.4425 60.8638 29.7625 61.5838 28.9358C62.3038 28.1091 62.9038 27.1758 63.3838 26.1358C63.8638 25.0691 64.2104 24.0025 64.4238 22.9358C64.6638 21.8691 64.7704 20.8158 64.7438 19.7758C64.7171 18.7091 64.5171 17.7625 64.1438 16.9358C63.7704 16.1091 63.2104 15.4425 62.4638 14.9358C61.7171 14.4025 60.7438 14.1358 59.5438 14.1358C58.1304 14.1358 56.9038 14.3758 55.8638 14.8558C54.8504 15.3358 53.9838 15.9758 53.2638 16.7758C52.5438 17.5758 51.9571 18.5091 51.5038 19.5758C51.0504 20.6425 50.6904 21.7625 50.4238 22.9358C50.2104 24.0025 50.1171 25.0691 50.1438 26.1358C50.1704 27.1758 50.3838 28.1091 50.7838 28.9358C51.1838 29.7625 51.7838 30.4425 52.5838 30.9758C53.4104 31.4825 54.4904 31.7358 55.8238 31.7358ZM77.3125 33.8158C75.7392 33.8158 74.4058 33.5358 73.3125 32.9758C72.2192 32.3891 71.3525 31.6025 70.7125 30.6158C70.0992 29.6291 69.7125 28.4825 69.5525 27.1758C69.4192 25.8425 69.5125 24.4291 69.8325 22.9358C70.1525 21.4691 70.6592 20.0691 71.3525 18.7358C72.0725 17.4025 72.9525 16.2425 73.9925 15.2558C75.0325 14.2691 76.2192 13.4825 77.5525 12.8958C78.8858 12.3091 80.3392 12.0158 81.9125 12.0158C83.4858 12.0158 84.8192 12.3091 85.9125 12.8958C87.0058 13.4825 87.8592 14.2691 88.4725 15.2558C89.0858 16.2425 89.4592 17.4025 89.5925 18.7358C89.7525 20.0691 89.6725 21.4691 89.3525 22.9358C89.0325 24.4291 88.5125 25.8425 87.7925 27.1758C87.0992 28.4825 86.2325 29.6291 85.1925 30.6158C84.1792 31.6025 83.0058 32.3891 81.6725 32.9758C80.3392 33.5358 78.8858 33.8158 77.3125 33.8158ZM77.7525 31.7358C78.9525 31.7358 80.0592 31.4825 81.0725 30.9758C82.0858 30.4691 82.9792 29.8025 83.7525 28.9758C84.5258 28.1491 85.1792 27.2158 85.7125 26.1758C86.2458 25.1091 86.6192 24.0291 86.8325 22.9358C87.0725 21.8425 87.1525 20.7758 87.0725 19.7358C86.9925 18.6691 86.7392 17.7225 86.3125 16.8958C85.8858 16.0691 85.2725 15.4025 84.4725 14.8958C83.6725 14.3891 82.6725 14.1358 81.4725 14.1358C80.2725 14.1358 79.1658 14.3891 78.1525 14.8958C77.1392 15.4025 76.2458 16.0691 75.4725 16.8958C74.6992 17.7225 74.0458 18.6691 73.5125 19.7358C72.9792 20.7758 72.5925 21.8425 72.3525 22.9358C72.1392 24.0291 72.0725 25.1091 72.1525 26.1758C72.2325 27.2158 72.4858 28.1491 72.9125 28.9758C73.3392 29.8025 73.9525 30.4691 74.7525 30.9758C75.5525 31.4825 76.5525 31.7358 77.7525 31.7358ZM95.2591 12.6158H97.7791L94.0191 30.2958L109.179 12.6158H112.299L107.939 33.2558H105.419L109.139 15.5758L94.0191 33.2558H90.8991L95.2591 12.6158ZM119.817 33.8158C117.07 33.8158 115.124 33.1891 113.977 31.9358C112.857 30.6558 112.457 28.9358 112.777 26.7758H115.297C115.244 27.5225 115.284 28.2025 115.417 28.8158C115.55 29.4291 115.804 29.9491 116.177 30.3758C116.577 30.8025 117.11 31.1358 117.777 31.3758C118.444 31.5891 119.284 31.6958 120.297 31.6958C121.444 31.6958 122.404 31.5625 123.177 31.2958C123.95 31.0291 124.59 30.6825 125.097 30.2558C125.604 29.8025 125.99 29.3091 126.257 28.7758C126.55 28.2425 126.75 27.7091 126.857 27.1758C127.07 26.1358 126.91 25.2558 126.377 24.5358C125.87 23.8158 124.83 23.4558 123.257 23.4558H119.817L120.217 21.5358H123.057C124.257 21.5358 125.35 21.2158 126.337 20.5758C127.324 19.9358 127.95 19.0025 128.217 17.7758C128.297 17.4025 128.324 17.0025 128.297 16.5758C128.27 16.1491 128.097 15.7625 127.777 15.4158C127.484 15.0425 127.03 14.7491 126.417 14.5358C125.804 14.2958 124.964 14.1758 123.897 14.1758C122.004 14.1758 120.537 14.6025 119.497 15.4558C118.484 16.2825 117.777 17.3358 117.377 18.6158H114.897C115.27 17.3625 115.79 16.3225 116.457 15.4958C117.124 14.6425 117.87 13.9625 118.697 13.4558C119.524 12.9491 120.417 12.5891 121.377 12.3758C122.364 12.1625 123.364 12.0558 124.377 12.0558C125.444 12.0558 126.417 12.1625 127.297 12.3758C128.177 12.5625 128.91 12.8825 129.497 13.3358C130.11 13.7625 130.537 14.3358 130.777 15.0558C131.044 15.7491 131.07 16.6025 130.857 17.6158C130.724 18.2291 130.51 18.7891 130.217 19.2958C129.924 19.8025 129.577 20.2558 129.177 20.6558C128.777 21.0558 128.35 21.3891 127.897 21.6558C127.444 21.9225 126.99 22.0958 126.537 22.1758V22.2558C126.99 22.3358 127.43 22.4825 127.857 22.6958C128.31 22.9091 128.684 23.2158 128.977 23.6158C129.27 23.9891 129.47 24.4691 129.577 25.0558C129.71 25.6158 129.684 26.2958 129.497 27.0958C129.257 28.2158 128.817 29.2025 128.177 30.0558C127.564 30.8825 126.817 31.5758 125.937 32.1358C125.057 32.6958 124.084 33.1091 123.017 33.3758C121.977 33.6691 120.91 33.8158 119.817 33.8158ZM136.431 12.6158H145.871C147.978 12.6158 149.511 13.0291 150.471 13.8558C151.458 14.6825 151.778 15.8958 151.431 17.4958C151.164 18.7225 150.631 19.7491 149.831 20.5758C149.031 21.4025 148.044 21.9758 146.871 22.2958L146.831 22.3758C148.138 22.6158 149.084 23.1491 149.671 23.9758C150.284 24.8025 150.431 25.9758 150.111 27.4958C149.711 29.3625 148.778 30.7891 147.311 31.7758C145.871 32.7625 143.938 33.2558 141.511 33.2558H132.071L136.431 12.6158ZM141.671 31.1358C143.431 31.1358 144.791 30.8158 145.751 30.1758C146.738 29.5091 147.378 28.5225 147.671 27.2158C147.911 26.0158 147.671 25.0958 146.951 24.4558C146.258 23.8158 145.031 23.4958 143.271 23.4958H136.631L135.031 31.1358H141.671ZM143.711 21.5358C145.151 21.5358 146.298 21.2291 147.151 20.6158C148.031 20.0025 148.578 19.1758 148.791 18.1358C149.271 15.8691 148.058 14.7358 145.151 14.7358H138.511L137.071 21.5358H143.711ZM161.375 33.8158C159.802 33.8158 158.468 33.5358 157.375 32.9758C156.282 32.3891 155.415 31.6025 154.775 30.6158C154.162 29.6291 153.775 28.4825 153.615 27.1758C153.482 25.8425 153.575 24.4291 153.895 22.9358C154.215 21.4691 154.722 20.0691 155.415 18.7358C156.135 17.4025 157.015 16.2425 158.055 15.2558C159.095 14.2691 160.282 13.4825 161.615 12.8958C162.948 12.3091 164.402 12.0158 165.975 12.0158C167.548 12.0158 168.882 12.3091 169.975 12.8958C171.068 13.4825 171.922 14.2691 172.535 15.2558C173.148 16.2425 173.522 17.4025 173.655 18.7358C173.815 20.0691 173.735 21.4691 173.415 22.9358C173.095 24.4291 172.575 25.8425 171.855 27.1758C171.162 28.4825 170.295 29.6291 169.255 30.6158C168.242 31.6025 167.068 32.3891 165.735 32.9758C164.402 33.5358 162.948 33.8158 161.375 33.8158ZM161.815 31.7358C163.015 31.7358 164.122 31.4825 165.135 30.9758C166.148 30.4691 167.042 29.8025 167.815 28.9758C168.588 28.1491 169.242 27.2158 169.775 26.1758C170.308 25.1091 170.682 24.0291 170.895 22.9358C171.135 21.8425 171.215 20.7758 171.135 19.7358C171.055 18.6691 170.802 17.7225 170.375 16.8958C169.948 16.0691 169.335 15.4025 168.535 14.8958C167.735 14.3891 166.735 14.1358 165.535 14.1358C164.335 14.1358 163.228 14.3891 162.215 14.8958C161.202 15.4025 160.308 16.0691 159.535 16.8958C158.762 17.7225 158.108 18.6691 157.575 19.7358C157.042 20.7758 156.655 21.8425 156.415 22.9358C156.202 24.0291 156.135 25.1091 156.215 26.1758C156.295 27.2158 156.548 28.1491 156.975 28.9758C157.402 29.8025 158.015 30.4691 158.815 30.9758C159.615 31.4825 160.615 31.7358 161.815 31.7358ZM173.282 31.1358H175.722C177.082 29.2958 178.255 27.1091 179.242 24.5758C180.255 22.0425 181.148 18.9625 181.922 15.3358L182.482 12.6158H196.362L192.442 31.1358H195.522L193.682 39.8158H191.162L192.562 33.2558H175.362L173.962 39.8158H171.482L173.282 31.1358ZM189.922 31.1358L193.402 14.7358H184.482L184.162 16.1758C183.442 19.6425 182.562 22.6291 181.522 25.1358C180.482 27.6158 179.415 29.6158 178.322 31.1358H189.922ZM206.414 33.8158C204.841 33.8158 203.507 33.5358 202.414 32.9758C201.321 32.3891 200.454 31.6025 199.814 30.6158C199.201 29.6291 198.814 28.4825 198.654 27.1758C198.521 25.8425 198.614 24.4291 198.934 22.9358C199.254 21.4691 199.761 20.0691 200.454 18.7358C201.174 17.4025 202.054 16.2425 203.094 15.2558C204.134 14.2691 205.321 13.4825 206.654 12.8958C207.987 12.3091 209.441 12.0158 211.014 12.0158C213.227 12.0158 214.974 12.6025 216.254 13.7758C217.561 14.9491 218.107 16.7225 217.894 19.0958H215.374C215.347 17.5491 214.961 16.3358 214.214 15.4558C213.467 14.5758 212.254 14.1358 210.574 14.1358C209.374 14.1358 208.267 14.3891 207.254 14.8958C206.241 15.4025 205.347 16.0691 204.574 16.8958C203.801 17.7225 203.147 18.6691 202.614 19.7358C202.081 20.7758 201.694 21.8425 201.454 22.9358C201.241 24.0291 201.174 25.1091 201.254 26.1758C201.334 27.2158 201.587 28.1491 202.014 28.9758C202.441 29.8025 203.054 30.4691 203.854 30.9758C204.654 31.4825 205.654 31.7358 206.854 31.7358C207.627 31.7358 208.387 31.5891 209.134 31.2958C209.881 31.0025 210.574 30.6025 211.214 30.0958C211.881 29.5625 212.454 28.9358 212.934 28.2158C213.441 27.4958 213.827 26.7091 214.094 25.8558H216.614C215.734 28.3625 214.401 30.3225 212.614 31.7358C210.827 33.1225 208.761 33.8158 206.414 33.8158ZM227.676 14.7358H220.036L220.476 12.6158H238.276L237.836 14.7358H230.196L226.276 33.2558H223.756L227.676 14.7358ZM240.611 12.6158H250.051C252.157 12.6158 253.691 13.0291 254.651 13.8558C255.637 14.6825 255.957 15.8958 255.611 17.4958C255.344 18.7225 254.811 19.7491 254.011 20.5758C253.211 21.4025 252.224 21.9758 251.051 22.2958L251.011 22.3758C252.317 22.6158 253.264 23.1491 253.851 23.9758C254.464 24.8025 254.611 25.9758 254.291 27.4958C253.891 29.3625 252.957 30.7891 251.491 31.7758C250.051 32.7625 248.117 33.2558 245.691 33.2558H236.251L240.611 12.6158ZM245.851 31.1358C247.611 31.1358 248.971 30.8158 249.931 30.1758C250.917 29.5091 251.557 28.5225 251.851 27.2158C252.091 26.0158 251.851 25.0958 251.131 24.4558C250.437 23.8158 249.211 23.4958 247.451 23.4958H240.811L239.211 31.1358H245.851ZM247.891 21.5358C249.331 21.5358 250.477 21.2291 251.331 20.6158C252.211 20.0025 252.757 19.1758 252.971 18.1358C253.451 15.8691 252.237 14.7358 249.331 14.7358H242.691L241.251 21.5358H247.891ZM265.555 33.8158C263.981 33.8158 262.648 33.5358 261.555 32.9758C260.461 32.3891 259.595 31.6025 258.955 30.6158C258.341 29.6291 257.955 28.4825 257.795 27.1758C257.661 25.8425 257.755 24.4291 258.075 22.9358C258.395 21.4691 258.901 20.0691 259.595 18.7358C260.315 17.4025 261.195 16.2425 262.235 15.2558C263.275 14.2691 264.461 13.4825 265.795 12.8958C267.128 12.3091 268.581 12.0158 270.155 12.0158C271.728 12.0158 273.061 12.3091 274.155 12.8958C275.248 13.4825 276.101 14.2691 276.715 15.2558C277.328 16.2425 277.701 17.4025 277.835 18.7358C277.995 20.0691 277.915 21.4691 277.595 22.9358C277.275 24.4291 276.755 25.8425 276.035 27.1758C275.341 28.4825 274.475 29.6291 273.435 30.6158C272.421 31.6025 271.248 32.3891 269.915 32.9758C268.581 33.5358 267.128 33.8158 265.555 33.8158ZM265.995 31.7358C267.195 31.7358 268.301 31.4825 269.315 30.9758C270.328 30.4691 271.221 29.8025 271.995 28.9758C272.768 28.1491 273.421 27.2158 273.955 26.1758C274.488 25.1091 274.861 24.0291 275.075 22.9358C275.315 21.8425 275.395 20.7758 275.315 19.7358C275.235 18.6691 274.981 17.7225 274.555 16.8958C274.128 16.0691 273.515 15.4025 272.715 14.8958C271.915 14.3891 270.915 14.1358 269.715 14.1358C268.515 14.1358 267.408 14.3891 266.395 14.8958C265.381 15.4025 264.488 16.0691 263.715 16.8958C262.941 17.7225 262.288 18.6691 261.755 19.7358C261.221 20.7758 260.835 21.8425 260.595 22.9358C260.381 24.0291 260.315 25.1091 260.395 26.1758C260.475 27.2158 260.728 28.1491 261.155 28.9758C261.581 29.8025 262.195 30.4691 262.995 30.9758C263.795 31.4825 264.795 31.7358 265.995 31.7358ZM295.994 33.8158C295.034 33.8158 294.154 33.6958 293.354 33.4558C292.554 33.2425 291.887 32.8958 291.354 32.4158C290.847 31.9091 290.487 31.2825 290.274 30.5358C290.087 29.7625 290.101 28.8558 290.314 27.8158C290.634 26.3758 291.194 25.2558 291.994 24.4558C292.821 23.6291 293.807 23.0025 294.954 22.5758C296.101 22.1491 297.341 21.8558 298.674 21.6958C300.034 21.5091 301.421 21.3358 302.834 21.1758C303.341 21.1225 303.807 21.0558 304.234 20.9758C304.661 20.8958 305.034 20.7625 305.354 20.5758C305.674 20.3625 305.941 20.0825 306.154 19.7358C306.367 19.3891 306.541 18.9358 306.674 18.3758C306.834 17.5225 306.834 16.8291 306.674 16.2958C306.514 15.7358 306.221 15.2958 305.794 14.9758C305.367 14.6558 304.834 14.4425 304.194 14.3358C303.581 14.2025 302.901 14.1358 302.154 14.1358C300.554 14.1358 299.167 14.5225 297.994 15.2958C296.821 16.0425 296.034 17.2558 295.634 18.9358H293.114C293.781 16.5091 294.981 14.7491 296.714 13.6558C298.447 12.5625 300.514 12.0158 302.914 12.0158C303.821 12.0158 304.714 12.1091 305.594 12.2958C306.474 12.4558 307.221 12.7758 307.834 13.2558C308.447 13.7358 308.887 14.4158 309.154 15.2958C309.421 16.1491 309.407 17.2691 309.114 18.6558L306.794 29.6158C306.581 30.6291 306.967 31.1358 307.954 31.1358C308.274 31.1358 308.554 31.0825 308.794 30.9758L308.314 33.0958C308.021 33.1491 307.754 33.1891 307.514 33.2158C307.301 33.2425 307.021 33.2558 306.674 33.2558C306.034 33.2558 305.527 33.1758 305.154 33.0158C304.807 32.8291 304.554 32.5758 304.394 32.2558C304.261 31.9358 304.207 31.5625 304.234 31.1358C304.261 30.6825 304.341 30.1891 304.474 29.6558H304.394C303.781 30.3225 303.181 30.9225 302.594 31.4558C302.034 31.9625 301.434 32.3891 300.794 32.7358C300.154 33.0825 299.434 33.3491 298.634 33.5358C297.861 33.7225 296.981 33.8158 295.994 33.8158ZM296.634 31.7358C297.594 31.7358 298.541 31.5891 299.474 31.2958C300.407 31.0025 301.261 30.5758 302.034 30.0158C302.807 29.4558 303.474 28.7758 304.034 27.9758C304.594 27.1758 304.981 26.2691 305.194 25.2558L305.874 21.9758H305.794C305.581 22.2691 305.234 22.4825 304.754 22.6158C304.274 22.7491 303.861 22.8425 303.514 22.8958C302.394 23.0825 301.247 23.2558 300.074 23.4158C298.927 23.5491 297.847 23.7625 296.834 24.0558C295.847 24.3491 294.994 24.7758 294.274 25.3358C293.554 25.8958 293.087 26.6691 292.874 27.6558C292.741 28.2958 292.741 28.8691 292.874 29.3758C293.034 29.8558 293.287 30.2825 293.634 30.6558C294.007 31.0025 294.447 31.2691 294.954 31.4558C295.461 31.6425 296.021 31.7358 296.634 31.7358ZM319.856 33.8158C317.963 33.8158 316.47 33.4691 315.376 32.7758C314.31 32.0825 313.536 31.1625 313.056 30.0158C312.576 28.8691 312.35 27.5491 312.376 26.0558C312.403 24.5625 312.576 23.0158 312.896 21.4158C313.11 20.4291 313.363 19.4025 313.656 18.3358C313.976 17.2425 314.35 16.1758 314.776 15.1358C315.203 14.0691 315.683 13.0558 316.216 12.0958C316.75 11.1358 317.35 10.2691 318.016 9.4958C319.243 8.0558 320.576 7.02913 322.016 6.4158C323.456 5.80246 325.176 5.42913 327.176 5.2958L329.136 5.1758C330.203 5.12246 330.936 5.0158 331.336 4.8558C331.763 4.6958 332.083 4.44246 332.296 4.0958H335.096C334.643 5.32246 333.936 6.16246 332.976 6.6158C332.016 7.04246 330.643 7.30913 328.856 7.4158L325.776 7.6158C323.376 7.7758 321.403 8.6158 319.856 10.1358C318.31 11.6558 316.976 14.0158 315.856 17.2158H315.976C316.963 15.8291 318.216 14.7225 319.736 13.8958C321.283 13.0425 322.896 12.6158 324.576 12.6158C325.963 12.6158 327.176 12.8558 328.216 13.3358C329.256 13.8158 330.083 14.5091 330.696 15.4158C331.336 16.3225 331.736 17.4291 331.896 18.7358C332.083 20.0425 332.003 21.5091 331.656 23.1358C331.336 24.7358 330.803 26.2025 330.056 27.5358C329.31 28.8425 328.416 29.9625 327.376 30.8958C326.363 31.8291 325.216 32.5491 323.936 33.0558C322.656 33.5625 321.296 33.8158 319.856 33.8158ZM320.296 31.7358C321.31 31.7358 322.283 31.5358 323.216 31.1358C324.176 30.7091 325.043 30.1225 325.816 29.3758C326.616 28.6025 327.296 27.6958 327.856 26.6558C328.443 25.5891 328.87 24.4158 329.136 23.1358C329.403 21.8825 329.47 20.7358 329.336 19.6958C329.23 18.6558 328.936 17.7758 328.456 17.0558C328.003 16.3091 327.39 15.7358 326.616 15.3358C325.87 14.9091 325.003 14.6958 324.016 14.6958C322.95 14.6958 321.936 14.8958 320.976 15.2958C320.016 15.6958 319.136 16.2691 318.336 17.0158C317.563 17.7358 316.883 18.6158 316.296 19.6558C315.736 20.6958 315.323 21.8558 315.056 23.1358C314.79 24.4158 314.71 25.5891 314.816 26.6558C314.95 27.6958 315.243 28.6025 315.696 29.3758C316.176 30.1225 316.803 30.7091 317.576 31.1358C318.376 31.5358 319.283 31.7358 320.296 31.7358ZM341.883 33.8158C340.309 33.8158 338.976 33.5358 337.883 32.9758C336.789 32.3891 335.923 31.6025 335.283 30.6158C334.669 29.6291 334.283 28.4825 334.123 27.1758C333.989 25.8425 334.083 24.4291 334.403 22.9358C334.723 21.4691 335.229 20.0691 335.923 18.7358C336.643 17.4025 337.523 16.2425 338.563 15.2558C339.603 14.2691 340.789 13.4825 342.123 12.8958C343.456 12.3091 344.909 12.0158 346.483 12.0158C348.696 12.0158 350.443 12.6025 351.723 13.7758C353.029 14.9491 353.576 16.7225 353.363 19.0958H350.843C350.816 17.5491 350.429 16.3358 349.683 15.4558C348.936 14.5758 347.723 14.1358 346.043 14.1358C344.843 14.1358 343.736 14.3891 342.723 14.8958C341.709 15.4025 340.816 16.0691 340.043 16.8958C339.269 17.7225 338.616 18.6691 338.083 19.7358C337.549 20.7758 337.163 21.8425 336.923 22.9358C336.709 24.0291 336.643 25.1091 336.723 26.1758C336.803 27.2158 337.056 28.1491 337.483 28.9758C337.909 29.8025 338.523 30.4691 339.323 30.9758C340.123 31.4825 341.123 31.7358 342.323 31.7358C343.096 31.7358 343.856 31.5891 344.603 31.2958C345.349 31.0025 346.043 30.6025 346.683 30.0958C347.349 29.5625 347.923 28.9358 348.403 28.2158C348.909 27.4958 349.296 26.7091 349.563 25.8558H352.083C351.203 28.3625 349.869 30.3225 348.083 31.7358C346.296 33.1225 344.229 33.8158 341.883 33.8158ZM354.025 40.8558C353.518 40.8291 353.132 40.8025 352.865 40.7758C352.598 40.7758 352.358 40.7358 352.145 40.6558L352.585 38.5358C352.878 38.5891 353.158 38.6291 353.425 38.6558C353.692 38.7091 353.972 38.7358 354.265 38.7358C354.825 38.7358 355.305 38.6558 355.705 38.4958C356.105 38.3358 356.465 38.1091 356.785 37.8158C357.105 37.5491 357.398 37.2158 357.665 36.8158C357.958 36.4158 358.265 35.9758 358.585 35.4958L359.945 33.1758L356.065 12.6158H358.745L361.825 30.2158L371.905 12.6158H374.425L360.425 36.3758C359.865 37.2558 359.358 37.9758 358.905 38.5358C358.478 39.1225 358.025 39.5758 357.545 39.8958C357.092 40.2425 356.585 40.4825 356.025 40.6158C355.492 40.7758 354.825 40.8558 354.025 40.8558ZM376.901 12.6158H379.221L378.381 16.5358H378.461C379.367 15.0958 380.554 13.9891 382.021 13.2158C383.514 12.4158 385.101 12.0158 386.781 12.0158C388.354 12.0158 389.661 12.3091 390.701 12.8958C391.741 13.4825 392.541 14.2825 393.101 15.2958C393.661 16.2825 393.981 17.4425 394.061 18.7758C394.167 20.0825 394.061 21.4691 393.741 22.9358C393.421 24.4291 392.941 25.8291 392.301 27.1358C391.661 28.4425 390.847 29.6025 389.861 30.6158C388.874 31.6025 387.741 32.3891 386.461 32.9758C385.181 33.5358 383.754 33.8158 382.181 33.8158C381.407 33.8158 380.674 33.7225 379.981 33.5358C379.287 33.3491 378.647 33.0691 378.061 32.6958C377.501 32.3225 377.034 31.8558 376.661 31.2958C376.287 30.7358 376.047 30.0825 375.941 29.3358H375.861L373.421 40.8558H370.901L376.901 12.6158ZM382.621 31.7358C383.821 31.7358 384.901 31.4825 385.861 30.9758C386.821 30.4425 387.661 29.7625 388.381 28.9358C389.101 28.1091 389.701 27.1758 390.181 26.1358C390.661 25.0691 391.007 24.0025 391.221 22.9358C391.461 21.8691 391.567 20.8158 391.541 19.7758C391.514 18.7091 391.314 17.7625 390.941 16.9358C390.567 16.1091 390.007 15.4425 389.261 14.9358C388.514 14.4025 387.541 14.1358 386.341 14.1358C384.927 14.1358 383.701 14.3758 382.661 14.8558C381.647 15.3358 380.781 15.9758 380.061 16.7758C379.341 17.5758 378.754 18.5091 378.301 19.5758C377.847 20.6425 377.487 21.7625 377.221 22.9358C377.007 24.0025 376.914 25.0691 376.941 26.1358C376.967 27.1758 377.181 28.1091 377.581 28.9358C377.981 29.7625 378.581 30.4425 379.381 30.9758C380.207 31.4825 381.287 31.7358 382.621 31.7358ZM393.789 31.1358H396.229C397.589 29.2958 398.763 27.1091 399.749 24.5758C400.763 22.0425 401.656 18.9625 402.429 15.3358L402.989 12.6158H416.869L412.949 31.1358H416.029L414.189 39.8158H411.669L413.069 33.2558H395.869L394.469 39.8158H391.989L393.789 31.1358ZM410.429 31.1358L413.909 14.7358H404.989L404.669 16.1758C403.949 19.6425 403.069 22.6291 402.029 25.1358C400.989 27.6158 399.923 29.6158 398.829 31.1358H410.429ZM422.642 12.6158H425.162L423.322 21.3758H435.042L436.882 12.6158H439.402L435.042 33.2558H432.522L434.562 23.4958H422.842L420.802 33.2558H418.282L422.642 12.6158ZM444.126 12.6158H446.646L444.886 20.8958H451.566C453.566 20.8958 455.033 21.4291 455.966 22.4958C456.926 23.5625 457.206 25.0691 456.806 27.0158C456.38 28.9625 455.46 30.4958 454.046 31.6158C452.66 32.7091 450.966 33.2558 448.966 33.2558H439.766L444.126 12.6158ZM448.806 31.1358C450.246 31.1358 451.446 30.7891 452.406 30.0958C453.366 29.4025 453.993 28.3758 454.286 27.0158C454.553 25.6558 454.353 24.6558 453.686 24.0158C453.02 23.3491 451.966 23.0158 450.526 23.0158H444.446L442.726 31.1358H448.806ZM463.726 12.6158H466.246L461.886 33.2558H459.366L463.726 12.6158ZM474.522 22.5358L469.242 12.6158H472.402L476.642 20.4558L484.042 12.6158H487.202L477.682 22.4958L483.442 33.2558H480.242L475.602 24.5758L467.402 33.2558H464.282L474.522 22.5358ZM505.833 33.8158C503.939 33.8158 502.446 33.4691 501.353 32.7758C500.286 32.0825 499.513 31.1625 499.033 30.0158C498.553 28.8691 498.326 27.5491 498.353 26.0558C498.379 24.5625 498.553 23.0158 498.873 21.4158C499.086 20.4291 499.339 19.4025 499.633 18.3358C499.953 17.2425 500.326 16.1758 500.753 15.1358C501.179 14.0691 501.659 13.0558 502.193 12.0958C502.726 11.1358 503.326 10.2691 503.993 9.4958C505.219 8.0558 506.553 7.02913 507.993 6.4158C509.433 5.80246 511.153 5.42913 513.153 5.2958L515.113 5.1758C516.179 5.12246 516.913 5.0158 517.313 4.8558C517.739 4.6958 518.059 4.44246 518.273 4.0958H521.073C520.619 5.32246 519.913 6.16246 518.953 6.6158C517.993 7.04246 516.619 7.30913 514.833 7.4158L511.753 7.6158C509.353 7.7758 507.379 8.6158 505.833 10.1358C504.286 11.6558 502.953 14.0158 501.833 17.2158H501.953C502.939 15.8291 504.193 14.7225 505.713 13.8958C507.259 13.0425 508.873 12.6158 510.553 12.6158C511.939 12.6158 513.153 12.8558 514.193 13.3358C515.233 13.8158 516.059 14.5091 516.673 15.4158C517.313 16.3225 517.713 17.4291 517.873 18.7358C518.059 20.0425 517.979 21.5091 517.633 23.1358C517.313 24.7358 516.779 26.2025 516.033 27.5358C515.286 28.8425 514.393 29.9625 513.353 30.8958C512.339 31.8291 511.193 32.5491 509.913 33.0558C508.633 33.5625 507.273 33.8158 505.833 33.8158ZM506.273 31.7358C507.286 31.7358 508.259 31.5358 509.193 31.1358C510.153 30.7091 511.019 30.1225 511.793 29.3758C512.593 28.6025 513.273 27.6958 513.833 26.6558C514.419 25.5891 514.846 24.4158 515.113 23.1358C515.379 21.8825 515.446 20.7358 515.313 19.6958C515.206 18.6558 514.913 17.7758 514.433 17.0558C513.979 16.3091 513.366 15.7358 512.593 15.3358C511.846 14.9091 510.979 14.6958 509.993 14.6958C508.926 14.6958 507.913 14.8958 506.953 15.2958C505.993 15.6958 505.113 16.2691 504.313 17.0158C503.539 17.7358 502.859 18.6158 502.273 19.6558C501.713 20.6958 501.299 21.8558 501.033 23.1358C500.766 24.4158 500.686 25.5891 500.793 26.6558C500.926 27.6958 501.219 28.6025 501.673 29.3758C502.153 30.1225 502.779 30.7091 503.553 31.1358C504.353 31.5358 505.259 31.7358 506.273 31.7358ZM523.579 12.6158H526.099L524.339 20.8958H531.019C533.019 20.8958 534.486 21.4291 535.419 22.4958C536.379 23.5625 536.659 25.0691 536.259 27.0158C535.833 28.9625 534.913 30.4958 533.499 31.6158C532.113 32.7091 530.419 33.2558 528.419 33.2558H519.219L523.579 12.6158ZM528.259 31.1358C529.699 31.1358 530.899 30.7891 531.859 30.0958C532.819 29.4025 533.446 28.3758 533.739 27.0158C534.006 25.6558 533.806 24.6558 533.139 24.0158C532.473 23.3491 531.419 23.0158 529.979 23.0158H523.899L522.179 31.1358H528.259ZM543.179 12.6158H545.699L541.339 33.2558H538.819L543.179 12.6158ZM555.215 14.7358H547.575L548.015 12.6158H565.815L565.375 14.7358H557.735L553.815 33.2558H551.295L555.215 14.7358ZM572.43 33.8158C570.856 33.8158 569.523 33.5358 568.43 32.9758C567.336 32.3891 566.47 31.6025 565.83 30.6158C565.216 29.6291 564.83 28.4825 564.67 27.1758C564.536 25.8425 564.63 24.4291 564.95 22.9358C565.27 21.4691 565.776 20.0691 566.47 18.7358C567.19 17.4025 568.07 16.2425 569.11 15.2558C570.15 14.2691 571.336 13.4825 572.67 12.8958C574.003 12.3091 575.456 12.0158 577.03 12.0158C578.603 12.0158 579.936 12.3091 581.03 12.8958C582.123 13.4825 582.976 14.2691 583.59 15.2558C584.203 16.2425 584.576 17.4025 584.71 18.7358C584.87 20.0691 584.79 21.4691 584.47 22.9358C584.15 24.4291 583.63 25.8425 582.91 27.1758C582.216 28.4825 581.35 29.6291 580.31 30.6158C579.296 31.6025 578.123 32.3891 576.79 32.9758C575.456 33.5358 574.003 33.8158 572.43 33.8158ZM572.87 31.7358C574.07 31.7358 575.176 31.4825 576.19 30.9758C577.203 30.4691 578.096 29.8025 578.87 28.9758C579.643 28.1491 580.296 27.2158 580.83 26.1758C581.363 25.1091 581.736 24.0291 581.95 22.9358C582.19 21.8425 582.27 20.7758 582.19 19.7358C582.11 18.6691 581.856 17.7225 581.43 16.8958C581.003 16.0691 580.39 15.4025 579.59 14.8958C578.79 14.3891 577.79 14.1358 576.59 14.1358C575.39 14.1358 574.283 14.3891 573.27 14.8958C572.256 15.4025 571.363 16.0691 570.59 16.8958C569.816 17.7225 569.163 18.6691 568.63 19.7358C568.096 20.7758 567.71 21.8425 567.47 22.9358C567.256 24.0291 567.19 25.1091 567.27 26.1758C567.35 27.2158 567.603 28.1491 568.03 28.9758C568.456 29.8025 569.07 30.4691 569.87 30.9758C570.67 31.4825 571.67 31.7358 572.87 31.7358ZM590.376 12.6158H599.816C601.923 12.6158 603.456 13.0291 604.416 13.8558C605.403 14.6825 605.723 15.8958 605.376 17.4958C605.11 18.7225 604.576 19.7491 603.776 20.5758C602.976 21.4025 601.99 21.9758 600.816 22.2958L600.776 22.3758C602.083 22.6158 603.03 23.1491 603.616 23.9758C604.23 24.8025 604.376 25.9758 604.056 27.4958C603.656 29.3625 602.723 30.7891 601.256 31.7758C599.816 32.7625 597.883 33.2558 595.456 33.2558H586.016L590.376 12.6158ZM595.616 31.1358C597.376 31.1358 598.736 30.8158 599.696 30.1758C600.683 29.5091 601.323 28.5225 601.616 27.2158C601.856 26.0158 601.616 25.0958 600.896 24.4558C600.203 23.8158 598.976 23.4958 597.216 23.4958H590.576L588.976 31.1358H595.616ZM597.656 21.5358C599.096 21.5358 600.243 21.2291 601.096 20.6158C601.976 20.0025 602.523 19.1758 602.736 18.1358C603.216 15.8691 602.003 14.7358 599.096 14.7358H592.456L591.016 21.5358H597.656ZM611.04 12.6158H613.56L611.8 20.8958H618.48C620.48 20.8958 621.947 21.4291 622.88 22.4958C623.84 23.5625 624.12 25.0691 623.72 27.0158C623.294 28.9625 622.374 30.4958 620.96 31.6158C619.574 32.7091 617.88 33.2558 615.88 33.2558H606.68L611.04 12.6158ZM615.72 31.1358C617.16 31.1358 618.36 30.7891 619.32 30.0958C620.28 29.4025 620.907 28.3758 621.2 27.0158C621.467 25.6558 621.267 24.6558 620.6 24.0158C619.934 23.3491 618.88 23.0158 617.44 23.0158H611.36L609.64 31.1358H615.72ZM630.64 12.6158H633.16L628.8 33.2558H626.28L630.64 12.6158ZM641.436 22.5358L636.156 12.6158H639.316L643.556 20.4558L650.956 12.6158H654.116L644.596 22.4958L650.356 33.2558H647.156L642.516 24.5758L634.316 33.2558H631.196L641.436 22.5358ZM668.267 12.6158H677.707C679.814 12.6158 681.347 13.0291 682.307 13.8558C683.294 14.6825 683.614 15.8958 683.267 17.4958C683 18.7225 682.467 19.7491 681.667 20.5758C680.867 21.4025 679.88 21.9758 678.707 22.2958L678.667 22.3758C679.974 22.6158 680.92 23.1491 681.507 23.9758C682.12 24.8025 682.267 25.9758 681.947 27.4958C681.547 29.3625 680.614 30.7891 679.147 31.7758C677.707 32.7625 675.774 33.2558 673.347 33.2558H663.907L668.267 12.6158ZM673.507 31.1358C675.267 31.1358 676.627 30.8158 677.587 30.1758C678.574 29.5091 679.214 28.5225 679.507 27.2158C679.747 26.0158 679.507 25.0958 678.787 24.4558C678.094 23.8158 676.867 23.4958 675.107 23.4958H668.467L666.867 31.1358H673.507ZM675.547 21.5358C676.987 21.5358 678.134 21.2291 678.987 20.6158C679.867 20.0025 680.414 19.1758 680.627 18.1358C681.107 15.8691 679.894 14.7358 676.987 14.7358H670.347L668.907 21.5358H675.547ZM692.771 33.8158C691.118 33.8158 689.758 33.5358 688.691 32.9758C687.651 32.3891 686.864 31.6025 686.331 30.6158C685.798 29.6025 685.478 28.4425 685.371 27.1358C685.291 25.8291 685.411 24.4291 685.731 22.9358C686.024 21.5758 686.491 20.2425 687.131 18.9358C687.771 17.6291 688.571 16.4691 689.531 15.4558C690.491 14.4158 691.624 13.5891 692.931 12.9758C694.238 12.3358 695.718 12.0158 697.371 12.0158C699.024 12.0158 700.371 12.3491 701.411 13.0158C702.451 13.6825 703.224 14.5625 703.731 15.6558C704.238 16.7225 704.491 17.9625 704.491 19.3758C704.518 20.7625 704.358 22.1758 704.011 23.6158H688.131C687.918 24.5491 687.838 25.4958 687.891 26.4558C687.944 27.4158 688.171 28.2825 688.571 29.0558C688.971 29.8291 689.544 30.4691 690.291 30.9758C691.038 31.4825 692.011 31.7358 693.211 31.7358C695.051 31.7358 696.584 31.2558 697.811 30.2958C699.064 29.3358 700.064 28.0558 700.811 26.4558H703.331C702.291 28.8025 700.918 30.6158 699.211 31.8958C697.531 33.1758 695.384 33.8158 692.771 33.8158ZM701.931 21.4958C702.118 20.5358 702.144 19.6158 702.011 18.7358C701.904 17.8558 701.638 17.0825 701.211 16.4158C700.811 15.7225 700.251 15.1758 699.531 14.7758C698.811 14.3491 697.944 14.1358 696.931 14.1358C695.891 14.1358 694.931 14.3491 694.051 14.7758C693.171 15.1758 692.371 15.7225 691.651 16.4158C690.958 17.0825 690.344 17.8691 689.811 18.7758C689.278 19.6558 688.864 20.5625 688.571 21.4958H701.931ZM732.433 33.2558H705.313L709.673 12.6158H712.193L708.273 31.1358H717.793L721.713 12.6158H724.233L720.313 31.1358H729.833L733.753 12.6158H736.273L732.353 31.1358H735.393L733.553 39.8158H731.033L732.433 33.2558ZM745.818 33.8158C744.164 33.8158 742.804 33.5358 741.738 32.9758C740.698 32.3891 739.911 31.6025 739.378 30.6158C738.844 29.6025 738.524 28.4425 738.418 27.1358C738.338 25.8291 738.458 24.4291 738.778 22.9358C739.071 21.5758 739.538 20.2425 740.178 18.9358C740.818 17.6291 741.618 16.4691 742.578 15.4558C743.538 14.4158 744.671 13.5891 745.978 12.9758C747.284 12.3358 748.764 12.0158 750.418 12.0158C752.071 12.0158 753.418 12.3491 754.458 13.0158C755.498 13.6825 756.271 14.5625 756.778 15.6558C757.284 16.7225 757.538 17.9625 757.538 19.3758C757.564 20.7625 757.404 22.1758 757.058 23.6158H741.178C740.964 24.5491 740.884 25.4958 740.938 26.4558C740.991 27.4158 741.218 28.2825 741.618 29.0558C742.018 29.8291 742.591 30.4691 743.338 30.9758C744.084 31.4825 745.058 31.7358 746.258 31.7358C748.098 31.7358 749.631 31.2558 750.858 30.2958C752.111 29.3358 753.111 28.0558 753.858 26.4558H756.378C755.338 28.8025 753.964 30.6158 752.258 31.8958C750.578 33.1758 748.431 33.8158 745.818 33.8158ZM754.978 21.4958C755.164 20.5358 755.191 19.6158 755.058 18.7358C754.951 17.8558 754.684 17.0825 754.258 16.4158C753.858 15.7225 753.298 15.1758 752.578 14.7758C751.858 14.3491 750.991 14.1358 749.978 14.1358C748.938 14.1358 747.978 14.3491 747.098 14.7758C746.218 15.1758 745.418 15.7225 744.698 16.4158C744.004 17.0825 743.391 17.8691 742.858 18.7758C742.324 19.6558 741.911 20.5625 741.618 21.4958H754.978ZM762.72 12.6158H765.24L761.48 30.2958L776.64 12.6158H779.76L775.4 33.2558H772.88L776.6 15.5758L761.48 33.2558H758.36L762.72 12.6158ZM771.8 9.5758C770.12 9.5758 768.907 9.1358 768.16 8.2558C767.44 7.34913 767.147 6.0558 767.28 4.3758H768.84C768.76 5.38913 769.013 6.18913 769.6 6.7758C770.187 7.36246 771.08 7.6558 772.28 7.6558C773.427 7.6558 774.427 7.3758 775.28 6.8158C776.133 6.22913 776.773 5.4158 777.2 4.3758H778.76C778.12 6.0558 777.213 7.34913 776.04 8.2558C774.893 9.1358 773.48 9.5758 771.8 9.5758Z" fill="black"/>
</g>
<defs>
<clipPath id="clip0_21_22">
<rect width="1920" height="58" fill="white"/>
</clipPath>
</defs>
</svg>
