<svg width="1020" height="650" viewBox="0 0 1020 650" fill="none" xmlns="http://www.w3.org/2000/svg">
<g clip-path="url(#clip0_21_25)">
<path d="M616.271 650V327.139L920.135 130.367V414.525L616.271 650Z" fill="#5B927F"/>
<path d="M616.271 650V327.139L99.0508 137.089V421.247L616.271 650Z" fill="#D4F570"/>
<path d="M920.135 130.367C920.135 130.367 843.661 94.3121 909.966 58.8687C976.271 23.4253 1020 0 1020 0L663.254 130.367C663.254 130.367 588.61 164.792 616.271 327.139L920.135 130.367Z" fill="white"/>
<path d="M99.0508 137.089C99.0508 137.089 135.051 110.201 88.8813 73.9423C42.7119 37.6841 0 7.53683 0 7.53683L451.729 120.997C451.729 120.997 585.152 125.274 616.271 326.935L99.0508 137.089Z" fill="#5B927F"/>
</g>
<defs>
<clipPath id="clip0_21_25">
<rect width="1020" height="650" fill="white"/>
</clipPath>
</defs>
</svg>
