<svg width="479" height="305" viewBox="0 0 479 305" fill="none" xmlns="http://www.w3.org/2000/svg">
<g clip-path="url(#clip0_22_365)">
<path d="M289.406 305V153.504L432.103 61.172V194.508L289.406 305Z" fill="#5B927F"/>
<path d="M289.406 305V153.504L46.5151 64.3262V197.662L289.406 305Z" fill="#D4F570"/>
<path d="M432.103 61.1721C432.103 61.1721 396.19 44.2542 427.327 27.623C458.465 10.9919 479 0 479 0L311.469 61.1721C311.469 61.1721 276.416 77.3253 289.406 153.504L432.103 61.1721Z" fill="white"/>
<path d="M46.5151 64.3262C46.5151 64.3262 63.4209 51.7095 41.7394 34.696C20.0578 17.6825 0 3.53651 0 3.53651L212.135 56.7753C212.135 56.7753 274.792 58.7825 289.406 153.408L46.5151 64.3262Z" fill="#5B927F"/>
</g>
<defs>
<clipPath id="clip0_22_365">
<rect width="479" height="305" fill="white"/>
</clipPath>
</defs>
</svg>
