<svg width="245" height="158" viewBox="0 0 245 158" fill="none" xmlns="http://www.w3.org/2000/svg">
<g clip-path="url(#clip0_22_388)">
<path d="M148.026 158V79.5199L221.013 31.6891V100.762L148.026 158Z" fill="#5B927F"/>
<path d="M148.026 158V79.5199L23.7916 33.3231V102.396L148.026 158Z" fill="#D4F570"/>
<path d="M221.013 31.6891C221.013 31.6891 202.644 22.9251 218.57 14.3096C234.497 5.69414 245 0 245 0L159.311 31.6891C159.311 31.6891 141.382 40.057 148.026 79.5199L221.013 31.6891Z" fill="white"/>
<path d="M23.7916 33.3231C23.7916 33.3231 32.4387 26.7872 21.349 17.9737C10.2592 9.16014 0 1.83203 0 1.83203L108.503 29.4115C108.503 29.4115 140.551 30.4513 148.026 79.4704L23.7916 33.3231Z" fill="#5B927F"/>
</g>
<defs>
<clipPath id="clip0_22_388">
<rect width="245" height="158" fill="white"/>
</clipPath>
</defs>
</svg>
