<?xml version="1.0" encoding="utf-8"?>
<!-- Generator: Adobe Illustrator 26.4.1, SVG Export Plug-In . SVG Version: 6.00 Build 0)  -->
<svg version="1.1" id="Слой_1" xmlns="http://www.w3.org/2000/svg" xmlns:xlink="http://www.w3.org/1999/xlink" x="0px" y="0px"
	 viewBox="0 0 1843 448" style="enable-background:new 0 0 1843 448;" xml:space="preserve">
<style type="text/css">
	.st0{clip-path:url(#SVGID_00000118358107258458683580000003027954418568704922_);}
	.st1{fill:#5B927F;}
	.st2{fill:#D4F570;}
	.st3{fill:#DF45A7;}
	.st4{fill:#FFFFFF;}
	.st5{stroke:#000000;stroke-miterlimit:10;}
</style>
<g>
	<defs>
		<rect id="SVGID_1_" width="1843" height="448"/>
	</defs>
	<clipPath id="SVGID_00000093872305383676027370000004996115439582203828_">
		<use xlink:href="#SVGID_1_"  style="overflow:visible;"/>
	</clipPath>
	<g style="clip-path:url(#SVGID_00000093872305383676027370000004996115439582203828_);">
		<path class="st1" d="M449.4,0H0v448h449.4V0z"/>
		<path d="M377.8,138.9c0,0-71.4-22.6-68.4,63c2.2,68.4-25.9,101.2-37.4,111.6l-25.3-173.2c0,0-7.3-17.2-40-26.9
			c0,0,5.2-37.5-23.1-23c-28.5,14.5-9.7,23.5-9.7,23.5s-56.4-3.9-50.2,33.6l-4.3,36c-12.3-10.9-52.6-41.2-79.6,3.5
			C8,239.2,19.9,373.6,96.2,381.4l-3.3,28.7c0,0,99.3,41.4,193.4,0l-2-13.5c31.4-5.4,52.1-94.4,50.2-170.6
			C332.4,145.2,377.8,138.9,377.8,138.9z M100.8,341c-18-7.6-50.6-30-44.3-90.7c7.4-70.3,47.8-49.3,59.9-41.4L100.8,341z"/>
		<path d="M320.3,46.2c-0.6,0.2-0.9,0.2-1.5,0.4c-0.6,0.2-1.1,0.2-1.7,0.2c-0.6,0-1.1,0.2-1.7,0.2c-1.9,0-3.2-0.4-3.9-1.3
			c-0.7-0.9-0.9-2.4-0.6-4.5l1.1-5.4h2.2l-1.1,5.7c-0.2,0.9-0.2,1.5,0,2c0.2,0.6,0.4,0.9,0.7,1.1c0.4,0.2,0.7,0.4,1.1,0.4
			c0.4,0,0.9,0,1.3,0c0.9,0,2-0.2,3.2-0.4c1.1-0.2,2-0.4,2.6-0.7l1.7-8.2h2.2l-3.9,18h-2.2l1.7-7.8C321.2,45.8,320.8,46,320.3,46.2z
			"/>
		<path d="M329,53.8c-0.7-0.2-1.3-0.6-1.7-0.9c-0.4-0.4-0.7-0.9-0.9-1.7c-0.2-0.7-0.2-1.5,0-2.4c0.4-1.3,0.7-2.2,1.5-3
			s1.5-1.3,2.6-1.7c1.1-0.4,2-0.6,3.3-0.7l3.5-0.4c0.4,0,0.9-0.2,1.3-0.2c0.4,0,0.7-0.2,0.9-0.4c0.4-0.2,0.6-0.4,0.7-0.7
			c0.2-0.4,0.4-0.7,0.4-1.1c0.2-0.7,0.2-1.3,0-1.9c-0.2-0.4-0.4-0.9-0.7-1.1c-0.4-0.4-0.9-0.6-1.3-0.6c-0.6-0.2-1.1-0.2-1.9-0.2
			c-1.5,0-2.6,0.4-3.7,0.9c-0.9,0.7-1.7,1.7-2,3.2h-2.2c0.6-2,1.7-3.7,3.2-4.6c1.5-0.9,3.3-1.5,5.4-1.5c0.7,0,1.5,0,2.4,0.2
			c0.7,0.2,1.5,0.4,2,0.9c0.6,0.4,0.9,0.9,1.1,1.7c0.2,0.7,0.2,1.7,0,3l-2,9.6c-0.2,0.9,0.2,1.3,0.9,1.3c0.4,0,0.6,0,0.7-0.2
			l-0.4,1.9l-0.7,0.2c-0.2,0-0.4,0-0.7,0c-0.6,0-0.9,0-1.3-0.2c-0.4-0.2-0.6-0.4-0.7-0.6c-0.2-0.4-0.2-0.6-0.2-0.9
			c0-0.4,0.2-0.7,0.2-1.3c-0.6,0.6-1.1,1.1-1.5,1.5c-0.6,0.4-1.1,0.9-1.7,1.1c-0.6,0.4-1.1,0.6-1.9,0.7c-0.7,0.2-1.5,0.2-2.4,0.2
			C330.5,54.1,329.6,54,329,53.8z M334.4,51.9c0.7-0.2,1.5-0.6,2.2-1.1c0.7-0.6,1.3-1.1,1.7-1.9c0.6-0.7,0.9-1.5,0.9-2.4l0.6-2.8
			c-0.2,0.2-0.6,0.4-0.9,0.6c-0.4,0.2-0.7,0.2-1.1,0.2c-0.9,0.2-2,0.4-3,0.4c-0.9,0.2-2,0.4-2.8,0.6c-0.9,0.2-1.7,0.6-2.2,1.1
			c-0.6,0.6-1.1,1.1-1.3,2c-0.2,0.6-0.2,1.1,0,1.5c0.2,0.4,0.4,0.7,0.7,1.1c0.4,0.4,0.7,0.6,1.1,0.7c0.4,0.2,0.9,0.2,1.5,0.2
			C332.7,52.3,333.5,52.1,334.4,51.9z"/>
		<path d="M360.5,35.6h2.8l-3.9,18h-2.2l3.3-15.4l-13.2,15.4h-2.8l3.9-18h2.2L347.2,51L360.5,35.6z M353,31.7
			c-0.7-0.7-0.9-1.9-0.7-3.3h1.3c0,0.9,0.2,1.5,0.7,2c0.6,0.6,1.3,0.7,2.4,0.7c0.9,0,1.9-0.2,2.6-0.7c0.7-0.6,1.3-1.1,1.7-2h1.3
			c-0.6,1.5-1.3,2.6-2.4,3.3c-0.9,0.7-2.2,1.1-3.7,1.1S353.8,32.5,353,31.7z"/>
		<path d="M378.3,43.2l1.7-7.6h2.2l-3.9,18h-2.2l1.9-8.5h-10.2l-1.9,8.5h-2.2l3.9-18h2.2l-1.7,7.6H378.3L378.3,43.2z"/>
		<path d="M398.4,35.6h2.8l-3.9,18H395l3.3-15.4l-13.2,15.4h-2.8l3.9-18h2.2L385.2,51L398.4,35.6z"/>
		<path d="M417.6,35.6h3l-9.1,7l5.8,10.9h-2.8l-5-9.5l-4.5,3.3l-1.3,6.1h-2.2l3.9-18h2.2l-2,9.3L417.6,35.6z"/>
		<path d="M322.3,69.7L308,98.6h-2l14.3-28.9H322.3z"/>
		<path d="M332,69.7l-14.3,28.9h-2L330,69.7H332z"/>
		<path d="M354.1,78.6c0.9,0.7,1.1,1.9,0.7,3.2c-0.2,1.1-0.7,2-1.5,2.8c-0.7,0.7-1.5,1.3-2.6,1.5c1.1,0.2,2,0.7,2.6,1.5
			c0.6,0.7,0.6,1.7,0.4,3.2c-0.4,1.7-1.1,2.8-2.4,3.7c-1.3,0.9-3,1.3-5.2,1.3h-8.2l3.9-18h8.2C352.1,77.5,353.4,77.9,354.1,78.6z
			 M350,92.7c0.9-0.6,1.5-1.5,1.7-2.6c0.2-1.1,0-1.9-0.6-2.4c-0.6-0.6-1.7-0.9-3.3-0.9H342l-1.5,6.7h5.8
			C348,93.6,349.1,93.5,350,92.7z M351.3,84.6c0.7-0.6,1.3-1.3,1.5-2.2c0.4-2-0.6-3-3.2-3h-5.8l-1.3,5.9h5.8
			C349.5,85.3,350.6,84.9,351.3,84.6z"/>
		<path d="M372.2,77.5h2.8l-3.9,18h-2.2l3.3-15.4L359,95.5h-2.8l3.9-18h2.2L359,92.9L372.2,77.5z"/>
		<path d="M379.1,87.9c0.9-2.2,1.7-4.8,2.2-8.2l0.6-2.4h12.1l-3.3,16.1h2.8l-1.7,7.6h-2.2l1.3-5.7h-15.1l-1.3,5.7h-2.2l1.5-7.6h2
			C377,92,378.1,90.1,379.1,87.9z M383.3,80.7c-0.6,3-1.5,5.6-2.2,7.8c-0.9,2.2-1.9,3.9-2.8,5.2h10.2l3-14.3h-7.8L383.3,80.7z"/>
		<path d="M414,75.5c0.7-0.2,1.5-0.4,2-0.7c0.6-0.4,1.1-0.7,1.7-1.5c0.6-0.6,0.9-1.5,1.5-2.4h1.9l-5.2,24.7h-2.2l3.9-18.4H411
			l0.4-1.5C412.3,75.7,413.1,75.5,414,75.5z"/>
		<path d="M33.1,29.9h1.5v9.5h-1.1v-7.8l-3.3,7.8H29l-3.3-7.8v7.8h-1.1v-9.5H26l3.5,8.2L33.1,29.9z"/>
		<path d="M38.3,39.5c-0.4-0.2-0.7-0.2-0.9-0.6c-0.4-0.2-0.6-0.6-0.7-0.9c-0.2-0.4-0.2-0.7-0.2-1.3c0-0.7,0.2-1.1,0.4-1.5
			c0.4-0.4,0.7-0.6,1.1-0.9c0.6-0.2,1.1-0.4,1.7-0.4l1.9-0.2c0.2,0,0.4,0,0.6,0s0.4-0.2,0.4-0.2c0.2,0,0.2-0.2,0.4-0.4
			c0-0.2,0-0.4,0-0.6c0-0.4,0-0.7-0.2-0.9s-0.4-0.4-0.6-0.6c-0.2-0.2-0.6-0.2-0.7-0.4c-0.4,0-0.6,0-0.9,0c-0.7,0-1.3,0.2-1.9,0.6
			c-0.4,0.4-0.7,0.9-0.7,1.7h-1.1c0-1.1,0.4-1.9,1.1-2.4c0.7-0.6,1.7-0.7,2.8-0.7c0.4,0,0.7,0,1.3,0.2c0.4,0,0.7,0.2,1.1,0.4
			c0.4,0.2,0.6,0.6,0.7,0.9c0.2,0.4,0.4,0.9,0.4,1.5v5c0,0.4,0.2,0.7,0.7,0.7c0.2,0,0.2,0,0.4,0v0.9h-0.4c-0.2,0-0.2,0-0.4,0
			c-0.4,0-0.6,0-0.7-0.2c-0.2,0-0.4-0.2-0.4-0.4c0-0.2-0.2-0.4-0.2-0.6c0-0.2,0-0.4,0-0.7c-0.2,0.4-0.4,0.6-0.6,0.7
			c-0.2,0.2-0.4,0.4-0.7,0.6c-0.2,0.2-0.6,0.2-0.9,0.4c-0.4,0-0.7,0.2-1.1,0.2C39.2,39.7,38.7,39.7,38.3,39.5z M40.9,38.6
			c0.4-0.2,0.7-0.4,1.1-0.6c0.4-0.2,0.6-0.6,0.7-0.9c0.2-0.4,0.2-0.7,0.2-1.3v-1.5c0,0.2-0.2,0.2-0.4,0.4c-0.2,0.2-0.4,0.2-0.6,0.2
			c-0.6,0-0.9,0.2-1.5,0.2c-0.6,0-0.9,0.2-1.5,0.4c-0.4,0.2-0.7,0.4-1.1,0.6c-0.2,0.2-0.4,0.6-0.4,1.1c0,0.4,0,0.6,0.2,0.7
			c0.2,0.2,0.2,0.4,0.4,0.6c0.2,0.2,0.4,0.4,0.7,0.4c0.2,0,0.6,0.2,0.7,0.2C40.2,38.8,40.5,38.6,40.9,38.6z"/>
		<path d="M53.6,29.9v0.9H50v8.5h-1.1v-8.5h-3.5v-0.9H53.6z"/>
		<path d="M56.5,39.3c-0.6-0.2-0.9-0.6-1.3-1.1c-0.4-0.4-0.6-0.9-0.7-1.7c-0.2-0.6-0.2-1.3-0.2-1.9c0-0.6,0-1.3,0.2-1.9
			c0.2-0.6,0.4-1.1,0.7-1.7c0.4-0.4,0.7-0.9,1.3-1.1c0.6-0.2,1.1-0.4,2-0.4c0.7,0,1.5,0.2,2,0.4c0.6,0.4,0.9,0.7,1.3,1.1
			c0.4,0.6,0.6,1.1,0.7,1.7c0.2,0.6,0.2,1.3,0.2,2h-7.4c0,0.4,0,0.9,0.2,1.3c0.2,0.4,0.4,0.9,0.6,1.1c0.2,0.4,0.6,0.6,0.9,0.9
			c0.4,0.2,0.9,0.4,1.5,0.4c0.9,0,1.5-0.2,2-0.7c0.6-0.4,0.7-1.1,0.9-1.9h1.1c-0.2,1.1-0.7,1.9-1.3,2.6c-0.7,0.6-1.7,0.9-2.8,0.9
			C57.8,39.7,57.1,39.5,56.5,39.3z M61.4,32.6c-0.2-0.4-0.4-0.7-0.6-1.1c-0.2-0.4-0.6-0.6-0.9-0.7c-0.4-0.2-0.7-0.2-1.3-0.2
			c-0.6,0-0.9,0-1.3,0.2c-0.4,0.2-0.7,0.4-0.9,0.7c-0.2,0.4-0.6,0.7-0.6,1.1c-0.2,0.4-0.2,0.9-0.4,1.3h6.1
			C61.6,33.6,61.6,33.2,61.4,32.6z"/>
		<path d="M65.5,31.7c0.2-0.7,0.7-1.1,1.3-1.5c0.6-0.4,1.3-0.6,2-0.6c0.7,0,1.3,0.2,1.9,0.4c0.6,0.2,0.9,0.6,1.3,1.1
			c0.4,0.4,0.6,0.9,0.7,1.7c0.2,0.6,0.2,1.3,0.2,1.9c0,0.7,0,1.3-0.2,1.9c-0.2,0.6-0.4,1.1-0.7,1.7c-0.4,0.4-0.7,0.7-1.3,1.1
			c-0.6,0.2-1.1,0.4-1.9,0.4c-0.4,0-0.7,0-1.1-0.2c-0.4,0-0.7-0.2-0.9-0.4c-0.4-0.2-0.6-0.4-0.7-0.6c-0.2-0.2-0.4-0.6-0.6-0.9V43
			h-1.1V30h1.1V31.7z M70.3,38.4c0.4-0.2,0.7-0.6,0.9-0.9c0.2-0.4,0.4-0.7,0.6-1.3c0.2-0.6,0.2-0.9,0.2-1.5c0-0.6,0-0.9-0.2-1.5
			c-0.2-0.6-0.4-0.9-0.6-1.3c-0.2-0.4-0.6-0.7-0.9-0.9s-0.9-0.4-1.5-0.4s-1.1,0.2-1.7,0.4c-0.4,0.2-0.7,0.6-1.1,0.9
			c-0.4,0.4-0.4,0.7-0.6,1.3c-0.2,0.6-0.2,0.9-0.2,1.5c0,0.6,0,0.9,0.2,1.5c0.2,0.6,0.4,0.9,0.6,1.3c0.2,0.4,0.6,0.7,1.1,0.9
			c0.4,0.2,0.9,0.4,1.5,0.4C69.4,38.8,69.9,38.6,70.3,38.4z"/>
		<path d="M81.5,29.9H83v9.5h-1.1v-8.2l-5.2,8.2h-1.5v-9.5h1.1V38L81.5,29.9z"/>
		<path d="M86.5,39.5c-0.4-0.2-0.7-0.2-0.9-0.6c-0.4-0.2-0.6-0.6-0.7-0.9c-0.2-0.4-0.2-0.7-0.2-1.3c0-0.7,0.2-1.1,0.4-1.5
			c0.4-0.4,0.7-0.6,1.1-0.9c0.6-0.2,1.1-0.4,1.7-0.4l1.9-0.2c0.2,0,0.4,0,0.6,0c0.2,0,0.4-0.2,0.4-0.2c0.2,0,0.2-0.2,0.4-0.4
			c0-0.2,0-0.4,0-0.6c0-0.4,0-0.7-0.2-0.9c-0.2-0.2-0.4-0.4-0.6-0.6C90,31,89.6,31,89.5,30.8c-0.4,0-0.6,0-0.9,0
			c-0.7,0-1.3,0.2-1.9,0.6c-0.4,0.4-0.7,0.9-0.7,1.7h-1.1c0-1.1,0.4-1.9,1.1-2.4c0.7-0.6,1.7-0.7,2.8-0.7c0.4,0,0.7,0,1.3,0.2
			c0.4,0,0.7,0.2,1.1,0.4c0.4,0.2,0.6,0.6,0.7,0.9c0.2,0.4,0.4,0.9,0.4,1.5v5c0,0.4,0.2,0.7,0.7,0.7c0.2,0,0.2,0,0.4,0v0.9H93
			c-0.2,0-0.2,0-0.4,0c-0.4,0-0.6,0-0.7-0.2c-0.2,0-0.4-0.2-0.4-0.4c0-0.2-0.2-0.4-0.2-0.6c0-0.2,0-0.4,0-0.7
			c-0.2,0.4-0.4,0.6-0.6,0.7c-0.2,0.2-0.4,0.4-0.7,0.6c-0.2,0.2-0.6,0.2-0.9,0.4c-0.4,0-0.7,0.2-1.1,0.2
			C87.2,39.7,86.9,39.7,86.5,39.5z M89.1,38.6c0.4-0.2,0.7-0.4,1.1-0.6c0.4-0.2,0.6-0.6,0.7-0.9c0.2-0.4,0.2-0.7,0.2-1.3v-1.5
			c0,0.2-0.2,0.2-0.4,0.4c-0.2,0-0.4,0.2-0.6,0.2c-0.6,0-0.9,0.2-1.5,0.2c-0.6,0-0.9,0.2-1.5,0.4c-0.4,0.2-0.7,0.4-1.1,0.6
			c-0.2,0.2-0.4,0.6-0.4,1.1c0,0.4,0,0.6,0.2,0.7c0.2,0.2,0.2,0.4,0.4,0.6c0.2,0.2,0.4,0.4,0.7,0.4c0.2,0,0.6,0.2,0.7,0.2
			C88.3,38.8,88.7,38.6,89.1,38.6z"/>
		<path d="M94.3,39.5h-0.2h-0.2h-0.2v-0.9c0,0,0.2,0,0.4,0c0.2,0,0.4,0,0.6,0c0.2,0,0.2,0,0.4,0c0.2,0,0.4-0.2,0.4-0.4
			c0.2-0.2,0.4-0.4,0.4-0.7c0.2-0.4,0.2-0.9,0.4-1.5c0-0.6,0.2-1.5,0.2-2.4c0-0.9,0-2.2,0-3.5h6.3v9.5h-1.1V31h-4.1
			c0,1.3,0,2.6-0.2,3.5c0,0.9-0.2,1.7-0.4,2.4c-0.2,0.6-0.4,1.1-0.6,1.5c-0.2,0.4-0.4,0.6-0.6,0.7c-0.2,0.2-0.6,0.4-0.7,0.4
			C94.9,39.5,94.5,39.5,94.3,39.5C94.5,39.5,94.5,39.5,94.3,39.5z"/>
		<path d="M107.3,31.9H106v-1.7h1.3V31.9z M107.3,39.5H106v-1.7h1.3V39.5z"/>
		<path d="M26.6,61.4c-0.6-0.2-1.1-0.6-1.5-1.1c-0.4-0.4-0.7-0.9-0.9-1.7c-0.2-0.6-0.4-1.3-0.4-1.9s0-1.3,0.4-1.9
			c0.2-0.6,0.6-1.1,0.9-1.7c0.4-0.4,0.9-0.7,1.5-1.1c0.6-0.2,1.1-0.4,1.9-0.4c0.9,0,1.9,0.2,2.6,0.7c0.7,0.6,1.1,1.3,1.3,2.4h-1.1
			c-0.2-0.7-0.4-1.3-0.9-1.7c-0.4-0.4-1.1-0.6-1.9-0.6c-0.6,0-1.1,0.2-1.5,0.4c-0.4,0.2-0.7,0.6-1.1,0.9c-0.2,0.4-0.6,0.7-0.6,1.3
			c-0.2,0.6-0.2,0.9-0.2,1.5s0,0.9,0.2,1.5s0.4,0.9,0.6,1.3c0.2,0.4,0.6,0.7,1.1,0.9c0.4,0.2,0.9,0.4,1.5,0.4c0.4,0,0.7,0,0.9-0.2
			c0.4-0.2,0.6-0.4,0.9-0.6c0.2-0.2,0.4-0.6,0.6-0.9c0.2-0.4,0.2-0.7,0.4-1.1h1.1c-0.2,1.1-0.6,2-1.3,2.8c-0.7,0.6-1.5,0.9-2.6,0.9
			C27.9,61.7,27.2,61.7,26.6,61.4z"/>
		<path d="M41.3,52.1V53h-3.5v8.5h-1.1V53h-3.5v-0.9H41.3z"/>
		<path d="M44.3,61.4c-0.6-0.2-0.9-0.6-1.3-1.1c-0.4-0.4-0.6-0.9-0.7-1.7C42,58,42,57.3,42,56.7s0-1.3,0.2-1.9
			c0.2-0.6,0.4-1.1,0.7-1.7c0.4-0.4,0.7-0.9,1.3-1.1c0.6-0.2,1.1-0.4,2-0.4c0.9,0,1.5,0.2,2,0.4c0.6,0.4,0.9,0.7,1.3,1.1
			c0.4,0.6,0.6,1.1,0.7,1.7c0.2,0.6,0.2,1.3,0.2,2h-7.4c0,0.4,0,0.9,0.2,1.3c0.2,0.4,0.4,0.9,0.6,1.1c0.2,0.4,0.6,0.6,0.9,0.9
			c0.4,0.2,0.9,0.4,1.5,0.4c0.9,0,1.5-0.2,2-0.7c0.6-0.4,0.7-1.1,0.9-1.9h1.1c-0.2,1.1-0.7,1.9-1.3,2.6c-0.7,0.6-1.7,0.9-2.8,0.9
			C45.4,61.7,44.8,61.7,44.3,61.4z M48.9,54.9c-0.2-0.4-0.4-0.7-0.6-1.1c-0.2-0.4-0.6-0.6-0.9-0.7c-0.4-0.2-0.7-0.2-1.3-0.2
			c-0.6,0-0.9,0-1.3,0.2c-0.4,0.2-0.7,0.4-0.9,0.7c-0.2,0.4-0.4,0.7-0.6,1.1c-0.2,0.4-0.2,0.9-0.4,1.3h6.1
			C49.3,55.6,49.1,55.3,48.9,54.9z"/>
		<path d="M58.4,52.1h1.5l-4.1,3.7l4.3,5.7h-1.5l-3.7-5L53,58.4v3.2h-1.1v-9.5H53v4.8L58.4,52.1z"/>
		<path d="M60.8,61.6h-0.2h-0.2h-0.2v-0.9c0,0,0.2,0,0.4,0c0.2,0,0.4,0,0.6,0s0.2,0,0.4,0s0.4-0.2,0.4-0.4c0.2-0.2,0.4-0.4,0.4-0.7
			c0.2-0.4,0.2-0.9,0.4-1.5c0-0.6,0.2-1.5,0.2-2.4c0-0.9,0-2.2,0-3.5h6.3v9.5h-1.1V53H64c0,1.3,0,2.6-0.2,3.5c0,0.9-0.2,1.7-0.4,2.4
			c-0.2,0.6-0.4,1.1-0.6,1.5c-0.2,0.4-0.4,0.6-0.6,0.7c-0.2,0.2-0.6,0.4-0.7,0.4S61,61.6,60.8,61.6C61,61.6,61,61.6,60.8,61.6z"/>
		<path d="M73.8,61.4c-0.6-0.2-1.1-0.6-1.5-1.1c-0.4-0.4-0.7-0.9-0.9-1.7C71.2,58,71,57.3,71,56.7s0-1.3,0.4-1.9
			c0.2-0.6,0.6-1.1,0.9-1.7c0.4-0.4,0.9-0.7,1.5-1.1c0.6-0.2,1.1-0.4,1.9-0.4c0.7,0,1.3,0.2,1.9,0.4c0.6,0.2,0.9,0.6,1.5,1.1
			c0.4,0.4,0.7,0.9,0.9,1.7c0.2,0.6,0.4,1.3,0.4,1.9s0,1.3-0.4,1.9c-0.2,0.6-0.6,1.1-0.9,1.7c-0.4,0.4-0.9,0.7-1.5,1.1
			c-0.6,0.2-1.3,0.4-1.9,0.4C75,61.7,74.4,61.7,73.8,61.4z M77.2,60.5c0.4-0.2,0.7-0.6,1.1-0.9c0.2-0.4,0.6-0.7,0.6-1.3
			c0.2-0.6,0.2-0.9,0.2-1.5s0-0.9-0.2-1.5c-0.2-0.6-0.4-0.9-0.6-1.3c-0.2-0.4-0.6-0.7-1.1-0.9c-0.4-0.2-0.9-0.4-1.5-0.4
			c-0.6,0-1.1,0.2-1.5,0.4c-0.4,0.2-0.7,0.6-1.1,0.9c-0.2,0.4-0.6,0.7-0.6,1.3c-0.2,0.6-0.2,0.9-0.2,1.5s0,0.9,0.2,1.5
			c0.2,0.6,0.4,0.9,0.6,1.3c0.2,0.4,0.6,0.7,1.1,0.9c0.4,0.2,0.9,0.4,1.5,0.4C76.3,60.8,76.8,60.8,77.2,60.5z"/>
		<path d="M25.7,96.4v8.5h5.2v-8.5H32v8.5h1.5v4.1h-1.1v-3h-7.8v-9.6H25.7z"/>
		<path d="M41.3,97c0.6,0.4,0.7,0.9,0.7,1.7c0,0.6-0.2,1.1-0.4,1.5c-0.4,0.4-0.7,0.6-1.3,0.7c0.6,0.2,1.1,0.4,1.5,0.7
			c0.4,0.4,0.6,0.9,0.6,1.7c0,0.9-0.4,1.5-0.9,2c-0.6,0.4-1.5,0.7-2.6,0.7h-4.3v-9.6h4.5C40.2,96.4,40.9,96.6,41.3,97z M40.5,99.9
			c0.4-0.2,0.6-0.7,0.6-1.1c0-1.1-0.7-1.5-2-1.5h-3.2v3.2h3.2C39.6,100.5,40.2,100.3,40.5,99.9z M40.7,104.4
			c0.4-0.4,0.6-0.7,0.6-1.3c0-0.6-0.2-0.9-0.6-1.3c-0.4-0.4-0.9-0.4-1.9-0.4h-3.2v3.5h3.3C39.8,105,40.4,104.8,40.7,104.4z"/>
		<path d="M46.1,105.7c-0.6-0.2-0.9-0.6-1.3-1.1c-0.4-0.4-0.6-0.9-0.7-1.7c-0.2-0.6-0.2-1.3-0.2-1.9c0-0.6,0-1.3,0.2-1.9
			c0.2-0.6,0.4-1.1,0.7-1.7c0.4-0.4,0.7-0.9,1.3-1.1c0.6-0.2,1.1-0.4,2-0.4c0.7,0,1.5,0.2,2,0.4c0.6,0.4,0.9,0.7,1.3,1.1
			c0.4,0.6,0.6,1.1,0.7,1.7s0.2,1.3,0.2,2H45c0,0.4,0,0.9,0.2,1.3c0.2,0.4,0.4,0.9,0.6,1.1c0.2,0.4,0.6,0.6,0.9,0.9
			c0.4,0.2,0.9,0.4,1.5,0.4c0.9,0,1.5-0.2,2-0.7c0.6-0.4,0.7-1.1,0.9-1.9h1.1c-0.2,1.1-0.7,1.9-1.3,2.6c-0.7,0.6-1.7,0.9-2.8,0.9
			C47.4,106.1,46.7,106.1,46.1,105.7z M51,99.2c-0.2-0.4-0.4-0.7-0.6-1.1c-0.2-0.4-0.6-0.6-0.9-0.7c-0.4-0.2-0.7-0.2-1.3-0.2
			s-0.9,0-1.3,0.2c-0.4,0.2-0.7,0.4-0.9,0.7c-0.2,0.4-0.4,0.7-0.6,1.1c-0.2,0.4-0.2,0.9-0.4,1.3h6.1C51.1,99.9,51.1,99.6,51,99.2z"
			/>
		<path d="M61,96.4v0.9h-3.5v8.5h-1.1v-8.5h-3.5v-0.9H61z"/>
		<path d="M64.4,98.5h-1.3v-1.7h1.3V98.5z M64.4,105.9h-1.3v-1.7h1.3V105.9z"/>
		<path d="M29.8,124.1c-0.2,0-0.6,0.2-0.7,0.2c-0.2,0-0.6,0.2-0.9,0.2s-0.6,0-0.9,0c-0.9,0-1.7-0.2-2.2-0.7
			c-0.4-0.4-0.7-1.3-0.7-2.2v-3h1.1v3c0,0.4,0,0.7,0.2,1.1c0.2,0.2,0.4,0.4,0.6,0.6c0.2,0.2,0.4,0.2,0.7,0.2c0.2,0,0.6,0,0.7,0
			c0.6,0,1.1,0,1.7-0.2c0.6-0.2,0.9-0.2,1.3-0.4v-4.3h1.1v9.5h-1.1v-4.1C30.1,123.9,29.9,124.1,29.8,124.1z"/>
		<path d="M35.7,127.9c-0.6-0.2-0.9-0.6-1.3-1.1c-0.4-0.4-0.6-0.9-0.7-1.7c-0.2-0.6-0.2-1.3-0.2-1.9c0-0.6,0-1.3,0.2-1.9
			s0.4-1.1,0.7-1.7c0.4-0.4,0.7-0.9,1.3-1.1c0.6-0.2,1.1-0.4,2-0.4c0.7,0,1.5,0.2,2,0.4c0.6,0.4,0.9,0.7,1.3,1.1
			c0.4,0.6,0.6,1.1,0.7,1.7s0.2,1.3,0.2,2h-7.4c0,0.4,0,0.9,0.2,1.3c0.2,0.4,0.4,0.9,0.6,1.1c0.2,0.4,0.6,0.6,0.9,0.9
			c0.4,0.2,0.9,0.4,1.5,0.4c0.9,0,1.5-0.2,2-0.7c0.6-0.4,0.7-1.1,0.9-1.9h1.1c-0.2,1.1-0.7,1.9-1.3,2.6c-0.7,0.6-1.7,0.9-2.8,0.9
			C36.8,128.3,36.3,128.1,35.7,127.9z M40.4,121.3c-0.2-0.4-0.4-0.7-0.6-1.1c-0.2-0.4-0.6-0.6-0.9-0.7c-0.4-0.2-0.7-0.2-1.3-0.2
			c-0.6,0-0.9,0-1.3,0.2c-0.4,0.2-0.7,0.4-0.9,0.7c-0.2,0.4-0.4,0.7-0.6,1.1c-0.2,0.4-0.2,0.9-0.4,1.3h6.1
			C40.5,122.2,40.5,121.6,40.4,121.3z"/>
		<path d="M44.5,120.3c0.2-0.7,0.7-1.1,1.3-1.5s1.3-0.6,2-0.6c0.7,0,1.3,0.2,1.9,0.4c0.6,0.2,0.9,0.6,1.3,1.1
			c0.4,0.4,0.6,0.9,0.7,1.7c0.2,0.6,0.2,1.3,0.2,1.9c0,0.7,0,1.3-0.2,1.9c-0.2,0.6-0.4,1.1-0.7,1.7c-0.4,0.4-0.7,0.7-1.3,1.1
			c-0.6,0.2-1.1,0.4-1.9,0.4c-0.4,0-0.7,0-1.1-0.2c-0.4,0-0.7-0.2-0.9-0.4c-0.4-0.2-0.6-0.4-0.7-0.6c-0.2-0.2-0.4-0.6-0.6-0.9v5.4
			h-1.1v-13h1.1V120.3z M49.3,127c0.4-0.2,0.7-0.6,0.9-0.9c0.2-0.4,0.4-0.7,0.6-1.3c0.2-0.6,0.2-0.9,0.2-1.5c0-0.6,0-0.9-0.2-1.5
			s-0.4-0.9-0.6-1.3c-0.2-0.4-0.6-0.7-0.9-0.9c-0.4-0.2-0.9-0.4-1.5-0.4c-0.6,0-1.1,0.2-1.7,0.4c-0.4,0.2-0.7,0.6-1.1,0.9
			c-0.2,0.4-0.4,0.7-0.6,1.3c-0.2,0.6-0.2,0.9-0.2,1.5c0,0.6,0,0.9,0.2,1.5c0.2,0.6,0.4,0.9,0.6,1.3c0.2,0.4,0.6,0.7,1.1,0.9
			c0.4,0.2,0.9,0.4,1.5,0.4C48.5,127.4,48.9,127.2,49.3,127z"/>
		<path d="M60.6,122.6v-4.1h1.1v9.5h-1.1v-4.4h-5.4v4.4h-1.3v-9.5h1.1v4.1H60.6z"/>
		<path d="M68.3,122.4c0.9,0,1.7,0.2,2.2,0.7c0.6,0.6,0.7,1.1,0.7,2c0,0.9-0.2,1.7-0.7,2c-0.6,0.6-1.3,0.7-2.2,0.7H64v-9.5h1.1v3.9
			H68.3z M69.6,126.5c0.4-0.4,0.6-0.7,0.6-1.5c0-0.6-0.2-1.1-0.6-1.5c-0.4-0.4-0.9-0.4-1.5-0.4h-3v3.7h2.8
			C68.6,127,69,126.8,69.6,126.5z M72.9,127.9v-9.5H74v9.5H72.9z"/>
		<path d="M82.8,118.5h1.5v9.5h-1.1v-8.2l-5.4,8.2h-1.5v-9.5h1.1v8.2L82.8,118.5z M78.5,116.4c-0.4-0.4-0.7-0.9-0.7-1.9h0.7
			c0,0.4,0.2,0.7,0.6,1.1c0.4,0.2,0.7,0.4,1.3,0.4s0.9-0.2,1.3-0.4c0.4-0.2,0.6-0.6,0.6-1.1H83c-0.2,0.7-0.4,1.3-0.9,1.9
			c-0.4,0.4-1.1,0.6-1.9,0.6C79.4,117,78.9,116.8,78.5,116.4z"/>
		<path class="st2" d="M913.7,0H464.3v448h449.4V0z"/>
		<path d="M793.9,374.8c-0.6,0.2-0.9,0.2-1.5,0.4c-0.6,0.2-1.1,0.2-1.7,0.2c-0.6,0-1.1,0.2-1.7,0.2c-1.9,0-3.2-0.4-3.9-1.3
			s-0.9-2.4-0.6-4.5l1.1-5.4h2.2l-1.1,5.7c-0.2,0.9-0.2,1.5,0,2c0.2,0.6,0.4,0.9,0.7,1.1c0.4,0.2,0.7,0.4,1.1,0.4s0.9,0,1.3,0
			c0.9,0,2-0.2,3.2-0.4c1.1-0.2,2-0.4,2.6-0.7l1.7-8.2h2.2l-3.9,18h-2.2l1.7-7.8C794.8,374.6,794.5,374.6,793.9,374.8z"/>
		<path d="M802.6,382.4c-0.7-0.2-1.3-0.6-1.7-0.9c-0.4-0.4-0.7-0.9-0.9-1.7c-0.2-0.7-0.2-1.5,0-2.4c0.4-1.3,0.7-2.2,1.5-3
			s1.5-1.3,2.6-1.7c0.9-0.4,2-0.6,3.3-0.7l3.5-0.4c0.4,0,0.9-0.2,1.3-0.2c0.4,0,0.7-0.2,0.9-0.4c0.4-0.2,0.6-0.4,0.7-0.7
			c0.2-0.4,0.4-0.7,0.4-1.1c0.2-0.7,0.2-1.3,0-1.9c-0.2-0.4-0.4-0.9-0.7-1.1c-0.4-0.4-0.9-0.6-1.3-0.6c-0.6-0.2-1.1-0.2-1.9-0.2
			c-1.5,0-2.6,0.4-3.7,0.9c-0.9,0.7-1.7,1.7-2,3.2h-2.2c0.6-2,1.7-3.7,3.2-4.6c1.5-0.9,3.3-1.5,5.4-1.5c0.7,0,1.5,0,2.4,0.2
			c0.7,0.2,1.5,0.4,2,0.9c0.6,0.4,0.9,0.9,1.1,1.7c0.2,0.7,0.2,1.7,0,3l-2,9.6c-0.2,0.9,0.2,1.3,0.9,1.3c0.4,0,0.6,0,0.7-0.2
			l-0.4,1.9l-0.7,0.2c-0.2,0-0.4,0-0.7,0c-0.6,0-0.9,0-1.3-0.2c-0.4-0.2-0.6-0.4-0.7-0.6c-0.2-0.4-0.2-0.6-0.2-0.9s0.2-0.7,0.2-1.3
			c-0.6,0.6-1.1,1.1-1.5,1.5c-0.6,0.4-1.1,0.9-1.7,1.1c-0.6,0.4-1.1,0.6-1.9,0.7c-0.7,0.2-1.5,0.2-2.4,0.2
			C804.1,382.7,803.2,382.5,802.6,382.4z M807.8,380.5c0.7-0.2,1.5-0.6,2.2-1.1c0.7-0.6,1.3-1.1,1.7-1.9c0.6-0.7,0.9-1.5,0.9-2.4
			l0.6-2.8c-0.2,0.2-0.6,0.4-0.9,0.6c-0.4,0.2-0.7,0.2-1.1,0.2c-0.9,0.2-2,0.4-3,0.4c-0.9,0.2-2,0.4-2.8,0.6
			c-0.9,0.2-1.7,0.6-2.2,1.1c-0.6,0.6-1.1,1.1-1.3,2c-0.2,0.6-0.2,1.1,0,1.5c0.2,0.4,0.4,0.7,0.7,1.1c0.4,0.4,0.7,0.6,1.1,0.7
			c0.4,0.2,0.9,0.2,1.5,0.2C806.4,380.9,807.1,380.7,807.8,380.5z"/>
		<path d="M834.1,364.2h2.8l-3.9,18h-2.2l3.3-15.4l-13.2,15.4h-2.8l3.9-18h2.2l-3.3,15.4L834.1,364.2z M826.6,360.3
			c-0.7-0.7-0.9-1.9-0.7-3.3h1.3c0,0.9,0.2,1.5,0.7,2c0.6,0.6,1.3,0.7,2.4,0.7c0.9,0,1.9-0.2,2.6-0.7c0.7-0.6,1.3-1.1,1.7-2h1.3
			c-0.6,1.5-1.3,2.6-2.4,3.3c-0.9,0.7-2.2,1.1-3.7,1.1C828.3,361.6,827.4,361.2,826.6,360.3z"/>
		<path d="M851.7,371.8l1.7-7.6h2.2l-3.9,18h-2l1.9-8.5h-10.2l-1.9,8.5h-2.2l3.9-18h2.2l-1.7,7.6H851.7z"/>
		<path d="M872,364.2h2.8l-3.9,18h-2.2l3.3-15.4l-13.2,15.4H856l3.9-18h2.2l-3.3,15.4L872,364.2z"/>
		<path d="M891.2,364.2h3l-9.1,7l5.8,10.9H888l-5-9.5l-4.5,3.3l-1.3,6.1H875l3.9-18h2.2l-2,9.3L891.2,364.2z"/>
		<path d="M795.9,398.3l-14.3,28.9h-2l14.3-28.9H795.9z"/>
		<path d="M805.6,398.3l-14.3,28.9h-2l14.3-28.9H805.6z"/>
		<path d="M827.7,407.2c0.9,0.7,1.1,1.9,0.7,3.2c-0.2,1.1-0.7,2-1.5,2.8c-0.7,0.7-1.5,1.3-2.6,1.5c1.1,0.2,2,0.7,2.6,1.5
			c0.6,0.7,0.6,1.7,0.4,3.2c-0.4,1.7-1.1,2.8-2.4,3.7s-3,1.3-5.2,1.3h-8.2l3.9-18h8.2C825.5,406.1,827,406.5,827.7,407.2z
			 M823.7,421.5c0.9-0.6,1.5-1.5,1.7-2.6c0.2-1.1,0-1.9-0.6-2.4c-0.6-0.6-1.7-0.9-3.3-0.9h-5.8l-1.5,6.7h5.8
			C821.6,422.2,822.7,422,823.7,421.5z M825,413.1c0.7-0.6,1.3-1.3,1.5-2.2c0.4-2-0.6-3-3.2-3h-5.8l-1.3,5.9h5.8
			C823.1,413.9,824.2,413.7,825,413.1z"/>
		<path d="M845.8,406.1h2.8l-3.9,18h-2.2l3.3-15.4l-13.2,15.4h-2.8l3.9-18h2.2l-3.3,15.4L845.8,406.1z"/>
		<path d="M852.7,416.7c0.9-2.2,1.7-4.8,2.2-8.2l0.6-2.4h12.1l-3.3,16.1h2.8l-1.7,7.6h-2.2l1.3-5.7h-15.1l-1.3,5.7h-2.2l1.5-7.6h2
			C850.6,420.7,851.7,418.7,852.7,416.7z M856.9,409.2c-0.6,3-1.5,5.6-2.2,7.8c-0.9,2.2-1.9,3.9-2.8,5.2h10.2l3-14.3h-8L856.9,409.2
			z"/>
		<path d="M883.7,404.2c0.6-0.9,1.3-1.9,2.2-2.6c0.9-0.7,1.9-1.3,2.8-1.7c1.1-0.4,2.2-0.6,3.3-0.6c1.3,0,2.2,0.2,3.2,0.6
			c0.9,0.4,1.5,0.9,2,1.5c0.6,0.6,0.7,1.3,0.9,2.2c0.2,0.9,0.2,1.7-0.2,2.6c-0.2,1.1-0.6,2-1.1,3c-0.6,0.9-1.1,1.5-1.9,2.2
			s-1.5,1.3-2.4,1.7c-0.9,0.6-1.9,0.9-2.6,1.5c-0.9,0.4-1.7,0.9-2.6,1.3c-0.9,0.4-1.7,0.9-2.4,1.3l-1.3,0.9
			c-0.4,0.4-0.9,0.7-1.3,1.1s-0.7,0.9-0.9,1.3c-0.4,0.6-0.6,0.9-0.7,1.7h13.8l-0.4,1.9H878c0.2-1.1,0.6-2.2,1.1-3.2
			c0.4-0.9,1.1-1.9,2.2-2.8c1.1-0.9,2-1.9,3.2-2.6c1.1-0.7,2-1.3,3.2-1.9c0.9-0.6,1.9-1.1,2.8-1.5s1.7-0.9,2.4-1.5
			c0.7-0.6,1.3-1.1,1.9-1.9s0.9-1.5,1.1-2.4c0.2-0.7,0.2-1.5,0-2c-0.2-0.6-0.4-1.1-0.9-1.7c-0.4-0.4-0.9-0.7-1.5-0.9
			c-0.6-0.2-1.3-0.4-2-0.4c-0.7,0-1.5,0.2-2.2,0.6c-0.7,0.4-1.5,0.7-2,1.3c-0.6,0.6-1.1,1.3-1.5,2c-0.4,0.7-0.7,1.5-0.9,2.4h-2.4
			C882.8,406.3,883.2,405.4,883.7,404.2z"/>
		<path d="M497.4,29.9h1.5v9.5h-1.1v-7.8l-3.3,7.8h-1.1l-3.3-7.8v7.8h-1.1v-9.5h1.5l3.5,8.2L497.4,29.9z"/>
		<path d="M502.6,39.5c-0.4-0.2-0.7-0.2-0.9-0.6c-0.4-0.2-0.6-0.6-0.7-0.9c-0.2-0.4-0.2-0.7-0.2-1.3c0-0.7,0.2-1.1,0.4-1.5
			c0.4-0.4,0.7-0.6,1.1-0.9c0.6-0.2,1.1-0.4,1.7-0.4l1.9-0.2c0.2,0,0.4,0,0.6,0s0.4-0.2,0.4-0.2c0.2,0,0.2-0.2,0.4-0.4
			c0-0.2,0-0.4,0-0.6c0-0.4,0-0.7-0.2-0.9c-0.2-0.2-0.4-0.4-0.6-0.6c-0.2-0.2-0.6-0.2-0.7-0.4c-0.4,0-0.6,0-0.9,0
			c-0.7,0-1.3,0.2-1.9,0.6c-0.4,0.4-0.7,0.9-0.7,1.7H501c0-1.1,0.4-1.9,1.1-2.4c0.7-0.6,1.7-0.7,2.8-0.7c0.4,0,0.7,0,1.3,0.2
			c0.4,0,0.7,0.2,1.1,0.4c0.4,0.2,0.6,0.6,0.7,0.9c0.2,0.4,0.4,0.9,0.4,1.5v5c0,0.4,0.2,0.7,0.7,0.7c0.2,0,0.2,0,0.4,0v0.9h-0.4
			c-0.2,0-0.2,0-0.4,0c-0.4,0-0.6,0-0.7-0.2c-0.2,0-0.4-0.2-0.4-0.4c0-0.2-0.2-0.4-0.2-0.6c0-0.2,0-0.4,0-0.7
			c-0.2,0.4-0.4,0.6-0.6,0.7c-0.2,0.2-0.4,0.4-0.7,0.6c-0.2,0.2-0.6,0.2-0.9,0.4c-0.4,0-0.7,0.2-1.1,0.2
			C503.4,39.7,503,39.7,502.6,39.5z M505.2,38.6c0.4-0.2,0.7-0.4,1.1-0.6c0.4-0.2,0.6-0.6,0.7-0.9c0.2-0.4,0.2-0.7,0.2-1.3v-1.5
			c0,0.2-0.2,0.2-0.4,0.4c-0.2,0-0.4,0.2-0.6,0.2c-0.6,0-0.9,0.2-1.5,0.2c-0.6,0-0.9,0.2-1.5,0.4c-0.4,0.2-0.7,0.4-1.1,0.6
			c-0.2,0.2-0.4,0.6-0.4,1.1c0,0.4,0,0.6,0.2,0.7c0.2,0.2,0.2,0.4,0.4,0.6c0.2,0.2,0.4,0.4,0.7,0.4c0.2,0,0.6,0.2,0.7,0.2
			C504.3,38.8,504.9,38.6,505.2,38.6z"/>
		<path d="M517.9,29.9v0.9h-3.5v8.5h-1.1v-8.5h-3.5v-0.9H517.9z"/>
		<path d="M520.9,39.3c-0.6-0.2-0.9-0.6-1.3-1.1c-0.4-0.4-0.6-0.9-0.7-1.7c-0.2-0.6-0.2-1.3-0.2-1.9c0-0.6,0-1.3,0.2-1.9
			c0.2-0.6,0.4-1.1,0.7-1.7c0.4-0.4,0.7-0.9,1.3-1.1c0.6-0.2,1.1-0.4,2-0.4c0.9,0,1.5,0.2,2,0.4c0.6,0.4,0.9,0.7,1.3,1.1
			c0.4,0.6,0.6,1.1,0.7,1.7c0.2,0.6,0.2,1.3,0.2,2h-7.4c0,0.4,0,0.9,0.2,1.3c0.2,0.4,0.4,0.9,0.6,1.1c0.2,0.4,0.6,0.6,0.9,0.9
			c0.4,0.2,0.9,0.4,1.5,0.4c0.9,0,1.5-0.2,2-0.7c0.6-0.4,0.7-1.1,0.9-1.9h1.1c-0.2,1.1-0.7,1.9-1.3,2.6c-0.7,0.6-1.7,0.9-2.8,0.9
			C522,39.7,521.4,39.5,520.9,39.3z M525.7,32.6c-0.2-0.4-0.4-0.7-0.6-1.1c-0.2-0.4-0.6-0.6-0.9-0.7c-0.4-0.2-0.7-0.2-1.3-0.2
			c-0.6,0-0.9,0-1.3,0.2c-0.4,0.2-0.7,0.4-0.9,0.7c-0.2,0.4-0.4,0.7-0.6,1.1c-0.2,0.4-0.2,0.9-0.4,1.3h6.1
			C525.9,33.6,525.7,33.2,525.7,32.6z"/>
		<path d="M529.6,31.7c0.2-0.7,0.7-1.1,1.3-1.5c0.6-0.4,1.3-0.6,2-0.6c0.7,0,1.3,0.2,1.9,0.4c0.6,0.2,0.9,0.6,1.3,1.1
			c0.4,0.4,0.6,0.9,0.7,1.7c0.2,0.6,0.2,1.3,0.2,1.9c0,0.7,0,1.3-0.2,1.9c-0.2,0.6-0.4,1.1-0.7,1.7c-0.4,0.4-0.7,0.7-1.3,1.1
			c-0.6,0.2-1.1,0.4-1.9,0.4c-0.4,0-0.7,0-1.1-0.2c-0.4,0-0.7-0.2-0.9-0.4c-0.4-0.2-0.6-0.4-0.7-0.6c-0.2-0.2-0.4-0.6-0.6-0.9V43
			h-1.1V30h1.1V31.7z M534.4,38.4c0.4-0.2,0.7-0.6,0.9-0.9c0.2-0.4,0.4-0.7,0.6-1.3c0.2-0.6,0.2-0.9,0.2-1.5c0-0.6,0-0.9-0.2-1.5
			c-0.2-0.6-0.4-0.9-0.6-1.3c-0.2-0.4-0.6-0.7-0.9-0.9s-0.9-0.4-1.5-0.4s-1.1,0.2-1.7,0.4c-0.4,0.2-0.7,0.6-1.1,0.9
			c-0.2,0.4-0.4,0.7-0.6,1.3c-0.2,0.6-0.2,0.9-0.2,1.5c0,0.6,0,0.9,0.2,1.5c0.2,0.6,0.4,0.9,0.6,1.3c0.2,0.4,0.6,0.7,1.1,0.9
			c0.4,0.2,0.9,0.4,1.5,0.4C533.7,38.8,534.1,38.6,534.4,38.4z"/>
		<path d="M545.6,29.9h1.5v9.5H546v-8.2l-5.2,8.2h-1.7v-9.5h1.1V38L545.6,29.9z"/>
		<path d="M550.6,39.5c-0.4-0.2-0.7-0.2-0.9-0.6c-0.4-0.2-0.6-0.6-0.7-0.9c-0.2-0.4-0.2-0.7-0.2-1.3c0-0.7,0.2-1.1,0.4-1.5
			c0.4-0.4,0.7-0.6,1.1-0.9c0.6-0.2,1.1-0.4,1.7-0.4l1.9-0.2c0.2,0,0.4,0,0.6,0c0.2,0,0.4-0.2,0.4-0.2c0.2,0,0.2-0.2,0.4-0.4
			c0-0.2,0-0.4,0-0.6c0-0.4,0-0.7-0.2-0.9c-0.2-0.2-0.4-0.4-0.6-0.6c-0.2-0.2-0.6-0.2-0.7-0.4c-0.4,0-0.6,0-0.9,0
			c-0.7,0-1.3,0.2-1.9,0.6c-0.4,0.4-0.7,0.9-0.7,1.7h-1.1c0-1.1,0.4-1.9,1.1-2.4c0.7-0.6,1.7-0.7,2.8-0.7c0.4,0,0.7,0,1.3,0.2
			c0.4,0,0.7,0.2,1.1,0.4s0.6,0.6,0.7,0.9c0.2,0.4,0.4,0.9,0.4,1.5v5c0,0.4,0.2,0.7,0.7,0.7c0.2,0,0.2,0,0.4,0v0.9h-0.4
			c-0.2,0-0.2,0-0.4,0c-0.4,0-0.6,0-0.7-0.2c-0.2,0-0.4-0.2-0.4-0.4c0-0.2-0.2-0.4-0.2-0.6c0-0.2,0-0.4,0-0.7
			c-0.2,0.4-0.4,0.6-0.6,0.7c-0.2,0.2-0.4,0.4-0.7,0.6c-0.2,0.2-0.6,0.2-0.9,0.4c-0.4,0-0.7,0.2-1.1,0.2
			C551.5,39.7,551.2,39.7,550.6,39.5z M553.4,38.6c0.4-0.2,0.7-0.4,1.1-0.6c0.4-0.2,0.6-0.6,0.7-0.9c0.2-0.4,0.2-0.7,0.2-1.3v-1.5
			c0,0.2-0.2,0.2-0.4,0.4c-0.2,0-0.4,0.2-0.6,0.2c-0.6,0-0.9,0.2-1.5,0.2s-0.9,0.2-1.5,0.4c-0.4,0.2-0.7,0.4-1.1,0.6
			c-0.2,0.2-0.4,0.6-0.4,1.1c0,0.4,0,0.6,0.2,0.7c0.2,0.2,0.2,0.4,0.4,0.6c0.2,0.2,0.4,0.4,0.7,0.4c0.2,0,0.6,0.2,0.7,0.2
			C552.5,38.8,552.9,38.6,553.4,38.6z"/>
		<path d="M558.6,39.5h-0.2h-0.2h-0.2v-0.9c0,0,0.2,0,0.4,0c0.2,0,0.4,0,0.6,0c0.2,0,0.2,0,0.4,0c0.2,0,0.4-0.2,0.4-0.4
			c0.2-0.2,0.4-0.4,0.4-0.7c0.2-0.4,0.2-0.9,0.4-1.5c0-0.6,0.2-1.5,0.2-2.4c0-0.9,0-2.2,0-3.5h6.3v9.5h-1.1V31h-4.1
			c0,1.3,0,2.6-0.2,3.5c0,0.9-0.2,1.7-0.4,2.4c-0.2,0.6-0.4,1.1-0.6,1.5c-0.2,0.4-0.4,0.6-0.6,0.7c-0.2,0.2-0.6,0.4-0.7,0.4
			C559.2,39.5,558.8,39.5,558.6,39.5L558.6,39.5z"/>
		<path d="M571.5,31.9h-1.3v-1.7h1.3V31.9z M571.5,39.5h-1.3v-1.7h1.3V39.5z"/>
		<path d="M495.4,56v-4.1h1.1v9.5h-1.1v-4.5H490v4.5h-1.1v-9.5h1.1V56H495.4z"/>
		<path d="M500.6,61.4c-0.6-0.2-0.9-0.6-1.3-1.1c-0.4-0.4-0.6-0.9-0.7-1.7c-0.2-0.6-0.2-1.3-0.2-1.9s0-1.3,0.2-1.9
			c0.2-0.6,0.4-1.1,0.7-1.7c0.4-0.4,0.7-0.9,1.3-1.1c0.6-0.2,1.1-0.4,2-0.4c0.7,0,1.5,0.2,2,0.4c0.6,0.4,0.9,0.7,1.3,1.1
			c0.4,0.6,0.6,1.1,0.7,1.7c0.2,0.6,0.2,1.3,0.2,2h-7.4c0,0.4,0,0.9,0.2,1.3c0.2,0.4,0.4,0.9,0.6,1.1c0.2,0.4,0.6,0.6,0.9,0.9
			c0.4,0.2,0.9,0.4,1.5,0.4c0.9,0,1.5-0.2,2-0.7c0.6-0.4,0.7-1.1,0.9-1.9h1.1c-0.2,1.1-0.7,1.9-1.3,2.6c-0.7,0.6-1.7,0.9-2.8,0.9
			C501.7,61.7,501.1,61.7,500.6,61.4z M505.4,54.9c-0.2-0.4-0.4-0.7-0.6-1.1c-0.2-0.4-0.6-0.6-0.9-0.7c-0.4-0.2-0.7-0.2-1.3-0.2
			c-0.6,0-0.9,0-1.3,0.2c-0.4,0.2-0.7,0.4-0.9,0.7c-0.2,0.4-0.4,0.7-0.6,1.1c-0.2,0.4-0.2,0.9-0.4,1.3h6.1
			C505.6,55.6,505.4,55.3,505.4,54.9z"/>
		<path d="M509.5,53.8c0.2-0.7,0.7-1.1,1.3-1.5c0.6-0.4,1.3-0.6,2-0.6c0.7,0,1.3,0.2,1.9,0.4c0.6,0.2,0.9,0.6,1.3,1.1
			c0.4,0.4,0.6,0.9,0.7,1.7c0.2,0.6,0.2,1.3,0.2,1.9s0,1.3-0.2,1.9c-0.2,0.6-0.4,1.1-0.7,1.7c-0.4,0.4-0.7,0.7-1.3,1.1
			c-0.6,0.2-1.1,0.4-1.9,0.4c-0.4,0-0.7,0-1.1-0.2c-0.4,0-0.7-0.2-0.9-0.4c-0.4-0.2-0.6-0.4-0.7-0.6c-0.2-0.2-0.4-0.6-0.6-0.9v5.4
			h-1.1v-13h1.1V53.8z M514.4,60.5c0.4-0.2,0.7-0.6,0.9-0.9c0.2-0.4,0.4-0.7,0.6-1.3c0.2-0.6,0.2-0.9,0.2-1.5s0-0.9-0.2-1.5
			c-0.2-0.6-0.4-0.9-0.6-1.3c-0.2-0.4-0.6-0.7-0.9-0.9c-0.4-0.2-0.9-0.4-1.5-0.4c-0.6,0-1.1,0.2-1.7,0.4c-0.4,0.2-0.7,0.6-1.1,0.9
			c-0.2,0.4-0.4,0.7-0.6,1.3c-0.2,0.6-0.2,0.9-0.2,1.5s0,0.9,0.2,1.5c0.2,0.6,0.4,0.9,0.6,1.3c0.2,0.4,0.6,0.7,1.1,0.9
			c0.4,0.2,0.9,0.4,1.5,0.4C513.4,60.8,513.8,60.8,514.4,60.5z"/>
		<path d="M524,56.9v-4.8h1.1v4.8l4.5-4.8h1.5l-3.7,4.1l4.1,5.6H530l-3.5-4.8l-1.5,1.5v3.3h-1.1v-3.3l-1.5-1.5l-3.5,4.8h-1.5
			l4.1-5.6l-3.7-4.1h1.5L524,56.9z"/>
		<path d="M534.1,61.7c-0.4-0.2-0.7-0.2-0.9-0.6c-0.4-0.2-0.6-0.6-0.7-0.9c-0.2-0.4-0.2-0.7-0.2-1.3c0-0.7,0.2-1.1,0.4-1.5
			c0.4-0.4,0.7-0.6,1.1-0.9c0.6-0.2,1.1-0.4,1.7-0.4l1.9-0.2c0.2,0,0.4,0,0.6,0c0.2,0,0.4-0.2,0.4-0.2c0.2,0,0.2-0.2,0.4-0.4
			c0-0.2,0-0.4,0-0.6c0-0.4,0-0.7-0.2-0.9c-0.2-0.2-0.4-0.4-0.6-0.6c-0.2-0.2-0.6-0.2-0.7-0.4c-0.4,0-0.6,0-0.9,0
			c-0.7,0-1.3,0.2-1.9,0.6c-0.4,0.4-0.7,0.9-0.7,1.7h-1.1c0-1.1,0.4-1.9,1.1-2.4c0.7-0.6,1.7-0.7,2.8-0.7c0.4,0,0.7,0,1.3,0.2
			c0.4,0,0.7,0.2,1.1,0.4c0.4,0.2,0.6,0.6,0.7,0.9c0.2,0.4,0.4,0.9,0.4,1.5v5c0,0.4,0.2,0.7,0.7,0.7c0.2,0,0.2,0,0.4,0v0.9h-0.4
			c-0.2,0-0.2,0-0.4,0c-0.4,0-0.6,0-0.7-0.2c-0.2,0-0.4-0.2-0.4-0.4c0-0.2-0.2-0.4-0.2-0.6c0-0.2,0-0.4,0-0.7
			c-0.2,0.4-0.4,0.6-0.6,0.7c-0.2,0.2-0.4,0.4-0.7,0.6c-0.2,0.2-0.6,0.2-0.9,0.4c-0.4,0-0.7,0.2-1.1,0.2
			C534.8,61.7,534.4,61.7,534.1,61.7z M536.7,60.6c0.4-0.2,0.7-0.4,1.1-0.6c0.4-0.2,0.6-0.6,0.7-0.9c0.2-0.4,0.2-0.7,0.2-1.3v-1.5
			c0,0.2-0.2,0.2-0.4,0.4c-0.2,0-0.4,0.2-0.6,0.2c-0.6,0-0.9,0.2-1.5,0.2c-0.6,0-0.9,0.2-1.5,0.4c-0.6,0.2-0.7,0.4-1.1,0.6
			c-0.2,0.2-0.4,0.6-0.4,1.1c0,0.4,0,0.6,0.2,0.7c0.2,0.2,0.2,0.4,0.4,0.6c0.2,0.2,0.4,0.4,0.7,0.4c0.2,0,0.6,0.2,0.7,0.2
			C535.7,60.8,536.3,60.8,536.7,60.6z"/>
		<path d="M548.8,52.7c0.6,0.4,0.7,0.9,0.7,1.7c0,0.6-0.2,1.1-0.4,1.5c-0.4,0.4-0.7,0.6-1.3,0.7c0.6,0.2,1.1,0.4,1.5,0.7
			c0.4,0.4,0.6,0.9,0.6,1.7c0,0.9-0.4,1.5-0.9,2c-0.6,0.4-1.5,0.7-2.6,0.7h-4.3v-9.5h4.3C547.5,52.1,548.2,52.3,548.8,52.7z
			 M548,55.8c0.4-0.2,0.6-0.7,0.6-1.1c0-1.1-0.7-1.5-2-1.5h-3.2v3.2h3.2C547.1,56.2,547.6,56,548,55.8z M548.2,60.1
			c0.4-0.4,0.6-0.7,0.6-1.3c0-0.6-0.2-0.9-0.6-1.3c-0.4-0.4-0.9-0.4-1.9-0.4h-3.2v3.5h3.2C547.3,60.6,547.8,60.5,548.2,60.1z"/>
		<path d="M553.6,61.4c-0.6-0.2-0.9-0.6-1.3-1.1c-0.4-0.4-0.6-0.9-0.7-1.7c-0.2-0.6-0.2-1.3-0.2-1.9s0-1.3,0.2-1.9
			c0.2-0.6,0.4-1.1,0.7-1.7c0.4-0.4,0.7-0.9,1.3-1.1c0.6-0.2,1.1-0.4,2-0.4c0.7,0,1.5,0.2,2,0.4c0.6,0.4,0.9,0.7,1.3,1.1
			c0.4,0.6,0.6,1.1,0.7,1.7c0.2,0.6,0.2,1.3,0.2,2h-7.4c0,0.4,0,0.9,0.2,1.3c0.2,0.4,0.4,0.9,0.6,1.1c0.2,0.4,0.6,0.6,0.9,0.9
			c0.4,0.2,0.9,0.4,1.5,0.4c0.9,0,1.5-0.2,2-0.7c0.6-0.4,0.7-1.1,0.9-1.9h1.1c-0.2,1.1-0.7,1.9-1.3,2.6c-0.7,0.6-1.7,0.9-2.8,0.9
			C554.9,61.7,554.2,61.7,553.6,61.4z M558.4,54.9c-0.2-0.4-0.4-0.7-0.6-1.1c-0.2-0.4-0.6-0.6-0.9-0.7c-0.4-0.2-0.7-0.2-1.3-0.2
			s-0.9,0-1.3,0.2c-0.4,0.2-0.7,0.4-0.9,0.7c-0.2,0.4-0.4,0.7-0.6,1.1c-0.2,0.4-0.2,0.9-0.4,1.3h6.1
			C558.6,55.6,558.6,55.3,558.4,54.9z"/>
		<path d="M567.4,61.4c-0.6-0.2-0.9-0.6-1.3-0.9c-0.4-0.4-0.7-0.9-0.9-1.5c-0.2-0.6-0.4-1.1-0.4-1.9h-2v4.5h-1.3v-9.5h1.1v4.1h2.2
			c0-0.6,0.2-1.1,0.4-1.7c0.2-0.6,0.6-0.9,0.9-1.3c0.4-0.4,0.7-0.7,1.3-0.9c0.6-0.2,1.1-0.4,1.7-0.4c0.7,0,1.3,0.2,1.9,0.4
			c0.6,0.2,0.9,0.6,1.3,1.1c0.4,0.4,0.7,0.9,0.9,1.7c0.2,0.6,0.4,1.3,0.4,1.9c0,0.6,0,1.3-0.4,1.9c-0.2,0.6-0.6,1.1-0.9,1.7
			c-0.4,0.4-0.9,0.7-1.3,1.1c-0.6,0.2-1.1,0.4-1.9,0.4C568.5,61.7,567.7,61.7,567.4,61.4z M570.3,60.5c0.4-0.2,0.7-0.6,0.9-0.9
			c0.2-0.4,0.6-0.7,0.6-1.3c0.2-0.6,0.2-0.9,0.2-1.5s0-0.9-0.2-1.5s-0.4-0.9-0.6-1.3c-0.2-0.4-0.6-0.7-0.9-0.9
			c-0.4-0.2-0.9-0.4-1.3-0.4c-0.6,0-0.9,0.2-1.3,0.4c-0.4,0.2-0.7,0.6-0.9,0.9c-0.2,0.4-0.6,0.7-0.6,1.3c-0.2,0.6-0.2,0.9-0.2,1.5
			s0,0.9,0.2,1.5c0.2,0.6,0.4,0.9,0.6,1.3c0.2,0.4,0.6,0.7,0.9,0.9c0.4,0.2,0.9,0.4,1.3,0.4C569.6,60.8,570,60.8,570.3,60.5z"/>
		<path d="M576.3,52.1v8.5h4.5v-8.5h1.1v8.5h4.5v-8.5h1.1v8.5h1.5v4.1h-1.1v-3h-12.5v-9.5h0.9V52.1z"/>
		<path d="M591.5,61.7c-0.4-0.2-0.7-0.2-0.9-0.6c-0.4-0.2-0.6-0.6-0.7-0.9c-0.2-0.4-0.2-0.7-0.2-1.3c0-0.7,0.2-1.1,0.4-1.5
			c0.4-0.4,0.7-0.6,1.1-0.9c0.6-0.2,1.1-0.4,1.7-0.4l1.9-0.2c0.2,0,0.4,0,0.6,0s0.4-0.2,0.4-0.2c0.2,0,0.2-0.2,0.4-0.4
			c0-0.2,0-0.4,0-0.6c0-0.4,0-0.7-0.2-0.9c-0.2-0.2-0.4-0.4-0.6-0.6c-0.2-0.2-0.6-0.2-0.7-0.4c-0.4,0-0.6,0-0.9,0
			c-0.7,0-1.3,0.2-1.9,0.6c-0.4,0.4-0.7,0.9-0.7,1.7h-1.1c0-1.1,0.4-1.9,1.1-2.4c0.7-0.6,1.7-0.7,2.8-0.7c0.4,0,0.7,0,1.3,0.2
			c0.4,0,0.7,0.2,1.1,0.4c0.4,0.2,0.6,0.6,0.7,0.9c0.2,0.4,0.4,0.9,0.4,1.5v5c0,0.4,0.2,0.7,0.7,0.7c0.2,0,0.2,0,0.4,0v0.9H598
			c-0.2,0-0.2,0-0.4,0c-0.4,0-0.6,0-0.7-0.2c-0.2,0-0.4-0.2-0.4-0.4c0-0.2-0.2-0.4-0.2-0.6c0-0.2,0-0.4,0-0.7
			c-0.2,0.4-0.4,0.6-0.6,0.7c-0.2,0.2-0.4,0.4-0.7,0.6c-0.2,0.2-0.6,0.2-0.9,0.4c-0.4,0-0.7,0.2-1.1,0.2
			C592.5,61.7,591.9,61.7,591.5,61.7z M594.1,60.6c0.4-0.2,0.7-0.4,1.1-0.6c0.4-0.2,0.6-0.6,0.7-0.9c0.2-0.4,0.2-0.7,0.2-1.3v-1.5
			c0,0.2-0.2,0.2-0.4,0.4c-0.2,0-0.4,0.2-0.6,0.2c-0.6,0-0.9,0.2-1.5,0.2c-0.6,0-0.9,0.2-1.5,0.4c-0.4,0.2-0.7,0.4-1.1,0.6
			c-0.2,0.2-0.4,0.6-0.4,1.1c0,0.4,0,0.6,0.2,0.7c0.2,0.2,0.2,0.4,0.4,0.6c0.2,0.2,0.4,0.4,0.7,0.4c0.2,0,0.6,0.2,0.7,0.2
			C593.4,60.8,593.8,60.8,594.1,60.6z"/>
		<path d="M600.1,56.9c-0.6-0.6-0.7-1.1-0.7-2c0-0.4,0-0.7,0.2-1.1c0.2-0.4,0.4-0.6,0.6-0.9c0.2-0.2,0.6-0.4,0.9-0.6
			c0.4-0.2,0.7-0.2,1.1-0.2h4.7v9.5h-1.1v-3.7h-2.2l-3.3,3.7h-1.5l3.5-3.9C601.4,57.7,600.7,57.3,600.1,56.9z M601,53.6
			c-0.4,0.4-0.6,0.7-0.6,1.3c0,0.6,0.2,0.9,0.6,1.3c0.4,0.4,0.7,0.6,1.5,0.6h3.2V53h-3.2C602,53,601.4,53.2,601,53.6z"/>
		<path d="M490.9,83.6c-0.6-0.2-1.1-0.6-1.5-1.1c-0.4-0.4-0.7-0.9-0.9-1.7c-0.2-0.6-0.4-1.3-0.4-1.9c0-0.7,0-1.3,0.4-1.9
			c0.2-0.6,0.6-1.1,0.9-1.7c0.4-0.4,0.9-0.7,1.5-1.1c0.6-0.2,1.1-0.4,1.9-0.4c0.9,0,1.9,0.2,2.6,0.7c0.7,0.6,1.1,1.3,1.3,2.4h-1.1
			c-0.2-0.7-0.4-1.3-0.9-1.7c-0.4-0.4-1.1-0.6-1.9-0.6c-0.6,0-1.1,0.2-1.5,0.4c-0.4,0.2-0.7,0.6-1.1,0.9c-0.2,0.4-0.6,0.7-0.6,1.3
			c-0.2,0.6-0.2,0.9-0.2,1.5s0,0.9,0.2,1.5c0.2,0.6,0.4,0.9,0.6,1.3c0.2,0.4,0.6,0.7,1.1,0.9c0.4,0.2,0.9,0.4,1.5,0.4
			c0.4,0,0.7,0,0.9-0.2c0.4-0.2,0.6-0.4,0.9-0.6c0.2-0.2,0.4-0.6,0.6-0.9c0.2-0.4,0.2-0.7,0.4-1.1h1.1c-0.2,1.1-0.6,2-1.3,2.8
			c-0.7,0.7-1.5,0.9-2.6,0.9C492,84,491.5,83.8,490.9,83.6z"/>
		<path d="M505.4,74.2v0.9h-3.5v8.5h-1.1v-8.5h-3.5v-0.9H505.4z"/>
		<path d="M508,83.8c-0.4-0.2-0.7-0.2-0.9-0.6c-0.4-0.2-0.6-0.6-0.7-0.9c-0.2-0.4-0.2-0.7-0.2-1.3c0-0.7,0.2-1.1,0.4-1.5
			c0.4-0.4,0.7-0.6,1.1-0.9c0.6-0.2,1.1-0.4,1.7-0.4l1.9-0.2c0.2,0,0.4,0,0.6,0s0.4-0.2,0.4-0.2c0.2,0,0.2-0.2,0.4-0.4
			c0-0.2,0-0.4,0-0.6c0-0.4,0-0.7-0.2-0.9c-0.2-0.2-0.4-0.4-0.6-0.6s-0.6-0.2-0.7-0.4c-0.4,0-0.6,0-0.9,0c-0.7,0-1.3,0.2-1.9,0.6
			c-0.4,0.4-0.7,0.9-0.7,1.7h-1.1c0-1.1,0.4-1.9,1.1-2.4c0.7-0.6,1.7-0.7,2.8-0.7c0.4,0,0.7,0,1.3,0.2c0.4,0,0.7,0.2,1.1,0.4
			c0.4,0.2,0.6,0.6,0.7,0.9c0.2,0.4,0.4,0.9,0.4,1.5v5c0,0.4,0.2,0.7,0.7,0.7c0.2,0,0.2,0,0.4,0v0.9h-0.4c-0.2,0-0.2,0-0.4,0
			c-0.4,0-0.6,0-0.7-0.2c-0.2,0-0.4-0.2-0.4-0.4c0-0.2-0.2-0.4-0.2-0.6c0-0.2,0-0.4,0-0.7c-0.2,0.4-0.4,0.6-0.6,0.7
			c-0.2,0.2-0.4,0.4-0.7,0.6c-0.2,0.2-0.6,0.2-0.9,0.4c-0.4,0-0.7,0.2-1.1,0.2C508.8,84,508.4,84,508,83.8z M510.6,82.9
			c0.4-0.2,0.7-0.4,1.1-0.6c0.4-0.2,0.6-0.6,0.7-0.9c0.2-0.4,0.2-0.7,0.2-1.3v-1.5c0,0.2-0.2,0.2-0.4,0.4c-0.2,0-0.4,0.2-0.6,0.2
			c-0.6,0-0.9,0.2-1.5,0.2c-0.6,0-0.9,0.2-1.5,0.4c-0.4,0.2-0.7,0.4-1.1,0.6c-0.2,0.2-0.4,0.6-0.4,1.1c0,0.4,0,0.6,0.2,0.7
			s0.2,0.4,0.4,0.6c0.2,0.2,0.4,0.4,0.7,0.4c0.2,0,0.6,0.2,0.7,0.2C509.9,83.1,510.3,82.9,510.6,82.9z"/>
		<path d="M515.8,83.8h-0.2h-0.2h-0.2v-0.9c0,0,0.2,0,0.4,0c0.2,0,0.4,0,0.6,0s0.2,0,0.4,0c0.2,0,0.4-0.2,0.4-0.4
			c0.2-0.2,0.4-0.4,0.4-0.7c0-0.4,0.2-0.9,0.4-1.5c0-0.6,0.2-1.5,0.2-2.4c0-0.9,0-2.2,0-3.5h6.3v9.5h-1.1v-8.5H519
			c0,1.3,0,2.6-0.2,3.5c0,0.9-0.2,1.7-0.4,2.4c-0.2,0.6-0.4,1.1-0.6,1.5c-0.2,0.4-0.4,0.6-0.6,0.7c-0.2,0.2-0.6,0.4-0.7,0.4
			C516.4,83.8,516,83.8,515.8,83.8C516,83.8,516,83.8,515.8,83.8z"/>
		<path d="M531.3,78.1c0.9,0,1.7,0.2,2.2,0.7c0.6,0.6,0.7,1.1,0.7,2c0,0.9-0.2,1.7-0.7,2c-0.6,0.6-1.3,0.7-2.2,0.7h-4.7v-9.5h1.1
			v3.9H531.3z M532.6,82.3c0.4-0.4,0.6-0.7,0.6-1.5s-0.2-1.1-0.6-1.5c-0.4-0.4-0.9-0.4-1.5-0.4h-3.2v3.7h3.2
			C531.6,82.7,532.2,82.5,532.6,82.3z"/>
		<path d="M490,118.5v8.5h5.2v-8.5h1.1v8.5h1.5v4.1h-1.1v-3.2h-7.8v-9.5H490z"/>
		<path d="M505.6,119c0.6,0.4,0.7,0.9,0.7,1.7c0,0.6-0.2,1.1-0.4,1.5c-0.4,0.4-0.7,0.6-1.3,0.7c0.6,0.2,1.1,0.4,1.5,0.7
			c0.4,0.4,0.6,0.9,0.6,1.7c0,0.9-0.4,1.5-0.9,2c-0.6,0.4-1.5,0.7-2.6,0.7h-4.3v-9.5h4.3C504.3,118.5,505.1,118.7,505.6,119z
			 M504.7,122.2c0.4-0.2,0.6-0.7,0.6-1.1c0-1.1-0.7-1.5-2-1.5H500v3.2h3.2C503.9,122.6,504.3,122.4,504.7,122.2z M505.1,126.6
			c0.4-0.4,0.6-0.7,0.6-1.3s-0.2-0.9-0.6-1.3s-0.9-0.4-1.9-0.4H500v3.5h3.2C504.1,127,504.7,126.8,505.1,126.6z"/>
		<path d="M510.4,127.9c-0.6-0.2-0.9-0.6-1.3-1.1c-0.4-0.4-0.6-0.9-0.7-1.7c-0.2-0.6-0.2-1.3-0.2-1.9c0-0.6,0-1.3,0.2-1.9
			c0.2-0.6,0.4-1.1,0.7-1.7c0.4-0.4,0.7-0.9,1.3-1.1c0.6-0.2,1.1-0.4,2-0.4c0.7,0,1.5,0.2,2,0.4c0.6,0.4,0.9,0.7,1.3,1.1
			c0.4,0.6,0.6,1.1,0.7,1.7c0.2,0.6,0.2,1.3,0.2,2h-7.4c0,0.4,0,0.9,0.2,1.3c0.2,0.4,0.4,0.9,0.6,1.1c0.2,0.4,0.6,0.6,0.9,0.9
			c0.4,0.2,0.9,0.4,1.5,0.4c0.9,0,1.5-0.2,2-0.7c0.6-0.4,0.7-1.1,0.9-1.9h1.1c-0.2,1.1-0.7,1.9-1.3,2.6c-0.7,0.6-1.7,0.9-2.8,0.9
			C511.6,128.3,511,128.1,510.4,127.9z M515.3,121.3c-0.2-0.4-0.4-0.7-0.6-1.1c-0.2-0.4-0.6-0.6-0.9-0.7c-0.4-0.2-0.7-0.2-1.3-0.2
			c-0.6,0-0.9,0-1.3,0.2c-0.4,0.2-0.7,0.4-0.9,0.7c-0.2,0.4-0.4,0.7-0.6,1.1c-0.2,0.4-0.2,0.9-0.4,1.3h6.1
			C515.5,122.2,515.3,121.6,515.3,121.3z"/>
		<path d="M525.3,118.5v0.9h-3.5v8.5h-1.1v-8.5h-3.5v-0.9H525.3L525.3,118.5z"/>
		<path d="M528.5,120.5h-1.3v-1.7h1.3V120.5z M528.5,127.9h-1.3v-1.7h1.3V127.9z"/>
		<path d="M489.8,142.4c0.2-0.7,0.7-1.1,1.3-1.5c0.6-0.4,1.3-0.6,2-0.6c0.7,0,1.3,0.2,1.9,0.4c0.6,0.2,0.9,0.6,1.3,1.1
			c0.4,0.4,0.6,0.9,0.7,1.7c0.2,0.6,0.2,1.3,0.2,1.9c0,0.7,0,1.3-0.2,1.9c-0.2,0.6-0.4,1.1-0.7,1.7c-0.4,0.4-0.7,0.7-1.3,1.1
			c-0.6,0.2-1.1,0.4-1.9,0.4c-0.4,0-0.7,0-1.1-0.2c-0.4,0-0.7-0.2-0.9-0.4c-0.4-0.2-0.6-0.4-0.7-0.6c-0.2-0.2-0.4-0.6-0.6-0.9v5.4
			h-0.9v-13h1.1L489.8,142.4z M494.6,149.1c0.4-0.2,0.7-0.6,0.9-0.9s0.4-0.7,0.6-1.3c0.2-0.6,0.2-0.9,0.2-1.5c0-0.6,0-0.9-0.2-1.5
			s-0.4-0.9-0.6-1.3c-0.2-0.4-0.6-0.7-0.9-0.9c-0.4-0.2-0.9-0.4-1.5-0.4c-0.6,0-1.1,0.2-1.7,0.4c-0.4,0.2-0.7,0.6-1.1,0.9
			c-0.2,0.4-0.4,0.7-0.6,1.3c-0.2,0.6-0.2,0.9-0.2,1.5c0,0.6,0,0.9,0.2,1.5c0.2,0.6,0.4,0.9,0.6,1.3s0.6,0.7,1.1,0.9
			c0.4,0.2,0.9,0.4,1.5,0.4C493.9,149.5,494.3,149.3,494.6,149.1z"/>
		<path d="M501.5,150c-0.6-0.2-1.1-0.6-1.5-1.1c-0.4-0.4-0.7-0.9-0.9-1.7c-0.2-0.6-0.4-1.3-0.4-1.9c0-0.7,0-1.3,0.4-1.9
			c0.2-0.6,0.6-1.1,0.9-1.7c0.4-0.4,0.9-0.7,1.5-1.1c0.6-0.2,1.1-0.4,1.9-0.4c0.7,0,1.3,0.2,1.9,0.4c0.6,0.2,0.9,0.6,1.5,1.1
			c0.4,0.4,0.7,0.9,0.9,1.7c0.2,0.6,0.4,1.3,0.4,1.9c0,0.7,0,1.3-0.4,1.9c-0.2,0.6-0.6,1.1-0.9,1.7c-0.4,0.4-0.9,0.7-1.5,1.1
			c-0.6,0.2-1.3,0.4-1.9,0.4C502.8,150.4,502.1,150.2,501.5,150z M504.9,149.1c0.4-0.2,0.7-0.6,1.1-0.9c0.2-0.4,0.6-0.7,0.6-1.3
			c0.2-0.6,0.2-0.9,0.2-1.5c0-0.6,0-0.9-0.2-1.5s-0.4-0.9-0.6-1.3c-0.2-0.4-0.6-0.7-1.1-0.9c-0.4-0.2-0.9-0.4-1.5-0.4
			c-0.6,0-1.1,0.2-1.5,0.4c-0.4,0.2-0.7,0.6-1.1,0.9c-0.2,0.4-0.6,0.7-0.6,1.3c-0.2,0.6-0.2,0.9-0.2,1.5c0,0.6,0,0.9,0.2,1.5
			c0.2,0.6,0.4,0.9,0.6,1.3s0.6,0.7,1.1,0.9c0.4,0.2,0.9,0.4,1.5,0.4C503.9,149.5,504.5,149.3,504.9,149.1z"/>
		<path d="M510.3,149.5c-0.6-0.6-0.9-1.3-1.1-2.4h1.1c0,0.4,0.2,0.7,0.2,0.9c0.2,0.2,0.4,0.6,0.6,0.7c0.2,0.2,0.6,0.4,0.7,0.4
			c0.4,0.2,0.7,0.2,1.1,0.2c0.6,0,0.9,0,1.3-0.2c0.4-0.2,0.6-0.4,0.7-0.6c0.2-0.2,0.4-0.4,0.4-0.7c0-0.2,0.2-0.6,0.2-0.7
			c0-0.6-0.2-0.9-0.4-1.3c-0.4-0.4-0.9-0.6-1.5-0.6h-1.7v-0.9h1.3c0.6,0,1.1-0.2,1.5-0.4c0.4-0.4,0.6-0.7,0.6-1.3c0-0.2,0-0.4,0-0.6
			c0-0.2-0.2-0.4-0.4-0.6c-0.2-0.2-0.4-0.4-0.7-0.4c-0.4,0-0.7-0.2-1.1-0.2c-0.9,0-1.5,0.2-1.9,0.6c-0.4,0.4-0.6,0.9-0.7,1.5h-1.1
			c0-0.6,0.2-1.1,0.4-1.5c0.2-0.4,0.6-0.7,0.7-0.9c0.4-0.2,0.7-0.4,1.1-0.6c0.4,0,0.9-0.2,1.3-0.2c0.6,0,0.9,0,1.3,0.2
			c0.4,0,0.7,0.2,1.1,0.4c0.4,0.2,0.6,0.6,0.7,0.7c0.2,0.4,0.2,0.7,0.2,1.1c0,0.2,0,0.6-0.2,0.7c0,0.2-0.2,0.4-0.4,0.6
			c-0.2,0.2-0.4,0.4-0.6,0.4c-0.2,0.2-0.4,0.2-0.6,0.2c0.2,0,0.4,0.2,0.7,0.2c0.2,0,0.4,0.2,0.6,0.4c0.2,0.2,0.4,0.4,0.4,0.7
			c0.2,0.2,0.2,0.6,0.2,0.9c0,0.6-0.2,0.9-0.4,1.3c-0.2,0.4-0.6,0.7-0.7,0.9c-0.4,0.2-0.7,0.4-1.3,0.6c-0.4,0.2-0.9,0.2-1.5,0.2
			C511.7,150.4,510.8,150.2,510.3,149.5z"/>
		<path d="M520.9,150c-0.6-0.2-1.1-0.6-1.5-1.1c-0.4-0.6-0.7-0.9-0.9-1.7c-0.2-0.6-0.4-1.3-0.4-1.9c0-0.7,0-1.3,0.4-1.9
			c0.2-0.6,0.6-1.1,0.9-1.7c0.4-0.4,0.9-0.7,1.5-1.1c0.6-0.2,1.1-0.4,1.9-0.4s1.3,0.2,1.9,0.4c0.6,0.2,0.9,0.6,1.5,1.1
			c0.4,0.4,0.7,0.9,0.9,1.7c0.2,0.6,0.4,1.3,0.4,1.9c0,0.7,0,1.3-0.4,1.9c-0.2,0.6-0.6,1.1-0.9,1.7c-0.4,0.4-0.9,0.7-1.5,1.1
			c-0.6,0.2-1.3,0.4-1.9,0.4C522,150.4,521.4,150.2,520.9,150z M524.2,149.1c0.4-0.2,0.7-0.6,1.1-0.9c0.2-0.4,0.6-0.7,0.6-1.3
			c0.2-0.6,0.2-0.9,0.2-1.5c0-0.6,0-0.9-0.2-1.5c-0.2-0.6-0.4-0.9-0.6-1.3c-0.2-0.4-0.6-0.7-1.1-0.9c-0.4-0.2-0.9-0.4-1.5-0.4
			s-1.1,0.2-1.5,0.4c-0.4,0.2-0.7,0.6-1.1,0.9c-0.2,0.4-0.6,0.7-0.6,1.3c-0.2,0.6-0.2,0.9-0.2,1.5c0,0.6,0,0.9,0.2,1.5
			c0.2,0.6,0.4,0.9,0.6,1.3s0.6,0.7,1.1,0.9c0.4,0.2,0.9,0.4,1.5,0.4S523.8,149.3,524.2,149.1z"/>
		<path d="M535.6,141.3c0.6,0.4,0.7,0.9,0.7,1.7c0,0.6-0.2,1.1-0.4,1.5c-0.4,0.4-0.7,0.6-1.3,0.7c0.6,0.2,1.1,0.4,1.5,0.7
			c0.4,0.4,0.6,0.9,0.6,1.7c0,0.9-0.4,1.5-0.9,2c-0.6,0.4-1.5,0.7-2.6,0.7h-4.3v-9.5h4.3C534.3,140.6,535,140.7,535.6,141.3z
			 M534.6,144.3c0.4-0.2,0.6-0.7,0.6-1.1c0-1.1-0.7-1.5-2-1.5H530v3.2h3.2C533.9,144.8,534.4,144.6,534.6,144.3z M535,148.7
			c0.4-0.4,0.6-0.7,0.6-1.3c0-0.6-0.2-0.9-0.6-1.3c-0.4-0.4-0.9-0.4-1.9-0.4H530v3.5h3.2C534.1,149.3,534.6,149.1,535,148.7z"/>
		<path d="M542.8,144.4c0.9,0,1.7,0.2,2.2,0.7c0.6,0.6,0.7,1.1,0.7,2s-0.2,1.7-0.7,2c-0.6,0.6-1.3,0.7-2.2,0.7h-4.3v-9.5h1.1v3.9
			H542.8z M544.1,148.7c0.4-0.4,0.6-0.7,0.6-1.5c0-0.6-0.2-1.1-0.6-1.5s-0.9-0.4-1.5-0.4h-2.8v3.7h2.8
			C543.2,149.3,543.7,149.1,544.1,148.7z M547.6,150.2v-9.5h1.1v9.5H547.6z"/>
		<path d="M557.3,140.6h1.5v9.6h-1.1V142l-5.2,8.2H551v-9.5h1.1v8.2L557.3,140.6z M553,138.5c-0.4-0.4-0.7-0.9-0.7-1.9h0.7
			c0,0.4,0.2,0.7,0.6,1.1c0.4,0.2,0.7,0.4,1.3,0.4c0.6,0,0.9-0.2,1.3-0.4c0.4-0.2,0.6-0.6,0.6-1.1h0.7c-0.2,0.7-0.4,1.3-0.9,1.9
			c-0.4,0.4-1.1,0.6-1.9,0.6C554.2,139.3,553.4,139.1,553,138.5z"/>
		<path class="st3" d="M815.7,245.1h-24.6c0,0,3.9-60.8-10.8-87c-10.6-19.1-23.4-25.4-29.4-27.3l-33.8,112.6h-9.3v21.3l49.5,150
			c0,0-76.4,30.8-183.8,0l54.1-148.5v-22.4h-6.5l-29.9-109.8l-42.2-38.2c0.9,0,101.7-25,101.7-25l-9.1-33h43.9l-8.6,32.3l85.9,20.2
			l-3.3,11.3c14.9,2.8,54.3,14.3,57.8,58.8C821.8,215.5,815.7,245.1,815.7,245.1z"/>
		<path class="st3" d="M1378,0H928.6v448H1378V0z"/>
		<path class="st4" d="M1300.2,371l-37.9-115.5c0,0,28.3-9.5,41.5-29.7c8.2-12.6,6.5-26.5,6.1-30.6c-2-20.8-16.2-33.4-20.8-37.5
			c-5.9-5.4-11.7-8.5-16-10.6l12.1-27.3h-169.8l8.2,18.4c-10.8-6.5-26.4-12.2-38.1,5.6c-11.5,17.8,18.2,27.3,18.2,27.3
			s-14.9,18.7,2.8,35c17.7,16.3,41.8-12.8,41.8-12.8l5.6,12.2l-63.2,210.5c31.4,4.8,68.1,8.3,109.2,8.5c42.6,0.2,80.5-3.3,112.7-8.3
			c-1.9-8.3-3.9-16.7-5.8-25.2c7.8-1.7,12.3-8.3,11.3-13C1317.2,372.9,1309,367.9,1300.2,371z M1244.8,202.1l15.8-35
			c0,0,24.6,10.4,23.2,31.9c-1.3,21.5-28.6,34.9-28.6,34.9L1244.8,202.1z"/>
		<path d="M1248.9,46.2c-0.6,0.2-0.9,0.2-1.5,0.4c-0.6,0.2-1.1,0.2-1.7,0.2c-0.6,0-1.1,0.2-1.7,0.2c-1.9,0-3.2-0.4-3.9-1.3
			c-0.8-0.9-0.9-2.4-0.6-4.5l1.1-5.4h2.2l-1.1,5.7c-0.2,0.9-0.2,1.5,0,2c0.2,0.6,0.4,0.9,0.7,1.1c0.4,0.2,0.8,0.4,1.1,0.4
			s0.9,0,1.3,0c0.9,0,2.1-0.2,3.2-0.4c1.1-0.2,2-0.4,2.6-0.7l1.7-8.2h2.2l-3.9,18h-2.2l1.7-7.8C1249.8,45.8,1249.5,46,1248.9,46.2z"
			/>
		<path d="M1257.7,53.8c-0.8-0.2-1.3-0.6-1.7-0.9c-0.4-0.4-0.7-0.9-0.9-1.7c-0.2-0.7-0.2-1.5,0-2.4c0.4-1.3,0.8-2.2,1.5-3
			c0.8-0.7,1.5-1.3,2.6-1.7c1.1-0.4,2-0.6,3.3-0.7l3.5-0.4c0.4,0,0.9-0.2,1.3-0.2s0.7-0.2,0.9-0.4c0.4-0.2,0.6-0.4,0.7-0.7
			c0.2-0.4,0.4-0.7,0.4-1.1c0.2-0.7,0.2-1.3,0-1.9c-0.2-0.4-0.4-0.9-0.8-1.1c-0.4-0.4-0.9-0.6-1.3-0.6c-0.6-0.2-1.1-0.2-1.9-0.2
			c-1.5,0-2.6,0.4-3.7,0.9c-0.9,0.7-1.7,1.7-2.1,3.2h-2.2c0.6-2,1.7-3.7,3.2-4.6c1.5-0.9,3.3-1.5,5.4-1.5c0.7,0,1.5,0,2.4,0.2
			c0.7,0.2,1.5,0.4,2,0.9c0.6,0.4,0.9,0.9,1.1,1.7c0.2,0.7,0.2,1.7,0,3l-2,9.6c-0.2,0.9,0.2,1.3,0.9,1.3c0.4,0,0.6,0,0.8-0.2
			l-0.4,1.9l-0.7,0.2c-0.2,0-0.4,0-0.7,0c-0.6,0-0.9,0-1.3-0.2c-0.4-0.2-0.5-0.4-0.7-0.6c-0.2-0.4-0.2-0.6-0.2-0.9
			c0-0.4,0.2-0.7,0.2-1.3c-0.6,0.6-1.1,1.1-1.5,1.5c-0.6,0.4-1.1,0.9-1.7,1.1c-0.6,0.4-1.1,0.6-1.9,0.7c-0.8,0.2-1.5,0.2-2.4,0.2
			C1259.2,54.1,1258.2,54,1257.7,53.8z M1263.1,51.9c0.8-0.2,1.5-0.6,2.2-1.1c0.8-0.6,1.3-1.1,1.7-1.9c0.6-0.7,0.9-1.5,0.9-2.4
			l0.6-2.8c-0.2,0.2-0.6,0.4-0.9,0.6c-0.4,0.2-0.8,0.2-1.1,0.2c-0.9,0.2-2.1,0.4-3,0.4c-0.9,0.2-2,0.4-2.8,0.6
			c-0.9,0.2-1.7,0.6-2.2,1.1c-0.6,0.6-1.1,1.1-1.3,2c-0.2,0.6-0.2,1.1,0,1.5c0.2,0.4,0.4,0.7,0.7,1.1c0.4,0.4,0.8,0.6,1.1,0.7
			c0.4,0.2,0.9,0.2,1.5,0.2C1261.4,52.3,1262.1,52.1,1263.1,51.9z"/>
		<path d="M1289.1,35.6h2.8l-3.9,18h-2.2l3.3-15.4l-13.2,15.4h-2.8l3.9-18h2.2l-3.3,15.4L1289.1,35.6z M1281.7,31.7
			c-0.7-0.7-0.9-1.9-0.7-3.3h1.3c0,0.9,0.2,1.5,0.7,2c0.6,0.6,1.3,0.7,2.4,0.7c0.9,0,1.9-0.2,2.6-0.7c0.7-0.6,1.3-1.1,1.7-2h1.3
			c-0.6,1.5-1.3,2.6-2.4,3.3c-0.9,0.7-2.2,1.1-3.7,1.1C1283.3,32.8,1282.4,32.5,1281.7,31.7z"/>
		<path d="M1306.9,43.2l1.7-7.6h2.2l-3.9,18h-2.2l1.9-8.5h-10.2l-1.9,8.5h-2.2l3.9-18h2.2l-1.7,7.6H1306.9L1306.9,43.2z"/>
		<path d="M1327,35.6h2.8l-3.9,18h-2.2l3.3-15.4l-13.2,15.4h-2.8l3.9-18h2.2l-3.4,15.4L1327,35.6z"/>
		<path d="M1346.2,35.6h3l-9.1,7l5.8,10.9h-2.8l-5-9.5l-4.5,3.3l-1.3,6.1h-2.2l3.9-18h2.2l-2.1,9.3L1346.2,35.6z"/>
		<path d="M1251,69.7l-14.3,28.9h-2l14.3-28.9H1251z"/>
		<path d="M1260.8,69.7l-14.3,28.9h-2.1l14.3-28.9H1260.8z"/>
		<path d="M1282.8,78.6c0.9,0.7,1.1,1.9,0.7,3.2c-0.2,1.1-0.7,2-1.5,2.8c-0.7,0.7-1.5,1.3-2.6,1.5c1.1,0.2,2,0.7,2.6,1.5
			c0.6,0.7,0.6,1.7,0.4,3.2c-0.4,1.7-1.1,2.8-2.4,3.7c-1.3,0.9-3,1.3-5.2,1.3h-8.2l3.9-18h8.2C1280.7,77.5,1282,77.9,1282.8,78.6z
			 M1278.7,92.7c0.9-0.6,1.5-1.5,1.7-2.6c0.2-1.1,0-1.9-0.6-2.4c-0.6-0.6-1.7-0.9-3.4-0.9h-5.8l-1.5,6.7h5.8
			C1276.6,93.6,1277.8,93.5,1278.7,92.7z M1280,84.6c0.7-0.6,1.3-1.3,1.5-2.2c0.4-2-0.6-3-3.2-3h-5.8l-1.3,5.9h5.8
			C1278.1,85.3,1279.2,84.9,1280,84.6z"/>
		<path d="M1300.8,77.5h2.8l-3.9,18h-2.2l3.4-15.4l-13.2,15.4h-2.8l3.9-18h2.2l-3.3,15.4L1300.8,77.5z"/>
		<path d="M1307.7,87.9c0.9-2.2,1.7-4.8,2.2-8.2l0.6-2.4h12.1l-3.3,16.1h2.8l-1.7,7.6h-2.2l1.3-5.7h-15.1l-1.3,5.7h-2.2l1.5-7.6h2
			C1305.8,92,1306.8,90.1,1307.7,87.9z M1312,80.7c-0.6,3-1.5,5.6-2.2,7.8c-0.9,2.2-1.9,3.9-2.8,5.2h10.2l3-14.3h-7.8L1312,80.7z"/>
		<path d="M1345.1,81.6c0.9-0.2,1.7-0.4,2.4-0.7c0.8-0.4,1.3-0.9,1.9-1.5c0.4-0.6,0.8-1.5,0.9-2.4c0.2-0.7,0.2-1.5,0-2
			c-0.2-0.6-0.4-0.9-0.9-1.3c-0.4-0.4-0.9-0.6-1.5-0.7c-0.5-0.2-1.3-0.2-2-0.2c-0.8,0-1.5,0.2-2.2,0.4c-0.8,0.2-1.3,0.6-1.9,1.1
			c-0.6,0.6-1.1,1.1-1.5,1.7c-0.4,0.7-0.7,1.3-0.9,2h-2.2c0.2-1.1,0.7-2,1.3-3c0.6-0.9,1.3-1.7,2.2-2.4c0.9-0.7,1.9-1.1,3-1.3
			c0.9-0.2,2-0.4,3-0.4c0.9,0,1.9,0.2,2.6,0.4c0.7,0.2,1.5,0.6,2,1.1c0.6,0.6,0.9,1.1,1.1,1.9c0.2,0.7,0.2,1.7,0,2.8
			c-0.4,1.3-0.8,2.4-1.5,3.3c-0.7,0.9-1.9,1.7-3.2,2.2c0.9,0.4,1.5,0.6,2,1.1c0.4,0.4,0.8,0.9,0.9,1.5c0.2,0.6,0.4,1.1,0.4,1.7
			c0,0.6,0,1.1-0.2,1.7c-0.2,0.9-0.6,2-1.1,2.8c-0.5,0.9-1.3,1.7-2,2.4c-0.8,0.7-1.7,1.3-2.8,1.7c-1.1,0.4-2.2,0.6-3.5,0.7
			c-1.5,0-2.6-0.2-3.5-0.4c-0.9-0.2-1.9-0.7-2.4-1.3c-0.6-0.6-0.9-1.3-1.1-2.4c-0.2-0.9-0.2-2.2,0-3.5h2.2c-0.2,0.9-0.2,1.7,0,2.4
			c0.2,0.7,0.4,1.3,0.9,1.9c0.4,0.6,0.9,0.9,1.7,1.1c0.8,0.2,1.5,0.4,2.4,0.4c0.9,0,1.7-0.2,2.6-0.4c0.7-0.4,1.5-0.7,2.2-1.3
			c0.7-0.6,1.1-1.1,1.7-1.9c0.4-0.7,0.7-1.3,0.7-2c0.2-0.9,0.2-1.9-0.2-2.6c-0.4-0.7-0.8-1.1-1.3-1.5c-0.6-0.4-1.5-0.6-2.4-0.7
			c-0.9-0.2-2.1-0.2-3,0l0.4-1.9C1343.2,81.8,1344.2,81.8,1345.1,81.6z"/>
		<path d="M961.7,29.9h1.5v9.5h-1.1v-7.8l-3.3,7.8h-1.1l-3.3-7.8v7.8h-1.1v-9.5h1.5l3.5,8.2L961.7,29.9z"/>
		<path d="M967,39.5c-0.4-0.2-0.7-0.2-0.9-0.6c-0.4-0.2-0.6-0.6-0.7-0.9c-0.2-0.4-0.2-0.7-0.2-1.3c0-0.7,0.2-1.1,0.4-1.5
			c0.4-0.4,0.7-0.6,1.1-0.9c0.6-0.2,1.1-0.4,1.7-0.4l1.9-0.2c0.2,0,0.4,0,0.6,0s0.4-0.2,0.4-0.2c0.2,0,0.2-0.2,0.4-0.4
			c0-0.2,0-0.4,0-0.6c0-0.4,0-0.7-0.2-0.9c-0.2-0.2-0.4-0.4-0.6-0.6c-0.2-0.2-0.6-0.2-0.7-0.4c-0.4,0-0.6,0-0.9,0
			c-0.7,0-1.3,0.2-1.9,0.6c-0.4,0.4-0.7,0.9-0.7,1.7h-1.1c0-1.1,0.4-1.9,1.1-2.4c0.7-0.6,1.7-0.7,2.8-0.7c0.4,0,0.7,0,1.3,0.2
			c0.4,0,0.7,0.2,1.1,0.4s0.6,0.6,0.7,0.9c0.2,0.4,0.4,0.9,0.4,1.5v5c0,0.4,0.2,0.7,0.7,0.7c0.2,0,0.2,0,0.4,0v0.9h-0.4
			c-0.2,0-0.2,0-0.4,0c-0.4,0-0.6,0-0.7-0.2c-0.2,0-0.4-0.2-0.4-0.4c0-0.2-0.2-0.4-0.2-0.6c0-0.2,0-0.4,0-0.7
			c-0.2,0.4-0.4,0.6-0.6,0.7c-0.2,0.2-0.4,0.4-0.7,0.6c-0.2,0.2-0.6,0.2-0.9,0.4c-0.4,0-0.7,0.2-1.1,0.2
			C967.9,39.7,967.3,39.7,967,39.5z M969.6,38.6c0.4-0.2,0.7-0.4,1.1-0.6c0.4-0.2,0.6-0.6,0.7-0.9c0.2-0.4,0.2-0.7,0.2-1.3v-1.5
			c0,0.2-0.2,0.2-0.4,0.4c-0.2,0-0.4,0.2-0.6,0.2c-0.6,0-0.9,0.2-1.5,0.2c-0.6,0-0.9,0.2-1.5,0.4c-0.4,0.2-0.7,0.4-1.1,0.6
			c-0.2,0.2-0.4,0.6-0.4,1.1c0,0.4,0,0.6,0.2,0.7c0.2,0.2,0.2,0.4,0.4,0.6c0.2,0.2,0.4,0.4,0.7,0.4c0.2,0,0.6,0.2,0.7,0.2
			C968.8,38.8,969.2,38.6,969.6,38.6z"/>
		<path d="M982.2,29.9v0.9h-3.5v8.5h-1.1v-8.5H974v-0.9H982.2z"/>
		<path d="M985.2,39.3c-0.6-0.2-0.9-0.6-1.3-1.1c-0.4-0.4-0.6-0.9-0.7-1.7c-0.2-0.6-0.2-1.3-0.2-1.9c0-0.6,0-1.3,0.2-1.9
			c0.2-0.6,0.4-1.1,0.7-1.7c0.4-0.4,0.7-0.9,1.3-1.1c0.6-0.2,1.1-0.4,2-0.4c0.9,0,1.5,0.2,2,0.4c0.6,0.4,0.9,0.7,1.3,1.1
			c0.4,0.6,0.6,1.1,0.7,1.7c0.2,0.6,0.2,1.3,0.2,2h-7.4c0,0.4,0,0.9,0.2,1.3c0.2,0.4,0.4,0.9,0.6,1.1c0.2,0.4,0.6,0.6,0.9,0.9
			c0.4,0.2,0.9,0.4,1.5,0.4c0.9,0,1.5-0.2,2-0.7c0.6-0.4,0.7-1.1,0.9-1.9h1.1c-0.2,1.1-0.7,1.9-1.3,2.6c-0.7,0.6-1.7,0.9-2.8,0.9
			C986.5,39.7,985.7,39.5,985.2,39.3z M990,32.6c-0.2-0.4-0.4-0.7-0.6-1.1c-0.2-0.4-0.6-0.6-0.9-0.7c-0.4-0.2-0.7-0.2-1.3-0.2
			c-0.6,0-0.9,0-1.3,0.2c-0.4,0.2-0.7,0.4-0.9,0.7c-0.2,0.4-0.4,0.7-0.6,1.1c-0.2,0.4-0.2,0.9-0.4,1.3h6.1
			C990.2,33.6,990.2,33.2,990,32.6z"/>
		<path d="M994.1,31.7c0.2-0.7,0.7-1.1,1.3-1.5c0.6-0.4,1.3-0.6,2-0.6c0.7,0,1.3,0.2,1.9,0.4c0.6,0.2,0.9,0.6,1.3,1.1
			c0.4,0.4,0.5,0.9,0.7,1.7c0.2,0.6,0.2,1.3,0.2,1.9c0,0.7,0,1.3-0.2,1.9s-0.4,1.1-0.7,1.7c-0.4,0.4-0.7,0.7-1.3,1.1
			c-0.6,0.2-1.1,0.4-1.9,0.4c-0.4,0-0.7,0-1.1-0.2c-0.4,0-0.7-0.2-0.9-0.4c-0.4-0.2-0.6-0.4-0.7-0.6c-0.2-0.2-0.4-0.6-0.6-0.9V43
			H993V30h1.1V31.7z M998.9,38.4c0.4-0.2,0.7-0.6,0.9-0.9c0.2-0.4,0.4-0.7,0.6-1.3c0.2-0.6,0.2-0.9,0.2-1.5c0-0.6,0-0.9-0.2-1.5
			s-0.4-0.9-0.6-1.3c-0.2-0.4-0.6-0.7-0.9-0.9s-0.9-0.4-1.5-0.4c-0.6,0-1.1,0.2-1.7,0.4c-0.4,0.2-0.7,0.6-1.1,0.9
			c-0.2,0.4-0.4,0.7-0.6,1.3c-0.2,0.6-0.2,0.9-0.2,1.5c0,0.6,0,0.9,0.2,1.5c0.2,0.6,0.4,0.9,0.6,1.3c0.2,0.4,0.6,0.7,1.1,0.9
			c0.4,0.2,0.9,0.4,1.5,0.4C998,38.8,998.6,38.6,998.9,38.4z"/>
		<path d="M1010.1,29.9h1.5v9.5h-1.1v-8.2l-5.2,8.2h-1.5v-9.5h1.1V38L1010.1,29.9z"/>
		<path d="M1015.1,39.5c-0.4-0.2-0.7-0.2-0.9-0.6c-0.4-0.2-0.5-0.6-0.7-0.9c-0.2-0.4-0.2-0.7-0.2-1.3c0-0.7,0.2-1.1,0.4-1.5
			c0.4-0.4,0.7-0.6,1.1-0.9c0.6-0.2,1.1-0.4,1.7-0.4l1.9-0.2c0.2,0,0.4,0,0.6,0c0.2,0,0.4-0.2,0.4-0.2c0.2,0,0.2-0.2,0.4-0.4
			c0-0.2,0-0.4,0-0.6c0-0.4,0-0.7-0.2-0.9c-0.2-0.2-0.4-0.4-0.6-0.6c-0.2-0.2-0.6-0.2-0.7-0.4c-0.4,0-0.6,0-0.9,0
			c-0.7,0-1.3,0.2-1.9,0.6c-0.4,0.4-0.7,0.9-0.7,1.7h-1.1c0-1.1,0.4-1.9,1.1-2.4c0.7-0.6,1.7-0.7,2.8-0.7c0.4,0,0.7,0,1.3,0.2
			c0.4,0,0.7,0.2,1.1,0.4c0.4,0.2,0.6,0.6,0.8,0.9c0.2,0.4,0.4,0.9,0.4,1.5v5c0,0.4,0.2,0.7,0.7,0.7c0.2,0,0.2,0,0.4,0v0.9h-0.4
			c-0.2,0-0.2,0-0.4,0c-0.4,0-0.6,0-0.7-0.2c-0.2,0-0.4-0.2-0.4-0.4c0-0.2-0.2-0.4-0.2-0.6c0-0.2,0-0.4,0-0.7
			c-0.2,0.4-0.4,0.6-0.6,0.7c-0.2,0.2-0.4,0.4-0.7,0.6c-0.2,0.2-0.6,0.2-0.9,0.4c-0.4,0-0.8,0.2-1.1,0.2
			C1015.9,39.7,1015.5,39.7,1015.1,39.5z M1017.7,38.6c0.4-0.2,0.7-0.4,1.1-0.6c0.4-0.2,0.6-0.6,0.8-0.9c0.2-0.4,0.2-0.7,0.2-1.3
			v-1.5c0,0.2-0.2,0.2-0.4,0.4c-0.2,0.2-0.4,0.2-0.6,0.2c-0.6,0-0.9,0.2-1.5,0.2c-0.6,0-0.9,0.2-1.5,0.4c-0.4,0.2-0.8,0.4-1.1,0.6
			c-0.2,0.2-0.4,0.6-0.4,1.1c0,0.4,0,0.6,0.2,0.7c0.2,0.2,0.2,0.4,0.4,0.6c0.2,0.2,0.4,0.4,0.7,0.4c0.2,0,0.6,0.2,0.8,0.2
			C1017,38.8,1017.4,38.6,1017.7,38.6z"/>
		<path d="M1022.9,39.5h-0.2h-0.2h-0.2v-0.9c0,0,0.2,0,0.4,0s0.4,0,0.6,0c0.2,0,0.2,0,0.4,0s0.4-0.2,0.4-0.4
			c0.2-0.2,0.4-0.4,0.4-0.7c0.2-0.4,0.2-0.9,0.4-1.5c0-0.6,0.2-1.5,0.2-2.4c0-0.9,0-2.2,0-3.5h6.3v9.5h-1.1V31h-3.9
			c0,1.3,0,2.6-0.2,3.5c0,0.9-0.2,1.7-0.4,2.4c-0.2,0.6-0.4,1.1-0.6,1.5c-0.2,0.4-0.4,0.6-0.6,0.7c-0.2,0.2-0.6,0.4-0.7,0.4
			c-0.2,0-0.6,0-0.8,0C1023.1,39.5,1023.1,39.5,1022.9,39.5z"/>
		<path d="M1036,31.9h-1.3v-1.7h1.3V31.9z M1036,39.5h-1.3v-1.7h1.3V39.5z"/>
		<path d="M954.7,61.7c-0.4-0.2-0.7-0.2-0.9-0.6c-0.4-0.2-0.6-0.6-0.7-0.9c-0.2-0.4-0.2-0.7-0.2-1.3c0-0.7,0.2-1.1,0.4-1.5
			c0.4-0.4,0.7-0.6,1.1-0.9c0.6-0.2,1.1-0.4,1.7-0.4l1.9-0.2c0.2,0,0.4,0,0.6,0c0.2,0,0.4-0.2,0.4-0.2c0.2,0,0.2-0.2,0.4-0.4
			c0-0.2,0-0.4,0-0.6c0-0.4,0-0.7-0.2-0.9c-0.2-0.2-0.4-0.4-0.6-0.6c-0.2-0.2-0.6-0.2-0.7-0.4c-0.4,0-0.6,0-0.9,0
			c-0.7,0-1.3,0.2-1.9,0.6c-0.4,0.4-0.7,0.9-0.7,1.7H953c0-1.1,0.4-1.9,1.1-2.4c0.7-0.6,1.7-0.7,2.8-0.7c0.4,0,0.7,0,1.3,0.2
			c0.4,0,0.7,0.2,1.1,0.4c0.4,0.2,0.6,0.6,0.7,0.9c0.2,0.4,0.4,0.9,0.4,1.5v5c0,0.4,0.2,0.7,0.7,0.7c0.2,0,0.2,0,0.4,0v0.9h-0.4
			c-0.2,0-0.2,0-0.4,0c-0.4,0-0.6,0-0.7-0.2c-0.2,0-0.4-0.2-0.4-0.4c0-0.2-0.2-0.4-0.2-0.6c0-0.2,0-0.4,0-0.7
			c-0.2,0.4-0.4,0.6-0.6,0.7c-0.2,0.2-0.4,0.4-0.7,0.6c-0.2,0.2-0.6,0.2-0.9,0.4c-0.4,0-0.7,0.2-1.1,0.2
			C955.4,61.7,955,61.7,954.7,61.7z M957.3,60.6c0.4-0.2,0.7-0.4,1.1-0.6c0.4-0.2,0.6-0.6,0.7-0.9c0.2-0.4,0.2-0.7,0.2-1.3v-1.5
			c0,0.2-0.2,0.2-0.4,0.4c-0.2,0-0.4,0.2-0.6,0.2c-0.6,0-0.9,0.2-1.5,0.2s-0.9,0.2-1.5,0.4c-0.4,0.2-0.7,0.4-1.1,0.6
			c-0.2,0.2-0.4,0.6-0.4,1.1c0,0.4,0,0.6,0.2,0.7c0.2,0.2,0.2,0.4,0.4,0.6c0.2,0.2,0.4,0.4,0.7,0.4c0.2,0,0.6,0.2,0.7,0.2
			C956.4,60.8,956.9,60.8,957.3,60.6z"/>
		<path d="M962.5,61.6h-0.2h-0.2h-0.2v-0.9c0,0,0.2,0,0.4,0s0.4,0,0.6,0c0.2,0,0.2,0,0.4,0c0.2,0,0.4-0.2,0.4-0.4
			c0.2-0.2,0.4-0.4,0.4-0.7c0.2-0.4,0.2-0.9,0.4-1.5c0-0.6,0.2-1.5,0.2-2.4c0-0.9,0-2.2,0-3.5h6.3v9.5h-1.1V53h-4.1
			c0,1.3,0,2.6-0.2,3.5c0,0.9-0.2,1.7-0.4,2.4c-0.2,0.6-0.4,1.1-0.6,1.5c-0.2,0.4-0.4,0.6-0.6,0.7c-0.2,0.2-0.6,0.4-0.7,0.4
			C963,61.6,962.7,61.6,962.5,61.6C962.7,61.6,962.5,61.6,962.5,61.6z"/>
		<path d="M979.2,61.4c-0.6-0.2-0.9-0.6-1.3-0.9c-0.4-0.4-0.7-0.9-0.9-1.5c-0.2-0.6-0.4-1.1-0.4-1.9h-2v4.5h-1.1v-9.5h1.1v4.1h2.2
			c0-0.6,0.2-1.1,0.4-1.7c0.2-0.6,0.6-0.9,0.9-1.3c0.4-0.4,0.7-0.7,1.3-0.9c0.6-0.2,1.1-0.4,1.7-0.4c0.7,0,1.3,0.2,1.9,0.4
			c0.6,0.2,0.9,0.6,1.3,1.1c0.4,0.4,0.7,0.9,0.9,1.7c0.2,0.6,0.4,1.3,0.4,1.9c0,0.6,0,1.3-0.4,1.9c-0.2,0.6-0.6,1.1-0.9,1.7
			c-0.4,0.4-0.9,0.7-1.3,1.1c-0.6,0.2-1.1,0.4-1.9,0.4C980.3,61.7,979.6,61.7,979.2,61.4z M982.4,60.5c0.4-0.2,0.7-0.6,0.9-0.9
			c0.2-0.4,0.6-0.7,0.6-1.3c0.2-0.6,0.2-0.9,0.2-1.5s0-0.9-0.2-1.5c-0.2-0.6-0.4-0.9-0.6-1.3c-0.2-0.4-0.6-0.7-0.9-0.9
			c-0.4-0.2-0.9-0.4-1.3-0.4c-0.6,0-0.9,0.2-1.3,0.4c-0.4,0.2-0.7,0.6-0.9,0.9c-0.2,0.4-0.6,0.7-0.6,1.3c-0.2,0.6-0.2,0.9-0.2,1.5
			s0,0.9,0.2,1.5c0.2,0.6,0.4,0.9,0.6,1.3c0.2,0.4,0.6,0.7,0.9,0.9c0.4,0.2,0.9,0.4,1.3,0.4S981.8,60.8,982.4,60.5z"/>
		<path d="M995.6,52.1h1.5v9.5H996v-7.8l-3.3,7.8h-1.1l-3.3-7.8v7.8H987v-9.5h1.5l3.5,8.2L995.6,52.1z"/>
		<path d="M1005.8,52.1h1.5v9.5h-1.1v-8.2l-5.2,8.2h-1.5v-9.5h1.1v8.2L1005.8,52.1z"/>
		<path d="M1016,56v-4.1h1.1v9.5h-1.1v-4.5h-5.4v4.5h-1.1v-9.5h1.1V56H1016z"/>
		<path d="M1025.9,52.1h1.5v9.5h-1.1v-8.2l-5.2,8.2h-1.5v-9.5h1.1v8.2L1025.9,52.1z"/>
		<path d="M1036,52.1h1.5v9.5h-1.1v-8.2l-5.2,8.2h-1.5v-9.5h1.1v8.2L1036,52.1z M1031.5,50.1c-0.4-0.4-0.7-0.9-0.7-1.9h0.7
			c0,0.4,0.2,0.7,0.6,1.1c0.4,0.2,0.7,0.4,1.3,0.4c0.6,0,0.9-0.2,1.3-0.4c0.4-0.2,0.6-0.6,0.6-1.1h0.8c-0.2,0.7-0.4,1.3-0.9,1.9
			c-0.4,0.4-1.1,0.6-1.9,0.6C1032.6,50.6,1032.1,50.4,1031.5,50.1z"/>
		<path d="M954.3,96.4v8.5h5.2v-8.5h1.1v8.5h1.5v4.1H961v-3h-7.8v-9.6H954.3z"/>
		<path d="M970.1,97c0.6,0.4,0.7,0.9,0.7,1.7c0,0.6-0.2,1.1-0.4,1.5c-0.4,0.4-0.7,0.6-1.3,0.7c0.6,0.2,1.1,0.4,1.5,0.7
			c0.4,0.4,0.6,0.9,0.6,1.7c0,0.9-0.4,1.5-0.9,2c-0.6,0.4-1.5,0.7-2.6,0.7h-4.3v-9.6h4.3C968.8,96.4,969.6,96.6,970.1,97z
			 M969.2,99.9c0.4-0.2,0.6-0.7,0.6-1.1c0-1.1-0.7-1.5-2-1.5h-3.2v3.2h3.2C968.3,100.5,968.8,100.3,969.2,99.9z M969.4,104.4
			c0.4-0.4,0.6-0.7,0.6-1.3c0-0.6-0.2-0.9-0.6-1.3c-0.4-0.4-0.9-0.4-1.9-0.4h-3.2v3.5h3.2C968.4,105,969,104.8,969.4,104.4z"/>
		<path d="M974.8,105.7c-0.6-0.2-0.9-0.6-1.3-1.1c-0.4-0.4-0.6-0.9-0.7-1.7c-0.2-0.6-0.2-1.3-0.2-1.9c0-0.6,0-1.3,0.2-1.9
			c0.2-0.6,0.4-1.1,0.7-1.7c0.4-0.4,0.7-0.9,1.3-1.1c0.6-0.2,1.1-0.4,2-0.4c0.7,0,1.5,0.2,2,0.4c0.6,0.4,0.9,0.7,1.3,1.1
			c0.4,0.6,0.6,1.1,0.7,1.7c0.2,0.6,0.2,1.3,0.2,2h-7.4c0,0.4,0,0.9,0.2,1.3c0.2,0.4,0.4,0.9,0.6,1.1c0.2,0.4,0.6,0.6,0.9,0.9
			c0.4,0.2,0.9,0.4,1.5,0.4c0.9,0,1.5-0.2,2-0.7c0.6-0.4,0.7-1.1,0.9-1.9h1.1c-0.2,1.1-0.7,1.9-1.3,2.6c-0.7,0.6-1.7,0.9-2.8,0.9
			C976.1,106.1,975.3,106.1,974.8,105.7z M979.6,99.2c-0.2-0.4-0.4-0.7-0.6-1.1c-0.2-0.4-0.6-0.6-0.9-0.7c-0.4-0.2-0.7-0.2-1.3-0.2
			s-0.9,0-1.3,0.2c-0.4,0.2-0.7,0.4-0.9,0.7c-0.2,0.4-0.4,0.7-0.6,1.1c-0.2,0.4-0.2,0.9-0.4,1.3h6.1
			C979.8,99.9,979.8,99.6,979.6,99.2z"/>
		<path d="M989.6,96.4v0.9h-3.5v8.5H985v-8.5h-3.5v-0.9H989.6z"/>
		<path d="M993,98.5h-1.3v-1.7h1.3V98.5z M993,105.9h-1.3v-1.7h1.3V105.9z"/>
		<path d="M955.2,127.8c-0.6-0.4-0.9-0.7-1.3-1.3c-0.4-0.6-0.6-1.1-0.7-1.9c-0.2-0.7-0.2-1.5-0.2-2.2c0-0.4,0-0.9,0-1.5
			c0-0.6,0.2-0.9,0.2-1.5s0.2-0.9,0.4-1.3c0.2-0.4,0.4-0.9,0.6-1.1c0.4-0.7,0.9-1.1,1.5-1.5c0.6-0.2,1.3-0.4,2.2-0.6h0.9
			c0.6,0,0.7,0,0.9-0.2c0.2,0,0.4-0.2,0.4-0.4h1.3c0,0.6-0.4,0.9-0.7,1.1c-0.4,0.2-0.9,0.4-1.9,0.4h-1.5c-1.1,0-1.9,0.4-2.4,1.1
			c-0.6,0.7-0.9,1.9-1.1,3.3c0.4-0.6,0.7-1.1,1.5-1.5c0.6-0.4,1.3-0.6,2-0.6c0.6,0,1.3,0.2,1.7,0.4c0.6,0.2,0.9,0.6,1.3,0.9
			c0.4,0.4,0.7,0.9,0.9,1.5c0.2,0.6,0.4,1.3,0.4,2s-0.2,1.5-0.4,2c-0.2,0.6-0.6,1.1-0.9,1.5c-0.4,0.4-0.9,0.7-1.5,0.9
			c-0.6,0.2-1.1,0.4-1.9,0.4C956.5,128.3,955.8,128.1,955.2,127.8z M958.6,127c0.4-0.2,0.7-0.4,1.1-0.7c0.2-0.4,0.6-0.7,0.7-1.3
			c0.2-0.6,0.2-0.9,0.2-1.7c0-0.6,0-1.1-0.2-1.7c-0.2-0.6-0.4-0.9-0.7-1.3c-0.4-0.4-0.6-0.6-0.9-0.7c-0.4-0.2-0.7-0.2-1.3-0.2
			c-0.6,0-0.9,0-1.3,0.2c-0.4,0.2-0.7,0.4-1.1,0.7c-0.4,0.4-0.6,0.7-0.7,1.3c-0.2,0.6-0.2,0.9-0.2,1.7c0,0.6,0,1.1,0.2,1.7
			c0.2,0.6,0.4,0.9,0.7,1.3c0.2,0.4,0.6,0.6,1.1,0.7c0.4,0.2,0.7,0.4,1.3,0.4C957.8,127.4,958.2,127.2,958.6,127z"/>
		<path d="M965.3,127.9c-0.6-0.2-0.9-0.6-1.3-1.1c-0.4-0.4-0.6-0.9-0.7-1.7c-0.2-0.6-0.2-1.3-0.2-1.9c0-0.6,0-1.3,0.2-1.9
			c0.2-0.6,0.4-1.1,0.7-1.7c0.4-0.4,0.7-0.9,1.3-1.1c0.6-0.2,1.1-0.4,2-0.4c0.9,0,1.5,0.2,2,0.4c0.6,0.4,0.9,0.7,1.3,1.1
			c0.4,0.6,0.6,1.1,0.7,1.7c0.2,0.6,0.2,1.3,0.2,2h-7.4c0,0.4,0,0.9,0.2,1.3c0.2,0.4,0.4,0.9,0.6,1.1c0.2,0.4,0.6,0.6,0.9,0.9
			c0.4,0.2,0.9,0.4,1.5,0.4c0.9,0,1.5-0.2,2-0.7c0.6-0.4,0.7-1.1,0.9-1.9h1.1c-0.2,1.1-0.7,1.9-1.3,2.6c-0.7,0.6-1.7,0.9-2.8,0.9
			C966.6,128.3,965.8,128.1,965.3,127.9z M970.1,121.3c-0.2-0.4-0.4-0.7-0.6-1.1c-0.2-0.4-0.6-0.6-0.9-0.7c-0.4-0.2-0.7-0.2-1.3-0.2
			c-0.6,0-0.9,0-1.3,0.2c-0.4,0.2-0.7,0.4-0.9,0.7c-0.2,0.4-0.4,0.7-0.6,1.1c-0.2,0.4-0.2,0.9-0.4,1.3h6.1
			C970.3,122.2,970.3,121.6,970.1,121.3z"/>
		<path d="M972.7,128.1h-0.2h-0.2h-0.2v-0.9c0,0,0.2,0,0.4,0c0.2,0,0.4,0,0.6,0c0.2,0,0.2,0,0.4,0c0.2,0,0.4-0.2,0.4-0.4
			c0.2-0.2,0.4-0.4,0.4-0.7c0.2-0.4,0.2-0.9,0.4-1.5c0-0.6,0.2-1.5,0.2-2.4c0-0.9,0-2.2,0-3.5h6.3v9.3H980v-8.5h-3.9
			c0,1.3,0,2.6-0.2,3.5c0,0.9-0.2,1.7-0.4,2.4c-0.2,0.6-0.4,1.1-0.6,1.5c-0.2,0.4-0.4,0.6-0.6,0.7c-0.2,0.2-0.6,0.4-0.7,0.4
			c-0.2,0-0.6,0-0.7,0C972.9,128.1,972.9,128.1,972.7,128.1z"/>
		<path d="M987.8,122.4c0.9,0,1.7,0.2,2.2,0.7c0.6,0.6,0.7,1.1,0.7,2c0,0.9-0.2,1.7-0.7,2c-0.6,0.6-1.3,0.7-2.2,0.7h-4.3v-9.5h1.1
			v3.9H987.8z M989.1,126.5c0.4-0.4,0.6-0.7,0.6-1.5c0-0.6-0.2-1.1-0.6-1.5c-0.4-0.4-0.9-0.4-1.5-0.4h-2.8v3.7h2.8
			C988.2,127,988.7,126.8,989.1,126.5z M992.6,127.9v-9.5h1.1v9.5H992.6z"/>
		<path d="M1002.5,118.5h1.5v9.5h-1.1v-8.2l-5.2,8.2h-1.5v-9.5h1.1v8.2L1002.5,118.5z M998,116.4c-0.4-0.4-0.7-0.9-0.7-1.9h0.7
			c0,0.4,0.2,0.7,0.6,1.1c0.4,0.2,0.7,0.4,1.3,0.4c0.6,0,0.9-0.2,1.3-0.4c0.4-0.2,0.6-0.6,0.6-1.1h0.8c-0.2,0.7-0.4,1.3-0.9,1.9
			c-0.4,0.4-1.1,0.6-1.9,0.6C999.1,117,998.6,116.8,998,116.4z"/>
		<path d="M955.2,172.1c-0.6-0.2-1.1-0.6-1.5-1.1c-0.4-0.4-0.7-0.9-0.9-1.7c-0.2-0.6-0.4-1.3-0.4-1.9c0-0.7,0-1.3,0.4-1.9
			c0.2-0.6,0.6-1.1,0.9-1.7c0.4-0.4,0.9-0.7,1.5-1.1c0.6-0.2,1.1-0.4,1.9-0.4c0.7,0,1.3,0.2,1.9,0.4c0.6,0.2,0.9,0.6,1.5,1.1
			c0.4,0.4,0.7,0.9,0.9,1.7c0.2,0.6,0.4,1.3,0.4,1.9c0,0.7,0,1.3-0.4,1.9c-0.2,0.6-0.6,1.1-0.9,1.7s-0.9,0.7-1.5,1.1
			c-0.6,0.2-1.3,0.4-1.9,0.4C956.5,172.6,955.8,172.4,955.2,172.1z M958.8,171.3c0.4-0.2,0.7-0.6,1.1-0.9c0.2-0.4,0.6-0.7,0.6-1.3
			c0.2-0.6,0.2-0.9,0.2-1.5s0-0.9-0.2-1.5c-0.2-0.6-0.4-0.9-0.6-1.3c-0.2-0.4-0.6-0.7-1.1-0.9c-0.4-0.2-0.9-0.4-1.5-0.4
			s-1.1,0.2-1.5,0.4c-0.4,0.2-0.7,0.6-1.1,0.9c-0.2,0.4-0.6,0.7-0.6,1.3c-0.2,0.6-0.2,0.9-0.2,1.5s0,0.9,0.2,1.5
			c0.2,0.6,0.4,0.9,0.6,1.3c0.2,0.4,0.6,0.7,1.1,0.9c0.4,0.2,0.9,0.4,1.5,0.4C957.8,171.5,958.2,171.5,958.8,171.3z"/>
		<path d="M965.7,172.1c-0.6-0.2-1.1-0.6-1.5-1.1c-0.4-0.4-0.7-0.9-0.9-1.7c-0.2-0.6-0.4-1.3-0.4-1.9c0-0.7,0-1.3,0.4-1.9
			c0.2-0.6,0.6-1.1,0.9-1.7c0.4-0.4,0.9-0.7,1.5-1.1c0.6-0.2,1.1-0.4,1.9-0.4c0.9,0,1.9,0.2,2.6,0.7c0.7,0.6,1.1,1.3,1.3,2.4h-1.1
			c-0.2-0.7-0.4-1.3-0.9-1.7c-0.4-0.4-1.1-0.6-1.9-0.6c-0.6,0-1.1,0.2-1.5,0.4c-0.4,0.2-0.7,0.6-1.1,0.9c-0.2,0.4-0.6,0.7-0.6,1.3
			c-0.2,0.6-0.2,0.9-0.2,1.5c0,0.6,0,0.9,0.2,1.5c0.2,0.6,0.4,0.9,0.6,1.3c0.2,0.4,0.6,0.7,1.1,0.9c0.4,0.2,0.9,0.4,1.5,0.4
			c0.4,0,0.7,0,0.9-0.2c0.4-0.2,0.6-0.4,0.9-0.6c0.2-0.2,0.4-0.6,0.6-0.9c0.2-0.4,0.2-0.7,0.4-1.1h1.1c-0.2,1.1-0.6,2-1.3,2.8
			c-0.7,0.6-1.5,0.9-2.6,0.9C966.8,172.6,966.2,172.4,965.7,172.1z"/>
		<path d="M975.1,172.1c-0.6-0.2-1.1-0.6-1.5-1.1c-0.4-0.4-0.7-0.9-0.9-1.7c-0.2-0.6-0.4-1.3-0.4-1.9c0-0.7,0-1.3,0.4-1.9
			c0.2-0.6,0.6-1.1,0.9-1.7c0.4-0.4,0.9-0.7,1.5-1.1c0.6-0.2,1.1-0.4,1.9-0.4c0.7,0,1.3,0.2,1.9,0.4c0.6,0.2,0.9,0.6,1.5,1.1
			c0.4,0.4,0.7,0.9,0.9,1.7c0.2,0.6,0.4,1.3,0.4,1.9c0,0.7,0,1.3-0.4,1.9c-0.2,0.6-0.6,1.1-0.9,1.7c-0.4,0.4-0.9,0.7-1.5,1.1
			c-0.6,0.2-1.3,0.4-1.9,0.4C976.4,172.6,975.7,172.4,975.1,172.1z M978.7,171.3c0.4-0.2,0.7-0.6,1.1-0.9c0.2-0.4,0.6-0.7,0.6-1.3
			c0.2-0.6,0.2-0.9,0.2-1.5s0-0.9-0.2-1.5c-0.2-0.6-0.4-0.9-0.6-1.3c-0.2-0.4-0.6-0.7-1.1-0.9c-0.4-0.2-0.9-0.4-1.5-0.4
			s-1.1,0.2-1.5,0.4c-0.4,0.2-0.7,0.6-1.1,0.9c-0.2,0.4-0.6,0.7-0.6,1.3c-0.2,0.6-0.2,0.9-0.2,1.5s0,0.9,0.2,1.5
			c0.2,0.6,0.4,0.9,0.6,1.3c0.2,0.4,0.6,0.7,1.1,0.9c0.4,0.2,0.9,0.4,1.5,0.4C977.7,171.5,978.1,171.5,978.7,171.3z"/>
		<path d="M985.4,172.1c-0.6-0.4-0.9-0.7-1.3-1.3c-0.4-0.6-0.6-1.1-0.7-1.9c-0.2-0.7-0.2-1.5-0.2-2.2c0-0.4,0-0.9,0-1.5
			c0-0.6,0.2-0.9,0.2-1.5s0.2-0.9,0.4-1.3c0.2-0.4,0.4-0.9,0.6-1.1c0.4-0.7,0.9-1.1,1.5-1.5c0.6-0.2,1.3-0.4,2.2-0.6h0.9
			c0.6,0,0.7,0,0.9-0.2c0.2,0,0.4-0.2,0.4-0.4h1.3c0,0.6-0.4,0.9-0.7,1.1c-0.4,0.2-0.9,0.4-1.9,0.4h-1.5c-1.1,0-1.9,0.4-2.4,1.1
			c-0.6,0.7-0.9,1.9-1.1,3.3c0.4-0.6,0.7-1.1,1.5-1.5c0.6-0.4,1.3-0.6,2-0.6c0.6,0,1.3,0.2,1.7,0.4c0.6,0.2,0.9,0.6,1.3,0.9
			c0.4,0.4,0.7,0.9,0.9,1.5c0.2,0.6,0.4,1.3,0.4,2c0,0.7-0.2,1.5-0.4,2c-0.2,0.6-0.6,1.1-0.9,1.5c-0.4,0.4-0.9,0.7-1.5,0.9
			c-0.6,0.2-1.1,0.4-1.9,0.4C986.7,172.6,985.9,172.4,985.4,172.1z M988.9,171.3c0.4-0.2,0.7-0.4,1.1-0.7c0.2-0.4,0.6-0.7,0.7-1.3
			c0.2-0.6,0.2-0.9,0.2-1.7c0-0.6,0-1.1-0.2-1.7c-0.2-0.6-0.4-0.9-0.7-1.3s-0.6-0.6-0.9-0.7c-0.4-0.2-0.7-0.2-1.3-0.2
			c-0.6,0-0.9,0-1.3,0.2c-0.4,0.2-0.7,0.4-1.1,0.7c-0.4,0.4-0.6,0.7-0.7,1.3c-0.2,0.6-0.2,0.9-0.2,1.7c0,0.6,0,1.1,0.2,1.7
			c0.2,0.6,0.4,0.9,0.7,1.3c0.2,0.4,0.6,0.6,1.1,0.7c0.4,0.2,0.7,0.4,1.3,0.4C988,171.5,988.3,171.5,988.9,171.3z"/>
		<path d="M995.6,172.1c-0.6-0.2-0.9-0.6-1.3-1.1c-0.4-0.4-0.6-0.9-0.7-1.7c-0.2-0.6-0.2-1.3-0.2-1.9c0-0.6,0-1.3,0.2-1.9
			c0.2-0.6,0.4-1.1,0.7-1.7c0.4-0.4,0.7-0.9,1.3-1.1c0.6-0.2,1.1-0.4,2-0.4c0.7,0,1.5,0.2,2,0.4c0.6,0.4,0.9,0.7,1.3,1.1
			c0.4,0.6,0.6,1.1,0.7,1.7c0.2,0.6,0.2,1.3,0.2,2h-7.4c0,0.4,0,0.9,0.2,1.3c0.2,0.4,0.4,0.9,0.6,1.1c0.2,0.4,0.6,0.6,0.9,0.9
			c0.4,0.2,0.9,0.4,1.5,0.4c0.9,0,1.5-0.2,2-0.7c0.6-0.4,0.7-1.1,0.9-1.9h1.1c-0.2,1.1-0.7,1.9-1.3,2.6c-0.7,0.6-1.7,0.9-2.8,0.9
			C996.7,172.6,996.2,172.4,995.6,172.1z M1000.2,165.6c-0.2-0.4-0.4-0.7-0.6-1.1c-0.2-0.4-0.6-0.6-0.9-0.7
			c-0.4-0.2-0.7-0.2-1.3-0.2c-0.6,0-0.9,0-1.3,0.2c-0.4,0.2-0.7,0.4-0.9,0.7c-0.2,0.4-0.4,0.7-0.6,1.1c-0.2,0.4-0.2,0.9-0.4,1.3h6.1
			C1000.6,166.5,1000.4,166,1000.2,165.6z"/>
		<path d="M1009.9,166.9v-4.1h1.1v9.5h-1.1v-4.4h-5.4v4.4h-1.1v-9.5h1.1v4.1H1009.9z"/>
		<path d="M1019.8,166.9v-4.1h1.1v9.5h-1.1v-4.4h-5.4v4.4h-1.1v-9.5h1.1v4.1H1019.8z"/>
		<path d="M1025.3,172.1c-0.5-0.2-1.1-0.6-1.5-1.1c-0.4-0.4-0.8-0.9-0.9-1.7c-0.2-0.6-0.4-1.3-0.4-1.9c0-0.7,0-1.3,0.4-1.9
			c0.2-0.6,0.5-1.1,0.9-1.7c0.4-0.4,0.9-0.7,1.5-1.1c0.6-0.2,1.1-0.4,1.9-0.4c0.8,0,1.3,0.2,1.9,0.4c0.6,0.2,0.9,0.6,1.5,1.1
			c0.4,0.4,0.8,0.9,0.9,1.7c0.2,0.6,0.4,1.3,0.4,1.9c0,0.7,0,1.3-0.4,1.9c-0.2,0.6-0.6,1.1-0.9,1.7c-0.4,0.6-0.9,0.7-1.5,1.1
			c-0.5,0.2-1.3,0.4-1.9,0.4C1026.5,172.6,1025.9,172.4,1025.3,172.1z M1028.7,171.3c0.4-0.2,0.8-0.6,1.1-0.9
			c0.2-0.4,0.6-0.7,0.6-1.3c0.2-0.6,0.2-0.9,0.2-1.5s0-0.9-0.2-1.5c-0.2-0.6-0.4-0.9-0.6-1.3c-0.2-0.4-0.6-0.7-1.1-0.9
			c-0.4-0.2-0.9-0.4-1.5-0.4c-0.5,0-1.1,0.2-1.5,0.4c-0.4,0.2-0.8,0.6-1.1,0.9c-0.2,0.4-0.6,0.7-0.6,1.3c-0.2,0.6-0.2,0.9-0.2,1.5
			s0,0.9,0.2,1.5c0.2,0.6,0.4,0.9,0.6,1.3c0.2,0.4,0.6,0.7,1.1,0.9c0.4,0.2,0.9,0.4,1.5,0.4C1027.8,171.5,1028.3,171.5,1028.7,171.3
			z"/>
		<path d="M1035.6,172.1c-0.5-0.2-1.1-0.6-1.5-1.1c-0.4-0.4-0.8-0.9-0.9-1.7c-0.2-0.6-0.4-1.3-0.4-1.9c0-0.7,0-1.3,0.4-1.9
			c0.2-0.6,0.5-1.1,0.9-1.7c0.4-0.4,0.9-0.7,1.5-1.1c0.6-0.2,1.1-0.4,1.9-0.4c0.9,0,1.9,0.2,2.6,0.7c0.7,0.6,1.1,1.3,1.3,2.4h-1.1
			c-0.2-0.7-0.4-1.3-0.9-1.7c-0.4-0.4-1.1-0.6-1.9-0.6c-0.5,0-1.1,0.2-1.5,0.4c-0.4,0.2-0.8,0.6-1.1,0.9c-0.2,0.4-0.6,0.7-0.6,1.3
			c-0.2,0.6-0.2,0.9-0.2,1.5c0,0.6,0,0.9,0.2,1.5c0.2,0.6,0.4,0.9,0.6,1.3c0.2,0.4,0.6,0.7,1.1,0.9c0.4,0.2,0.9,0.4,1.5,0.4
			c0.4,0,0.8,0,0.9-0.2c0.4-0.2,0.6-0.4,0.9-0.6c0.2-0.2,0.4-0.6,0.6-0.9c0.2-0.4,0.2-0.7,0.4-1.1h1.1c-0.2,1.1-0.6,2-1.3,2.8
			c-0.8,0.6-1.5,0.9-2.6,0.9C1036.7,172.6,1036.1,172.4,1035.6,172.1z"/>
		<path d="M1050.3,162.8v0.9h-3.5v8.5h-1.1v-8.5h-3.5v-0.9H1050.3z"/>
		<path d="M1055.9,166.5c0.9,0,1.7,0.2,2.2,0.7c0.6,0.6,0.7,1.1,0.7,2s-0.2,1.7-0.7,2c-0.6,0.6-1.3,0.7-2.2,0.7h-4.7v-9.5h1.1v3.9
			H1055.9z M1057.2,170.8c0.4-0.4,0.6-0.7,0.6-1.5c0-0.6-0.2-1.1-0.6-1.5c-0.4-0.4-0.9-0.4-1.5-0.4h-3.2v3.7h3.2
			C1056.4,171.3,1056.8,171.2,1057.2,170.8z"/>
		<path d="M1062.7,164.8h-1.3v-1.7h1.3V164.8z M1062.7,172.3h-1.3v-1.7h1.3V172.3z"/>
		<path d="M953.4,198c-0.2,0-0.2,0-0.4,0v-0.9h0.4c0.2,0,0.2,0,0.4,0c0.2,0,0.6,0,0.6-0.2c0.2,0,0.4-0.2,0.4-0.4
			c0.2-0.2,0.2-0.4,0.4-0.6c0.2-0.2,0.2-0.4,0.2-0.6l0.4-1.1l-3.9-9.5h1.3l3.2,8.2l3-8.2h1.1l-4.1,10.9c-0.2,0.4-0.4,0.7-0.6,0.9
			c-0.2,0.2-0.4,0.4-0.6,0.6c-0.2,0.2-0.4,0.2-0.6,0.4c-0.2,0-0.6,0-0.9,0C953.7,198,953.6,198,953.4,198z"/>
		<path d="M970.3,184.9h1.5v9.5h-1.1v-7.8l-3.3,7.8h-1.1l-3.3-7.8v7.8h-1.1v-9.5h1.5l3.5,8.2L970.3,184.9z"/>
		<path d="M976.1,194.3c-0.6-0.2-0.9-0.6-1.3-1.1c-0.4-0.4-0.6-0.9-0.7-1.7c-0.2-0.6-0.2-1.3-0.2-1.9c0-0.6,0-1.3,0.2-1.9
			c0.2-0.6,0.4-1.1,0.7-1.7c0.4-0.4,0.7-0.9,1.3-1.1c0.6-0.2,1.1-0.4,2-0.4c0.7,0,1.5,0.2,2,0.4c0.6,0.2,0.9,0.7,1.3,1.1
			c0.4,0.6,0.6,1.1,0.7,1.7c0.2,0.6,0.2,1.3,0.2,2H975c0,0.4,0,0.9,0.2,1.3c0.2,0.4,0.4,0.9,0.6,1.1c0.2,0.4,0.6,0.6,0.9,0.9
			c0.4,0.2,0.9,0.4,1.5,0.4c0.9,0,1.5-0.2,2-0.7c0.6-0.4,0.7-1.1,0.9-1.9h1.1c-0.2,1.1-0.7,1.9-1.3,2.6c-0.7,0.6-1.7,0.9-2.8,0.9
			C977.2,194.7,976.6,194.5,976.1,194.3z M980.7,187.8c-0.2-0.4-0.4-0.7-0.6-1.1c-0.2-0.4-0.6-0.6-0.9-0.7c-0.4-0.2-0.7-0.2-1.3-0.2
			c-0.6,0-0.9,0-1.3,0.2c-0.4,0.2-0.7,0.4-0.9,0.7c-0.2,0.4-0.4,0.7-0.6,1.1c-0.2,0.4-0.2,0.9-0.4,1.3h6.1
			C980.9,188.6,980.9,188.2,980.7,187.8z"/>
		<path d="M985.6,194.3c-0.6-0.2-0.9-0.6-1.3-1.1c-0.4-0.4-0.6-0.9-0.7-1.7c-0.2-0.6-0.2-1.3-0.2-1.9c0-0.6,0-1.3,0.2-1.9
			c0.2-0.6,0.4-1.1,0.7-1.7c0.4-0.4,0.7-0.9,1.3-1.1c0.6-0.2,1.1-0.4,2-0.4c0.7,0,1.5,0.2,2,0.4c0.6,0.4,0.9,0.7,1.3,1.1
			c0.4,0.6,0.6,1.1,0.7,1.7c0.2,0.6,0.2,1.3,0.2,2h-7.4c0,0.4,0,0.9,0.2,1.3c0.2,0.4,0.4,0.9,0.6,1.1c0.2,0.4,0.6,0.6,0.9,0.9
			c0.4,0.2,0.9,0.4,1.5,0.4c0.9,0,1.5-0.2,2-0.7c0.6-0.4,0.7-1.1,0.9-1.9h1.1c-0.2,1.1-0.7,1.9-1.3,2.6c-0.7,0.6-1.7,0.9-2.8,0.9
			C986.9,194.7,986.1,194.5,985.6,194.3z M990.4,187.8c-0.2-0.4-0.4-0.7-0.6-1.1c-0.2-0.4-0.6-0.6-0.9-0.7c-0.4-0.2-0.7-0.2-1.3-0.2
			c-0.6,0-0.9,0-1.3,0.2c-0.4,0.2-0.7,0.4-0.9,0.7c-0.2,0.4-0.4,0.7-0.6,1.1c-0.2,0.4-0.2,0.9-0.4,1.3h6.1
			C990.6,188.6,990.6,188.2,990.4,187.8z"/>
		<path d="M1000.4,184.9v0.9h-3.5v8.5h-1.1v-8.5h-3.5v-0.9H1000.4z"/>
		<path d="M954.3,209c0.2-0.7,0.7-1.1,1.3-1.5c0.6-0.4,1.3-0.6,2-0.6c0.7,0,1.3,0.2,1.9,0.4c0.6,0.2,0.9,0.6,1.3,1.1
			c0.4,0.4,0.6,0.9,0.7,1.7c0.2,0.6,0.2,1.3,0.2,1.9s0,1.3-0.2,1.9c-0.2,0.6-0.4,1.1-0.7,1.7c-0.4,0.4-0.7,0.7-1.3,1.1
			c-0.6,0.2-1.1,0.4-1.9,0.4c-0.4,0-0.7,0-1.1-0.2c-0.4,0-0.7-0.2-0.9-0.4c-0.4-0.2-0.6-0.4-0.7-0.6c-0.2-0.2-0.4-0.6-0.6-0.9v5.4
			h-1.1v-13h1.1V209z M959.1,215.5c0.4-0.2,0.7-0.6,0.9-0.9c0.2-0.4,0.4-0.7,0.6-1.3c0.2-0.6,0.2-0.9,0.2-1.5c0-0.6,0-0.9-0.2-1.5
			c-0.2-0.6-0.4-0.9-0.6-1.3c-0.2-0.4-0.6-0.7-0.9-0.9c-0.4-0.2-0.9-0.4-1.5-0.4c-0.6,0-1.1,0.2-1.7,0.4c-0.4,0.2-0.7,0.6-1.1,0.9
			c-0.2,0.4-0.4,0.7-0.6,1.3c-0.2,0.6-0.2,0.9-0.2,1.5c0,0.6,0,0.9,0.2,1.5c0.2,0.6,0.4,0.9,0.6,1.3c0.2,0.4,0.6,0.7,1.1,0.9
			c0.4,0.2,0.9,0.4,1.5,0.4C958.2,215.8,958.8,215.8,959.1,215.5z"/>
		<path d="M965.3,216.8c-0.4-0.2-0.7-0.2-0.9-0.6c-0.4-0.2-0.6-0.6-0.7-0.9s-0.2-0.7-0.2-1.3c0-0.7,0.2-1.1,0.4-1.5
			c0.4-0.4,0.7-0.6,1.1-0.9c0.6-0.2,1.1-0.4,1.7-0.4l1.9-0.2c0.2,0,0.4,0,0.6,0c0.2,0,0.4-0.2,0.4-0.2c0.2,0,0.2-0.2,0.4-0.4
			c0-0.2,0-0.4,0-0.6c0-0.4,0-0.7-0.2-0.9c-0.2-0.2-0.4-0.4-0.6-0.6c-0.2-0.2-0.6-0.2-0.7-0.4c-0.4,0-0.6,0-0.9,0
			c-0.7,0-1.3,0.2-1.9,0.6c-0.4,0.4-0.7,0.9-0.7,1.7h-1.1c0-1.1,0.4-1.9,1.1-2.4c0.7-0.6,1.7-0.7,2.8-0.7c0.4,0,0.7,0,1.3,0.2
			c0.4,0,0.7,0.2,1.1,0.4c0.4,0.2,0.6,0.6,0.7,0.9c0.2,0.4,0.4,0.9,0.4,1.5v5c0,0.4,0.2,0.7,0.7,0.7c0.2,0,0.2,0,0.4,0v0.9h-0.4
			c-0.2,0-0.2,0-0.4,0c-0.4,0-0.6,0-0.7-0.2c-0.2,0-0.4-0.2-0.4-0.4c0-0.2-0.2-0.4-0.2-0.6c0-0.2,0-0.4,0-0.7
			c-0.2,0.4-0.4,0.6-0.6,0.7c-0.2,0.2-0.4,0.4-0.7,0.6c-0.2,0.2-0.6,0.2-0.9,0.4c-0.4,0-0.7,0.2-1.1,0.2
			C966,217,965.7,216.8,965.3,216.8z M967.9,215.7c0.4-0.2,0.7-0.4,1.1-0.6c0.4-0.2,0.6-0.6,0.7-0.9s0.2-0.7,0.2-1.3v-1.5
			c0,0.2-0.2,0.2-0.4,0.4c-0.2,0-0.4,0.2-0.6,0.2c-0.6,0-0.9,0.2-1.5,0.2s-0.9,0.2-1.5,0.4c-0.4,0.2-0.7,0.4-1.1,0.6
			c-0.2,0.2-0.4,0.6-0.4,1.1c0,0.4,0,0.6,0.2,0.7c0.2,0.2,0.2,0.4,0.4,0.6c0.2,0.2,0.4,0.4,0.7,0.4c0.2,0,0.6,0.2,0.7,0.2
			C967,215.8,967.5,215.8,967.9,215.7z"/>
		<path d="M973.8,216c-0.6-0.6-0.9-1.3-1.1-2.4h1.1c0,0.4,0.2,0.7,0.2,0.9c0.2,0.2,0.4,0.6,0.6,0.7c0.2,0.2,0.6,0.4,0.7,0.4
			c0.4,0.2,0.7,0.2,1.1,0.2c0.6,0,0.9,0,1.3-0.2c0.4-0.2,0.6-0.4,0.7-0.6c0.2-0.2,0.4-0.4,0.4-0.7c0-0.2,0.2-0.6,0.2-0.7
			c0-0.6-0.2-0.9-0.4-1.3c-0.4-0.4-0.9-0.6-1.5-0.6h-1.7v-0.9h1.3c0.6,0,1.1-0.2,1.5-0.4c0.4-0.4,0.6-0.7,0.6-1.3c0-0.2,0-0.4,0-0.6
			c0-0.2-0.2-0.4-0.4-0.6c-0.2-0.2-0.4-0.4-0.7-0.4s-0.7-0.2-1.1-0.2c-0.9,0-1.5,0.2-1.9,0.6c-0.4,0.4-0.6,0.9-0.7,1.5h-1.1
			c0-0.6,0.2-1.1,0.4-1.5c0.2-0.4,0.6-0.7,0.7-0.9c0.4-0.2,0.7-0.4,1.1-0.6c0.4,0,0.9-0.2,1.3-0.2c0.6,0,0.9,0,1.3,0.2
			c0.4,0,0.7,0.2,1.1,0.4c0.4,0.2,0.6,0.6,0.7,0.7c0.2,0.4,0.2,0.7,0.2,1.1c0,0.2,0,0.6-0.2,0.7c0,0.2-0.2,0.4-0.4,0.6
			c-0.2,0.2-0.4,0.4-0.6,0.4c-0.2,0.2-0.4,0.2-0.6,0.2c0.2,0,0.4,0.2,0.7,0.2c0.2,0,0.4,0.2,0.6,0.4c0.2,0.2,0.4,0.4,0.4,0.7
			c0.2,0.2,0.2,0.6,0.2,0.9c0,0.6-0.2,0.9-0.4,1.3c-0.2,0.4-0.6,0.7-0.7,0.9c-0.4,0.2-0.7,0.4-1.3,0.6c-0.4,0.2-0.9,0.2-1.5,0.2
			C975.5,217,974.6,216.6,973.8,216z"/>
		<path d="M983.7,208.1v8.5h-1.1v-9.5h6.3v0.9H983.7z"/>
		<path d="M991.9,216.4c-0.6-0.2-1.1-0.6-1.5-1.1c-0.4-0.4-0.7-0.9-0.9-1.7c-0.2-0.6-0.4-1.3-0.4-1.9c0-0.6,0-1.3,0.4-1.9
			c0.2-0.6,0.6-1.1,0.9-1.7c0.4-0.4,0.9-0.7,1.5-1.1c0.6-0.2,1.1-0.4,1.9-0.4c0.7,0,1.3,0.2,1.9,0.4c0.6,0.2,0.9,0.6,1.5,1.1
			c0.4,0.4,0.7,0.9,0.9,1.7c0.2,0.6,0.4,1.3,0.4,1.9c0,0.6,0,1.3-0.4,1.9c-0.2,0.6-0.6,1.1-0.9,1.7c-0.4,0.4-0.9,0.7-1.5,1.1
			c-0.6,0.2-1.3,0.4-1.9,0.4C993.2,217,992.4,216.8,991.9,216.4z M995.2,215.5c0.4-0.2,0.7-0.6,1.1-0.9c0.2-0.4,0.6-0.7,0.6-1.3
			c0.2-0.6,0.2-0.9,0.2-1.5c0-0.6,0-0.9-0.2-1.5c-0.2-0.6-0.4-0.9-0.6-1.3c-0.2-0.4-0.6-0.7-1.1-0.9c-0.4-0.2-0.9-0.4-1.5-0.4
			c-0.6,0-1.1,0.2-1.5,0.4c-0.4,0.2-0.7,0.6-1.1,0.9c-0.2,0.4-0.6,0.7-0.6,1.3c-0.2,0.6-0.2,0.9-0.2,1.5c0,0.6,0,0.9,0.2,1.5
			s0.4,0.9,0.6,1.3c0.2,0.4,0.6,0.7,1.1,0.9c0.4,0.2,0.9,0.4,1.5,0.4C994.5,215.8,994.9,215.8,995.2,215.5z"/>
		<path d="M1006.8,207.7c0.6,0.4,0.8,0.9,0.8,1.7c0,0.6-0.2,1.1-0.4,1.5c-0.4,0.4-0.8,0.6-1.3,0.7c0.6,0.2,1.1,0.4,1.5,0.7
			c0.4,0.4,0.6,0.9,0.6,1.7c0,0.9-0.4,1.5-0.9,2c-0.6,0.4-1.5,0.7-2.6,0.7h-4.3v-9.5h4.3C1005.5,207.1,1006.2,207.3,1006.8,207.7z
			 M1005.8,210.8c0.4-0.2,0.6-0.7,0.6-1.1c0-1.1-0.7-1.5-2-1.5h-3.2v3.2h3.2C1005.1,211.2,1005.5,211,1005.8,210.8z M1006.2,215.1
			c0.4-0.4,0.5-0.7,0.5-1.3c0-0.6-0.2-0.9-0.5-1.3c-0.4-0.4-0.9-0.4-1.9-0.4h-3.2v3.5h3.2C1005.1,215.7,1005.8,215.5,1006.2,215.1z"
			/>
		<path d="M1011,216.8c-0.4-0.2-0.7-0.2-0.9-0.6c-0.4-0.2-0.6-0.6-0.7-0.9c-0.2-0.4-0.2-0.7-0.2-1.3c0-0.7,0.2-1.1,0.4-1.5
			c0.4-0.4,0.8-0.6,1.1-0.9c0.6-0.2,1.1-0.4,1.7-0.4l1.9-0.2c0.2,0,0.4,0,0.6,0c0.2,0,0.4-0.2,0.4-0.2c0.2,0,0.2-0.2,0.4-0.4
			c0-0.2,0-0.4,0-0.6c0-0.4,0-0.7-0.2-0.9c-0.2-0.2-0.4-0.4-0.6-0.6c-0.2-0.2-0.6-0.2-0.7-0.4c-0.4,0-0.6,0-0.9,0
			c-0.8,0-1.3,0.2-1.9,0.6c-0.4,0.4-0.8,0.9-0.8,1.7h-0.9c0-1.1,0.4-1.9,1.1-2.4c0.7-0.6,1.7-0.7,2.8-0.7c0.4,0,0.7,0,1.3,0.2
			c0.4,0,0.8,0.2,1.1,0.4c0.4,0.2,0.6,0.6,0.7,0.9c0.2,0.4,0.4,0.9,0.4,1.5v5c0,0.4,0.2,0.7,0.8,0.7c0.2,0,0.2,0,0.4,0v0.9h-0.4
			c-0.2,0-0.2,0-0.4,0c-0.4,0-0.6,0-0.8-0.2c-0.2,0-0.4-0.2-0.4-0.4c0-0.2-0.2-0.4-0.2-0.6c0-0.2,0-0.4,0-0.7
			c-0.2,0.4-0.4,0.6-0.5,0.7c-0.2,0.2-0.4,0.4-0.8,0.6c-0.2,0.2-0.6,0.2-0.9,0.4c-0.4,0-0.7,0.2-1.1,0.2
			C1012,217,1011.6,216.8,1011,216.8z M1013.8,215.7c0.4-0.2,0.8-0.4,1.1-0.6c0.4-0.2,0.6-0.6,0.7-0.9c0.2-0.4,0.2-0.7,0.2-1.3v-1.5
			c0,0.2-0.2,0.2-0.4,0.4c-0.2,0-0.4,0.2-0.6,0.2c-0.6,0-0.9,0.2-1.5,0.2s-0.9,0.2-1.5,0.4c-0.4,0.2-0.7,0.4-1.1,0.6
			c-0.2,0.2-0.4,0.6-0.4,1.1c0,0.4,0,0.6,0.2,0.7s0.2,0.4,0.4,0.6c0.2,0.2,0.4,0.4,0.8,0.4c0.2,0,0.5,0.2,0.7,0.2
			C1012.9,215.8,1013.3,215.8,1013.8,215.7z"/>
		<path d="M1020.3,209c0.2-0.7,0.8-1.1,1.3-1.5c0.6-0.4,1.3-0.6,2-0.6c0.7,0,1.3,0.2,1.9,0.4c0.6,0.2,0.9,0.6,1.3,1.1
			c0.4,0.4,0.6,0.9,0.8,1.7c0.2,0.6,0.2,1.3,0.2,1.9s0,1.3-0.2,1.9c-0.2,0.6-0.4,1.1-0.8,1.7c-0.4,0.4-0.7,0.7-1.3,1.1
			c-0.6,0.2-1.1,0.4-1.9,0.4c-0.4,0-0.7,0-1.1-0.2c-0.4,0-0.7-0.2-0.9-0.4c-0.4-0.2-0.5-0.4-0.7-0.6c-0.2-0.2-0.4-0.6-0.6-0.9v5.4
			h-1.1v-13h1.1V209z M1025.2,215.5c0.4-0.2,0.7-0.6,0.9-0.9c0.2-0.4,0.4-0.7,0.6-1.3c0.2-0.6,0.2-0.9,0.2-1.5c0-0.6,0-0.9-0.2-1.5
			c-0.2-0.6-0.4-0.9-0.6-1.3c-0.2-0.4-0.6-0.7-0.9-0.9c-0.4-0.2-0.9-0.4-1.5-0.4s-1.1,0.2-1.7,0.4c-0.4,0.2-0.8,0.6-1.1,0.9
			c-0.2,0.4-0.4,0.7-0.6,1.3c-0.2,0.6-0.2,0.9-0.2,1.5c0,0.6,0,0.9,0.2,1.5c0.2,0.6,0.4,0.9,0.6,1.3s0.6,0.7,1.1,0.9
			c0.4,0.2,0.9,0.4,1.5,0.4C1024.4,215.8,1024.8,215.8,1025.2,215.5z"/>
		<path d="M1036.3,207.1h1.5v9.5h-1.1v-8.2l-5.2,8.2h-1.5v-9.5h1.1v8.2L1036.3,207.1z"/>
		<path d="M1046.6,207.7c0.6,0.4,0.7,0.9,0.7,1.7c0,0.6-0.2,1.1-0.4,1.5c-0.4,0.4-0.7,0.6-1.3,0.7c0.6,0.2,1.1,0.4,1.5,0.7
			c0.4,0.4,0.6,0.9,0.6,1.7c0,0.9-0.4,1.5-0.9,2c-0.6,0.6-1.5,0.7-2.6,0.7h-4.3v-9.5h4.3C1045.3,207.1,1046,207.3,1046.6,207.7z
			 M1045.8,210.8c0.4-0.2,0.6-0.7,0.6-1.1c0-1.1-0.7-1.5-2-1.5h-3.2v3.2h3.2C1044.9,211.2,1045.4,211,1045.8,210.8z M1046,215.1
			c0.4-0.4,0.6-0.7,0.6-1.3c0-0.6-0.2-0.9-0.6-1.3c-0.4-0.4-0.9-0.4-1.9-0.4h-3v3.5h3.2C1045.1,215.7,1045.6,215.5,1046,215.1z"/>
		<path d="M1051,216.8c-0.4-0.2-0.7-0.2-0.9-0.6c-0.4-0.2-0.6-0.6-0.7-0.9c-0.2-0.4-0.2-0.7-0.2-1.3c0-0.7,0.2-1.1,0.4-1.5
			c0.4-0.4,0.8-0.6,1.1-0.9c0.6-0.2,1.1-0.4,1.7-0.4l1.9-0.2c0.2,0,0.4,0,0.6,0c0.2,0,0.4-0.2,0.4-0.2c0.2,0,0.2-0.2,0.4-0.4
			c0-0.2,0-0.4,0-0.6c0-0.4,0-0.7-0.2-0.9c-0.2-0.2-0.4-0.4-0.6-0.6c-0.2-0.2-0.6-0.2-0.7-0.4c-0.4,0-0.6,0-0.9,0
			c-0.8,0-1.3,0.2-1.9,0.6c-0.4,0.4-0.8,0.9-0.8,1.7h-1.1c0-1.1,0.4-1.9,1.1-2.4c0.8-0.6,1.7-0.7,2.8-0.7c0.4,0,0.8,0,1.3,0.2
			c0.4,0,0.8,0.2,1.1,0.4c0.4,0.2,0.6,0.6,0.7,0.9c0.2,0.4,0.4,0.9,0.4,1.5v5c0,0.4,0.2,0.7,0.7,0.7c0.2,0,0.2,0,0.4,0v0.9h-0.4
			c-0.2,0-0.2,0-0.4,0c-0.4,0-0.6,0-0.8-0.2c-0.2,0-0.4-0.2-0.4-0.4c0-0.2-0.2-0.4-0.2-0.6c0-0.2,0-0.4,0-0.7
			c-0.2,0.4-0.4,0.6-0.6,0.7c-0.2,0.2-0.4,0.4-0.8,0.6c-0.2,0.2-0.6,0.2-0.9,0.4c-0.4,0-0.7,0.2-1.1,0.2
			C1051.8,217,1051.4,216.8,1051,216.8z M1053.6,215.7c0.4-0.2,0.8-0.4,1.1-0.6c0.4-0.2,0.6-0.6,0.7-0.9c0.2-0.4,0.2-0.7,0.2-1.3
			v-1.5c0,0.2-0.2,0.2-0.4,0.4c-0.2,0-0.4,0.2-0.6,0.2c-0.6,0-0.9,0.2-1.5,0.2s-0.9,0.2-1.5,0.4c-0.4,0.2-0.7,0.4-1.1,0.6
			c-0.2,0.2-0.4,0.6-0.4,1.1c0,0.4,0,0.6,0.2,0.7c0.2,0.2,0.2,0.4,0.4,0.6c0.2,0.2,0.4,0.4,0.8,0.4c0.2,0,0.6,0.2,0.7,0.2
			C1052.7,215.8,1053.2,215.8,1053.6,215.7z"/>
		<path d="M1066.3,207.1v0.9h-3.5v8.5h-1.1v-8.5h-3.5v-0.9H1066.3z"/>
		<path d="M1072,210.8c0.9,0,1.7,0.2,2.2,0.7c0.6,0.6,0.7,1.1,0.7,2s-0.2,1.7-0.7,2c-0.6,0.6-1.3,0.7-2.2,0.7h-4.7v-9.5h1.1v3.9
			H1072z M1073.3,215.1c0.4-0.4,0.6-0.7,0.6-1.5c0-0.6-0.2-1.1-0.6-1.5c-0.4-0.4-0.9-0.4-1.5-0.4h-3.2v3.7h3.2
			C1072.4,215.7,1073,215.5,1073.3,215.1z"/>
		<path class="st2" d="M1842.3,0H1393v448h449.4V0z"/>
		<path d="M1722.5,381.2c-0.6,0.2-0.9,0.2-1.5,0.4c-0.6,0.2-1.1,0.2-1.7,0.2c-0.6,0-1.1,0.2-1.7,0.2c-1.9,0-3.2-0.4-3.9-1.3
			c-0.7-0.9-0.9-2.4-0.6-4.5l1.1-5.4h2.2l-1.1,5.7c-0.2,0.9-0.2,1.5,0,2c0.2,0.6,0.4,0.9,0.7,1.1c0.4,0.2,0.8,0.4,1.1,0.4
			s0.9,0,1.3,0c0.9,0,2.1-0.2,3.2-0.4c1.1-0.2,2-0.4,2.6-0.7l1.7-8.2h2.2l-3.9,18h-2.2l1.7-7.8
			C1723.5,380.9,1723.1,381.1,1722.5,381.2z"/>
		<path d="M1731.3,388.8c-0.8-0.2-1.3-0.6-1.7-0.9c-0.4-0.4-0.7-0.9-0.9-1.7c-0.2-0.7-0.2-1.5,0-2.4c0.4-1.3,0.8-2.2,1.5-3
			s1.5-1.3,2.6-1.7c0.9-0.4,2.1-0.6,3.3-0.7l3.5-0.4c0.4,0,0.9-0.2,1.3-0.2s0.7-0.2,0.9-0.4c0.4-0.2,0.6-0.4,0.7-0.7
			c0.2-0.4,0.4-0.7,0.4-1.1c0.2-0.7,0.2-1.3,0-1.9c-0.2-0.4-0.4-0.9-0.7-1.1c-0.4-0.4-0.9-0.6-1.3-0.6c-0.6-0.2-1.1-0.2-1.9-0.2
			c-1.5,0-2.6,0.4-3.7,0.9c-0.9,0.7-1.7,1.7-2.1,3.2h-2.2c0.6-2,1.7-3.7,3.2-4.6s3.3-1.5,5.4-1.5c0.7,0,1.5,0,2.4,0.2
			c0.8,0.2,1.5,0.4,2,0.9c0.6,0.6,0.9,0.9,1.1,1.7c0.2,0.7,0.2,1.7,0,3l-2,9.6c-0.2,0.9,0.2,1.3,0.9,1.3c0.4,0,0.6,0,0.7-0.2
			l-0.4,1.9l-0.7,0.2c-0.2,0-0.4,0-0.8,0c-0.6,0-0.9,0-1.3-0.2c-0.4-0.2-0.6-0.4-0.7-0.6c-0.2-0.4-0.2-0.6-0.2-0.9
			c0-0.4,0.2-0.7,0.2-1.3c-0.6,0.6-1.1,1.1-1.5,1.5c-0.6,0.4-1.1,0.9-1.7,1.1c-0.6,0.4-1.1,0.6-1.9,0.7c-0.8,0.2-1.5,0.2-2.4,0.2
			C1732.8,389.2,1731.8,389,1731.3,388.8z M1736.5,387c0.8-0.2,1.5-0.6,2.2-1.1c0.7-0.6,1.3-1.1,1.7-1.9c0.6-0.7,0.9-1.5,0.9-2.4
			l0.6-2.8c-0.2,0.2-0.6,0.4-0.9,0.6c-0.4,0.2-0.8,0.2-1.1,0.2c-0.9,0.2-2,0.4-3,0.4c-0.9,0.2-2,0.4-2.8,0.6
			c-0.9,0.2-1.7,0.6-2.2,1.1c-0.5,0.6-1.1,1.1-1.3,2c-0.2,0.6-0.2,1.1,0,1.5c0.2,0.4,0.4,0.7,0.8,1.1c0.4,0.4,0.7,0.6,1.1,0.7
			c0.4,0.2,0.9,0.2,1.5,0.2C1735,387.4,1735.7,387.2,1736.5,387z"/>
		<path d="M1762.7,370.7h2.8l-3.9,18h-2.2l3.3-15.4l-13.2,15.4h-2.8l3.9-18h2.2l-3.3,15.4L1762.7,370.7z M1755.3,366.8
			c-0.7-0.7-0.9-1.9-0.7-3.3h1.3c0,0.9,0.2,1.5,0.7,2c0.6,0.6,1.3,0.7,2.4,0.7c0.9,0,1.9-0.2,2.6-0.7c0.8-0.6,1.3-1.1,1.7-2h1.3
			c-0.6,1.5-1.3,2.6-2.4,3.3c-0.9,0.7-2.2,1.1-3.7,1.1C1756.9,368.1,1756,367.5,1755.3,366.8z"/>
		<path d="M1780.4,378.3l1.7-7.6h2.2l-3.9,18h-2.2l1.9-8.5h-10.2l-1.9,8.5h-2.2l3.9-18h2.2l-1.7,7.6H1780.4z"/>
		<path d="M1800.7,370.7h2.8l-3.9,18h-2.2l3.3-15.4l-13.2,15.4h-2.8l3.9-18h2.2l-3.3,15.4L1800.7,370.7z"/>
		<path d="M1819.8,370.7h3l-9.1,7l5.8,10.9h-2.8l-5-9.5l-4.5,3.3l-1.3,6.1h-2.2l3.9-18h2.2l-2.1,9.3L1819.8,370.7z"/>
		<path d="M1724.6,404.8l-14.3,28.9h-2.1l14.3-28.9H1724.6z"/>
		<path d="M1734.2,404.8l-14.3,28.9h-2l14.3-28.9H1734.2z"/>
		<path d="M1756.4,413.7c0.9,0.7,1.1,1.9,0.7,3.2c-0.2,1.1-0.7,2-1.5,2.8c-0.7,0.7-1.5,1.3-2.6,1.5c1.1,0.2,2,0.7,2.6,1.5
			c0.6,0.7,0.6,1.7,0.4,3.2c-0.4,1.7-1.1,2.8-2.4,3.7c-1.3,0.9-3,1.3-5.2,1.3h-8.2l3.9-18h8.2C1754.2,412.6,1755.6,413,1756.4,413.7
			z M1752.3,428c0.9-0.6,1.5-1.5,1.7-2.6c0.2-1.1,0-1.9-0.6-2.4c-0.6-0.6-1.7-0.9-3.3-0.9h-5.8l-1.5,6.7h5.8
			C1750.2,428.7,1751.4,428.5,1752.3,428z M1753.6,419.6c0.7-0.6,1.3-1.3,1.5-2.2c0.4-2-0.5-3-3.2-3h-5.8l-1.3,5.9h5.8
			C1751.7,420.4,1752.8,420.2,1753.6,419.6z"/>
		<path d="M1774.4,412.6h2.8l-3.9,18h-2.2l3.4-15.4l-13.2,15.4h-2.8l3.9-18h2.2l-3.3,15.4L1774.4,412.6z"/>
		<path d="M1781.3,423c0.9-2.2,1.7-4.8,2.2-8.2l0.6-2.4h12.1l-3.3,16.1h2.8l-1.7,7.6h-2.2l1.3-5.7H1778l-1.3,5.7h-2.2l1.5-7.6h2
			C1779.3,427.2,1780.4,425.2,1781.3,423z M1785.6,415.7c-0.6,3-1.5,5.6-2.2,7.8c-0.9,2.2-1.9,3.9-2.8,5.2h10.2l3-14.3h-7.8
			L1785.6,415.7z"/>
		<path d="M1823.2,406.3h2l-3.5,16.5h3.3l-0.4,1.9h-3.3l-1.3,6.1h-2.2l1.3-6.1h-11.3l0.4-1.9L1823.2,406.3z M1810.3,422.6h9.1
			l2.8-13.2L1810.3,422.6z"/>
		<path d="M1426.1,29.9h1.5v9.5h-1.1v-7.8l-3.3,7.8h-1.1l-3.3-7.8v7.8h-1.1v-9.5h1.5l3.5,8.2L1426.1,29.9z"/>
		<path d="M1431.3,39.5c-0.4-0.2-0.7-0.2-0.9-0.6c-0.4-0.2-0.6-0.6-0.7-0.9c-0.2-0.4-0.2-0.7-0.2-1.3c0-0.7,0.2-1.1,0.4-1.5
			c0.4-0.4,0.8-0.6,1.1-0.9c0.6-0.2,1.1-0.4,1.7-0.4l1.9-0.2c0.2,0,0.4,0,0.6,0c0.2,0,0.4-0.2,0.4-0.2c0.2,0,0.2-0.2,0.4-0.4
			c0-0.2,0-0.4,0-0.6c0-0.4,0-0.7-0.2-0.9c-0.2-0.2-0.4-0.4-0.6-0.6c-0.2-0.2-0.6-0.2-0.7-0.4c-0.4,0-0.6,0-0.9,0
			c-0.8,0-1.3,0.2-1.9,0.6c-0.4,0.4-0.8,0.9-0.8,1.7h-1.1c0-1.1,0.4-1.9,1.1-2.4c0.8-0.6,1.7-0.7,2.8-0.7c0.4,0,0.8,0,1.3,0.2
			c0.4,0,0.8,0.2,1.1,0.4s0.6,0.6,0.7,0.9c0.2,0.4,0.4,0.9,0.4,1.5v5c0,0.4,0.2,0.7,0.7,0.7c0.2,0,0.2,0,0.4,0v0.9h-0.4
			c-0.2,0-0.2,0-0.4,0c-0.4,0-0.6,0-0.8-0.2c-0.2,0-0.4-0.2-0.4-0.4c0-0.2-0.2-0.4-0.2-0.6c0-0.2,0-0.4,0-0.7
			c-0.2,0.4-0.4,0.6-0.6,0.7c-0.2,0.2-0.4,0.4-0.8,0.6c-0.2,0.2-0.6,0.2-0.9,0.4c-0.4,0-0.7,0.2-1.1,0.2
			C1432,39.7,1431.6,39.7,1431.3,39.5z M1433.9,38.6c0.4-0.2,0.8-0.4,1.1-0.6c0.4-0.2,0.6-0.6,0.7-0.9c0.2-0.4,0.2-0.7,0.2-1.3v-1.5
			c0,0.2-0.2,0.2-0.4,0.4c-0.2,0-0.4,0.2-0.6,0.2c-0.6,0-0.9,0.2-1.5,0.2s-0.9,0.2-1.5,0.4c-0.4,0.2-0.7,0.4-1.1,0.6
			c-0.2,0.2-0.4,0.6-0.4,1.1c0,0.4,0,0.6,0.2,0.7c0.2,0.2,0.2,0.4,0.4,0.6c0.2,0.2,0.4,0.4,0.8,0.4c0.2,0,0.6,0.2,0.7,0.2
			C1432.9,38.8,1433.5,38.6,1433.9,38.6z"/>
		<path d="M1446.5,29.9v0.9h-3.5v8.5h-1.1v-8.5h-3.5v-0.9H1446.5z"/>
		<path d="M1449.5,39.3c-0.6-0.2-0.9-0.6-1.3-1.1c-0.4-0.4-0.6-0.9-0.8-1.7c-0.2-0.6-0.2-1.3-0.2-1.9c0-0.6,0-1.3,0.2-1.9
			c0.2-0.6,0.4-1.1,0.8-1.7c0.4-0.4,0.7-0.9,1.3-1.1c0.6-0.2,1.1-0.4,2-0.4c0.8,0,1.5,0.2,2,0.4c0.6,0.4,0.9,0.7,1.3,1.1
			c0.4,0.6,0.6,1.1,0.8,1.7c0.2,0.6,0.2,1.3,0.2,2h-7.4c0,0.4,0,0.9,0.2,1.3c0.2,0.4,0.4,0.9,0.6,1.1c0.2,0.4,0.6,0.6,0.9,0.9
			c0.4,0.2,0.9,0.4,1.5,0.4c0.9,0,1.5-0.2,2-0.7c0.6-0.4,0.7-1.1,0.9-1.9h1.1c-0.2,1.1-0.8,1.9-1.3,2.6c-0.7,0.6-1.7,0.9-2.8,0.9
			C1450.6,39.7,1450.1,39.5,1449.5,39.3z M1454.3,32.6c-0.2-0.4-0.4-0.7-0.5-1.1c-0.2-0.4-0.6-0.6-0.9-0.7c-0.4-0.2-0.8-0.2-1.3-0.2
			c-0.6,0-0.9,0-1.3,0.2c-0.4,0.2-0.7,0.4-0.9,0.7c-0.2,0.4-0.4,0.7-0.6,1.1c-0.2,0.4-0.2,0.9-0.4,1.3h6.1
			C1454.5,33.6,1454.3,33.2,1454.3,32.6z"/>
		<path d="M1458.2,31.7c0.2-0.7,0.7-1.1,1.3-1.5c0.6-0.4,1.3-0.6,2-0.6c0.7,0,1.3,0.2,1.9,0.4c0.6,0.2,0.9,0.6,1.3,1.1
			c0.4,0.4,0.6,0.9,0.7,1.7c0.2,0.6,0.2,1.3,0.2,1.9c0,0.7,0,1.3-0.2,1.9c-0.2,0.6-0.4,1.1-0.7,1.7c-0.4,0.4-0.7,0.7-1.3,1.1
			c-0.6,0.2-1.1,0.4-1.9,0.4c-0.4,0-0.8,0-1.1-0.2c-0.4,0-0.7-0.2-0.9-0.4c-0.4-0.2-0.6-0.4-0.7-0.6c-0.2-0.2-0.4-0.6-0.6-0.9V43
			h-1.1V30h1.1V31.7z M1463.1,38.4c0.4-0.2,0.7-0.6,0.9-0.9c0.2-0.4,0.4-0.7,0.6-1.3c0.2-0.6,0.2-0.9,0.2-1.5c0-0.6,0-0.9-0.2-1.5
			c-0.2-0.6-0.4-0.9-0.6-1.3c-0.2-0.4-0.6-0.7-0.9-0.9c-0.4-0.2-0.9-0.4-1.5-0.4c-0.6,0-1.1,0.2-1.7,0.4c-0.4,0.2-0.7,0.6-1.1,0.9
			c-0.2,0.4-0.4,0.7-0.6,1.3c-0.2,0.6-0.2,0.9-0.2,1.5c0,0.6,0,0.9,0.2,1.5c0.2,0.6,0.4,0.9,0.6,1.3c0.2,0.4,0.6,0.7,1.1,0.9
			c0.4,0.2,0.9,0.4,1.5,0.4C1462.3,38.8,1462.7,38.6,1463.1,38.4z"/>
		<path d="M1474.2,29.9h1.5v9.5h-1.1v-8.2l-5.2,8.2h-1.5v-9.5h1.1V38L1474.2,29.9z"/>
		<path d="M1479.4,39.5c-0.4-0.2-0.7-0.2-0.9-0.6c-0.4-0.2-0.6-0.6-0.7-0.9c-0.2-0.4-0.2-0.7-0.2-1.3c0-0.7,0.2-1.1,0.4-1.5
			c0.4-0.4,0.7-0.6,1.1-0.9c0.6-0.2,1.1-0.4,1.7-0.4l1.8-0.2c0.2,0,0.4,0,0.6,0c0.2,0,0.4-0.2,0.4-0.2c0.2,0,0.2-0.2,0.4-0.4
			c0-0.2,0-0.4,0-0.6c0-0.4,0-0.7-0.2-0.9c-0.2-0.2-0.4-0.4-0.6-0.6c-0.2-0.2-0.6-0.2-0.7-0.4c-0.4,0-0.6,0-0.9,0
			c-0.7,0-1.3,0.2-1.9,0.6c-0.4,0.4-0.7,0.9-0.7,1.7h-1.1c0-1.1,0.4-1.9,1.1-2.4c0.7-0.6,1.7-0.7,2.8-0.7c0.4,0,0.8,0,1.3,0.2
			c0.4,0,0.7,0.2,1.1,0.4s0.6,0.6,0.8,0.9c0.2,0.4,0.4,0.9,0.4,1.5v5c0,0.4,0.2,0.7,0.7,0.7c0.2,0,0.2,0,0.4,0v0.9h-0.4
			c-0.2,0-0.2,0-0.4,0c-0.4,0-0.6,0-0.7-0.2c-0.2,0-0.4-0.2-0.4-0.4c0-0.2-0.2-0.4-0.2-0.6c0-0.2,0-0.4,0-0.7
			c-0.2,0.4-0.4,0.6-0.6,0.7c-0.2,0.2-0.4,0.4-0.7,0.6c-0.2,0.2-0.6,0.2-0.9,0.4c-0.4,0-0.8,0.2-1.1,0.2
			C1480.2,39.7,1479.8,39.7,1479.4,39.5z M1482.1,38.6c0.4-0.2,0.7-0.4,1.1-0.6c0.4-0.2,0.6-0.6,0.8-0.9c0.2-0.4,0.2-0.7,0.2-1.3
			v-1.5c0,0.2-0.2,0.2-0.4,0.4c-0.2,0-0.4,0.2-0.6,0.2c-0.6,0-0.9,0.2-1.5,0.2c-0.6,0-0.9,0.2-1.5,0.4c-0.4,0.2-0.8,0.4-1.1,0.6
			c-0.2,0.2-0.4,0.6-0.4,1.1c0,0.4,0,0.6,0.2,0.7c0.2,0.2,0.2,0.4,0.4,0.6c0.2,0.2,0.4,0.4,0.7,0.4c0.2,0,0.6,0.2,0.8,0.2
			C1481.1,38.8,1481.5,38.6,1482.1,38.6z"/>
		<path d="M1487.2,39.5h-0.2h-0.2h-0.2v-0.9c0,0,0.2,0,0.4,0c0.2,0,0.4,0,0.6,0c0.2,0,0.2,0,0.4,0c0.2,0,0.4-0.2,0.4-0.4
			c0.2-0.2,0.4-0.4,0.4-0.7c0.2-0.4,0.2-0.9,0.4-1.5c0-0.6,0.2-1.5,0.2-2.4c0-0.9,0-2.2,0-3.5h6.3v9.5h-0.9V31h-4.1
			c0,1.3,0,2.6-0.2,3.5c0,0.9-0.2,1.7-0.4,2.4c-0.2,0.6-0.4,1.1-0.6,1.5c-0.2,0.4-0.4,0.6-0.6,0.7c-0.2,0.2-0.6,0.4-0.8,0.4
			c-0.2,0-0.6,0-0.7,0H1487.2z"/>
		<path d="M1500.1,31.9h-1.3v-1.7h1.3V31.9z M1500.1,39.5h-1.3v-1.7h1.3V39.5z"/>
		<path d="M1422.7,57.7c-0.2,0-0.6,0.2-0.8,0.2c-0.2,0-0.6,0.2-0.9,0.2s-0.6,0-0.9,0c-0.9,0-1.7-0.2-2.2-0.7
			c-0.6-0.4-0.7-1.3-0.7-2.4v-3h1.1v3c0,0.4,0,0.7,0.2,1.1c0.2,0.2,0.4,0.4,0.6,0.6c0.2,0.2,0.4,0.2,0.7,0.2c0.2,0,0.6,0,0.7,0
			c0.6,0,1.1,0,1.7-0.2c0.6-0.2,0.9-0.2,1.3-0.4v-4.3h1.1v9.5h-1.1v-3.9C1423.1,57.5,1422.9,57.5,1422.7,57.7z"/>
		<path d="M1426.8,65.1c-0.2,0-0.2,0-0.4,0v-0.9h0.4c0.2,0,0.2,0,0.4,0c0.2,0,0.6,0,0.6-0.2c0.2,0,0.4-0.2,0.4-0.4
			c0.2-0.2,0.2-0.4,0.4-0.6c0-0.2,0.2-0.4,0.2-0.6l0.4-1.1l-3.9-9.5h1.3l3.2,8.2l3-8.2h1.1l-4.1,10.9c-0.2,0.4-0.4,0.7-0.6,0.9
			c-0.2,0.2-0.4,0.4-0.6,0.6c-0.2,0.2-0.4,0.2-0.6,0.4c-0.2,0-0.6,0-0.9,0C1427.2,65.1,1427,65.1,1426.8,65.1z"/>
		<path d="M1436.5,53v8.5h-1.1v-9.5h6.3V53H1436.5z"/>
		<path d="M1442.8,65.1c-0.2,0-0.2,0-0.4,0v-0.9h0.4c0.2,0,0.2,0,0.4,0c0.2,0,0.6,0,0.6-0.2c0.2,0,0.4-0.2,0.4-0.4
			c0.2-0.2,0.2-0.4,0.4-0.6c0-0.2,0.2-0.4,0.2-0.6l0.4-1.1l-3.9-9.5h1.3l3.2,8.2l3-8.2h1.1l-4.1,10.9c-0.2,0.4-0.4,0.7-0.6,0.9
			c-0.2,0.2-0.4,0.4-0.6,0.6c-0.2,0.2-0.4,0.2-0.6,0.4c-0.2,0-0.6,0-0.9,0C1443.2,65.1,1443,65.1,1442.8,65.1z"/>
		<path d="M1457.7,56v-4.1h1.1v9.5h-1.1v-4.5h-5.4v4.5h-1.1v-9.5h1.1V56H1457.7z"/>
		<path d="M1418.6,184.9v8.5h5.2v-8.5h1.1v8.5h1.5v4.1h-1.1v-3h-7.8v-9.5h1.1V184.9z"/>
		<path d="M1434.2,185.4c0.6,0.4,0.7,0.9,0.7,1.7c0,0.6-0.2,1.1-0.4,1.5c-0.4,0.4-0.8,0.6-1.3,0.7c0.6,0.2,1.1,0.4,1.5,0.7
			c0.4,0.4,0.6,0.9,0.6,1.7c0,0.9-0.4,1.5-0.9,2c-0.6,0.4-1.5,0.7-2.6,0.7h-4.3v-9.5h4.3C1432.9,184.9,1433.7,185.1,1434.2,185.4z
			 M1433.3,188.6c0.4-0.2,0.6-0.7,0.6-1.1c0-1.1-0.7-1.5-2-1.5h-3.2v3.2h3.2C1432.6,189.1,1432.9,189,1433.3,188.6z M1433.7,193
			c0.4-0.4,0.6-0.7,0.6-1.3s-0.2-0.9-0.6-1.3c-0.4-0.4-0.9-0.4-1.9-0.4h-3.2v3.5h3.2C1432.8,193.4,1433.3,193.4,1433.7,193z"/>
		<path d="M1439.1,194.3c-0.6-0.2-0.9-0.6-1.3-1.1c-0.4-0.4-0.6-0.9-0.7-1.7c-0.2-0.6-0.2-1.3-0.2-1.9c0-0.6,0-1.3,0.2-1.9
			c0.2-0.6,0.4-1.1,0.7-1.7c0.4-0.4,0.7-0.9,1.3-1.1c0.6-0.2,1.1-0.4,2.1-0.4s1.5,0.2,2,0.4c0.6,0.4,0.9,0.7,1.3,1.1
			c0.4,0.6,0.6,1.1,0.7,1.7c0.2,0.6,0.2,1.3,0.2,2h-7.4c0,0.4,0,0.9,0.2,1.3c0.2,0.4,0.4,0.9,0.6,1.1c0.2,0.4,0.6,0.6,0.9,0.9
			c0.4,0.2,0.9,0.4,1.5,0.4c0.9,0,1.5-0.2,2-0.7c0.6-0.4,0.8-1.1,0.9-1.9h1.1c-0.2,1.1-0.7,1.9-1.3,2.6c-0.8,0.6-1.7,0.9-2.8,0.9
			C1440.2,194.7,1439.6,194.5,1439.1,194.3z M1443.9,187.8c-0.2-0.4-0.4-0.7-0.6-1.1c-0.2-0.4-0.6-0.6-0.9-0.7
			c-0.4-0.2-0.7-0.2-1.3-0.2c-0.6,0-0.9,0-1.3,0.2c-0.4,0.2-0.8,0.4-0.9,0.7c-0.2,0.4-0.4,0.7-0.6,1.1c-0.2,0.4-0.2,0.9-0.4,1.3h6.1
			C1444.1,188.6,1443.9,188.2,1443.9,187.8z"/>
		<path d="M1454,184.9v0.9h-3.5v8.5h-1.1v-8.5h-3.5v-0.9H1454z"/>
		<path d="M1457.1,186.9h-1.3v-1.5h1.3V186.9z M1457.1,194.5h-1.3v-1.7h1.3V194.5z"/>
		<path d="M1422.7,212.7c-0.2,0-0.6,0.2-0.8,0.2c-0.2,0-0.6,0.2-0.9,0.2s-0.6,0-0.9,0c-0.9,0-1.7-0.2-2.2-0.7
			c-0.6-0.4-0.7-1.3-0.7-2.4v-3h1.1v3c0,0.4,0,0.7,0.2,1.1c0.2,0.2,0.4,0.4,0.6,0.6c0.2,0.2,0.4,0.2,0.7,0.2c0.2,0,0.6,0,0.7,0
			c0.6,0,1.1,0,1.7-0.2c0.6-0.2,0.9-0.2,1.3-0.4v-4.3h1.1v9.5h-1.1v-4.1C1423.1,212.5,1422.9,212.7,1422.7,212.7z"/>
		<path d="M1428.5,216.4c-0.6-0.2-0.9-0.6-1.3-1.1c-0.4-0.4-0.6-0.9-0.7-1.7c-0.2-0.6-0.2-1.3-0.2-1.9c0-0.6,0-1.3,0.2-1.9
			c0.2-0.6,0.4-1.1,0.7-1.7c0.4-0.4,0.7-0.9,1.3-1.1c0.6-0.2,1.1-0.4,2.1-0.4c0.7,0,1.5,0.2,2,0.4c0.6,0.4,0.9,0.7,1.3,1.1
			c0.4,0.6,0.6,1.1,0.8,1.7c0.2,0.6,0.2,1.3,0.2,2h-7.4c0,0.4,0,0.9,0.2,1.3c0.2,0.4,0.4,0.9,0.6,1.1c0.2,0.4,0.6,0.6,0.9,0.9
			c0.4,0.2,0.9,0.4,1.5,0.4c0.9,0,1.5-0.2,2-0.7c0.6-0.4,0.8-1.1,0.9-1.9h1.1c-0.2,1.1-0.8,1.9-1.3,2.6c-0.8,0.6-1.7,0.9-2.8,0.9
			C1429.8,217,1429,216.8,1428.5,216.4z M1433.3,209.9c-0.2-0.4-0.4-0.7-0.6-1.1c-0.2-0.4-0.6-0.6-0.9-0.7c-0.4-0.2-0.7-0.2-1.3-0.2
			c-0.6,0-0.9,0-1.3,0.2c-0.4,0.2-0.8,0.4-0.9,0.7c-0.2,0.4-0.4,0.7-0.6,1.1c-0.2,0.4-0.2,0.9-0.4,1.3h6.1
			C1433.5,210.6,1433.5,210.3,1433.3,209.9z"/>
		<path d="M1437.4,209c0.2-0.7,0.7-1.1,1.3-1.5c0.6-0.4,1.3-0.6,2.1-0.6c0.7,0,1.3,0.2,1.9,0.4c0.6,0.2,0.9,0.6,1.3,1.1
			c0.4,0.4,0.6,0.9,0.7,1.7c0.2,0.6,0.2,1.3,0.2,1.9s0,1.3-0.2,1.9c-0.2,0.6-0.4,1.1-0.7,1.7c-0.4,0.4-0.8,0.7-1.3,1.1
			c-0.6,0.2-1.1,0.4-1.9,0.4c-0.4,0-0.8,0-1.1-0.2c-0.4,0-0.7-0.2-0.9-0.4c-0.4-0.2-0.6-0.4-0.7-0.6c-0.2-0.2-0.4-0.6-0.6-0.9v5.4
			h-1.1v-13h1.1V209z M1442.2,215.5c0.4-0.2,0.8-0.6,0.9-0.9c0.2-0.4,0.4-0.7,0.6-1.3c0.2-0.6,0.2-0.9,0.2-1.5c0-0.6,0-0.9-0.2-1.5
			c-0.2-0.6-0.4-0.9-0.6-1.3c-0.2-0.4-0.6-0.7-0.9-0.9c-0.4-0.2-0.9-0.4-1.5-0.4c-0.6,0-1.1,0.2-1.7,0.4c-0.4,0.2-0.7,0.6-1.1,0.9
			c-0.4,0.4-0.4,0.7-0.6,1.3c-0.2,0.6-0.2,0.9-0.2,1.5c0,0.6,0,0.9,0.2,1.5c0.2,0.6,0.4,0.9,0.6,1.3c0.2,0.4,0.6,0.7,1.1,0.9
			c0.4,0.2,0.9,0.4,1.5,0.4C1441.3,215.8,1441.9,215.8,1442.2,215.5z"/>
		<path d="M1453.4,211.2v-4.1h1.1v9.5h-1.1v-4.5h-5.4v4.5h-1.1v-9.5h1.1v4.1H1453.4z"/>
		<path d="M1461,210.8c0.9,0,1.7,0.2,2.2,0.7c0.6,0.6,0.8,1.1,0.8,2s-0.2,1.7-0.8,2c-0.6,0.6-1.3,0.7-2.2,0.7h-4.3v-9.5h1.1v3.9
			H1461z M1462.3,215.1c0.4-0.4,0.6-0.7,0.6-1.5c0-0.6-0.2-1.1-0.6-1.5c-0.4-0.4-0.9-0.4-1.5-0.4h-2.8v3.7h2.8
			C1461.4,215.7,1462,215.5,1462.3,215.1z M1465.9,216.6v-9.5h1.1v9.5H1465.9z"/>
		<path d="M1475.7,207.1h1.5v9.5h-1.1v-8.2l-5.2,8.2h-1.5v-9.5h1.1v8.2L1475.7,207.1z M1471.3,205.1c-0.4-0.4-0.7-0.9-0.7-1.9h0.7
			c0,0.4,0.2,0.7,0.6,1.1c0.4,0.2,0.7,0.4,1.3,0.4c0.6,0,0.9-0.2,1.3-0.4c0.4-0.2,0.6-0.6,0.6-1.1h0.7c-0.2,0.7-0.4,1.3-0.9,1.9
			c-0.4,0.4-1.1,0.6-1.9,0.6C1472.4,205.6,1471.8,205.5,1471.3,205.1z"/>
		<path d="M1801.8,83.3l-35.3-9.6l32.5-27.1c-113.5,5.7-104,137.6-96.7,202.7c7.3,65.3-35,52.8-35,52.8s0-249.8,0-254
			s-107.7,1.9-108.8,0v16.1c-14.5-0.9-100.2-2.6-90,81c10,80.8,74.4,77.5,89.1,75.7V231c-16.9-0.9-99.1-0.9-89.1,81
			c9.7,79.2,72,77.7,88.2,75.8l-0.2,20.6h113.8l-1.5-48.8c20.5,0.9,36.3-4.1,48.5-12.1c30.9-20.4,35-65.8,30.9-92.3
			c-1.9-12.2-5.2-18.7-7.6-39.9c-0.9-8-0.6-22.8-1.3-40.6C1735.6,83.4,1801.8,83.3,1801.8,83.3z M1487.6,143.9
			c-1.9-54.9,58.2-57.1,70.7-56.9l-0.6,111.3C1544.3,198.8,1489.5,197.7,1487.6,143.9z M1487.6,310.8c-1.9-53.6,55.4-56.9,69.7-56.9
			l-0.6,111.3C1542.1,365.7,1489.5,363.4,1487.6,310.8z"/>
	</g>
</g>
<rect x="1843" y="0" class="st5" width="15" height="448"/>
</svg>
