<svg width="481" height="480" viewBox="0 0 481 480" fill="none" xmlns="http://www.w3.org/2000/svg">
<path d="M480.567 0H0V480H480.567V0Z" fill="#5B927F"/>
<path d="M403.986 148.808C403.986 148.808 327.605 124.57 330.787 216.358C333.174 289.669 303.139 324.834 290.807 335.96L263.755 150.397C263.755 150.397 255.997 131.921 220.989 121.589C220.989 121.589 226.559 81.4569 196.324 96.9536C165.891 112.45 185.981 122.185 185.981 122.185C185.981 122.185 125.711 118.013 132.275 158.146L127.7 196.689C114.572 184.967 71.4087 152.583 42.5667 200.464C8.55311 256.291 21.2834 400.331 102.836 408.675L99.2561 439.47C99.2561 439.47 205.474 483.775 306.123 439.47L303.935 424.967C337.55 419.205 359.629 323.841 357.64 242.185C355.452 155.563 403.986 148.808 403.986 148.808ZM107.809 365.364C88.515 357.219 53.7057 333.179 60.4686 268.212C68.425 192.914 111.589 215.364 124.518 223.907L107.809 365.364Z" fill="black"/>
<path d="M342.523 49.4702C341.926 49.6689 341.529 49.6689 340.932 49.8675C340.335 50.0662 339.738 50.0662 339.142 50.0662C338.545 50.0662 337.948 50.2649 337.351 50.2649C335.362 50.2649 333.97 49.8675 333.174 48.8742C332.379 47.8808 332.18 46.2914 332.578 44.106L333.771 38.3444H336.158L334.965 44.5033C334.766 45.4967 334.766 46.0927 334.965 46.6887C335.163 47.2848 335.362 47.6821 335.76 47.8808C336.158 48.0795 336.556 48.2781 336.954 48.2781C337.351 48.2781 337.948 48.2781 338.346 48.2781C339.341 48.2781 340.534 48.0795 341.728 47.8808C342.921 47.6821 343.916 47.4834 344.512 47.0861L346.302 38.3444H348.689L344.512 57.6159H342.125L343.915 49.2715C343.518 49.0728 343.12 49.2715 342.523 49.4702Z" fill="black"/>
<path d="M351.872 57.6159C351.076 57.4172 350.48 57.0198 350.082 56.6225C349.684 56.2251 349.286 55.6291 349.087 54.8344C348.888 54.0397 348.888 53.245 349.087 52.2516C349.485 50.8609 349.883 49.8675 350.678 49.0728C351.474 48.2781 352.27 47.6821 353.463 47.2847C354.657 46.8874 355.651 46.6887 357.044 46.49L360.823 46.0927C361.221 46.0927 361.817 45.894 362.215 45.894C362.613 45.894 363.011 45.6953 363.21 45.4966C363.608 45.298 363.807 45.0993 364.005 44.7019C364.204 44.3046 364.403 43.9072 364.403 43.5099C364.602 42.7152 364.602 42.1192 364.403 41.5231C364.204 41.1258 364.005 40.5298 363.608 40.3311C363.21 39.9337 362.613 39.7351 362.215 39.7351C361.619 39.5364 361.022 39.5364 360.226 39.5364C358.635 39.5364 357.441 39.9337 356.248 40.5298C355.253 41.3245 354.458 42.3178 354.06 43.9072H351.673C352.27 41.7218 353.463 39.9337 355.055 38.9404C356.646 37.947 358.635 37.351 360.823 37.351C361.619 37.351 362.414 37.351 363.409 37.5496C364.204 37.7483 365 37.947 365.597 38.543C366.193 38.9404 366.591 39.5364 366.79 40.3311C366.989 41.1258 366.989 42.1192 366.79 43.5099L364.602 53.841C364.403 54.8344 364.801 55.2317 365.597 55.2317C365.995 55.2317 366.193 55.2318 366.392 55.0331L365.995 57.0198L365.199 57.2185C365 57.2185 364.801 57.2185 364.403 57.2185C363.807 57.2185 363.409 57.2185 363.011 57.0198C362.613 56.8212 362.414 56.6225 362.215 56.4238C362.016 56.0264 362.016 55.8278 362.016 55.4304C362.016 55.0331 362.215 54.6357 362.215 54.0397C361.619 54.6357 361.022 55.2317 360.624 55.6291C360.027 56.0265 359.431 56.6225 358.834 56.8212C358.237 57.2185 357.64 57.4172 356.845 57.6159C356.049 57.8145 355.253 57.8145 354.259 57.8145C353.463 58.0132 352.469 57.8145 351.872 57.6159ZM357.64 55.6291C358.436 55.4304 359.232 55.0331 360.027 54.437C360.823 53.841 361.42 53.245 361.817 52.4503C362.414 51.6556 362.812 50.8609 362.812 49.8675L363.409 46.8874C363.21 47.0861 362.812 47.2847 362.414 47.4834C362.016 47.6821 361.619 47.6821 361.221 47.6821C360.226 47.8808 359.033 48.0794 358.038 48.0794C357.044 48.2781 355.85 48.4768 355.055 48.6755C354.06 48.8741 353.264 49.2715 352.668 49.8675C352.071 50.4635 351.474 51.0596 351.275 52.0529C351.076 52.649 351.076 53.245 351.275 53.6423C351.474 54.0397 351.673 54.437 352.071 54.8344C352.469 55.2318 352.867 55.4304 353.264 55.6291C353.662 55.8278 354.259 55.8278 354.856 55.8278C355.85 56.0265 356.646 55.8278 357.64 55.6291Z" fill="black"/>
<path d="M385.488 38.1457H388.471L384.294 57.4172H381.907L385.488 40.9271L371.365 57.4172H368.381L372.559 38.1457H374.946L371.365 54.6357L385.488 38.1457ZM377.531 33.9735C376.736 33.1788 376.537 31.9867 376.736 30.3973H378.128C378.128 31.3907 378.327 31.9867 378.924 32.5828C379.52 33.1788 380.316 33.3775 381.51 33.3775C382.504 33.3775 383.499 33.1788 384.294 32.5828C385.09 31.9867 385.687 31.3907 386.084 30.3973H387.477C386.88 31.9867 386.084 33.1788 384.891 33.9735C383.896 34.7682 382.504 35.1656 380.913 35.1656C379.322 35.1656 378.327 34.7682 377.531 33.9735Z" fill="black"/>
<path d="M404.583 46.2913L406.373 38.1456H408.76L404.583 57.4172H402.196L404.185 48.2781H393.245L391.256 57.4172H388.869L393.046 38.1456H395.433L393.643 46.2913H404.583Z" fill="black"/>
<path d="M426.065 38.1456H429.049L424.872 57.4172H422.485L426.065 40.9271L411.943 57.4172H408.959L413.136 38.1456H415.523L411.943 54.6357L426.065 38.1456Z" fill="black"/>
<path d="M446.553 38.1456H449.736L439.989 45.6953L446.155 57.4172H443.172L437.801 47.2847L433.027 50.8609L431.635 57.4172H429.248L433.425 38.1456H435.812L433.624 48.0794L446.553 38.1456Z" fill="black"/>
<path d="M344.711 74.702L329.395 105.695H327.207L342.523 74.702H344.711Z" fill="black"/>
<path d="M355.054 74.702L339.738 105.695H337.55L352.866 74.702H355.054Z" fill="black"/>
<path d="M378.725 84.2383C379.719 85.033 379.918 86.2251 379.52 87.6158C379.322 88.8079 378.725 89.8013 377.929 90.596C377.134 91.3907 376.338 91.9867 375.144 92.1854C376.338 92.384 377.332 92.9801 377.929 93.7748C378.526 94.5695 378.526 95.5628 378.327 97.1523C377.929 98.9403 377.134 100.132 375.741 101.126C374.349 102.119 372.559 102.516 370.172 102.516H361.42L365.597 83.245H374.349C376.537 83.0463 377.929 83.4436 378.725 84.2383ZM374.349 99.3377C375.343 98.7416 375.94 97.7483 376.139 96.5562C376.338 95.3642 376.139 94.5695 375.542 93.9734C374.946 93.3774 373.752 92.9801 371.962 92.9801H365.796L364.204 100.132H370.371C372.161 100.331 373.354 100.132 374.349 99.3377ZM375.741 90.596C376.537 89.9999 377.134 89.2052 377.332 88.2119C377.73 86.0264 376.736 85.033 373.951 85.033H367.785L366.392 91.3907H372.559C373.752 91.3907 374.945 90.9933 375.741 90.596Z" fill="black"/>
<path d="M398.019 83.0464H401.003L396.826 102.318H394.439L398.019 85.8278L383.896 102.318H380.913L385.09 83.0464H387.477L383.896 99.5365L398.019 83.0464Z" fill="black"/>
<path d="M405.379 94.1722C406.373 91.7881 407.169 89.0066 407.766 85.4304L408.362 82.8477H421.292L417.711 100.132H420.695L418.905 108.278H416.518L417.91 102.119H401.798L400.406 108.278H398.019L399.61 100.132H401.798C403.191 98.543 404.384 96.5563 405.379 94.1722ZM409.954 86.4238C409.357 89.6026 408.362 92.3841 407.567 94.7682C406.572 97.1523 405.578 98.9404 404.583 100.331H415.523L418.706 85.0331H410.351L409.954 86.4238Z" fill="black"/>
<path d="M442.774 80.8609C443.569 80.6623 444.365 80.4636 444.962 80.0662C445.559 79.6689 446.155 79.2715 446.752 78.4768C447.349 77.8808 447.747 76.8874 448.343 75.894H450.332L444.763 102.318H442.376L446.553 82.649H439.591L439.989 81.0596C440.984 81.0596 441.779 80.8609 442.774 80.8609Z" fill="black"/>
<path d="M35.406 31.9868H36.9973V42.1193H35.8038V33.7749L32.2235 42.1193H31.03L27.4496 33.7749V42.1193H26.2562V31.9868H27.8474L31.6267 40.7285L35.406 31.9868Z" fill="black"/>
<path d="M40.9755 42.3179C40.5777 42.1193 40.1798 42.1193 39.9809 41.7219C39.5831 41.5232 39.3842 41.1259 39.1853 40.7285C38.9864 40.3312 38.9864 39.9338 38.9864 39.3378C38.9864 38.5431 39.1853 38.1458 39.3842 37.7484C39.782 37.3511 40.1798 37.1524 40.5777 36.755C41.1744 36.5564 41.7711 36.3577 42.3679 36.3577L44.357 36.159C44.5559 36.159 44.7548 36.159 44.9537 36.159C45.1526 36.159 45.3515 35.9603 45.3515 35.9603C45.5504 35.9603 45.5504 35.7616 45.7493 35.563C45.7493 35.3643 45.7493 35.1656 45.7493 34.9669C45.7493 34.5696 45.7493 34.1722 45.5504 33.9736C45.3515 33.7749 45.1526 33.5762 44.9537 33.3775C44.7548 33.1789 44.357 33.1789 44.1581 32.9802C43.7602 32.9802 43.5613 32.9802 43.1635 32.9802C42.3679 32.9802 41.7711 33.1789 41.1744 33.5762C40.7766 33.9736 40.3788 34.5696 40.3788 35.3643H39.1853C39.1853 34.1722 39.5831 33.3775 40.3788 32.7815C41.1744 32.1855 42.1689 31.9868 43.3624 31.9868C43.7602 31.9868 44.1581 31.9868 44.7548 32.1855C45.1526 32.1855 45.5504 32.3842 45.9482 32.5828C46.3461 32.7815 46.545 33.1789 46.7439 33.5762C46.9428 33.9736 47.1417 34.5696 47.1417 35.1656V40.5299C47.1417 40.9272 47.3406 41.3246 47.9373 41.3246C48.1363 41.3246 48.1363 41.3246 48.3352 41.3246V42.3179H47.9373C47.7384 42.3179 47.7384 42.3179 47.5395 42.3179C47.1417 42.3179 46.9428 42.3179 46.7439 42.1193C46.545 42.1193 46.3461 41.9206 46.3461 41.7219C46.3461 41.5232 46.1472 41.3246 46.1472 41.1259C46.1472 40.9272 46.1472 40.7285 46.1472 40.3312C45.9482 40.7285 45.7493 40.9272 45.5504 41.1259C45.3515 41.3246 45.1526 41.5232 44.7548 41.7219C44.5559 41.9206 44.1581 41.9206 43.7602 42.1193C43.3624 42.1193 42.9646 42.3179 42.5668 42.3179C41.97 42.5166 41.3733 42.5166 40.9755 42.3179ZM43.7602 41.3246C44.1581 41.1259 44.5559 40.9272 44.9537 40.7285C45.3515 40.5299 45.5504 40.1325 45.7493 39.7352C45.9482 39.3378 45.9482 38.9405 45.9482 38.3444V36.755C45.9482 36.9537 45.7493 36.9537 45.5504 37.1524C45.3515 37.3511 45.1526 37.3511 44.9537 37.3511C44.357 37.3511 43.9591 37.5497 43.3624 37.5497C42.7657 37.5497 42.3679 37.7484 41.7711 37.9471C41.3733 38.1458 40.9755 38.3444 40.5777 38.5431C40.3788 38.7418 40.1799 39.1391 40.1799 39.7352C40.1799 40.1325 40.1798 40.3312 40.3788 40.5299C40.5777 40.7285 40.5777 40.9272 40.7766 41.1259C40.9755 41.3246 41.1744 41.5232 41.5722 41.5232C41.7711 41.5232 42.1689 41.7219 42.3679 41.7219C42.9646 41.5232 43.3624 41.3246 43.7602 41.3246Z" fill="black"/>
<path d="M57.2861 31.9868V32.9802H53.5068V42.1193H52.3133V32.9802H48.5341V31.9868H57.2861Z" fill="black"/>
<path d="M60.4687 42.1192C59.872 41.9205 59.4742 41.5232 59.0763 40.9272C58.6785 40.5298 58.4796 39.9338 58.2807 39.1391C58.0818 38.5431 58.0818 37.7484 58.0818 37.1523C58.0818 36.5563 58.0818 35.7616 58.2807 35.1656C58.4796 34.5695 58.6785 33.9735 59.0763 33.3775C59.4742 32.9801 59.872 32.3841 60.4687 32.1854C61.0654 31.9868 61.6622 31.7881 62.6567 31.7881C63.4524 31.7881 64.248 31.9868 64.8447 32.1854C65.4415 32.5828 65.8393 32.9801 66.2371 33.3775C66.6349 33.9735 66.8338 34.5695 67.0327 35.1656C67.2317 35.7616 67.2316 36.5563 67.2316 37.351H59.2752C59.2752 37.7483 59.2752 38.3444 59.4742 38.7417C59.6731 39.1391 59.872 39.7351 60.0709 39.9338C60.2698 40.3311 60.6676 40.5298 61.0654 40.9272C61.4633 41.1258 62.06 41.3245 62.6567 41.3245C63.6513 41.3245 64.248 41.1258 64.8447 40.5298C65.4415 40.1325 65.6404 39.3378 65.8393 38.5431H67.0327C66.8338 39.7351 66.2371 40.5298 65.6404 41.3245C64.8447 41.9205 63.8502 42.3179 62.6567 42.3179C61.8611 42.5166 61.0654 42.3179 60.4687 42.1192ZM65.6404 34.9669C65.4415 34.5695 65.2425 34.1722 65.0436 33.7748C64.8447 33.3775 64.4469 33.1788 64.0491 32.9801C63.6513 32.7815 63.2534 32.7815 62.6567 32.7815C62.06 32.7815 61.6622 32.7815 61.2643 32.9801C60.8665 33.1788 60.4687 33.3775 60.2698 33.7748C60.0709 34.1722 59.6731 34.5695 59.6731 34.9669C59.4742 35.3642 59.4742 35.9603 59.2752 36.3576H65.8393C65.8393 35.9603 65.8393 35.5629 65.6404 34.9669Z" fill="black"/>
<path d="M70.0163 33.9735C70.2153 33.1788 70.812 32.7815 71.4087 32.3841C72.0054 31.9868 72.8011 31.7881 73.5967 31.7881C74.3924 31.7881 74.9891 31.9868 75.5858 32.1854C76.1826 32.3841 76.5804 32.7815 76.9782 33.3775C77.376 33.7748 77.5749 34.3709 77.7738 35.1656C77.9727 35.7616 77.9727 36.5563 77.9727 37.1523C77.9727 37.947 77.9727 38.5431 77.7738 39.1391C77.5749 39.7351 77.376 40.3311 76.9782 40.9272C76.5804 41.3245 76.1826 41.7219 75.5858 42.1192C74.9891 42.3179 74.3924 42.5166 73.5967 42.5166C73.1989 42.5166 72.8011 42.5166 72.4033 42.3179C72.0054 42.3179 71.6076 42.1192 71.4087 41.9205C71.0109 41.7219 70.812 41.5232 70.6131 41.3245C70.4142 41.1258 70.2153 40.7285 70.0163 40.3311V46.0927H68.8229V32.1854H70.0163V33.9735ZM75.188 41.1258C75.5858 40.9272 75.9836 40.5298 76.1825 40.1325C76.3815 39.7351 76.5804 39.3378 76.7793 38.7417C76.9782 38.1457 76.9782 37.7484 76.9782 37.1523C76.9782 36.5563 76.9782 36.1589 76.7793 35.5629C76.5804 34.9669 76.3815 34.5695 76.1825 34.1722C75.9836 33.7748 75.5858 33.3775 75.188 33.1788C74.7902 32.9801 74.1935 32.7815 73.5967 32.7815C73 32.7815 72.4033 32.9801 71.8065 33.1788C71.4087 33.3775 71.0109 33.7748 70.6131 34.1722C70.2152 34.5695 70.2153 34.9669 70.0163 35.5629C69.8174 36.1589 69.8174 36.5563 69.8174 37.1523C69.8174 37.7484 69.8174 38.1457 70.0163 38.7417C70.2153 39.3378 70.4142 39.7351 70.6131 40.1325C70.812 40.5298 71.2098 40.9272 71.8065 41.1258C72.2043 41.3245 72.8011 41.5232 73.3978 41.5232C74.1935 41.5232 74.7902 41.3245 75.188 41.1258Z" fill="black"/>
<path d="M87.1226 31.9868H88.7139V42.1193H87.5204V33.3775L81.951 42.1193H80.3597V31.9868H81.5531V40.7285L87.1226 31.9868Z" fill="black"/>
<path d="M92.4932 42.3179C92.0954 42.1193 91.6975 42.1193 91.4986 41.7219C91.1008 41.5232 90.9019 41.1259 90.703 40.7285C90.5041 40.3312 90.5041 39.9338 90.5041 39.3378C90.5041 38.5431 90.703 38.1458 90.9019 37.7484C91.2997 37.3511 91.6975 37.1524 92.0954 36.755C92.6921 36.5564 93.2888 36.3577 93.8856 36.3577L95.8747 36.159C96.0736 36.159 96.2725 36.159 96.4714 36.159C96.6703 36.159 96.8692 35.9603 96.8692 35.9603C97.0681 35.9603 97.0681 35.7616 97.267 35.563C97.267 35.3643 97.267 35.1656 97.267 34.9669C97.267 34.5696 97.267 34.1722 97.0681 33.9736C96.8692 33.7749 96.6703 33.5762 96.4714 33.3775C96.2725 33.1789 95.8747 33.1789 95.6757 32.9802C95.2779 32.9802 95.079 32.9802 94.6812 32.9802C93.8856 32.9802 93.2888 33.1789 92.6921 33.5762C92.2943 33.9736 91.8965 34.5696 91.8965 35.3643H90.703C90.703 34.1722 91.1008 33.3775 91.8965 32.7815C92.6921 32.1855 93.6867 31.9868 94.8801 31.9868C95.2779 31.9868 95.6758 31.9868 96.2725 32.1855C96.6703 32.1855 97.0681 32.3842 97.4659 32.5828C97.8638 32.7815 98.0627 33.1789 98.2616 33.5762C98.4605 33.9736 98.6594 34.5696 98.6594 35.1656V40.5299C98.6594 40.9272 98.8583 41.3246 99.455 41.3246C99.654 41.3246 99.654 41.3246 99.8529 41.3246V42.3179H99.455C99.2561 42.3179 99.2561 42.3179 99.0572 42.3179C98.6594 42.3179 98.4605 42.3179 98.2616 42.1193C98.0627 42.1193 97.8638 41.9206 97.8638 41.7219C97.8638 41.5232 97.6648 41.3246 97.6648 41.1259C97.6648 40.9272 97.6648 40.7285 97.6648 40.3312C97.4659 40.7285 97.267 40.9272 97.0681 41.1259C96.8692 41.3246 96.6703 41.5232 96.2725 41.7219C96.0736 41.9206 95.6758 41.9206 95.2779 42.1193C94.8801 42.1193 94.4823 42.3179 94.0845 42.3179C93.2888 42.5166 92.891 42.5166 92.4932 42.3179ZM95.2779 41.3246C95.6758 41.1259 96.0736 40.9272 96.4714 40.7285C96.8692 40.5299 97.0681 40.1325 97.267 39.7352C97.4659 39.3378 97.4659 38.9405 97.4659 38.3444V36.755C97.4659 36.9537 97.267 36.9537 97.0681 37.1524C96.8692 37.1524 96.6703 37.3511 96.4714 37.3511C95.8747 37.3511 95.4768 37.5497 94.8801 37.5497C94.2834 37.5497 93.8856 37.7484 93.2888 37.9471C92.891 38.1458 92.4932 38.3444 92.0954 38.5431C91.8965 38.7418 91.6975 39.1391 91.6975 39.7352C91.6975 40.1325 91.6976 40.3312 91.8965 40.5299C92.0954 40.7285 92.0954 40.9272 92.2943 41.1259C92.4932 41.3246 92.6921 41.5232 93.0899 41.5232C93.2888 41.5232 93.6867 41.7219 93.8856 41.7219C94.4823 41.5232 94.8801 41.3246 95.2779 41.3246Z" fill="black"/>
<path d="M100.847 42.3179H100.649H100.45H100.251V41.3245C100.251 41.3245 100.45 41.3245 100.649 41.3245C100.847 41.3245 101.046 41.3245 101.245 41.3245C101.444 41.3245 101.444 41.3245 101.643 41.3245C101.842 41.3245 102.041 41.1258 102.041 40.9271C102.24 40.7285 102.439 40.5298 102.439 40.1324C102.638 39.7351 102.638 39.1391 102.837 38.543C102.837 37.947 103.035 36.9536 103.035 35.9603C103.035 34.9669 103.035 33.5762 103.035 32.1854H109.798V42.3179H108.605V33.1788H104.229C104.229 34.5695 104.229 35.9603 104.03 36.9536C104.03 37.947 103.831 38.7417 103.632 39.5364C103.433 40.1324 103.234 40.7285 103.035 41.1258C102.837 41.5232 102.638 41.7218 102.439 41.9205C102.24 42.1192 101.842 42.3179 101.643 42.3179C101.444 42.3179 101.046 42.3179 100.847 42.3179C101.046 42.3179 101.046 42.3179 100.847 42.3179Z" fill="black"/>
<path d="M114.771 34.1722H113.379V32.3842H114.771V34.1722ZM114.771 42.3179H113.379V40.5299H114.771V42.3179Z" fill="black"/>
<path d="M28.4442 65.7615C27.8474 65.5629 27.2507 65.1655 26.8529 64.5695C26.4551 64.1721 26.0572 63.5761 25.8583 62.7814C25.6594 62.1854 25.4605 61.3907 25.4605 60.7947C25.4605 60.1986 25.4605 59.4039 25.8583 58.8079C26.0572 58.2119 26.4551 57.6159 26.8529 57.0198C27.2507 56.6225 27.8474 56.2251 28.4442 55.8278C29.0409 55.6291 29.6376 55.4304 30.4333 55.4304C31.4278 55.4304 32.4224 55.6291 33.218 56.2251C34.0136 56.8211 34.4115 57.6159 34.6104 58.8079H33.4169C33.218 58.0132 33.0191 57.4172 32.4224 57.0198C32.0245 56.6225 31.2289 56.4238 30.4333 56.4238C29.8365 56.4238 29.2398 56.6225 28.842 56.8211C28.4442 57.0198 28.0463 57.4172 27.6485 57.8145C27.4496 58.2119 27.0518 58.6092 27.0518 59.2053C26.8529 59.8013 26.8529 60.1986 26.8529 60.7947C26.8529 61.3907 26.8529 61.788 27.0518 62.3841C27.2507 62.9801 27.4496 63.3774 27.6485 63.7748C27.8474 64.1721 28.2453 64.5695 28.842 64.7682C29.2398 64.9668 29.8365 65.1655 30.4333 65.1655C30.8311 65.1655 31.2289 65.1655 31.4278 64.9668C31.8256 64.7682 32.0245 64.5695 32.4224 64.3708C32.6213 64.1721 32.8202 63.7748 33.0191 63.3774C33.218 62.9801 33.218 62.5827 33.4169 62.1854H34.6104C34.4115 63.3774 34.0136 64.3708 33.218 65.1655C32.4224 65.7615 31.6267 66.1589 30.4333 66.1589C29.8365 66.1589 29.0409 66.1589 28.4442 65.7615Z" fill="black"/>
<path d="M44.1581 55.8279V56.8213H40.3788V65.9603H39.1853V56.8213H35.406V55.8279H44.1581Z" fill="black"/>
<path d="M47.3406 65.7615C46.7439 65.5629 46.346 65.1655 45.9482 64.5695C45.5504 64.1721 45.3515 63.5761 45.1526 62.7814C44.9537 62.1854 44.9537 61.3907 44.9537 60.7947C44.9537 60.1986 44.9537 59.4039 45.1526 58.8079C45.3515 58.2119 45.5504 57.6159 45.9482 57.0198C46.346 56.6225 46.7439 56.0264 47.3406 55.8278C47.9373 55.6291 48.5341 55.4304 49.5286 55.4304C50.5232 55.4304 51.1199 55.6291 51.7166 55.8278C52.3133 56.2251 52.7112 56.6225 53.109 57.0198C53.5068 57.6159 53.7057 58.2119 53.9046 58.8079C54.1035 59.4039 54.1035 60.1986 54.1035 60.9933H46.1471C46.1471 61.3907 46.1471 61.9867 46.346 62.3841C46.545 62.7814 46.7439 63.3774 46.9428 63.5761C47.1417 63.9735 47.5395 64.1721 47.9373 64.5695C48.3351 64.7682 48.9319 64.9668 49.5286 64.9668C50.5232 64.9668 51.1199 64.7682 51.7166 64.1721C52.3133 63.7748 52.5123 62.9801 52.7112 62.1854H53.9046C53.7057 63.3774 53.109 64.1721 52.5123 64.9668C51.7166 65.5629 50.7221 65.9602 49.5286 65.9602C48.5341 66.1589 47.9373 66.1589 47.3406 65.7615ZM52.3133 58.8079C52.1144 58.4106 51.9155 58.0132 51.7166 57.6159C51.5177 57.2185 51.1199 57.0198 50.7221 56.8211C50.3242 56.6225 49.9264 56.6225 49.3297 56.6225C48.733 56.6225 48.3351 56.6225 47.9373 56.8211C47.5395 57.0198 47.1417 57.2185 46.9428 57.6159C46.7439 58.0132 46.545 58.4106 46.346 58.8079C46.1471 59.2053 46.1471 59.8013 45.9482 60.1986H52.5123C52.7112 59.6026 52.5123 59.2053 52.3133 58.8079Z" fill="black"/>
<path d="M62.4578 55.8279H64.049L59.673 59.8014L64.248 65.9603H62.6567L58.6785 60.5961L56.6894 62.5828V65.9603H55.4959V55.8279H56.6894V60.9934L62.4578 55.8279Z" fill="black"/>
<path d="M65.0436 65.9603H64.8447H64.6458H64.4469V64.967C64.4469 64.967 64.6458 64.967 64.8447 64.967C65.0436 64.967 65.2425 64.967 65.4414 64.967C65.6404 64.967 65.6404 64.967 65.8393 64.967C66.0382 64.967 66.2371 64.7683 66.2371 64.5696C66.436 64.3709 66.6349 64.1722 66.6349 63.7749C66.8338 63.3775 66.8338 62.7815 67.0327 62.1855C67.0327 61.5895 67.2316 60.5961 67.2316 59.6027C67.2316 58.6093 67.2316 57.2186 67.2316 55.8279H73.9946V65.9603H72.8011V56.8213H68.4251C68.4251 58.212 68.4251 59.6027 68.2262 60.5961C68.2262 61.5895 68.0273 62.3842 67.8284 63.1789C67.6295 63.7749 67.4305 64.3709 67.2316 64.7683C67.0327 65.1656 66.8338 65.3643 66.6349 65.563C66.436 65.7617 66.0382 65.9603 65.8393 65.9603C65.6404 65.9603 65.2425 65.9603 65.0436 65.9603C65.2425 65.9603 65.2425 65.9603 65.0436 65.9603Z" fill="black"/>
<path d="M78.9673 65.7615C78.3706 65.5629 77.7738 65.1655 77.376 64.5695C76.9782 64.1721 76.5804 63.5761 76.3815 62.7814C76.1826 62.1854 75.9836 61.3907 75.9836 60.7947C75.9836 60.1986 75.9836 59.4039 76.3815 58.8079C76.5804 58.2119 76.9782 57.6159 77.376 57.0198C77.7738 56.6225 78.3706 56.2251 78.9673 55.8278C79.564 55.6291 80.1608 55.4304 80.9564 55.4304C81.752 55.4304 82.3488 55.6291 82.9455 55.8278C83.5422 56.0264 83.94 56.4238 84.5368 57.0198C84.9346 57.4172 85.3324 58.0132 85.5313 58.8079C85.7302 59.4039 85.9291 60.1986 85.9291 60.7947C85.9291 61.3907 85.9291 62.1854 85.5313 62.7814C85.3324 63.3774 84.9346 63.9735 84.5368 64.5695C84.139 64.9668 83.5422 65.3642 82.9455 65.7615C82.3488 65.9602 81.5531 66.1589 80.9564 66.1589C80.1608 66.1589 79.564 66.1589 78.9673 65.7615ZM82.5477 64.7682C82.9455 64.5695 83.3433 64.1721 83.7411 63.7748C83.94 63.3774 84.3379 62.9801 84.3379 62.3841C84.5368 61.788 84.5368 61.3907 84.5368 60.7947C84.5368 60.1986 84.5368 59.8013 84.3379 59.2053C84.139 58.6092 83.94 58.2119 83.7411 57.8145C83.5422 57.4172 83.1444 57.0198 82.5477 56.8211C82.1499 56.6225 81.5531 56.4238 80.9564 56.4238C80.3597 56.4238 79.7629 56.6225 79.3651 56.8211C78.9673 57.0198 78.5695 57.4172 78.1717 57.8145C77.9727 58.2119 77.5749 58.6092 77.5749 59.2053C77.376 59.8013 77.376 60.1986 77.376 60.7947C77.376 61.3907 77.376 61.788 77.5749 62.3841C77.7738 62.9801 77.9727 63.3774 78.1717 63.7748C78.3706 64.1721 78.7684 64.5695 79.3651 64.7682C79.7629 64.9668 80.3597 65.1655 80.9564 65.1655C81.5531 65.1655 82.1499 65.1655 82.5477 64.7682Z" fill="black"/>
<path d="M27.4496 103.311V112.45H33.0191V103.311H34.2126V112.45H35.8038V116.821H34.6104V113.642H26.2562V103.311H27.4496Z" fill="black"/>
<path d="M44.1581 103.907C44.7548 104.305 44.9537 104.901 44.9537 105.695C44.9537 106.291 44.7548 106.887 44.5559 107.285C44.1581 107.682 43.7603 107.881 43.1635 108.079C43.7603 108.278 44.357 108.477 44.7548 108.874C45.1526 109.272 45.3515 109.868 45.3515 110.662C45.3515 111.656 44.9537 112.252 44.357 112.848C43.7603 113.245 42.7657 113.642 41.5722 113.642H36.9973V103.311H41.7712C42.9646 103.311 43.7603 103.51 44.1581 103.907ZM43.3624 107.086C43.7603 106.887 43.9592 106.291 43.9592 105.894C43.9592 104.702 43.1635 104.305 41.7712 104.305H38.3897V107.682H41.7712C42.3679 107.682 42.9646 107.483 43.3624 107.086ZM43.5613 111.854C43.9592 111.457 44.1581 111.06 44.1581 110.464C44.1581 109.868 43.9592 109.47 43.5613 109.073C43.1635 108.676 42.5668 108.676 41.5722 108.676H38.1908V112.45H41.7712C42.5668 112.45 43.1635 112.252 43.5613 111.854Z" fill="black"/>
<path d="M49.3297 113.245C48.733 113.046 48.3352 112.649 47.9374 112.053C47.5395 111.656 47.3406 111.06 47.1417 110.265C46.9428 109.669 46.9428 108.874 46.9428 108.278C46.9428 107.682 46.9428 106.887 47.1417 106.291C47.3406 105.695 47.5395 105.099 47.9374 104.503C48.3352 104.106 48.733 103.51 49.3297 103.311C49.9265 103.113 50.5232 102.914 51.5177 102.914C52.3134 102.914 53.109 103.113 53.7058 103.311C54.3025 103.709 54.7003 104.106 55.0981 104.503C55.4959 105.099 55.6949 105.695 55.8938 106.291C56.0927 106.887 56.0927 107.682 56.0927 108.477H48.1363C48.1363 108.874 48.1363 109.47 48.3352 109.868C48.5341 110.265 48.733 110.861 48.9319 111.06C49.1308 111.457 49.5286 111.656 49.9265 112.053C50.3243 112.252 50.921 112.45 51.5177 112.45C52.5123 112.45 53.109 112.252 53.7058 111.656C54.3025 111.258 54.5014 110.464 54.7003 109.669H55.8938C55.6949 110.861 55.0981 111.656 54.5014 112.45C53.7058 113.046 52.7112 113.444 51.5177 113.444C50.7221 113.642 49.9265 113.642 49.3297 113.245ZM54.5014 106.291C54.3025 105.894 54.1036 105.497 53.9047 105.099C53.7058 104.702 53.3079 104.503 52.9101 104.305C52.5123 104.106 52.1145 104.106 51.5177 104.106C50.921 104.106 50.5232 104.106 50.1254 104.305C49.7276 104.503 49.3297 104.702 49.1308 105.099C48.9319 105.497 48.733 105.894 48.5341 106.291C48.3352 106.689 48.3352 107.285 48.1363 107.682H54.7003C54.7003 107.086 54.7003 106.689 54.5014 106.291Z" fill="black"/>
<path d="M65.2425 103.311V104.305H61.4632V113.444H60.2698V104.305H56.4905V103.311H65.2425Z" fill="black"/>
<path d="M68.8229 105.497H67.4305V103.709H68.8229V105.497ZM68.8229 113.444H67.4305V111.656H68.8229V113.444Z" fill="black"/>
<path d="M31.8256 132.914C31.6267 132.914 31.2289 133.113 31.03 133.113C30.8311 133.113 30.4333 133.311 30.0354 133.311C29.6376 133.311 29.4387 133.311 29.0409 133.311C28.0463 133.311 27.2507 133.113 26.654 132.517C26.2562 132.119 25.8583 131.126 25.8583 130.132V126.954H27.0518V130.132C27.0518 130.53 27.0518 130.927 27.2507 131.324C27.4496 131.523 27.6485 131.722 27.8474 131.921C28.0463 132.119 28.2453 132.119 28.6431 132.119C28.842 132.119 29.2398 132.119 29.4387 132.119C30.0354 132.119 30.6322 132.119 31.2289 131.921C31.8256 131.722 32.2235 131.722 32.6213 131.523V126.954H33.8147V137.086H32.6213V132.715C32.2235 132.715 32.0245 132.914 31.8256 132.914Z" fill="black"/>
<path d="M38.1908 137.086C37.594 136.887 37.1962 136.49 36.7984 135.894C36.4006 135.497 36.2017 134.901 36.0027 134.106C35.8038 133.51 35.8038 132.715 35.8038 132.119C35.8038 131.523 35.8038 130.729 36.0027 130.132C36.2017 129.536 36.4006 128.94 36.7984 128.344C37.1962 127.947 37.594 127.351 38.1908 127.152C38.7875 126.954 39.3842 126.755 40.3788 126.755C41.1744 126.755 41.97 126.954 42.5668 127.152C43.1635 127.55 43.5613 127.947 43.9591 128.344C44.357 128.94 44.5559 129.536 44.7548 130.132C44.9537 130.729 44.9537 131.523 44.9537 132.318H36.9973C36.9973 132.715 36.9973 133.311 37.1962 133.709C37.3951 134.106 37.594 134.702 37.7929 134.901C37.9918 135.298 38.3897 135.497 38.7875 135.894C39.1853 136.093 39.782 136.291 40.3788 136.291C41.3733 136.291 41.97 136.093 42.5668 135.497C43.1635 135.099 43.3624 134.305 43.5613 133.51H44.7548C44.5559 134.702 43.9591 135.497 43.3624 136.291C42.5668 136.887 41.5722 137.285 40.3788 137.285C39.3842 137.483 38.7875 137.285 38.1908 137.086ZM43.1635 129.934C42.9646 129.536 42.7657 129.139 42.5668 128.742C42.3679 128.344 41.97 128.146 41.5722 127.947C41.1744 127.748 40.7766 127.748 40.1799 127.748C39.5831 127.748 39.1853 127.748 38.7875 127.947C38.3897 128.146 37.9918 128.344 37.7929 128.742C37.594 129.139 37.3951 129.536 37.1962 129.934C36.9973 130.331 36.9973 130.927 36.7984 131.325H43.3624C43.3624 130.927 43.3624 130.331 43.1635 129.934Z" fill="black"/>
<path d="M47.5395 128.94C47.7384 128.146 48.3352 127.748 48.9319 127.351C49.5286 126.954 50.3243 126.755 51.1199 126.755C51.9156 126.755 52.5123 126.954 53.109 127.152C53.7057 127.351 54.1036 127.748 54.5014 128.344C54.8992 128.742 55.0981 129.338 55.297 130.132C55.4959 130.729 55.4959 131.523 55.4959 132.119C55.4959 132.914 55.4959 133.51 55.297 134.106C55.0981 134.702 54.8992 135.298 54.5014 135.894C54.1036 136.291 53.7057 136.689 53.109 137.086C52.5123 137.285 51.9156 137.483 51.1199 137.483C50.7221 137.483 50.3243 137.483 49.9265 137.285C49.5286 137.285 49.1308 137.086 48.9319 136.887C48.5341 136.689 48.3352 136.49 48.1363 136.291C47.9374 136.093 47.7384 135.695 47.5395 135.298V141.06H46.3461V127.152H47.5395V128.94ZM52.7112 136.093C53.109 135.894 53.5068 135.497 53.7057 135.099C53.9047 134.702 54.1036 134.305 54.3025 133.709C54.5014 133.113 54.5014 132.715 54.5014 132.119C54.5014 131.523 54.5014 131.126 54.3025 130.53C54.1036 129.934 53.9047 129.536 53.7057 129.139C53.5068 128.742 53.109 128.344 52.7112 128.146C52.3134 127.947 51.7166 127.748 51.1199 127.748C50.5232 127.748 49.9265 127.947 49.3297 128.146C48.9319 128.344 48.5341 128.742 48.1363 129.139C47.9374 129.536 47.7384 129.934 47.5395 130.53C47.3406 131.126 47.3406 131.523 47.3406 132.119C47.3406 132.715 47.3406 133.113 47.5395 133.709C47.7384 134.305 47.9374 134.702 48.1363 135.099C48.3352 135.497 48.733 135.894 49.3297 136.093C49.7275 136.291 50.3243 136.49 50.921 136.49C51.9156 136.49 52.3134 136.291 52.7112 136.093Z" fill="black"/>
<path d="M64.8447 131.324V126.954H66.0382V137.086H64.8447V132.318H59.0763V137.086H57.684V126.954H58.8774V131.324H64.8447Z" fill="black"/>
<path d="M73 131.126C73.9946 131.126 74.7902 131.324 75.387 131.921C75.9837 132.517 76.1826 133.113 76.1826 134.106C76.1826 135.099 75.9837 135.894 75.387 136.291C74.7902 136.887 73.9946 137.086 73 137.086H68.4251V126.954H69.6186V131.126H73ZM74.3924 135.497C74.7902 135.099 74.9891 134.702 74.9891 133.907C74.9891 133.311 74.7902 132.715 74.3924 132.318C73.9946 131.92 73.3979 131.921 72.8011 131.921H69.6186V135.894H72.6022C73.3979 136.093 73.7957 135.894 74.3924 135.497ZM77.9728 137.086V126.954H79.1662V137.086H77.9728Z" fill="black"/>
<path d="M88.515 126.954H90.1063V137.086H88.9128V128.344L83.1444 137.086H81.5532V126.954H82.7466V135.695L88.515 126.954ZM83.9401 124.768C83.5423 124.371 83.1444 123.775 83.1444 122.781H83.9401C83.9401 123.179 84.139 123.576 84.5368 123.974C84.9346 124.172 85.3325 124.371 85.9292 124.371C86.5259 124.371 86.9237 124.172 87.3216 123.974C87.7194 123.775 87.9183 123.378 87.9183 122.781H88.7139C88.515 123.576 88.3161 124.172 87.7194 124.768C87.3216 125.166 86.5259 125.364 85.7303 125.364C84.9346 125.364 84.3379 125.166 83.9401 124.768Z" fill="black"/>
</svg>
