<?xml version="1.0" encoding="UTF-8"?>
<svg id="_Слой_1" data-name="Слой 1" xmlns="http://www.w3.org/2000/svg" viewBox="0 0 1987 480">
  <defs>
    <style>
      .cls-1 {
        fill: #fff;
      }

      .cls-2 {
        fill: #df45a7;
      }

      .cls-3 {
        fill: #d4f570;
      }

      .cls-4 {
        fill: #5b927f;
      }
    </style>
  </defs>
  <g>
    <path class="cls-4" d="M480.57,0H0V480H480.57V0Z"/>
    <path d="M403.99,148.81s-76.38-24.24-73.2,67.55c2.39,73.31-27.65,108.48-39.98,119.6l-27.05-185.56s-7.76-18.48-42.77-28.81c0,0,5.57-40.13-24.66-24.64-30.43,15.5-10.34,25.23-10.34,25.23,0,0-60.27-4.17-53.71,35.96l-4.57,38.54c-13.13-11.72-56.29-44.11-85.13,3.78-34.01,55.83-21.28,199.87,60.27,208.21l-3.58,30.79s106.22,44.3,206.87,0l-2.19-14.5c33.61-5.76,55.69-101.13,53.71-182.78-2.19-86.62,46.35-93.38,46.35-93.38ZM107.81,365.36c-19.29-8.15-54.1-32.19-47.34-97.15,7.96-75.3,51.12-52.85,64.05-44.31l-16.71,141.46Z"/>
    <path d="M342.52,49.47c-.6,.2-.99,.2-1.59,.4-.6,.2-1.19,.2-1.79,.2s-1.19,.2-1.79,.2c-1.99,0-3.38-.4-4.18-1.39-.8-.99-.99-2.58-.6-4.77l1.19-5.76h2.39l-1.19,6.16c-.2,.99-.2,1.59,0,2.19,.2,.6,.4,.99,.8,1.19,.4,.2,.8,.4,1.19,.4h1.39c.99,0,2.19-.2,3.38-.4,1.19-.2,2.19-.4,2.78-.79l1.79-8.74h2.39l-4.18,19.27h-2.39l1.79-8.34c-.4-.2-.8,0-1.39,.2Z"/>
    <path d="M351.87,57.62c-.8-.2-1.39-.6-1.79-.99s-.8-.99-.99-1.79-.2-1.59,0-2.58c.4-1.39,.8-2.38,1.59-3.18,.8-.79,1.59-1.39,2.79-1.79,1.19-.4,2.19-.6,3.58-.79l3.78-.4c.4,0,.99-.2,1.39-.2s.8-.2,.99-.4c.4-.2,.6-.4,.8-.79,.2-.4,.4-.79,.4-1.19,.2-.79,.2-1.39,0-1.99-.2-.4-.4-.99-.8-1.19-.4-.4-.99-.6-1.39-.6-.6-.2-1.19-.2-1.99-.2-1.59,0-2.79,.4-3.98,.99-.99,.79-1.79,1.79-2.19,3.38h-2.39c.6-2.19,1.79-3.97,3.38-4.97,1.59-.99,3.58-1.59,5.77-1.59,.8,0,1.59,0,2.59,.2,.8,.2,1.59,.4,2.19,.99,.6,.4,.99,.99,1.19,1.79s.2,1.79,0,3.18l-2.19,10.33c-.2,.99,.2,1.39,.99,1.39,.4,0,.6,0,.8-.2l-.4,1.99-.8,.2h-.8c-.6,0-.99,0-1.39-.2-.4-.2-.6-.4-.8-.6-.2-.4-.2-.6-.2-.99s.2-.79,.2-1.39c-.6,.6-1.19,1.19-1.59,1.59-.6,.4-1.19,.99-1.79,1.19-.6,.4-1.19,.6-1.99,.79-.8,.2-1.59,.2-2.59,.2-.8,.2-1.79,0-2.39-.2Zm5.77-1.99c.8-.2,1.59-.6,2.39-1.19,.8-.6,1.39-1.19,1.79-1.99,.6-.79,1-1.59,1-2.58l.6-2.98c-.2,.2-.6,.4-.99,.6-.4,.2-.8,.2-1.19,.2-.99,.2-2.19,.4-3.18,.4-.99,.2-2.19,.4-2.98,.6-.99,.2-1.79,.6-2.39,1.19-.6,.6-1.19,1.19-1.39,2.19-.2,.6-.2,1.19,0,1.59,.2,.4,.4,.79,.8,1.19,.4,.4,.8,.6,1.19,.79,.4,.2,.99,.2,1.59,.2,.99,.2,1.79,0,2.78-.2Z"/>
    <path d="M385.49,38.15h2.98l-4.18,19.27h-2.39l3.58-16.49-14.12,16.49h-2.98l4.18-19.27h2.39l-3.58,16.49,14.12-16.49Zm-7.96-4.17c-.8-.79-.99-1.99-.8-3.58h1.39c0,.99,.2,1.59,.8,2.19,.6,.6,1.39,.79,2.59,.79,.99,0,1.99-.2,2.78-.79,.8-.6,1.39-1.19,1.79-2.19h1.39c-.6,1.59-1.39,2.78-2.59,3.58-.99,.79-2.39,1.19-3.98,1.19s-2.59-.4-3.38-1.19Z"/>
    <path d="M404.58,46.29l1.79-8.15h2.39l-4.18,19.27h-2.39l1.99-9.14h-10.94l-1.99,9.14h-2.39l4.18-19.27h2.39l-1.79,8.15h10.94Z"/>
    <path d="M426.07,38.15h2.98l-4.18,19.27h-2.39l3.58-16.49-14.12,16.49h-2.98l4.18-19.27h2.39l-3.58,16.49,14.12-16.49Z"/>
    <path d="M446.55,38.15h3.18l-9.75,7.55,6.17,11.72h-2.98l-5.37-10.13-4.77,3.58-1.39,6.56h-2.39l4.18-19.27h2.39l-2.19,9.93,12.93-9.93Z"/>
    <path d="M344.71,74.7l-15.32,30.99h-2.19l15.32-30.99h2.19Z"/>
    <path d="M355.05,74.7l-15.32,30.99h-2.19l15.32-30.99h2.19Z"/>
    <path d="M378.73,84.24c.99,.79,1.19,1.99,.79,3.38-.2,1.19-.79,2.19-1.59,2.98-.79,.79-1.59,1.39-2.78,1.59,1.19,.2,2.19,.79,2.78,1.59,.6,.79,.6,1.79,.4,3.38-.4,1.79-1.19,2.98-2.59,3.97-1.39,.99-3.18,1.39-5.57,1.39h-8.75l4.18-19.27h8.75c2.19-.2,3.58,.2,4.38,.99Zm-4.38,15.1c.99-.6,1.59-1.59,1.79-2.78,.2-1.19,0-1.99-.6-2.58-.6-.6-1.79-.99-3.58-.99h-6.17l-1.59,7.15h6.17c1.79,.2,2.98,0,3.98-.8Zm1.39-8.74c.8-.6,1.39-1.39,1.59-2.38,.4-2.19-.6-3.18-3.38-3.18h-6.17l-1.39,6.36h6.17c1.19,0,2.39-.4,3.18-.79Z"/>
    <path d="M398.02,83.05h2.98l-4.18,19.27h-2.39l3.58-16.49-14.12,16.49h-2.98l4.18-19.27h2.39l-3.58,16.49,14.12-16.49Z"/>
    <path d="M405.38,94.17c.99-2.38,1.79-5.17,2.39-8.74l.6-2.58h12.93l-3.58,17.29h2.98l-1.79,8.14h-2.39l1.39-6.16h-16.11l-1.39,6.16h-2.39l1.59-8.14h2.19c1.39-1.59,2.59-3.58,3.58-5.96Zm4.58-7.75c-.6,3.18-1.59,5.96-2.39,8.34-.99,2.38-1.99,4.17-2.98,5.56h10.94l3.18-15.3h-8.35l-.4,1.39Z"/>
    <path d="M442.77,80.86c.8-.2,1.59-.4,2.19-.79,.6-.4,1.19-.79,1.79-1.59,.6-.6,.99-1.59,1.59-2.58h1.99l-5.57,26.42h-2.39l4.18-19.67h-6.96l.4-1.59c.99,0,1.79-.2,2.78-.2Z"/>
    <path d="M35.41,31.99h1.59v10.13h-1.19v-8.34l-3.58,8.34h-1.19l-3.58-8.34v8.34h-1.19v-10.13h1.59l3.78,8.74,3.78-8.74Z"/>
    <path d="M40.98,42.32c-.4-.2-.8-.2-.99-.6-.4-.2-.6-.6-.8-.99-.2-.4-.2-.79-.2-1.39,0-.79,.2-1.19,.4-1.59,.4-.4,.8-.6,1.19-.99,.6-.2,1.19-.4,1.79-.4l1.99-.2h.6c.2,0,.4-.2,.4-.2,.2,0,.2-.2,.4-.4v-.6c0-.4,0-.79-.2-.99-.2-.2-.4-.4-.6-.6-.2-.2-.6-.2-.8-.4h-.99c-.8,0-1.39,.2-1.99,.6-.4,.4-.8,.99-.8,1.79h-1.19c0-1.19,.4-1.99,1.19-2.58,.8-.6,1.79-.79,2.98-.79,.4,0,.8,0,1.39,.2,.4,0,.8,.2,1.19,.4,.4,.2,.6,.6,.8,.99,.2,.4,.4,.99,.4,1.59v5.36c0,.4,.2,.79,.8,.79h.4v.99h-.8c-.4,0-.6,0-.8-.2-.2,0-.4-.2-.4-.4s-.2-.4-.2-.6v-.79c-.2,.4-.4,.6-.6,.79s-.4,.4-.8,.6c-.2,.2-.6,.2-.99,.4-.4,0-.8,.2-1.19,.2-.6,.2-1.19,.2-1.59,0Zm2.78-.99c.4-.2,.8-.4,1.19-.6,.4-.2,.6-.6,.8-.99,.2-.4,.2-.79,.2-1.39v-1.59c0,.2-.2,.2-.4,.4s-.4,.2-.6,.2c-.6,0-.99,.2-1.59,.2s-.99,.2-1.59,.4c-.4,.2-.8,.4-1.19,.6-.2,.2-.4,.6-.4,1.19,0,.4,0,.6,.2,.79,.2,.2,.2,.4,.4,.6s.4,.4,.8,.4c.2,0,.6,.2,.8,.2,.6-.2,.99-.4,1.39-.4Z"/>
    <path d="M57.29,31.99v.99h-3.78v9.14h-1.19v-9.14h-3.78v-.99h8.75Z"/>
    <path d="M60.47,42.12c-.6-.2-.99-.6-1.39-1.19-.4-.4-.6-.99-.8-1.79-.2-.6-.2-1.39-.2-1.99s0-1.39,.2-1.99c.2-.6,.4-1.19,.8-1.79,.4-.4,.8-.99,1.39-1.19,.6-.2,1.19-.4,2.19-.4,.8,0,1.59,.2,2.19,.4,.6,.4,.99,.79,1.39,1.19,.4,.6,.6,1.19,.8,1.79,.2,.6,.2,1.39,.2,2.19h-7.96c0,.4,0,.99,.2,1.39,.2,.4,.4,.99,.6,1.19,.2,.4,.6,.6,.99,.99,.4,.2,.99,.4,1.59,.4,.99,0,1.59-.2,2.19-.79,.6-.4,.8-1.19,.99-1.99h1.19c-.2,1.19-.8,1.99-1.39,2.78-.8,.6-1.79,.99-2.98,.99-.8,.2-1.59,0-2.19-.2Zm5.17-7.15c-.2-.4-.4-.79-.6-1.19-.2-.4-.6-.6-.99-.79-.4-.2-.8-.2-1.39-.2s-.99,0-1.39,.2c-.4,.2-.8,.4-.99,.79-.2,.4-.6,.79-.6,1.19-.2,.4-.2,.99-.4,1.39h6.56c0-.4,0-.79-.2-1.39Z"/>
    <path d="M70.02,33.97c.2-.79,.8-1.19,1.39-1.59,.6-.4,1.39-.6,2.19-.6s1.39,.2,1.99,.4c.6,.2,.99,.6,1.39,1.19,.4,.4,.6,.99,.8,1.79,.2,.6,.2,1.39,.2,1.99,0,.79,0,1.39-.2,1.99-.2,.6-.4,1.19-.8,1.79-.4,.4-.8,.79-1.39,1.19-.6,.2-1.19,.4-1.99,.4-.4,0-.8,0-1.19-.2-.4,0-.8-.2-.99-.4-.4-.2-.6-.4-.8-.6s-.4-.6-.6-.99v5.76h-1.19v-13.91h1.19v1.79Zm5.17,7.15c.4-.2,.8-.6,.99-.99,.2-.4,.4-.79,.6-1.39,.2-.6,.2-.99,.2-1.59s0-.99-.2-1.59c-.2-.6-.4-.99-.6-1.39-.2-.4-.6-.79-.99-.99-.4-.2-.99-.4-1.59-.4s-1.19,.2-1.79,.4c-.4,.2-.8,.6-1.19,.99-.4,.4-.4,.79-.6,1.39-.2,.6-.2,.99-.2,1.59s0,.99,.2,1.59c.2,.6,.4,.99,.6,1.39,.2,.4,.6,.79,1.19,.99,.4,.2,.99,.4,1.59,.4,.8,0,1.39-.2,1.79-.4Z"/>
    <path d="M87.12,31.99h1.59v10.13h-1.19v-8.74l-5.57,8.74h-1.59v-10.13h1.19v8.74l5.57-8.74Z"/>
    <path d="M92.49,42.32c-.4-.2-.8-.2-.99-.6-.4-.2-.6-.6-.8-.99-.2-.4-.2-.79-.2-1.39,0-.79,.2-1.19,.4-1.59,.4-.4,.8-.6,1.19-.99,.6-.2,1.19-.4,1.79-.4l1.99-.2h.6c.2,0,.4-.2,.4-.2,.2,0,.2-.2,.4-.4v-.6c0-.4,0-.79-.2-.99-.2-.2-.4-.4-.6-.6-.2-.2-.6-.2-.8-.4h-.99c-.8,0-1.39,.2-1.99,.6-.4,.4-.8,.99-.8,1.79h-1.19c0-1.19,.4-1.99,1.19-2.58,.8-.6,1.79-.79,2.98-.79,.4,0,.8,0,1.39,.2,.4,0,.8,.2,1.19,.4,.4,.2,.6,.6,.8,.99,.2,.4,.4,.99,.4,1.59v5.36c0,.4,.2,.79,.8,.79h.4v.99h-.8c-.4,0-.6,0-.8-.2-.2,0-.4-.2-.4-.4s-.2-.4-.2-.6v-.79c-.2,.4-.4,.6-.6,.79s-.4,.4-.8,.6c-.2,.2-.6,.2-.99,.4-.4,0-.8,.2-1.19,.2-.8,.2-1.19,.2-1.59,0Zm2.78-.99c.4-.2,.8-.4,1.19-.6,.4-.2,.6-.6,.8-.99,.2-.4,.2-.79,.2-1.39v-1.59c0,.2-.2,.2-.4,.4-.2,0-.4,.2-.6,.2-.6,0-.99,.2-1.59,.2s-.99,.2-1.59,.4c-.4,.2-.8,.4-1.19,.6-.2,.2-.4,.6-.4,1.19,0,.4,0,.6,.2,.79,.2,.2,.2,.4,.4,.6,.2,.2,.4,.4,.8,.4,.2,0,.6,.2,.8,.2,.6-.2,.99-.4,1.39-.4Z"/>
    <path d="M100.85,42.32h-.6v-.99h1.39c.2,0,.4-.2,.4-.4,.2-.2,.4-.4,.4-.79,.2-.4,.2-.99,.4-1.59,0-.6,.2-1.59,.2-2.58v-3.77h6.76v10.13h-1.19v-9.14h-4.38c0,1.39,0,2.78-.2,3.77,0,.99-.2,1.79-.4,2.58-.2,.6-.4,1.19-.6,1.59-.2,.4-.4,.6-.6,.79-.2,.2-.6,.4-.8,.4h-.8q.2,0,0,0Z"/>
    <path d="M114.77,34.17h-1.39v-1.79h1.39v1.79Zm0,8.15h-1.39v-1.79h1.39v1.79Z"/>
    <path d="M28.44,65.76c-.6-.2-1.19-.6-1.59-1.19-.4-.4-.8-.99-.99-1.79-.2-.6-.4-1.39-.4-1.99s0-1.39,.4-1.99c.2-.6,.6-1.19,.99-1.79,.4-.4,.99-.79,1.59-1.19,.6-.2,1.19-.4,1.99-.4,.99,0,1.99,.2,2.78,.79,.8,.6,1.19,1.39,1.39,2.58h-1.19c-.2-.79-.4-1.39-.99-1.79-.4-.4-1.19-.6-1.99-.6-.6,0-1.19,.2-1.59,.4-.4,.2-.8,.6-1.19,.99-.2,.4-.6,.79-.6,1.39-.2,.6-.2,.99-.2,1.59s0,.99,.2,1.59c.2,.6,.4,.99,.6,1.39,.2,.4,.6,.79,1.19,.99,.4,.2,.99,.4,1.59,.4,.4,0,.8,0,.99-.2,.4-.2,.6-.4,.99-.6,.2-.2,.4-.6,.6-.99,.2-.4,.2-.79,.4-1.19h1.19c-.2,1.19-.6,2.19-1.39,2.98-.8,.6-1.59,.99-2.78,.99-.6,0-1.39,0-1.99-.4Z"/>
    <path d="M44.16,55.83v.99h-3.78v9.14h-1.19v-9.14h-3.78v-.99h8.75Z"/>
    <path d="M47.34,65.76c-.6-.2-.99-.6-1.39-1.19-.4-.4-.6-.99-.8-1.79-.2-.6-.2-1.39-.2-1.99s0-1.39,.2-1.99c.2-.6,.4-1.19,.8-1.79,.4-.4,.8-.99,1.39-1.19,.6-.2,1.19-.4,2.19-.4s1.59,.2,2.19,.4c.6,.4,.99,.79,1.39,1.19,.4,.6,.6,1.19,.8,1.79,.2,.6,.2,1.39,.2,2.19h-7.96c0,.4,0,.99,.2,1.39,.2,.4,.4,.99,.6,1.19,.2,.4,.6,.6,.99,.99,.4,.2,.99,.4,1.59,.4,.99,0,1.59-.2,2.19-.79,.6-.4,.8-1.19,.99-1.99h1.19c-.2,1.19-.8,1.99-1.39,2.78-.8,.6-1.79,.99-2.98,.99-.99,.2-1.59,.2-2.19-.2Zm4.97-6.95c-.2-.4-.4-.79-.6-1.19-.2-.4-.6-.6-.99-.79-.4-.2-.8-.2-1.39-.2s-.99,0-1.39,.2c-.4,.2-.8,.4-.99,.79-.2,.4-.4,.79-.6,1.19-.2,.4-.2,.99-.4,1.39h6.56c.2-.6,0-.99-.2-1.39Z"/>
    <path d="M62.46,55.83h1.59l-4.38,3.97,4.58,6.16h-1.59l-3.98-5.36-1.99,1.99v3.38h-1.19v-10.13h1.19v5.17l5.77-5.17Z"/>
    <path d="M65.04,65.96h-.6v-.99h1.39c.2,0,.4-.2,.4-.4,.2-.2,.4-.4,.4-.79,.2-.4,.2-.99,.4-1.59,0-.6,.2-1.59,.2-2.58v-3.77h6.76v10.13h-1.19v-9.14h-4.38c0,1.39,0,2.78-.2,3.77,0,.99-.2,1.79-.4,2.58-.2,.6-.4,1.19-.6,1.59-.2,.4-.4,.6-.6,.79-.2,.2-.6,.4-.8,.4h-.8q.2,0,0,0Z"/>
    <path d="M78.97,65.76c-.6-.2-1.19-.6-1.59-1.19-.4-.4-.8-.99-.99-1.79-.2-.6-.4-1.39-.4-1.99s0-1.39,.4-1.99c.2-.6,.6-1.19,.99-1.79,.4-.4,.99-.79,1.59-1.19,.6-.2,1.19-.4,1.99-.4s1.39,.2,1.99,.4c.6,.2,.99,.6,1.59,1.19,.4,.4,.8,.99,.99,1.79,.2,.6,.4,1.39,.4,1.99s0,1.39-.4,1.99c-.2,.6-.6,1.19-.99,1.79-.4,.4-.99,.79-1.59,1.19-.6,.2-1.39,.4-1.99,.4-.8,0-1.39,0-1.99-.4Zm3.58-.99c.4-.2,.8-.6,1.19-.99,.2-.4,.6-.79,.6-1.39,.2-.6,.2-.99,.2-1.59s0-.99-.2-1.59c-.2-.6-.4-.99-.6-1.39-.2-.4-.6-.79-1.19-.99-.4-.2-.99-.4-1.59-.4s-1.19,.2-1.59,.4c-.4,.2-.8,.6-1.19,.99-.2,.4-.6,.79-.6,1.39-.2,.6-.2,.99-.2,1.59s0,.99,.2,1.59c.2,.6,.4,.99,.6,1.39,.2,.4,.6,.79,1.19,.99,.4,.2,.99,.4,1.59,.4s1.19,0,1.59-.4Z"/>
    <path d="M27.45,103.31v9.14h5.57v-9.14h1.19v9.14h1.59v4.37h-1.19v-3.18h-8.35v-10.33h1.19Z"/>
    <path d="M44.16,103.91c.6,.4,.8,.99,.8,1.79,0,.6-.2,1.19-.4,1.59-.4,.4-.8,.6-1.39,.79,.6,.2,1.19,.4,1.59,.79,.4,.4,.6,.99,.6,1.79,0,.99-.4,1.59-.99,2.19-.6,.4-1.59,.79-2.78,.79h-4.57v-10.33h4.77c1.19,0,1.99,.2,2.39,.6Zm-.8,3.18c.4-.2,.6-.79,.6-1.19,0-1.19-.8-1.59-2.19-1.59h-3.38v3.38h3.38c.6,0,1.19-.2,1.59-.6Zm.2,4.77c.4-.4,.6-.79,.6-1.39s-.2-.99-.6-1.39c-.4-.4-.99-.4-1.99-.4h-3.38v3.77h3.58c.8,0,1.39-.2,1.79-.6Z"/>
    <path d="M49.33,113.25c-.6-.2-.99-.6-1.39-1.19-.4-.4-.6-.99-.8-1.79-.2-.6-.2-1.39-.2-1.99s0-1.39,.2-1.99c.2-.6,.4-1.19,.8-1.79,.4-.4,.8-.99,1.39-1.19,.6-.2,1.19-.4,2.19-.4,.8,0,1.59,.2,2.19,.4,.6,.4,.99,.8,1.39,1.19,.4,.6,.6,1.19,.8,1.79,.2,.6,.2,1.39,.2,2.19h-7.96c0,.4,0,.99,.2,1.39,.2,.4,.4,.99,.6,1.19,.2,.4,.6,.6,.99,.99,.4,.2,.99,.4,1.59,.4,.99,0,1.59-.2,2.19-.79,.6-.4,.8-1.19,.99-1.99h1.19c-.2,1.19-.8,1.99-1.39,2.78-.8,.6-1.79,.99-2.98,.99-.8,.2-1.59,.2-2.19-.2Zm5.17-6.95c-.2-.4-.4-.79-.6-1.19-.2-.4-.6-.6-.99-.79-.4-.2-.8-.2-1.39-.2s-.99,0-1.39,.2c-.4,.2-.8,.4-.99,.79-.2,.4-.4,.79-.6,1.19-.2,.4-.2,.99-.4,1.39h6.56c0-.6,0-.99-.2-1.39Z"/>
    <path d="M65.24,103.31v.99h-3.78v9.14h-1.19v-9.14h-3.78v-.99h8.75Z"/>
    <path d="M68.82,105.5h-1.39v-1.79h1.39v1.79Zm0,7.95h-1.39v-1.79h1.39v1.79Z"/>
    <path d="M31.83,132.91c-.2,0-.6,.2-.8,.2s-.6,.2-.99,.2h-.99c-.99,0-1.79-.2-2.39-.79-.4-.4-.8-1.39-.8-2.38v-3.18h1.19v3.18c0,.4,0,.79,.2,1.19,.2,.2,.4,.4,.6,.6,.2,.2,.4,.2,.8,.2h.8c.6,0,1.19,0,1.79-.2,.6-.2,.99-.2,1.39-.4v-4.57h1.19v10.13h-1.19v-4.37c-.4,0-.6,.2-.8,.2Z"/>
    <path d="M38.19,137.09c-.6-.2-.99-.6-1.39-1.19-.4-.4-.6-.99-.8-1.79-.2-.6-.2-1.39-.2-1.99s0-1.39,.2-1.99c.2-.6,.4-1.19,.8-1.79,.4-.4,.8-.99,1.39-1.19,.6-.2,1.19-.4,2.19-.4,.8,0,1.59,.2,2.19,.4,.6,.4,.99,.79,1.39,1.19,.4,.6,.6,1.19,.8,1.79,.2,.6,.2,1.39,.2,2.19h-7.96c0,.4,0,.99,.2,1.39,.2,.4,.4,.99,.6,1.19,.2,.4,.6,.6,.99,.99,.4,.2,.99,.4,1.59,.4,.99,0,1.59-.2,2.19-.79,.6-.4,.8-1.19,.99-1.99h1.19c-.2,1.19-.8,1.99-1.39,2.78-.8,.6-1.79,.99-2.98,.99-.99,.2-1.59,0-2.19-.2Zm4.97-7.15c-.2-.4-.4-.79-.6-1.19-.2-.4-.6-.6-.99-.8s-.8-.2-1.39-.2-.99,0-1.39,.2c-.4,.2-.8,.4-.99,.8-.2,.4-.4,.79-.6,1.19-.2,.4-.2,.99-.4,1.39h6.56c0-.4,0-.99-.2-1.39Z"/>
    <path d="M47.54,128.94c.2-.79,.8-1.19,1.39-1.59,.6-.4,1.39-.6,2.19-.6s1.39,.2,1.99,.4c.6,.2,.99,.6,1.39,1.19,.4,.4,.6,.99,.8,1.79,.2,.6,.2,1.39,.2,1.99,0,.79,0,1.39-.2,1.99-.2,.6-.4,1.19-.8,1.79-.4,.4-.8,.79-1.39,1.19-.6,.2-1.19,.4-1.99,.4-.4,0-.8,0-1.19-.2-.4,0-.8-.2-.99-.4-.4-.2-.6-.4-.8-.6-.2-.2-.4-.6-.6-.99v5.76h-1.19v-13.91h1.19v1.79Zm5.17,7.15c.4-.2,.8-.6,.99-.99,.2-.4,.4-.79,.6-1.39,.2-.6,.2-.99,.2-1.59s0-.99-.2-1.59c-.2-.6-.4-.99-.6-1.39-.2-.4-.6-.8-.99-.99-.4-.2-.99-.4-1.59-.4s-1.19,.2-1.79,.4c-.4,.2-.8,.6-1.19,.99-.2,.4-.4,.79-.6,1.39-.2,.6-.2,.99-.2,1.59s0,.99,.2,1.59c.2,.6,.4,.99,.6,1.39,.2,.4,.6,.79,1.19,.99,.4,.2,.99,.4,1.59,.4,.99,0,1.39-.2,1.79-.4Z"/>
    <path d="M64.84,131.32v-4.37h1.19v10.13h-1.19v-4.77h-5.77v4.77h-1.39v-10.13h1.19v4.37h5.97Z"/>
    <path d="M73,131.13c.99,0,1.79,.2,2.39,.79,.6,.6,.8,1.19,.8,2.18s-.2,1.79-.8,2.18c-.6,.6-1.39,.79-2.39,.79h-4.57v-10.13h1.19v4.17h3.38Zm1.39,4.37c.4-.4,.6-.79,.6-1.59,0-.6-.2-1.19-.6-1.59-.4-.4-.99-.4-1.59-.4h-3.18v3.97h2.98c.8,.2,1.19,0,1.79-.4Zm3.58,1.59v-10.13h1.19v10.13h-1.19Z"/>
    <path d="M88.51,126.95h1.59v10.13h-1.19v-8.74l-5.77,8.74h-1.59v-10.13h1.19v8.74l5.77-8.74Zm-4.57-2.19c-.4-.4-.8-.99-.8-1.99h.8c0,.4,.2,.79,.6,1.19,.4,.2,.8,.4,1.39,.4s.99-.2,1.39-.4c.4-.2,.6-.6,.6-1.19h.8c-.2,.79-.4,1.39-.99,1.99-.4,.4-1.19,.6-1.99,.6s-1.39-.2-1.79-.6Z"/>
    <path class="cls-3" d="M977.13,0H496.57V480h480.57V0Z"/>
    <path d="M849.03,401.52c-.6,.2-.99,.2-1.59,.4-.6,.2-1.19,.2-1.79,.2s-1.19,.2-1.79,.2c-1.99,0-3.38-.4-4.18-1.39-.8-.99-.99-2.58-.6-4.77l1.19-5.76h2.39l-1.19,6.16c-.2,.99-.2,1.59,0,2.19,.2,.6,.4,.99,.79,1.19,.4,.2,.8,.4,1.19,.4h1.39c1,0,2.19-.2,3.38-.4,1.19-.2,2.19-.4,2.79-.79l1.79-8.74h2.39l-4.18,19.27h-2.39l1.79-8.35c-.4,0-.8,0-1.39,.2Z"/>
    <path d="M858.38,409.67c-.79-.2-1.39-.6-1.79-.99-.4-.4-.8-.99-.99-1.79-.2-.79-.2-1.59,0-2.58,.4-1.39,.8-2.38,1.59-3.18,.8-.8,1.59-1.39,2.78-1.79,.99-.4,2.19-.6,3.58-.8l3.78-.4c.4,0,.99-.2,1.39-.2s.8-.2,.99-.4c.4-.2,.6-.4,.8-.79,.2-.4,.4-.8,.4-1.19,.2-.79,.2-1.39,0-1.99-.2-.4-.4-.99-.8-1.19-.4-.4-.99-.6-1.39-.6-.6-.2-1.19-.2-1.99-.2-1.59,0-2.78,.4-3.98,.99-.99,.79-1.79,1.79-2.19,3.38h-2.39c.6-2.18,1.79-3.97,3.38-4.97,1.59-.99,3.58-1.59,5.77-1.59,.8,0,1.59,0,2.59,.2,.8,.2,1.59,.4,2.19,.99,.6,.4,.99,.99,1.19,1.79,.2,.79,.2,1.79,0,3.18l-2.19,10.33c-.2,.99,.2,1.39,.99,1.39,.4,0,.6,0,.8-.2l-.4,1.99-.8,.2h-.79c-.6,0-.99,0-1.39-.2-.4-.2-.6-.4-.8-.6-.2-.4-.2-.6-.2-.99s.2-.79,.2-1.39c-.6,.6-1.19,1.19-1.59,1.59-.6,.4-1.19,.99-1.79,1.19-.6,.4-1.19,.6-1.99,.8-.8,.2-1.59,.2-2.59,.2-.8,.2-1.79,0-2.39-.2Zm5.57-1.99c.8-.2,1.59-.6,2.39-1.19,.79-.6,1.39-1.19,1.79-1.99,.6-.79,.99-1.59,.99-2.58l.6-2.98c-.2,.2-.6,.4-.99,.6-.4,.2-.79,.2-1.19,.2-.99,.2-2.19,.4-3.18,.4-.99,.2-2.19,.4-2.98,.6-.99,.2-1.79,.6-2.39,1.19-.6,.6-1.19,1.19-1.39,2.19-.2,.6-.2,1.19,0,1.59,.2,.4,.4,.79,.79,1.19,.4,.4,.8,.6,1.19,.8,.4,.2,.99,.2,1.59,.2,1.19,.2,1.99,0,2.78-.2Z"/>
    <path d="M892,390.2h2.98l-4.18,19.27h-2.39l3.58-16.49-14.12,16.49h-2.98l4.18-19.27h2.39l-3.58,16.49,14.12-16.49Zm-7.96-4.17c-.8-.79-.99-1.99-.8-3.58h1.39c0,.99,.2,1.59,.8,2.19,.6,.6,1.39,.79,2.59,.79,.99,0,1.99-.2,2.79-.79,.79-.6,1.39-1.19,1.79-2.19h1.39c-.6,1.59-1.39,2.78-2.59,3.58-.99,.8-2.39,1.19-3.98,1.19-1.59,.2-2.59-.2-3.38-1.19Z"/>
    <path d="M910.9,398.34l1.79-8.15h2.39l-4.18,19.27h-2.19l1.99-9.14h-10.94l-1.99,9.14h-2.39l4.18-19.27h2.39l-1.79,8.15h10.74Z"/>
    <path d="M932.58,390.2h2.98l-4.18,19.27h-2.39l3.58-16.49-14.12,16.49h-2.98l4.18-19.27h2.39l-3.58,16.49,14.12-16.49Z"/>
    <path d="M953.07,390.2h3.18l-9.75,7.55,6.17,11.72h-2.98l-5.37-10.13-4.77,3.58-1.39,6.56h-2.39l4.18-19.27h2.39l-2.19,9.93,12.93-9.93Z"/>
    <path d="M851.22,426.76l-15.32,30.99h-2.19l15.32-30.99h2.19Z"/>
    <path d="M861.57,426.76l-15.32,30.99h-2.19l15.32-30.99h2.19Z"/>
    <path d="M885.24,436.29c.99,.8,1.19,1.99,.8,3.38-.2,1.19-.8,2.18-1.59,2.98-.79,.8-1.59,1.39-2.78,1.59,1.19,.2,2.19,.79,2.78,1.59,.6,.79,.6,1.79,.4,3.38-.4,1.79-1.19,2.98-2.59,3.97-1.39,.99-3.18,1.39-5.57,1.39h-8.75l4.18-19.27h8.75c1.99-.2,3.58,.2,4.38,.99Zm-4.38,15.3c.99-.6,1.59-1.59,1.79-2.78,.2-1.19,0-1.99-.6-2.58-.6-.6-1.79-.99-3.58-.99h-6.17l-1.59,7.15h6.17c1.79,0,2.98-.2,3.98-.8Zm1.39-8.94c.8-.6,1.39-1.39,1.59-2.38,.4-2.19-.6-3.18-3.38-3.18h-6.17l-1.39,6.36h6.17c1.19,0,2.39-.2,3.18-.8Z"/>
    <path d="M904.53,435.1h2.98l-4.18,19.27h-2.39l3.58-16.49-14.12,16.49h-2.98l4.18-19.27h2.39l-3.58,16.49,14.12-16.49Z"/>
    <path d="M911.89,446.42c.99-2.38,1.79-5.17,2.39-8.74l.6-2.58h12.93l-3.58,17.29h2.98l-1.79,8.15h-2.39l1.39-6.16h-16.11l-1.39,6.16h-2.39l1.59-8.15h2.19c1.39-1.59,2.59-3.77,3.58-5.96Zm4.58-7.95c-.6,3.18-1.59,5.96-2.39,8.34-.99,2.38-1.99,4.17-2.98,5.56h10.94l3.18-15.3h-8.55l-.2,1.39Z"/>
    <path d="M945.11,433.11c.6-.99,1.39-1.99,2.39-2.78,.99-.79,1.99-1.39,2.98-1.79,1.19-.4,2.39-.6,3.58-.6,1.39,0,2.39,.2,3.38,.6,.99,.4,1.59,.99,2.19,1.59,.6,.6,.8,1.39,.99,2.38,.2,.99,.2,1.79-.2,2.78-.2,1.19-.6,2.18-1.19,3.18-.6,.99-1.19,1.59-1.99,2.38-.8,.79-1.59,1.39-2.59,1.79-.99,.6-1.99,.99-2.78,1.59-.99,.4-1.79,.99-2.79,1.39-.99,.4-1.79,.99-2.59,1.39l-1.39,.99c-.4,.4-.99,.8-1.39,1.19-.4,.4-.8,.99-.99,1.39-.4,.6-.6,.99-.8,1.79h14.72l-.4,1.99h-17.3c.2-1.19,.6-2.38,1.19-3.38,.4-.99,1.19-1.99,2.39-2.98,1.19-.99,2.19-1.99,3.38-2.78,1.19-.79,2.19-1.39,3.38-1.99,.99-.6,1.99-1.19,2.98-1.59,.99-.4,1.79-.99,2.59-1.59,.79-.6,1.39-1.19,1.99-1.99,.6-.79,.99-1.59,1.19-2.58,.2-.79,.2-1.59,0-2.18-.2-.6-.4-1.19-.99-1.79-.4-.4-.99-.8-1.59-.99-.6-.2-1.39-.4-2.19-.4s-1.59,.2-2.39,.6c-.8,.4-1.59,.8-2.19,1.39-.6,.6-1.19,1.39-1.59,2.18-.4,.8-.8,1.59-.99,2.58h-2.59c.6-1.59,.99-2.58,1.59-3.77Z"/>
    <path d="M531.97,31.99h1.59v10.13h-1.19v-8.34l-3.58,8.34h-1.19l-3.58-8.34v8.34h-1.19v-10.13h1.59l3.78,8.74,3.78-8.74Z"/>
    <path d="M537.54,42.32c-.4-.2-.79-.2-.99-.6-.4-.2-.6-.6-.8-.99-.2-.4-.2-.79-.2-1.39,0-.79,.2-1.19,.4-1.59,.4-.4,.8-.6,1.19-.99,.6-.2,1.19-.4,1.79-.4l1.99-.2h.6c.2,0,.4-.2,.4-.2,.2,0,.2-.2,.4-.4v-.6c0-.4,0-.79-.2-.99-.2-.2-.4-.4-.6-.6-.2-.2-.6-.2-.8-.4h-.99c-.79,0-1.39,.2-1.99,.6-.4,.4-.8,.99-.8,1.79h-1.19c0-1.19,.4-1.99,1.19-2.58,.8-.6,1.79-.79,2.98-.79,.4,0,.8,0,1.39,.2,.4,0,.79,.2,1.19,.4,.4,.2,.6,.6,.8,.99,.2,.4,.4,.99,.4,1.59v5.36c0,.4,.2,.79,.8,.79h.4v.99h-.8c-.4,0-.6,0-.8-.2-.2,0-.4-.2-.4-.4s-.2-.4-.2-.6v-.79c-.2,.4-.4,.6-.6,.79s-.4,.4-.79,.6c-.2,.2-.6,.2-.99,.4-.4,0-.8,.2-1.19,.2-.8,.2-1.19,.2-1.59,0Zm2.79-.99c.4-.2,.8-.4,1.19-.6,.4-.2,.6-.6,.8-.99,.2-.4,.2-.79,.2-1.39v-1.59c0,.2-.2,.2-.4,.4-.2,0-.4,.2-.6,.2-.6,0-.99,.2-1.59,.2s-.99,.2-1.59,.4c-.4,.2-.8,.4-1.19,.6-.2,.2-.4,.6-.4,1.19,0,.4,0,.6,.2,.79,.2,.2,.2,.4,.4,.6,.2,.2,.4,.4,.8,.4,.2,0,.6,.2,.8,.2,.4-.2,.99-.4,1.39-.4Z"/>
    <path d="M553.85,31.99v.99h-3.78v9.14h-1.19v-9.14h-3.78v-.99h8.75Z"/>
    <path d="M557.03,42.12c-.6-.2-.99-.6-1.39-1.19-.4-.4-.6-.99-.8-1.79-.2-.6-.2-1.39-.2-1.99s0-1.39,.2-1.99c.2-.6,.4-1.19,.8-1.79,.4-.4,.8-.99,1.39-1.19,.6-.2,1.19-.4,2.19-.4s1.59,.2,2.19,.4c.6,.4,.99,.79,1.39,1.19,.4,.6,.6,1.19,.79,1.79,.2,.6,.2,1.39,.2,2.19h-7.96c0,.4,0,.99,.2,1.39,.2,.4,.4,.99,.6,1.19,.2,.4,.6,.6,.99,.99,.4,.2,.99,.4,1.59,.4,.99,0,1.59-.2,2.19-.79,.6-.4,.8-1.19,.99-1.99h1.19c-.2,1.19-.79,1.99-1.39,2.78-.8,.6-1.79,.99-2.98,.99-.99,.2-1.59,0-2.19-.2Zm5.17-7.15c-.2-.4-.4-.79-.6-1.19-.2-.4-.6-.6-.99-.79-.4-.2-.8-.2-1.39-.2s-.99,0-1.39,.2c-.4,.2-.8,.4-.99,.79-.2,.4-.4,.79-.6,1.19-.2,.4-.2,.99-.4,1.39h6.56c0-.4-.2-.79-.2-1.39Z"/>
    <path d="M566.38,33.97c.2-.79,.8-1.19,1.39-1.59,.6-.4,1.39-.6,2.19-.6s1.39,.2,1.99,.4c.6,.2,.99,.6,1.39,1.19,.4,.4,.6,.99,.8,1.79,.2,.6,.2,1.39,.2,1.99,0,.79,0,1.39-.2,1.99-.2,.6-.4,1.19-.8,1.79-.4,.4-.8,.79-1.39,1.19-.6,.2-1.19,.4-1.99,.4-.4,0-.8,0-1.19-.2-.4,0-.8-.2-.99-.4-.4-.2-.6-.4-.8-.6-.2-.2-.4-.6-.6-.99v5.76h-1.19v-13.91h1.19v1.79Zm5.17,7.15c.4-.2,.8-.6,.99-.99,.2-.4,.4-.79,.6-1.39,.2-.6,.2-.99,.2-1.59s0-.99-.2-1.59c-.2-.6-.4-.99-.6-1.39-.2-.4-.6-.79-.99-.99-.4-.2-1-.4-1.59-.4s-1.19,.2-1.79,.4c-.4,.2-.79,.6-1.19,.99-.2,.4-.4,.79-.6,1.39-.2,.6-.2,.99-.2,1.59s0,.99,.2,1.59c.2,.6,.4,.99,.6,1.39,.2,.4,.6,.79,1.19,.99,.4,.2,.99,.4,1.59,.4,.99,0,1.39-.2,1.79-.4Z"/>
    <path d="M583.49,31.99h1.59v10.13h-1.19v-8.74l-5.57,8.74h-1.79v-10.13h1.19v8.74l5.77-8.74Z"/>
    <path d="M588.86,42.32c-.4-.2-.8-.2-.99-.6-.4-.2-.6-.6-.8-.99-.2-.4-.2-.79-.2-1.39,0-.79,.2-1.19,.4-1.59,.4-.4,.79-.6,1.19-.99,.6-.2,1.19-.4,1.79-.4l1.99-.2h.6c.2,0,.4-.2,.4-.2,.2,0,.2-.2,.4-.4v-.6c0-.4,0-.79-.2-.99-.2-.2-.4-.4-.6-.6-.2-.2-.6-.2-.79-.4h-.99c-.8,0-1.39,.2-1.99,.6-.4,.4-.8,.99-.8,1.79h-1.19c0-1.19,.4-1.99,1.19-2.58,.8-.6,1.79-.79,2.98-.79,.4,0,.8,0,1.39,.2,.4,0,.8,.2,1.19,.4,.4,.2,.6,.6,.8,.99,.2,.4,.4,.99,.4,1.59v5.36c0,.4,.2,.79,.8,.79h.4v.99h-.8c-.4,0-.6,0-.8-.2-.2,0-.4-.2-.4-.4s-.2-.4-.2-.6v-.79c-.2,.4-.4,.6-.6,.79-.2,.2-.4,.4-.8,.6-.2,.2-.6,.2-.99,.4-.4,0-.8,.2-1.19,.2-.6,.2-.99,.2-1.59,0Zm2.98-.99c.4-.2,.8-.4,1.19-.6,.4-.2,.6-.6,.8-.99,.2-.4,.2-.79,.2-1.39v-1.59c0,.2-.2,.2-.4,.4-.2,0-.4,.2-.6,.2-.6,0-.99,.2-1.59,.2s-.99,.2-1.59,.4c-.4,.2-.8,.4-1.19,.6-.2,.2-.4,.6-.4,1.19,0,.4,0,.6,.2,.79,.2,.2,.2,.4,.4,.6,.2,.2,.4,.4,.8,.4,.2,0,.6,.2,.8,.2,.4-.2,.8-.4,1.39-.4Z"/>
    <path d="M597.41,42.32h-.6v-.99h1.39c.2,0,.4-.2,.4-.4,.2-.2,.4-.4,.4-.79,.2-.4,.2-.99,.4-1.59,0-.6,.2-1.59,.2-2.58v-3.77h6.76v10.13h-1.19v-9.14h-4.38c0,1.39,0,2.78-.2,3.77,0,.99-.2,1.79-.4,2.58-.2,.6-.4,1.19-.6,1.59-.2,.4-.4,.6-.6,.79-.2,.2-.6,.4-.79,.4h-.8Z"/>
    <path d="M611.14,34.17h-1.39v-1.79h1.39v1.79Zm0,8.15h-1.39v-1.79h1.39v1.79Z"/>
    <path d="M529.78,60v-4.37h1.19v10.13h-1.19v-4.77h-5.77v4.77h-1.19v-10.13h1.19v4.37h5.77Z"/>
    <path d="M535.35,65.76c-.6-.2-.99-.6-1.39-1.19-.4-.4-.6-.99-.8-1.79-.2-.6-.2-1.39-.2-1.99s0-1.39,.2-1.99c.2-.6,.4-1.19,.8-1.79,.4-.4,.8-.99,1.39-1.19,.6-.2,1.19-.4,2.19-.4,.8,0,1.59,.2,2.19,.4,.6,.4,.99,.79,1.39,1.19,.4,.6,.6,1.19,.8,1.79,.2,.6,.2,1.39,.2,2.19h-7.96c0,.4,0,.99,.2,1.39,.2,.4,.4,.99,.6,1.19,.2,.4,.6,.6,.99,.99,.4,.2,.99,.4,1.59,.4,.99,0,1.59-.2,2.19-.79,.6-.4,.8-1.19,.99-1.99h1.19c-.2,1.19-.8,1.99-1.39,2.78-.8,.6-1.79,.99-2.98,.99-.99,.2-1.59,.2-2.19-.2Zm5.17-6.95c-.2-.4-.4-.79-.6-1.19-.2-.4-.6-.6-.99-.79-.4-.2-.8-.2-1.39-.2s-.99,0-1.39,.2c-.4,.2-.8,.4-.99,.79-.2,.4-.4,.79-.6,1.19-.2,.4-.2,.99-.4,1.39h6.56c0-.6-.2-.99-.2-1.39Z"/>
    <path d="M544.9,57.62c.2-.79,.8-1.19,1.39-1.59,.6-.4,1.39-.6,2.19-.6s1.39,.2,1.99,.4c.6,.2,.99,.6,1.39,1.19,.4,.4,.6,.99,.79,1.79,.2,.6,.2,1.39,.2,1.99s0,1.39-.2,1.99-.4,1.19-.79,1.79c-.4,.4-.8,.79-1.39,1.19-.6,.2-1.19,.4-1.99,.4-.4,0-.79,0-1.19-.2-.4,0-.8-.2-.99-.4-.4-.2-.6-.4-.79-.6-.2-.2-.4-.6-.6-.99v5.76h-1.19v-13.91h1.19v1.79Zm5.17,7.15c.4-.2,.8-.6,.99-.99,.2-.4,.4-.79,.6-1.39,.2-.6,.2-.99,.2-1.59s0-.99-.2-1.59c-.2-.6-.4-.99-.6-1.39-.2-.4-.6-.79-.99-.99-.4-.2-.99-.4-1.59-.4s-1.19,.2-1.79,.4c-.4,.2-.8,.6-1.19,.99-.2,.4-.4,.79-.6,1.39-.2,.6-.2,.99-.2,1.59s0,.99,.2,1.59c.2,.6,.4,.99,.6,1.39,.2,.4,.6,.79,1.19,.99,.4,.2,.99,.4,1.59,.4,.8,0,1.19,0,1.79-.4Z"/>
    <path d="M560.42,60.99v-5.17h1.19v5.17l4.77-5.17h1.59l-3.98,4.37,4.38,5.96h-1.59l-3.78-5.17-1.59,1.59v3.58h-1.19v-3.58l-1.59-1.59-3.78,5.17h-1.59l4.38-5.96-3.98-4.37h1.59l5.17,5.17Z"/>
    <path d="M571.16,66.16c-.4-.2-.8-.2-.99-.6-.4-.2-.6-.6-.8-.99-.2-.4-.2-.79-.2-1.39,0-.79,.2-1.19,.4-1.59,.4-.4,.79-.6,1.19-.99,.6-.2,1.19-.4,1.79-.4l1.99-.2h.6c.2,0,.4-.2,.4-.2,.2,0,.2-.2,.4-.4v-.6c0-.4,0-.79-.2-.99-.2-.2-.4-.4-.6-.6-.2-.2-.6-.2-.79-.4h-.99c-.8,0-1.39,.2-1.99,.6-.4,.4-.8,.99-.8,1.79h-1.19c0-1.19,.4-1.99,1.19-2.58,.8-.6,1.79-.79,2.98-.79,.4,0,.8,0,1.39,.2,.4,0,.8,.2,1.19,.4s.6,.6,.8,.99c.2,.4,.4,.99,.4,1.59v5.36c0,.4,.2,.79,.8,.79h.4v.99h-.8c-.4,0-.6,0-.8-.2-.2,0-.4-.2-.4-.4s-.2-.4-.2-.6v-.79c-.2,.4-.4,.6-.6,.79-.2,.2-.4,.4-.8,.6-.2,.2-.6,.2-.99,.4-.4,0-.8,.2-1.19,.2h-1.59Zm2.78-1.19c.4-.2,.79-.4,1.19-.6,.4-.2,.6-.6,.8-.99,.2-.4,.2-.79,.2-1.39v-1.59c0,.2-.2,.2-.4,.4-.2,0-.4,.2-.6,.2-.6,0-.99,.2-1.59,.2s-.99,.2-1.59,.4c-.6,.2-.8,.4-1.19,.6-.2,.2-.4,.6-.4,1.19,0,.4,0,.6,.2,.79,.2,.2,.2,.4,.4,.6,.2,.2,.4,.4,.8,.4,.2,0,.6,.2,.79,.2,.4-.2,.99-.2,1.39-.4Z"/>
    <path d="M586.87,56.42c.6,.4,.8,.99,.8,1.79,0,.6-.2,1.19-.4,1.59-.4,.4-.8,.6-1.39,.79,.6,.2,1.19,.4,1.59,.79,.4,.4,.6,.99,.6,1.79,0,.99-.4,1.59-.99,2.19-.6,.4-1.59,.79-2.78,.79h-4.58v-10.13h4.58c1.19-.2,1.99,0,2.59,.4Zm-.8,3.38c.4-.2,.6-.79,.6-1.19,0-1.19-.8-1.59-2.19-1.59h-3.38v3.38h3.38c.6-.2,1.19-.4,1.59-.6Zm.2,4.57c.4-.4,.6-.79,.6-1.39s-.2-.99-.6-1.39c-.4-.4-.99-.4-1.99-.4h-3.38v3.77h3.38c.99,0,1.59-.2,1.99-.6Z"/>
    <path d="M592.04,65.76c-.6-.2-.99-.6-1.39-1.19-.4-.4-.6-.99-.79-1.79-.2-.6-.2-1.39-.2-1.99s0-1.39,.2-1.99c.2-.6,.4-1.19,.79-1.79,.4-.4,.8-.99,1.39-1.19,.6-.2,1.19-.4,2.19-.4,.79,0,1.59,.2,2.19,.4,.6,.4,.99,.79,1.39,1.19,.4,.6,.6,1.19,.8,1.79,.2,.6,.2,1.39,.2,2.19h-7.96c0,.4,0,.99,.2,1.39,.2,.4,.4,.99,.6,1.19,.2,.4,.6,.6,.99,.99,.4,.2,.99,.4,1.59,.4,.99,0,1.59-.2,2.19-.79,.6-.4,.8-1.19,.99-1.99h1.19c-.2,1.19-.8,1.99-1.39,2.78-.8,.6-1.79,.99-2.98,.99-.8,.2-1.59,.2-2.19-.2Zm5.17-6.95c-.2-.4-.4-.79-.6-1.19-.2-.4-.6-.6-.99-.79-.4-.2-.8-.2-1.39-.2s-.99,0-1.39,.2c-.4,.2-.79,.4-.99,.79-.2,.4-.4,.79-.6,1.19-.2,.4-.2,.99-.4,1.39h6.56c0-.6,0-.99-.2-1.39Z"/>
    <path d="M606.76,65.76c-.6-.2-.99-.6-1.39-.99-.4-.4-.8-.99-.99-1.59-.2-.6-.4-1.19-.4-1.99h-2.19v4.77h-1.39v-10.13h1.19v4.37h2.39c0-.6,.2-1.19,.4-1.79,.2-.6,.6-.99,.99-1.39,.4-.4,.8-.79,1.39-.99s1.19-.4,1.79-.4c.8,0,1.39,.2,1.99,.4,.6,.2,.99,.6,1.39,1.19,.4,.4,.79,.99,.99,1.79,.2,.6,.4,1.39,.4,1.99s0,1.39-.4,1.99c-.2,.6-.6,1.19-.99,1.79-.4,.4-.99,.79-1.39,1.19-.6,.2-1.19,.4-1.99,.4-.6-.2-1.39-.2-1.79-.6Zm3.18-.99c.4-.2,.8-.6,.99-.99,.2-.4,.6-.79,.6-1.39,.2-.6,.2-.99,.2-1.59s0-.99-.2-1.59c-.2-.6-.4-.99-.6-1.39-.2-.4-.6-.79-.99-.99-.4-.2-.99-.4-1.39-.4-.6,0-.99,.2-1.39,.4s-.8,.6-.99,.99c-.2,.4-.6,.79-.6,1.39-.2,.6-.2,.99-.2,1.59s0,.99,.2,1.59c.2,.6,.4,.99,.6,1.39,.2,.4,.6,.79,.99,.99s.99,.4,1.39,.4c.6,0,.99,0,1.39-.4Z"/>
    <path d="M616.31,55.83v9.14h4.77v-9.14h1.19v9.14h4.77v-9.14h1.19v9.14h1.59v4.37h-1.19v-3.18h-13.33v-10.13h.99v-.2Z"/>
    <path d="M632.62,66.16c-.4-.2-.79-.2-.99-.6-.4-.2-.6-.6-.8-.99-.2-.4-.2-.79-.2-1.39,0-.79,.2-1.19,.4-1.59,.4-.4,.8-.6,1.19-.99,.6-.2,1.19-.4,1.79-.4l1.99-.2h.6c.2,0,.4-.2,.4-.2,.2,0,.2-.2,.4-.4v-.6c0-.4,0-.79-.2-.99-.2-.2-.4-.4-.6-.6-.2-.2-.6-.2-.79-.4h-.99c-.8,0-1.39,.2-1.99,.6-.4,.4-.79,.99-.79,1.79h-1.19c0-1.19,.4-1.99,1.19-2.58,.79-.6,1.79-.79,2.98-.79,.4,0,.8,0,1.39,.2,.4,0,.79,.2,1.19,.4s.6,.6,.8,.99c.2,.4,.4,.99,.4,1.59v5.36c0,.4,.2,.79,.8,.79h.4v.99h-.8c-.4,0-.6,0-.79-.2-.2,0-.4-.2-.4-.4s-.2-.4-.2-.6v-.79c-.2,.4-.4,.6-.6,.79-.2,.2-.4,.4-.79,.6-.2,.2-.6,.2-.99,.4-.4,0-.8,.2-1.19,.2h-1.59Zm2.79-1.19c.4-.2,.8-.4,1.19-.6,.4-.2,.6-.6,.8-.99,.2-.4,.2-.79,.2-1.39v-1.59c0,.2-.2,.2-.4,.4-.2,0-.4,.2-.6,.2-.6,0-.99,.2-1.59,.2s-.99,.2-1.59,.4c-.4,.2-.8,.4-1.19,.6-.2,.2-.4,.6-.4,1.19,0,.4,0,.6,.2,.79,.2,.2,.2,.4,.4,.6,.2,.2,.4,.4,.8,.4,.2,0,.6,.2,.8,.2,.6-.2,.99-.2,1.39-.4Z"/>
    <path d="M641.77,60.99c-.6-.6-.8-1.19-.8-2.19,0-.4,0-.79,.2-1.19,.2-.4,.4-.6,.6-.99,.2-.2,.6-.4,.99-.6,.4-.2,.79-.2,1.19-.2h4.97v10.13h-1.19v-3.97h-2.39l-3.58,3.97h-1.59l3.78-4.17c-.8,0-1.59-.4-2.19-.79Zm.99-3.58c-.4,.4-.6,.79-.6,1.39s.2,.99,.6,1.39c.4,.4,.79,.6,1.59,.6h3.38v-3.97h-3.38c-.6,0-1.19,.2-1.59,.6Z"/>
    <path d="M525.01,89.6c-.6-.2-1.19-.6-1.59-1.19-.4-.4-.8-.99-.99-1.79-.2-.6-.4-1.39-.4-1.99,0-.79,0-1.39,.4-1.99,.2-.6,.6-1.19,.99-1.79,.4-.4,.99-.79,1.59-1.19,.6-.2,1.19-.4,1.99-.4,.99,0,1.99,.2,2.78,.79,.8,.6,1.19,1.39,1.39,2.58h-1.19c-.2-.79-.4-1.39-.99-1.79-.4-.4-1.19-.6-1.99-.6-.6,0-1.19,.2-1.59,.4s-.8,.6-1.19,.99c-.2,.4-.6,.79-.6,1.39-.2,.6-.2,.99-.2,1.59s0,.99,.2,1.59c.2,.6,.4,.99,.6,1.39,.2,.4,.6,.79,1.19,.99,.4,.2,.99,.4,1.59,.4,.4,0,.8,0,.99-.2,.4-.2,.6-.4,.99-.6,.2-.2,.4-.6,.6-.99,.2-.4,.2-.79,.4-1.19h1.19c-.2,1.19-.6,2.19-1.39,2.98-.8,.79-1.59,.99-2.78,.99-.8,0-1.39-.2-1.99-.4Z"/>
    <path d="M540.53,79.47v.99h-3.78v9.14h-1.19v-9.14h-3.78v-.99h8.75Z"/>
    <path d="M543.31,89.8c-.4-.2-.8-.2-.99-.6-.4-.2-.6-.6-.8-.99-.2-.4-.2-.79-.2-1.39,0-.79,.2-1.19,.4-1.59,.4-.4,.8-.6,1.19-.99,.6-.2,1.19-.4,1.79-.4l1.99-.2h.6c.2,0,.4-.2,.4-.2,.2,0,.2-.2,.4-.4v-.6c0-.4,0-.79-.2-.99-.2-.2-.4-.4-.6-.6-.2-.2-.6-.2-.8-.4h-.99c-.8,0-1.39,.2-1.99,.6-.4,.4-.8,.99-.8,1.79h-1.19c0-1.19,.4-1.99,1.19-2.58,.8-.6,1.79-.79,2.98-.79,.4,0,.79,0,1.39,.2,.4,0,.8,.2,1.19,.4,.4,.2,.6,.6,.8,.99,.2,.4,.4,.99,.4,1.59v5.36c0,.4,.2,.79,.79,.79h.4v.99h-.79c-.4,0-.6,0-.8-.2-.2,0-.4-.2-.4-.4s-.2-.4-.2-.6v-.79c-.2,.4-.4,.6-.6,.79-.2,.2-.4,.4-.8,.6-.2,.2-.6,.2-1,.4-.4,0-.79,.2-1.19,.2-.8,.2-1.19,.2-1.59,0Zm2.78-.99l1.19-.6c.4-.2,.6-.6,.79-.99,.2-.4,.2-.79,.2-1.39v-1.59c0,.2-.2,.2-.4,.4-.2,0-.4,.2-.6,.2-.6,0-.99,.2-1.59,.2s-.99,.2-1.59,.4c-.4,.2-.8,.4-1.19,.6-.2,.2-.4,.6-.4,1.19,0,.4,0,.6,.2,.79,.2,.2,.2,.4,.4,.6s.4,.4,.79,.4c.2,0,.6,.2,.8,.2,.6-.2,.99-.4,1.39-.4Z"/>
    <path d="M551.66,89.8h-.6v-.99h1.39c.2,0,.4-.2,.4-.4,.2-.2,.4-.4,.4-.79s.2-.99,.4-1.59c0-.6,.2-1.59,.2-2.58v-3.77h6.76v10.13h-1.19v-9.14h-4.38c0,1.39,0,2.78-.2,3.77,0,.99-.2,1.79-.4,2.58-.2,.6-.4,1.19-.6,1.59-.2,.4-.4,.6-.6,.79-.2,.2-.6,.4-.8,.4h-.8q.2,0,0,0Z"/>
    <path d="M568.17,83.64c.99,0,1.79,.2,2.39,.79,.6,.6,.8,1.19,.8,2.19s-.2,1.79-.8,2.19c-.6,.6-1.39,.79-2.39,.79h-4.97v-10.13h1.19v4.17h3.78Zm1.39,4.57c.4-.4,.6-.79,.6-1.59s-.2-1.19-.6-1.59c-.4-.4-.99-.4-1.59-.4h-3.38v3.97h3.38c.6,0,1.19-.2,1.59-.4Z"/>
    <path d="M524.02,126.95v9.14h5.57v-9.14h1.19v9.14h1.59v4.37h-1.19v-3.38h-8.35v-10.13h1.19Z"/>
    <path d="M540.72,127.55c.6,.4,.8,.99,.8,1.79,0,.6-.2,1.19-.4,1.59-.4,.4-.8,.6-1.39,.79,.6,.2,1.19,.4,1.59,.79,.4,.4,.6,.99,.6,1.79,0,.99-.4,1.59-.99,2.19-.6,.4-1.59,.79-2.79,.79h-4.57v-10.13h4.57c1.19-.2,1.99,0,2.59,.4Zm-.99,3.38c.4-.2,.6-.79,.6-1.19,0-1.19-.8-1.59-2.19-1.59h-3.38v3.38h3.38c.8-.2,1.19-.4,1.59-.6Zm.4,4.77c.4-.4,.6-.79,.6-1.39s-.2-.99-.6-1.39-.99-.4-1.99-.4h-3.38v3.77h3.38c.99-.2,1.59-.4,1.99-.6Z"/>
    <path d="M545.9,137.09c-.6-.2-.99-.6-1.39-1.19-.4-.4-.6-.99-.8-1.79-.2-.6-.2-1.39-.2-1.99s0-1.39,.2-1.99c.2-.6,.4-1.19,.8-1.79,.4-.4,.8-.99,1.39-1.19,.6-.2,1.19-.4,2.19-.4,.79,0,1.59,.2,2.19,.4,.6,.4,1,.79,1.39,1.19,.4,.6,.6,1.19,.8,1.79,.2,.6,.2,1.39,.2,2.19h-7.96c0,.4,0,.99,.2,1.39,.2,.4,.4,.99,.6,1.19,.2,.4,.6,.6,.99,.99,.4,.2,.99,.4,1.59,.4,.99,0,1.59-.2,2.19-.79,.6-.4,.8-1.19,1-1.99h1.19c-.2,1.19-.8,1.99-1.39,2.78-.79,.6-1.79,.99-2.98,.99-.99,.2-1.59,0-2.19-.2Zm5.17-7.15c-.2-.4-.4-.79-.6-1.19-.2-.4-.6-.6-.99-.8s-.8-.2-1.39-.2-.99,0-1.39,.2-.8,.4-.99,.8c-.2,.4-.4,.79-.6,1.19-.2,.4-.2,.99-.4,1.39h6.56c0-.4-.2-.99-.2-1.39Z"/>
    <path d="M561.81,126.95v.99h-3.78v9.14h-1.19v-9.14h-3.78v-.99h8.75Z"/>
    <path d="M565.19,129.14h-1.39v-1.79h1.39v1.79Zm0,7.95h-1.39v-1.79h1.39v1.79Z"/>
    <path d="M523.82,152.58c.2-.79,.8-1.19,1.39-1.59,.6-.4,1.39-.6,2.19-.6s1.39,.2,1.99,.4c.6,.2,.99,.6,1.39,1.19,.4,.4,.6,.99,.8,1.79,.2,.6,.2,1.39,.2,1.99,0,.79,0,1.39-.2,1.99-.2,.6-.4,1.19-.8,1.79-.4,.4-.79,.79-1.39,1.19-.6,.2-1.19,.4-1.99,.4-.4,0-.8,0-1.19-.2-.4,0-.79-.2-.99-.4-.4-.2-.6-.4-.8-.6-.2-.2-.4-.6-.6-.99v5.76h-.99v-13.91h1.19l-.2,1.79Zm5.17,7.15c.4-.2,.8-.6,.99-.99,.2-.4,.4-.79,.6-1.39,.2-.6,.2-.99,.2-1.59s0-.99-.2-1.59c-.2-.6-.4-.99-.6-1.39-.2-.4-.6-.79-.99-.99-.4-.2-.99-.4-1.59-.4s-1.19,.2-1.79,.4c-.4,.2-.8,.6-1.19,.99-.2,.4-.4,.79-.6,1.39-.2,.6-.2,.99-.2,1.59s0,.99,.2,1.59c.2,.6,.4,.99,.6,1.39,.2,.4,.6,.79,1.19,.99,.4,.2,.99,.4,1.59,.4,.99,0,1.39-.2,1.79-.4Z"/>
    <path d="M536.35,160.73c-.6-.2-1.19-.6-1.59-1.19-.4-.4-.8-.99-.99-1.79-.2-.6-.4-1.39-.4-1.99,0-.79,0-1.39,.4-1.99,.2-.6,.6-1.19,.99-1.79,.4-.4,.99-.79,1.59-1.19,.6-.2,1.19-.4,1.99-.4s1.39,.2,1.99,.4c.6,.2,.99,.6,1.59,1.19,.4,.4,.8,.99,.99,1.79,.2,.6,.4,1.39,.4,1.99,0,.79,0,1.39-.4,1.99-.2,.6-.6,1.19-.99,1.79-.4,.4-.99,.79-1.59,1.19-.6,.2-1.39,.4-1.99,.4s-1.39-.2-1.99-.4Zm3.58-.99c.4-.2,.8-.6,1.19-.99,.2-.4,.6-.79,.6-1.39,.2-.6,.2-.99,.2-1.59s0-.99-.2-1.59c-.2-.6-.4-.99-.6-1.39-.2-.4-.6-.79-1.19-.99-.4-.2-.99-.4-1.59-.4s-1.19,.2-1.59,.4c-.4,.2-.8,.6-1.19,.99-.2,.4-.6,.79-.6,1.39-.2,.6-.2,.99-.2,1.59s0,.99,.2,1.59c.2,.6,.4,.99,.6,1.39,.2,.4,.6,.79,1.19,.99,.4,.2,.99,.4,1.59,.4s1.19-.2,1.59-.4Z"/>
    <path d="M545.7,160.13c-.6-.6-.99-1.39-1.19-2.58h1.19c0,.4,.2,.79,.2,.99,.2,.2,.4,.6,.6,.79,.2,.2,.6,.4,.8,.4,.4,.2,.79,.2,1.19,.2,.6,0,.99,0,1.39-.2s.6-.4,.79-.6c.2-.2,.4-.4,.4-.8,0-.2,.2-.6,.2-.79,0-.6-.2-.99-.4-1.39-.4-.4-.99-.6-1.59-.6h-1.79v-.99h1.39c.6,0,1.19-.2,1.59-.4,.4-.4,.6-.79,.6-1.39v-.6c0-.2-.2-.4-.4-.6-.2-.2-.4-.4-.79-.4s-.8-.2-1.19-.2c-.99,0-1.59,.2-1.99,.6-.4,.4-.6,.99-.8,1.59h-1.19c0-.6,.2-1.19,.4-1.59,.2-.4,.6-.79,.79-.99,.4-.2,.8-.4,1.19-.6,.4,0,.99-.2,1.39-.2,.6,0,.99,0,1.39,.2,.4,0,.79,.2,1.19,.4,.4,.2,.6,.6,.8,.79,.2,.4,.2,.79,.2,1.19,0,.2,0,.6-.2,.79,0,.2-.2,.4-.4,.6-.2,.2-.4,.4-.6,.4-.2,.2-.4,.2-.6,.2,.2,0,.4,.2,.8,.2,.2,0,.4,.2,.6,.4,.2,.2,.4,.4,.4,.79,.2,.2,.2,.6,.2,.99,0,.6-.2,.99-.4,1.39-.2,.4-.6,.79-.8,.99-.4,.2-.8,.4-1.39,.6-.4,.2-.99,.2-1.59,.2-.8,1.19-1.79,.99-2.39,.2Z"/>
    <path d="M557.03,160.73c-.6-.2-1.19-.6-1.59-1.19-.4-.6-.8-.99-.99-1.79-.2-.6-.4-1.39-.4-1.99,0-.79,0-1.39,.4-1.99,.2-.6,.6-1.19,.99-1.79,.4-.4,1-.79,1.59-1.19,.6-.2,1.19-.4,1.99-.4s1.39,.2,1.99,.4c.6,.2,.99,.6,1.59,1.19,.4,.4,.8,.99,.99,1.79,.2,.6,.4,1.39,.4,1.99,0,.79,0,1.39-.4,1.99-.2,.6-.6,1.19-.99,1.79-.4,.4-.99,.79-1.59,1.19-.6,.2-1.39,.4-1.99,.4-.8,0-1.39-.2-1.99-.4Zm3.58-.99c.4-.2,.79-.6,1.19-.99,.2-.4,.6-.79,.6-1.39,.2-.6,.2-.99,.2-1.59s0-.99-.2-1.59c-.2-.6-.4-.99-.6-1.39-.2-.4-.6-.79-1.19-.99-.4-.2-1-.4-1.59-.4s-1.19,.2-1.59,.4c-.4,.2-.79,.6-1.19,.99-.2,.4-.6,.79-.6,1.39-.2,.6-.2,.99-.2,1.59s0,.99,.2,1.59c.2,.6,.4,.99,.6,1.39,.2,.4,.6,.79,1.19,.99,.4,.2,.99,.4,1.59,.4s1.19-.2,1.59-.4Z"/>
    <path d="M572.75,151.39c.6,.4,.8,.99,.8,1.79,0,.6-.2,1.19-.4,1.59-.4,.4-.79,.6-1.39,.79,.6,.2,1.19,.4,1.59,.79,.4,.4,.6,.99,.6,1.79,0,.99-.4,1.59-.99,2.18-.6,.4-1.59,.8-2.78,.8h-4.57v-10.13h4.57c1.19-.4,1.99-.2,2.59,.4Zm-.99,3.18c.4-.2,.6-.8,.6-1.19,0-1.19-.79-1.59-2.19-1.59h-3.38v3.38h3.38c.8,0,1.39-.2,1.59-.6Zm.4,4.77c.4-.4,.6-.79,.6-1.39s-.2-.99-.6-1.39c-.4-.4-.99-.4-1.99-.4h-3.38v3.78h3.38c.99,0,1.59-.2,1.99-.6Z"/>
    <path d="M580.51,154.77c.99,0,1.79,.2,2.39,.79,.6,.6,.8,1.19,.8,2.18s-.2,1.79-.8,2.19c-.6,.6-1.39,.79-2.39,.79h-4.58v-10.13h1.19v4.17h3.38Zm1.39,4.57c.4-.4,.6-.79,.6-1.59,0-.6-.2-1.19-.6-1.59s-.99-.4-1.59-.4h-2.98v3.97h2.98c.6,.2,1.19,0,1.59-.4Zm3.78,1.59v-10.13h1.19v10.13h-1.19Z"/>
    <path d="M596.02,150.6h1.59v10.33h-1.19v-8.74l-5.57,8.74h-1.59v-10.13h1.19v8.74l5.57-8.94Zm-4.57-2.18c-.4-.4-.8-.99-.8-1.99h.8c0,.4,.2,.79,.6,1.19,.4,.2,.79,.4,1.39,.4s1-.2,1.39-.4c.4-.2,.6-.6,.6-1.19h.8c-.2,.79-.4,1.39-.99,1.99-.4,.4-1.19,.6-1.99,.6-.6,.2-1.39,0-1.79-.6Z"/>
    <path class="cls-2" d="M872.31,262.65h-26.26s4.18-65.17-11.54-93.18c-11.34-20.46-25.06-27.22-31.43-29.21l-36.2,120.6h-9.95v22.85l52.91,160.73s-81.75,32.98-196.52,0l57.88-159.14v-24.04h-6.96l-32.02-117.62-45.15-40.93c.99,0,108.8-26.82,108.8-26.82l-9.75-35.36h46.94l-9.15,34.57,91.9,21.66-3.58,12.12c15.91,2.98,58.08,15.3,61.86,62.98,4.77,59.01-1.79,90.79-1.79,90.79Z"/>
    <path class="cls-2" d="M1473.7,0h-480.57V480h480.57V0Z"/>
    <path class="cls-1" d="M1390.56,397.55l-40.58-123.77s30.23-10.13,44.36-31.79c8.75-13.51,6.96-28.41,6.56-32.78-2.19-22.25-17.31-35.76-22.28-40.13-6.36-5.76-12.53-9.14-17.1-11.32l12.92-29.21h-181.6l8.75,19.67c-11.54-6.95-28.24-13.11-40.78,5.96-12.33,19.07,19.5,29.21,19.5,29.21,0,0-15.91,20.07,2.98,37.55,18.9,17.48,44.76-13.71,44.76-13.71l5.96,13.11-67.63,225.5c33.62,5.17,72.81,8.94,116.76,9.14,45.55,.2,86.13-3.58,120.54-8.94-1.99-8.94-4.17-17.88-6.16-27.02,8.35-1.79,13.13-8.94,12.13-13.91-.99-5.56-9.75-10.93-19.09-7.55Zm-59.28-180.99l16.91-37.55s26.25,11.12,24.86,34.17c-1.39,23.05-30.63,37.35-30.63,37.35l-11.14-33.97Z"/>
    <path d="M1335.66,49.47c-.6,.2-1,.2-1.59,.4-.6,.2-1.2,.2-1.79,.2s-1.2,.2-1.79,.2c-1.99,0-3.39-.4-4.18-1.39-.8-.99-1-2.58-.6-4.77l1.19-5.76h2.39l-1.19,6.16c-.2,.99-.2,1.59,0,2.19,.2,.6,.4,.99,.79,1.19,.4,.2,.8,.4,1.2,.4h1.39c.99,0,2.19-.2,3.38-.4,1.19-.2,2.19-.4,2.79-.79l1.79-8.74h2.38l-4.17,19.27h-2.39l1.79-8.34c-.4-.2-.8,0-1.39,.2Z"/>
    <path d="M1345.01,57.62c-.8-.2-1.4-.6-1.79-.99-.4-.4-.8-.99-1-1.79-.2-.79-.2-1.59,0-2.58,.4-1.39,.8-2.38,1.59-3.18,.8-.79,1.59-1.39,2.79-1.79,1.19-.4,2.18-.6,3.58-.79l3.78-.4c.39,0,.99-.2,1.39-.2s.79-.2,.99-.4c.4-.2,.6-.4,.8-.79,.2-.4,.4-.79,.4-1.19,.2-.79,.2-1.39,0-1.99-.2-.4-.4-.99-.8-1.19-.4-.4-.99-.6-1.39-.6-.6-.2-1.19-.2-1.99-.2-1.59,0-2.79,.4-3.98,.99-.99,.79-1.79,1.79-2.19,3.38h-2.38c.59-2.19,1.79-3.97,3.38-4.97,1.59-.99,3.58-1.59,5.77-1.59,.79,0,1.59,0,2.58,.2,.8,.2,1.59,.4,2.19,.99,.6,.4,.99,.99,1.19,1.79,.2,.79,.2,1.79,0,3.18l-2.18,10.33c-.2,.99,.19,1.39,.99,1.39,.4,0,.6,0,.8-.2l-.4,1.99-.8,.2h-.79c-.6,0-1,0-1.4-.2-.39-.2-.59-.4-.79-.6-.2-.4-.2-.6-.2-.99s.2-.79,.2-1.39c-.6,.6-1.19,1.19-1.59,1.59-.6,.4-1.2,.99-1.79,1.19-.6,.4-1.2,.6-1.99,.79-.8,.2-1.59,.2-2.59,.2-.79,.2-1.79,0-2.38-.2Zm5.76-1.99c.8-.2,1.6-.6,2.39-1.19,.8-.6,1.39-1.19,1.79-1.99,.6-.79,1-1.59,1-2.58l.59-2.98c-.2,.2-.59,.4-.99,.6-.4,.2-.8,.2-1.2,.2-.99,.2-2.18,.4-3.18,.4-.99,.2-2.19,.4-2.98,.6-1,.2-1.79,.6-2.39,1.19-.6,.6-1.19,1.19-1.39,2.19-.2,.6-.2,1.19,0,1.59,.2,.4,.4,.79,.79,1.19,.4,.4,.8,.6,1.2,.79s.99,.2,1.59,.2c.99,.2,1.79,0,2.78-.2Z"/>
    <path d="M1378.62,38.15h2.98l-4.17,19.27h-2.39l3.58-16.49-14.12,16.49h-2.98l4.17-19.27h2.39l-3.58,16.49,14.12-16.49Zm-7.96-4.17c-.79-.79-.99-1.99-.79-3.58h1.39c0,.99,.2,1.59,.8,2.19,.59,.6,1.39,.79,2.58,.79,1,0,1.99-.2,2.79-.79,.79-.6,1.39-1.19,1.79-2.19h1.39c-.6,1.59-1.39,2.78-2.59,3.58-.99,.79-2.38,1.19-3.97,1.19s-2.59-.4-3.39-1.19Z"/>
    <path d="M1397.72,46.29l1.79-8.15h2.38l-4.17,19.27h-2.39l1.99-9.14h-10.94l-1.99,9.14h-2.39l4.18-19.27h2.39l-1.79,8.15h10.94Z"/>
    <path d="M1419.2,38.15h2.98l-4.17,19.27h-2.39l3.58-16.49-14.12,16.49h-2.99l4.18-19.27h2.39l-3.58,16.49,14.12-16.49Z"/>
    <path d="M1439.69,38.15h3.18l-9.75,7.55,6.17,11.72h-2.98l-5.38-10.13-4.77,3.58-1.39,6.56h-2.39l4.18-19.27h2.39l-2.19,9.93,12.93-9.93Z"/>
    <path d="M1337.84,74.7l-15.31,30.99h-2.19l15.32-30.99h2.18Z"/>
    <path d="M1348.39,74.7l-15.32,30.99h-2.19l15.32-30.99h2.19Z"/>
    <path d="M1371.86,84.24c.99,.79,1.19,1.99,.79,3.38-.19,1.19-.79,2.19-1.59,2.98-.79,.79-1.59,1.39-2.78,1.59,1.19,.2,2.19,.79,2.78,1.59,.6,.79,.6,1.79,.4,3.38-.4,1.79-1.19,2.98-2.59,3.97-1.39,.99-3.18,1.39-5.56,1.39h-8.76l4.18-19.27h8.75c2.19-.2,3.58,.2,4.38,.99Zm-4.38,15.1c1-.6,1.59-1.59,1.79-2.78,.2-1.19,0-1.99-.59-2.58-.6-.6-1.79-.99-3.58-.99h-6.17l-1.59,7.15h6.16c1.79,.2,2.99,0,3.98-.8Zm1.39-8.74c.8-.6,1.4-1.39,1.6-2.38,.39-2.19-.6-3.18-3.39-3.18h-6.16l-1.39,6.36h6.16c1.2,0,2.39-.4,3.18-.79Z"/>
    <path d="M1391.15,83.05h2.99l-4.18,19.27h-2.39l3.58-16.49-14.12,16.49h-2.98l4.17-19.27h2.39l-3.58,16.49,14.12-16.49Z"/>
    <path d="M1398.51,94.17c1-2.38,1.79-5.17,2.39-8.74l.6-2.58h12.93l-3.59,17.29h2.99l-1.79,8.14h-2.39l1.39-6.16h-16.11l-1.39,6.16h-2.39l1.59-8.14h2.19c1.59-1.59,2.59-3.58,3.58-5.96Zm4.58-7.75c-.6,3.18-1.59,5.96-2.39,8.34-.99,2.38-1.99,4.17-2.98,5.56h10.94l3.18-15.3h-8.36l-.39,1.39Z"/>
    <path d="M1438.49,87.42c1-.2,1.79-.4,2.59-.79,.79-.4,1.39-.99,1.99-1.59,.4-.6,.79-1.59,.99-2.58,.2-.79,.2-1.59,0-2.19-.2-.6-.4-.99-.99-1.39-.4-.4-1-.6-1.59-.79-.6-.2-1.4-.2-2.19-.2s-1.59,.2-2.39,.4c-.79,.2-1.39,.6-1.99,1.19-.59,.6-1.19,1.19-1.59,1.79-.4,.79-.79,1.39-.99,2.19h-2.39c.2-1.19,.8-2.19,1.39-3.18,.6-.99,1.39-1.79,2.39-2.58,.99-.79,1.99-1.19,3.18-1.39,1-.2,2.19-.4,3.18-.4s1.99,.2,2.79,.4c.79,.2,1.59,.6,2.19,1.19,.59,.6,.99,1.19,1.19,1.99s.2,1.79,0,2.98c-.4,1.39-.8,2.58-1.59,3.58-.8,.99-1.99,1.79-3.38,2.38,.99,.4,1.59,.6,2.19,1.19,.39,.4,.79,.99,.99,1.59,.2,.6,.4,1.19,.4,1.79s0,1.19-.2,1.79c-.2,.99-.6,2.19-1.19,2.98-.6,.99-1.4,1.79-2.19,2.58-.8,.79-1.79,1.39-2.99,1.79-1.19,.4-2.38,.6-3.78,.79-1.59,0-2.78-.2-3.77-.4-1-.2-1.99-.79-2.59-1.39s-.99-1.39-1.19-2.58c-.2-.99-.2-2.38,0-3.77h2.38c-.2,.99-.2,1.79,0,2.58,.2,.79,.4,1.39,1,1.99,.4,.6,.99,.99,1.79,1.19,.79,.2,1.59,.4,2.58,.4s1.79-.2,2.79-.4c.79-.4,1.59-.79,2.39-1.39,.79-.6,1.19-1.19,1.79-1.99,.39-.79,.79-1.39,.79-2.19,.2-.99,.2-1.99-.2-2.78s-.79-1.19-1.39-1.59c-.6-.4-1.59-.6-2.59-.79-.99-.2-2.18-.2-3.18,0l.4-1.99c.99-.2,1.99-.2,2.98-.4Z"/>
    <path d="M1028.54,31.99h1.59v10.13h-1.19v-8.34l-3.58,8.34h-1.2l-3.58-8.34v8.34h-1.19v-10.13h1.59l3.78,8.74,3.78-8.74Z"/>
    <path d="M1034.11,42.32c-.4-.2-.8-.2-1-.6-.39-.2-.59-.6-.79-.99-.2-.4-.2-.79-.2-1.39,0-.79,.2-1.19,.4-1.59,.4-.4,.79-.6,1.19-.99,.6-.2,1.19-.4,1.79-.4l1.99-.2h.6c.2,0,.4-.2,.4-.2,.19,0,.19-.2,.39-.4v-.6c0-.4,0-.79-.2-.99-.19-.2-.39-.4-.59-.6-.2-.2-.6-.2-.8-.4h-.99c-.8,0-1.4,.2-1.99,.6-.4,.4-.8,.99-.8,1.79h-1.19c0-1.19,.4-1.99,1.19-2.58,.8-.6,1.79-.79,2.99-.79,.39,0,.79,0,1.39,.2,.4,0,.79,.2,1.19,.4,.4,.2,.6,.6,.8,.99,.2,.4,.4,.99,.4,1.59v5.36c0,.4,.19,.79,.79,.79h.4v.99h-.8c-.39,0-.59,0-.79-.2-.2,0-.4-.2-.4-.4s-.2-.4-.2-.6v-.79c-.2,.4-.4,.6-.6,.79-.19,.2-.39,.4-.79,.6-.2,.2-.6,.2-1,.4-.39,0-.79,.2-1.19,.2-.6,.2-1.19,.2-1.59,0Zm2.78-.99c.4-.2,.8-.4,1.2-.6,.39-.2,.59-.6,.79-.99,.2-.4,.2-.79,.2-1.39v-1.59c0,.2-.2,.2-.4,.4-.19,0-.39,.2-.59,.2-.6,0-1,.2-1.59,.2s-1,.2-1.6,.4c-.39,.2-.79,.4-1.19,.6-.2,.2-.4,.6-.4,1.19,0,.4,0,.6,.2,.79,.2,.2,.2,.4,.4,.6,.2,.2,.4,.4,.8,.4,.19,0,.59,.2,.79,.2,.6-.2,1-.4,1.39-.4Z"/>
    <path d="M1050.42,31.99v.99h-3.78v9.14h-1.19v-9.14h-3.78v-.99h8.75Z"/>
    <path d="M1053.6,42.12c-.59-.2-.99-.6-1.39-1.19-.4-.4-.6-.99-.8-1.79-.19-.6-.19-1.39-.19-1.99s0-1.39,.19-1.99c.2-.6,.4-1.19,.8-1.79,.4-.4,.8-.99,1.39-1.19,.6-.2,1.2-.4,2.19-.4s1.59,.2,2.19,.4c.59,.4,.99,.79,1.39,1.19,.4,.6,.6,1.19,.8,1.79,.2,.6,.2,1.39,.2,2.19h-7.96c0,.4,0,.99,.2,1.39,.2,.4,.4,.99,.59,1.19,.2,.4,.6,.6,1,.99,.4,.2,.99,.4,1.59,.4,.99,0,1.59-.2,2.19-.79,.59-.4,.79-1.19,.99-1.99h1.2c-.2,1.19-.8,1.99-1.4,2.78-.79,.6-1.79,.99-2.98,.99-.8,.2-1.59,0-2.19-.2Zm5.17-7.15c-.2-.4-.39-.79-.59-1.19-.2-.4-.6-.6-1-.79-.4-.2-.79-.2-1.39-.2s-.99,0-1.39,.2c-.4,.2-.8,.4-1,.79-.2,.4-.39,.79-.59,1.19-.2,.4-.2,.99-.4,1.39h6.56c0-.4,0-.79-.2-1.39Z"/>
    <path d="M1063.15,33.97c.2-.79,.8-1.19,1.39-1.59,.6-.4,1.39-.6,2.19-.6s1.39,.2,1.99,.4c.6,.2,.99,.6,1.39,1.19,.4,.4,.6,.99,.8,1.79,.2,.6,.2,1.39,.2,1.99,0,.79,0,1.39-.2,1.99-.2,.6-.4,1.19-.8,1.79-.4,.4-.79,.79-1.39,1.19-.6,.2-1.19,.4-1.99,.4-.4,0-.8,0-1.19-.2-.4,0-.8-.2-1-.4-.4-.2-.59-.4-.79-.6s-.4-.6-.6-.99v5.76h-1.19v-13.91h1.19v1.79Zm5.17,7.15c.4-.2,.8-.6,1-.99,.19-.4,.39-.79,.59-1.39,.2-.6,.2-.99,.2-1.59s0-.99-.2-1.59c-.2-.6-.4-.99-.59-1.39-.2-.4-.6-.79-1-.99-.4-.2-.99-.4-1.59-.4s-1.19,.2-1.79,.4c-.4,.2-.8,.6-1.19,.99-.2,.4-.4,.79-.6,1.39-.2,.6-.2,.99-.2,1.59s0,.99,.2,1.59c.2,.6,.4,.99,.6,1.39,.2,.4,.59,.79,1.19,.99,.4,.2,.99,.4,1.59,.4,.8,0,1.39-.2,1.79-.4Z"/>
    <path d="M1080.26,31.99h1.59v10.13h-1.2v-8.74l-5.57,8.74h-1.59v-10.13h1.2v8.74l5.57-8.74Z"/>
    <path d="M1085.63,42.32c-.4-.2-.8-.2-1-.6-.4-.2-.59-.6-.79-.99-.2-.4-.2-.79-.2-1.39,0-.79,.2-1.19,.4-1.59,.39-.4,.79-.6,1.19-.99,.6-.2,1.19-.4,1.79-.4l1.99-.2h.59c.2,0,.4-.2,.4-.2,.2,0,.2-.2,.4-.4v-.6c0-.4,0-.79-.2-.99-.2-.2-.4-.4-.6-.6-.19-.2-.59-.2-.79-.4h-1c-.79,0-1.39,.2-1.98,.6-.4,.4-.8,.99-.8,1.79h-1.19c0-1.19,.39-1.99,1.19-2.58,.8-.6,1.79-.79,2.98-.79,.4,0,.8,0,1.4,.2,.39,0,.79,.2,1.19,.4,.4,.2,.6,.6,.8,.99,.19,.4,.39,.99,.39,1.59v5.36c0,.4,.2,.79,.8,.79h.4v.99h-.8c-.4,0-.6,0-.79-.2-.2,0-.4-.2-.4-.4s-.2-.4-.2-.6v-.79c-.2,.4-.4,.6-.6,.79-.2,.2-.4,.4-.79,.6-.2,.2-.6,.2-1,.4-.4,0-.79,.2-1.19,.2-.8,.2-1.2,.2-1.59,0Zm2.78-.99c.4-.2,.8-.4,1.19-.6,.4-.2,.6-.6,.8-.99,.2-.4,.2-.79,.2-1.39v-1.59c0,.2-.2,.2-.4,.4-.2,.2-.4,.2-.6,.2-.59,0-.99,.2-1.59,.2s-.99,.2-1.59,.4c-.4,.2-.79,.4-1.19,.6-.2,.2-.4,.6-.4,1.19,0,.4,0,.6,.2,.79,.2,.2,.2,.4,.4,.6,.2,.2,.4,.4,.79,.4,.2,0,.6,.2,.8,.2,.6-.2,.99-.4,1.39-.4Z"/>
    <path d="M1093.98,42.32h-.6v-.99h1.4c.2,0,.39-.2,.39-.4,.2-.2,.4-.4,.4-.79,.2-.4,.2-.99,.4-1.59,0-.6,.2-1.59,.2-2.58v-3.77h6.76v10.13h-1.19v-9.14h-4.18c0,1.39,0,2.78-.2,3.77,0,.99-.2,1.79-.4,2.58-.19,.6-.39,1.19-.59,1.59-.2,.4-.4,.6-.6,.79-.2,.2-.6,.4-.79,.4h-1Z"/>
    <path d="M1107.9,34.17h-1.39v-1.79h1.39v1.79Zm0,8.15h-1.39v-1.79h1.39v1.79Z"/>
    <path d="M1020.98,66.16c-.4-.2-.79-.2-.99-.6-.4-.2-.6-.6-.8-.99-.2-.4-.2-.79-.2-1.39,0-.79,.2-1.19,.4-1.59,.4-.4,.8-.6,1.19-.99,.6-.2,1.2-.4,1.79-.4l1.99-.2h.6c.2,0,.4-.2,.4-.2,.2,0,.2-.2,.39-.4v-.6c0-.4,0-.79-.19-.99-.2-.2-.4-.4-.6-.6-.2-.2-.6-.2-.8-.4h-.99c-.8,0-1.39,.2-1.99,.6-.4,.4-.8,.99-.8,1.79h-1.19c0-1.19,.4-1.99,1.19-2.58,.8-.6,1.79-.79,2.99-.79,.4,0,.79,0,1.39,.2,.4,0,.8,.2,1.19,.4,.4,.2,.6,.6,.8,.99,.2,.4,.4,.99,.4,1.59v5.36c0,.4,.2,.79,.79,.79h.4v.99h-.8c-.39,0-.59,0-.79-.2-.2,0-.4-.2-.4-.4s-.2-.4-.2-.6v-.79c-.2,.4-.4,.6-.59,.79-.2,.2-.4,.4-.8,.6-.2,.2-.6,.2-.99,.4-.4,0-.8,.2-1.2,.2h-1.59Zm2.79-1.19c.39-.2,.79-.4,1.19-.6,.4-.2,.6-.6,.79-.99,.2-.4,.2-.79,.2-1.39v-1.59c0,.2-.2,.2-.39,.4-.2,0-.4,.2-.6,.2-.6,0-1,.2-1.59,.2s-1,.2-1.59,.4c-.4,.2-.8,.4-1.2,.6-.2,.2-.39,.6-.39,1.19,0,.4,0,.6,.19,.79,.2,.2,.2,.4,.4,.6,.2,.2,.4,.4,.8,.4,.2,0,.59,.2,.79,.2,.4-.2,1-.2,1.4-.4Z"/>
    <path d="M1029.34,65.96h-.6v-.99h1.39c.2,0,.4-.2,.4-.4,.2-.2,.4-.4,.4-.79,.2-.4,.2-.99,.39-1.59,0-.6,.2-1.59,.2-2.58v-3.77h6.77v10.13h-1.2v-9.14h-4.37c0,1.39,0,2.78-.2,3.77,0,.99-.2,1.79-.4,2.58-.2,.6-.4,1.19-.6,1.59-.2,.4-.39,.6-.59,.79-.2,.2-.6,.4-.8,.4h-.79c.19,0,0,0,0,0Z"/>
    <path d="M1047.24,65.76c-.6-.2-1-.6-1.4-.99-.39-.4-.79-.99-.99-1.59-.2-.6-.4-1.19-.4-1.99h-2.19v4.77h-1.19v-10.13h1.19v4.37h2.39c0-.6,.2-1.19,.4-1.79,.2-.6,.6-.99,.99-1.39,.4-.4,.8-.79,1.4-.99,.59-.2,1.19-.4,1.79-.4,.79,0,1.39,.2,1.99,.4,.59,.2,.99,.6,1.39,1.19,.4,.4,.79,.99,.99,1.79,.2,.6,.4,1.39,.4,1.99s0,1.39-.4,1.99c-.2,.6-.59,1.19-.99,1.79-.4,.4-1,.79-1.39,1.19-.6,.2-1.2,.4-1.99,.4-.8-.2-1.6-.2-1.99-.6Zm3.38-.99c.4-.2,.79-.6,.99-.99,.2-.4,.6-.79,.6-1.39,.2-.6,.2-.99,.2-1.59s0-.99-.2-1.59c-.2-.6-.4-.99-.6-1.39-.2-.4-.59-.79-.99-.99s-1-.4-1.39-.4c-.6,0-1,.2-1.4,.4-.39,.2-.79,.6-.99,.99-.2,.4-.6,.79-.6,1.39-.2,.6-.2,.99-.2,1.59s0,.99,.2,1.59c.2,.6,.4,.99,.6,1.39,.2,.4,.6,.79,.99,.99,.4,.2,1,.4,1.4,.4s.79,0,1.39-.4Z"/>
    <path d="M1064.74,55.83h1.59v10.13h-1.19v-8.34l-3.58,8.34h-1.19l-3.59-8.34v8.34h-1.19v-10.13h1.59l3.78,8.74,3.78-8.74Z"/>
    <path d="M1075.68,55.83h1.59v10.13h-1.19v-8.74l-5.57,8.74h-1.59v-10.13h1.19v8.74l5.57-8.74Z"/>
    <path d="M1086.62,60v-4.37h1.19v10.13h-1.19v-4.77h-5.77v4.77h-1.19v-10.13h1.19v4.37h5.77Z"/>
    <path d="M1097.16,55.83h1.59v10.13h-1.19v-8.74l-5.57,8.74h-1.59v-10.13h1.19v8.74l5.57-8.74Z"/>
    <path d="M1107.9,55.83h1.6v10.13h-1.2v-8.74l-5.57,8.74h-1.59v-10.13h1.2v8.74l5.56-8.74Zm-4.77-2.19c-.4-.4-.79-.99-.79-1.99h.79c0,.4,.2,.79,.6,1.19,.4,.2,.79,.4,1.39,.4s.99-.2,1.39-.4c.4-.2,.6-.6,.6-1.19h.79c-.19,.79-.39,1.39-.99,1.99-.4,.4-1.19,.6-1.99,.6-.6,0-1.19-.2-1.79-.6Z"/>
    <path d="M1020.58,103.31v9.14h5.57v-9.14h1.2v9.14h1.59v4.37h-1.2v-3.18h-8.35v-10.33h1.19Z"/>
    <path d="M1037.49,103.91c.6,.4,.8,.99,.8,1.79,0,.6-.2,1.19-.4,1.59-.4,.4-.8,.6-1.39,.79,.59,.2,1.19,.4,1.59,.79,.39,.4,.59,.99,.59,1.79,0,.99-.39,1.59-.99,2.19-.6,.4-1.59,.79-2.79,.79h-4.57v-10.33h4.57c1.2,0,1.99,.2,2.59,.6Zm-.99,3.18c.39-.2,.59-.79,.59-1.19,0-1.19-.79-1.59-2.19-1.59h-3.38v3.38h3.38c.6,0,1.2-.2,1.6-.6Zm.19,4.77c.4-.4,.6-.79,.6-1.39s-.2-.99-.6-1.39c-.39-.4-.99-.4-1.98-.4h-3.39v3.77h3.39c.99,0,1.59-.2,1.98-.6Z"/>
    <path d="M1042.46,113.25c-.59-.2-.99-.6-1.39-1.19-.4-.4-.6-.99-.79-1.79-.2-.6-.2-1.39-.2-1.99s0-1.39,.2-1.99c.19-.6,.39-1.19,.79-1.79,.4-.4,.8-.99,1.39-1.19,.6-.2,1.2-.4,2.19-.4,.8,0,1.59,.2,2.19,.4,.6,.4,.99,.8,1.39,1.19,.4,.6,.6,1.19,.8,1.79,.2,.6,.2,1.39,.2,2.19h-7.96c0,.4,0,.99,.2,1.39,.2,.4,.4,.99,.6,1.19,.19,.4,.59,.6,.99,.99,.4,.2,.99,.4,1.59,.4,1,0,1.59-.2,2.19-.79,.6-.4,.79-1.19,.99-1.99h1.2c-.2,1.19-.8,1.99-1.4,2.78-.79,.6-1.79,.99-2.98,.99-.79,.2-1.59,.2-2.19-.2Zm5.17-6.95c-.19-.4-.39-.79-.59-1.19-.2-.4-.6-.6-1-.79-.39-.2-.79-.2-1.39-.2s-.99,0-1.39,.2c-.4,.2-.8,.4-1,.79-.19,.4-.39,.79-.59,1.19-.2,.4-.2,.99-.4,1.39h6.56c0-.6,0-.99-.2-1.39Z"/>
    <path d="M1058.38,103.31v.99h-3.78v9.14h-1.2v-9.14h-3.78v-.99h8.76Z"/>
    <path d="M1061.96,105.5h-1.4v-1.79h1.4v1.79Zm0,7.95h-1.4v-1.79h1.4v1.79Z"/>
    <path d="M1021.58,136.89c-.6-.4-1-.79-1.39-1.39-.4-.6-.6-1.19-.8-1.99s-.2-1.59-.2-2.38v-1.59c0-.6,.2-.99,.2-1.59s.2-.99,.4-1.39c.2-.4,.4-.99,.59-1.19,.4-.79,1-1.19,1.6-1.59,.59-.2,1.39-.4,2.38-.6h1c.59,0,.79,0,.99-.2,.2,0,.4-.2,.4-.4h1.39c0,.6-.4,.99-.79,1.19-.4,.2-1,.4-1.99,.4h-1.59c-1.2,0-1.99,.4-2.59,1.19-.6,.79-.99,1.99-1.19,3.58,.39-.6,.79-1.19,1.59-1.59,.59-.4,1.39-.6,2.19-.6,.59,0,1.39,.2,1.79,.4,.59,.2,.99,.6,1.39,.99,.4,.4,.79,.99,.99,1.59,.2,.6,.4,1.39,.4,2.19s-.2,1.59-.4,2.18c-.2,.6-.59,1.19-.99,1.59-.4,.4-1,.79-1.59,.99-.6,.2-1.2,.4-1.99,.4-.4,.4-1.2,.2-1.79-.2Zm3.58-.79c.4-.2,.79-.4,1.19-.79,.2-.4,.6-.79,.8-1.39,.2-.6,.2-.99,.2-1.79,0-.6,0-1.19-.2-1.79-.2-.6-.4-.99-.8-1.39-.4-.4-.6-.6-.99-.79-.4-.2-.8-.2-1.4-.2s-.99,0-1.39,.2c-.4,.2-.79,.4-1.19,.79-.4,.4-.6,.79-.8,1.39-.2,.6-.2,.99-.2,1.79,0,.6,0,1.19,.2,1.79,.2,.6,.4,.99,.8,1.39,.2,.4,.6,.6,1.19,.79,.4,.2,.8,.4,1.39,.4,.4,0,.8-.2,1.2-.4Z"/>
    <path d="M1032.32,137.09c-.6-.2-1-.6-1.39-1.19-.4-.4-.6-.99-.8-1.79-.2-.6-.2-1.39-.2-1.99s0-1.39,.2-1.99c.2-.6,.4-1.19,.8-1.79,.39-.4,.79-.99,1.39-1.19,.6-.2,1.19-.4,2.19-.4s1.59,.2,2.18,.4c.6,.4,1,.79,1.4,1.19,.39,.6,.59,1.19,.79,1.79,.2,.6,.2,1.39,.2,2.19h-7.95c0,.4,0,.99,.19,1.39,.2,.4,.4,.99,.6,1.19,.2,.4,.6,.6,1,.99,.39,.2,.99,.4,1.59,.4,.99,0,1.59-.2,2.18-.79,.6-.4,.8-1.19,1-1.99h1.19c-.2,1.19-.79,1.99-1.39,2.78-.8,.6-1.79,.99-2.98,.99-.8,.2-1.59,0-2.19-.2Zm5.17-7.15c-.2-.4-.4-.79-.6-1.19-.2-.4-.59-.6-.99-.8s-.8-.2-1.39-.2-1,0-1.4,.2c-.39,.2-.79,.4-.99,.8-.2,.4-.4,.79-.6,1.19-.2,.4-.2,.99-.39,1.39h6.56c0-.4,0-.99-.2-1.39Z"/>
    <path d="M1040.28,137.29h-.6v-.99h1.39c.2,0,.4-.2,.4-.4,.2-.2,.4-.4,.4-.79,.2-.4,.2-.99,.39-1.59,0-.6,.2-1.59,.2-2.58v-3.78h6.77v9.93h-1.2v-9.14h-4.17c0,1.39,0,2.78-.2,3.78,0,.99-.2,1.79-.4,2.58-.2,.6-.4,1.19-.6,1.59-.2,.4-.4,.6-.59,.79-.2,.2-.6,.4-.8,.4h-.8q0,.2-.19,.2Z"/>
    <path d="M1056.39,131.13c.99,0,1.79,.2,2.38,.79,.6,.6,.8,1.19,.8,2.18s-.2,1.79-.8,2.18c-.59,.6-1.39,.79-2.38,.79h-4.58v-10.13h1.2v4.17h3.38Zm1.39,4.37c.4-.4,.6-.79,.6-1.59,0-.6-.2-1.19-.6-1.59-.4-.4-1-.4-1.59-.4h-2.99v3.97h2.99c.59,.2,1.19,0,1.59-.4Zm3.78,1.59v-10.13h1.19v10.13h-1.19Z"/>
    <path d="M1072.1,126.95h1.59v10.13h-1.19v-8.74l-5.57,8.74h-1.59v-10.13h1.19v8.74l5.57-8.74Zm-4.77-2.19c-.4-.4-.8-.99-.8-1.99h.8c0,.4,.2,.79,.59,1.19,.4,.2,.8,.4,1.4,.4s.99-.2,1.39-.4c.4-.2,.6-.6,.6-1.19h.79c-.2,.79-.4,1.39-.99,1.99-.4,.4-1.2,.6-1.99,.6-.6,0-1.2-.2-1.79-.6Z"/>
    <path d="M1021.58,184.37c-.6-.2-1.2-.6-1.59-1.19-.4-.4-.8-.99-1-1.79-.2-.6-.4-1.39-.4-1.99,0-.8,0-1.39,.4-1.99,.2-.6,.6-1.19,1-1.79,.39-.4,.99-.79,1.59-1.19,.59-.2,1.19-.4,1.99-.4s1.39,.2,1.99,.4c.59,.2,.99,.6,1.59,1.19,.39,.4,.79,.99,.99,1.79,.2,.6,.4,1.39,.4,1.99,0,.79,0,1.39-.4,1.99-.2,.6-.6,1.19-.99,1.79-.4,.6-1,.79-1.59,1.19-.6,.2-1.4,.4-1.99,.4-.6,.2-1.4,0-1.99-.4Zm3.78-.79c.39-.2,.79-.6,1.19-.99,.2-.4,.6-.79,.6-1.39,.2-.6,.2-.99,.2-1.59s0-.99-.2-1.59c-.2-.6-.4-.99-.6-1.39-.2-.4-.6-.79-1.19-.99-.4-.2-1-.4-1.59-.4s-1.2,.2-1.6,.4c-.39,.2-.79,.6-1.19,.99-.2,.4-.6,.79-.6,1.39-.19,.6-.19,.99-.19,1.59s0,.99,.19,1.59c.2,.6,.4,.99,.6,1.39,.2,.4,.6,.8,1.19,.99,.4,.2,1,.4,1.6,.4,.59-.2,.99-.2,1.59-.4Z"/>
    <path d="M1032.72,184.37c-.6-.2-1.2-.6-1.59-1.19-.4-.4-.8-.99-1-1.79-.2-.6-.4-1.39-.4-1.99,0-.8,0-1.39,.4-1.99,.2-.6,.6-1.19,1-1.79,.39-.4,.99-.79,1.59-1.19,.59-.2,1.19-.4,1.99-.4,.99,0,1.98,.2,2.78,.79,.8,.6,1.19,1.39,1.39,2.58h-1.19c-.2-.79-.4-1.39-1-1.79-.39-.4-1.19-.6-1.98-.6-.6,0-1.2,.2-1.6,.4-.39,.2-.79,.6-1.19,.99-.2,.4-.6,.79-.6,1.39-.19,.6-.19,.99-.19,1.59s0,.99,.19,1.59c.2,.6,.4,.99,.6,1.39,.2,.4,.6,.79,1.19,.99,.4,.2,1,.4,1.6,.4,.39,0,.79,0,.99-.2,.4-.2,.6-.4,.99-.6,.2-.2,.4-.6,.6-.99,.2-.4,.2-.79,.4-1.19h1.19c-.2,1.19-.59,2.18-1.39,2.98-.8,.6-1.59,.99-2.78,.99-.8,.2-1.4,0-1.99-.4Z"/>
    <path d="M1042.86,184.37c-.6-.2-1.19-.6-1.59-1.19-.4-.4-.8-.99-.99-1.79-.2-.6-.4-1.39-.4-1.99,0-.8,0-1.39,.4-1.99,.19-.6,.59-1.19,.99-1.79,.4-.4,.99-.79,1.59-1.19,.6-.2,1.19-.4,1.99-.4s1.39,.2,1.99,.4c.6,.2,.99,.6,1.59,1.19,.4,.4,.8,.99,1,1.79,.19,.6,.39,1.39,.39,1.99,0,.79,0,1.39-.39,1.99-.2,.6-.6,1.19-1,1.79-.4,.4-.99,.79-1.59,1.19-.6,.2-1.39,.4-1.99,.4-.6,.2-1.39,0-1.99-.4Zm3.78-.79c.4-.2,.8-.6,1.19-.99,.2-.4,.6-.79,.6-1.39,.2-.6,.2-.99,.2-1.59s0-.99-.2-1.59c-.2-.6-.4-.99-.6-1.39-.2-.4-.59-.79-1.19-.99-.4-.2-.99-.4-1.59-.4s-1.19,.2-1.59,.4c-.4,.2-.8,.6-1.2,.99-.19,.4-.59,.79-.59,1.39-.2,.6-.2,.99-.2,1.59s0,.99,.2,1.59c.2,.6,.4,.99,.59,1.39,.2,.4,.6,.8,1.2,.99,.4,.2,.99,.4,1.59,.4,.6-.2,.99-.2,1.59-.4Z"/>
    <path d="M1053.8,184.37c-.6-.4-.99-.79-1.39-1.39-.4-.6-.6-1.19-.8-1.99-.2-.79-.2-1.59-.2-2.38v-1.59c0-.6,.2-.99,.2-1.59s.2-.99,.4-1.39c.2-.4,.4-.99,.6-1.19,.4-.8,.99-1.19,1.59-1.59,.6-.2,1.39-.4,2.39-.6h.99c.6,0,.8,0,.99-.2,.2,0,.4-.2,.4-.4h1.4c0,.6-.4,.99-.8,1.19-.4,.2-1,.4-1.99,.4h-1.59c-1.19,0-1.99,.4-2.59,1.19-.59,.79-.99,1.99-1.19,3.58,.4-.6,.8-1.19,1.59-1.59,.6-.4,1.39-.6,2.19-.6,.6,0,1.39,.2,1.79,.4,.6,.2,.99,.6,1.39,.99,.4,.4,.8,.99,1,1.59,.2,.6,.39,1.39,.39,2.19s-.19,1.59-.39,2.18c-.2,.6-.6,1.19-1,1.59-.4,.4-.99,.79-1.59,.99-.6,.2-1.19,.4-1.99,.4-.4,.4-1.19,.2-1.79-.2Zm3.78-.79c.4-.2,.8-.4,1.19-.79,.2-.4,.6-.79,.8-1.39,.2-.6,.2-.99,.2-1.79,0-.6,0-1.19-.2-1.79-.2-.6-.4-.99-.8-1.39-.39-.4-.59-.6-.99-.79s-.8-.2-1.39-.2-1,0-1.4,.2c-.39,.2-.79,.4-1.19,.79-.4,.4-.6,.79-.79,1.39-.2,.6-.2,.99-.2,1.79,0,.6,0,1.19,.2,1.79,.19,.6,.39,.99,.79,1.39,.2,.4,.6,.6,1.19,.79,.4,.2,.8,.4,1.4,.4,.2-.2,.59-.2,1.19-.4Z"/>
    <path d="M1064.74,184.37c-.6-.2-.99-.6-1.39-1.19-.4-.4-.6-.99-.8-1.79-.2-.6-.2-1.39-.2-1.99s0-1.39,.2-1.99c.2-.6,.4-1.19,.8-1.79,.4-.4,.79-.99,1.39-1.19,.6-.2,1.19-.4,2.19-.4,.79,0,1.59,.2,2.19,.4,.59,.4,.99,.79,1.39,1.19,.4,.6,.6,1.19,.8,1.79,.19,.6,.19,1.39,.19,2.19h-7.95c0,.4,0,.99,.2,1.39,.2,.4,.39,.99,.59,1.19,.2,.4,.6,.6,1,.99,.4,.2,.99,.4,1.59,.4,.99,0,1.59-.2,2.19-.79,.59-.4,.79-1.19,.99-1.99h1.2c-.2,1.19-.8,1.99-1.4,2.78-.79,.6-1.79,.99-2.98,.99-1,.4-1.59,.2-2.19-.2Zm4.97-6.95c-.19-.4-.39-.79-.59-1.19-.2-.4-.6-.6-1-.79-.4-.2-.79-.2-1.39-.2s-.99,0-1.39,.2c-.4,.2-.8,.4-1,.79-.2,.4-.39,.79-.59,1.19-.2,.4-.2,.99-.4,1.39h6.56c.2-.4,0-.99-.2-1.39Z"/>
    <path d="M1080.06,178.81v-4.37h1.19v10.13h-1.19v-4.77h-5.77v4.77h-1.19v-10.13h1.19v4.37h5.77Z"/>
    <path d="M1090.6,178.81v-4.37h1.19v10.13h-1.19v-4.77h-5.77v4.77h-1.19v-10.13h1.19v4.37h5.77Z"/>
    <path d="M1096.57,184.37c-.6-.2-1.2-.6-1.59-1.19-.4-.4-.8-.99-1-1.79-.2-.6-.4-1.39-.4-1.99,0-.8,0-1.39,.4-1.99,.2-.6,.6-1.19,1-1.79,.39-.4,.99-.79,1.59-1.19,.59-.2,1.19-.4,1.99-.4s1.39,.2,1.98,.4c.6,.2,1,.6,1.6,1.19,.39,.4,.79,.99,.99,1.79,.2,.6,.4,1.39,.4,1.99,0,.79,0,1.39-.4,1.99-.2,.6-.6,1.19-.99,1.79-.4,.6-1,.79-1.6,1.19-.59,.2-1.39,.4-1.98,.4-.8,.2-1.4,0-1.99-.4Zm3.58-.79c.39-.2,.79-.6,1.19-.99,.2-.4,.6-.79,.6-1.39,.2-.6,.2-.99,.2-1.59s0-.99-.2-1.59c-.2-.6-.4-.99-.6-1.39-.2-.4-.6-.79-1.19-.99-.4-.2-1-.4-1.59-.4s-1.2,.2-1.6,.4c-.39,.2-.79,.6-1.19,.99-.2,.4-.6,.79-.6,1.39-.19,.6-.19,.99-.19,1.59s0,.99,.19,1.59c.2,.6,.4,.99,.6,1.39,.2,.4,.6,.8,1.19,.99,.4,.2,1,.4,1.6,.4,.59-.2,1.19-.2,1.59-.4Z"/>
    <path d="M1107.51,184.37c-.6-.2-1.2-.6-1.59-1.19-.4-.4-.8-.99-1-1.79-.2-.6-.4-1.39-.4-1.99,0-.8,0-1.39,.4-1.99,.2-.6,.6-1.19,1-1.79,.39-.4,.99-.79,1.59-1.19,.59-.2,1.19-.4,1.99-.4,.99,0,1.99,.2,2.78,.79,.8,.6,1.19,1.39,1.39,2.58h-1.19c-.2-.79-.4-1.39-.99-1.79-.4-.4-1.2-.6-1.99-.6-.6,0-1.2,.2-1.6,.4-.39,.2-.79,.6-1.19,.99-.2,.4-.6,.79-.6,1.39-.19,.6-.19,.99-.19,1.59s0,.99,.19,1.59c.2,.6,.4,.99,.6,1.39,.2,.4,.6,.79,1.19,.99,.4,.2,1,.4,1.6,.4,.39,0,.79,0,.99-.2,.4-.2,.6-.4,1-.6,.19-.2,.39-.6,.59-.99,.2-.4,.2-.79,.4-1.19h1.19c-.2,1.19-.59,2.18-1.39,2.98-.79,.6-1.59,.99-2.78,.99-.8,.2-1.4,0-1.99-.4Z"/>
    <path d="M1123.22,174.44v.99h-3.78v9.14h-1.19v-9.14h-3.78v-.99h8.75Z"/>
    <path d="M1129.19,178.41c.99,0,1.79,.2,2.38,.79,.6,.6,.8,1.19,.8,2.19s-.2,1.79-.8,2.18c-.59,.6-1.39,.79-2.38,.79h-4.97v-10.13h1.19v4.17h3.78Zm1.39,4.57c.4-.4,.6-.79,.6-1.59,0-.6-.2-1.19-.6-1.59-.4-.4-.99-.4-1.59-.4h-3.38v3.97h3.38c.79,.2,1.19,0,1.59-.4Z"/>
    <path d="M1136.55,176.62h-1.39v-1.79h1.39v1.79Zm0,7.95h-1.39v-1.79h1.39v1.79Z"/>
    <path d="M1019.59,212.19h-.4v-.99h.8c.2,0,.59,0,.59-.2,.2,0,.4-.2,.4-.4,.2-.2,.2-.4,.4-.6s.2-.4,.2-.6l.4-1.19-4.18-10.13h1.39l3.38,8.74,3.18-8.74h1.2l-4.38,11.72c-.2,.4-.4,.79-.59,.99-.2,.2-.4,.4-.6,.6-.2,.2-.4,.2-.6,.4h-.99c.2,.4,0,.4-.2,.4Z"/>
    <path d="M1037.69,198.08h1.59v10.13h-1.19v-8.34l-3.58,8.34h-1.2l-3.58-8.34v8.34h-1.19v-10.13h1.59l3.78,8.74,3.78-8.74Z"/>
    <path d="M1043.86,208.21c-.6-.2-1-.6-1.4-1.19-.39-.4-.59-.99-.79-1.79-.2-.6-.2-1.39-.2-1.99s0-1.39,.2-1.99c.2-.6,.4-1.19,.79-1.79,.4-.4,.8-.99,1.4-1.19,.59-.2,1.19-.4,2.18-.4,.8,0,1.59,.2,2.19,.4,.6,.2,1,.79,1.39,1.19,.4,.6,.6,1.19,.8,1.79,.2,.6,.2,1.39,.2,2.19h-7.96c0,.4,0,.99,.2,1.39,.2,.4,.4,.99,.6,1.19,.2,.4,.59,.6,.99,.99,.4,.2,1,.4,1.59,.4,1,0,1.59-.2,2.19-.79,.6-.4,.8-1.19,1-1.99h1.19c-.2,1.19-.8,1.99-1.39,2.78-.8,.6-1.79,.99-2.99,.99-.99,.2-1.59,0-2.18-.2Zm4.97-6.95c-.2-.4-.4-.79-.6-1.19-.2-.4-.6-.6-.99-.79-.4-.2-.8-.2-1.4-.2s-.99,0-1.39,.2c-.4,.2-.79,.4-.99,.79-.2,.4-.4,.79-.6,1.19-.2,.4-.2,.99-.4,1.39h6.57c0-.6,0-.99-.2-1.39Z"/>
    <path d="M1054,208.21c-.6-.2-.99-.6-1.39-1.19-.4-.4-.6-.99-.8-1.79-.2-.6-.2-1.39-.2-1.99s0-1.39,.2-1.99c.2-.6,.4-1.19,.8-1.79,.4-.4,.79-.99,1.39-1.19,.6-.2,1.19-.4,2.19-.4,.79,0,1.59,.2,2.19,.4,.59,.4,.99,.79,1.39,1.19,.4,.6,.6,1.19,.79,1.79,.2,.6,.2,1.39,.2,2.19h-7.95c0,.4,0,.99,.2,1.39,.19,.4,.39,.99,.59,1.19,.2,.4,.6,.6,1,.99,.39,.2,.99,.4,1.59,.4,.99,0,1.59-.2,2.19-.79,.59-.4,.79-1.19,.99-1.99h1.19c-.19,1.19-.79,1.99-1.39,2.78-.79,.6-1.79,.99-2.98,.99-.8,.2-1.59,0-2.19-.2Zm5.17-6.95c-.2-.4-.4-.79-.59-1.19-.2-.4-.6-.6-1-.79-.4-.2-.8-.2-1.39-.2s-1,0-1.39,.2c-.4,.2-.8,.4-1,.79-.2,.4-.4,.79-.6,1.19-.19,.4-.19,.99-.39,1.39h6.56c0-.6,0-.99-.2-1.39Z"/>
    <path d="M1069.91,198.08v.99h-3.78v9.14h-1.19v-9.14h-3.78v-.99h8.75Z"/>
    <path d="M1020.58,223.91c.2-.79,.8-1.19,1.4-1.59,.59-.4,1.39-.6,2.18-.6s1.4,.2,1.99,.4c.6,.2,1,.6,1.39,1.19,.4,.4,.6,.99,.8,1.79,.2,.6,.2,1.39,.2,1.99s0,1.39-.2,1.99c-.2,.6-.4,1.19-.8,1.79-.39,.4-.79,.8-1.39,1.19-.59,.2-1.19,.4-1.99,.4-.39,0-.79,0-1.19-.2-.4,0-.8-.2-.99-.4-.4-.2-.6-.4-.8-.6-.2-.2-.4-.6-.6-.99v5.76h-1.19v-13.91h1.19v1.79Zm5.17,6.95c.4-.2,.8-.6,1-.99,.2-.4,.4-.79,.6-1.39,.19-.6,.19-.99,.19-1.59s0-.99-.19-1.59c-.2-.6-.4-.99-.6-1.39-.2-.4-.6-.79-1-.99-.39-.2-.99-.4-1.59-.4s-1.19,.2-1.79,.4c-.39,.2-.79,.6-1.19,.99-.2,.4-.4,.79-.6,1.39-.2,.6-.2,.99-.2,1.59s0,.99,.2,1.59c.2,.6,.4,.99,.6,1.39,.2,.4,.6,.79,1.19,.99,.4,.2,1,.4,1.59,.4,.8,0,1.4,0,1.79-.4Z"/>
    <path d="M1032.32,232.25c-.4-.2-.8-.2-1-.6-.39-.2-.59-.6-.79-.99-.2-.4-.2-.79-.2-1.39,0-.79,.2-1.19,.4-1.59,.4-.4,.79-.6,1.19-.99,.6-.2,1.19-.4,1.79-.4l1.99-.2h.6c.2,0,.39-.2,.39-.2,.2,0,.2-.2,.4-.4v-.6c0-.4,0-.79-.2-.99-.2-.2-.39-.4-.59-.6-.2-.2-.6-.2-.8-.4h-.99c-.8,0-1.4,.2-1.99,.6-.4,.4-.8,.99-.8,1.79h-1.19c0-1.19,.4-1.99,1.19-2.58,.8-.6,1.79-.79,2.99-.79,.39,0,.79,0,1.39,.2,.4,0,.79,.2,1.19,.4,.4,.2,.6,.6,.8,.99,.2,.4,.4,.99,.4,1.59v5.36c0,.4,.19,.79,.79,.79h.4v.99h-.8c-.39,0-.59,0-.79-.2-.2,0-.4-.2-.4-.4s-.2-.4-.2-.6v-.79c-.2,.4-.4,.6-.6,.79-.2,.2-.39,.4-.79,.6-.2,.2-.6,.2-1,.4-.39,0-.79,.2-1.19,.2-.8,.2-1.19,0-1.59,0Zm2.78-1.19c.4-.2,.8-.4,1.2-.6,.39-.2,.59-.6,.79-.99,.2-.4,.2-.79,.2-1.39v-1.59c0,.2-.2,.2-.4,.4-.2,0-.39,.2-.59,.2-.6,0-1,.2-1.59,.2s-1,.2-1.6,.4c-.39,.2-.79,.4-1.19,.6-.2,.2-.4,.6-.4,1.19,0,.4,0,.6,.2,.79,.2,.2,.2,.4,.4,.6,.2,.2,.4,.4,.8,.4,.19,0,.59,.2,.79,.2,.4-.2,1-.2,1.39-.4Z"/>
    <path d="M1041.47,231.46c-.6-.6-1-1.39-1.19-2.58h1.19c0,.4,.2,.8,.2,.99,.2,.2,.4,.6,.59,.79,.2,.2,.6,.4,.8,.4,.4,.2,.8,.2,1.19,.2,.6,0,1,0,1.4-.2,.39-.2,.59-.4,.79-.6,.2-.2,.4-.4,.4-.79,0-.2,.2-.6,.2-.8,0-.6-.2-.99-.4-1.39-.4-.4-.99-.6-1.59-.6h-1.79v-.99h1.39c.6,0,1.19-.2,1.59-.4,.4-.4,.6-.79,.6-1.39v-.6c0-.2-.2-.4-.4-.6-.2-.2-.4-.4-.79-.4s-.8-.2-1.2-.2c-.99,0-1.59,.2-1.99,.6-.39,.4-.59,.99-.79,1.59h-1.2c0-.6,.2-1.19,.4-1.59,.2-.4,.6-.79,.8-.99,.4-.2,.79-.4,1.19-.6,.4,0,1-.2,1.39-.2,.6,0,1,0,1.4,.2,.39,0,.79,.2,1.19,.4,.4,.2,.6,.6,.79,.79,.2,.4,.2,.79,.2,1.19,0,.2,0,.6-.2,.79,0,.2-.19,.4-.39,.6-.2,.2-.4,.4-.6,.4-.2,.2-.4,.2-.6,.2,.2,0,.4,.2,.8,.2,.2,0,.4,.2,.6,.4,.19,.2,.39,.4,.39,.79,.2,.2,.2,.6,.2,.99,0,.6-.2,.99-.4,1.39-.19,.4-.59,.79-.79,.99-.4,.2-.8,.4-1.39,.6-.4,.2-1,.2-1.59,.2-.6,1.19-1.6,.79-2.39,.2Z"/>
    <path d="M1052.01,222.91v9.14h-1.19v-10.13h6.76v.99h-5.57Z"/>
    <path d="M1060.76,231.85c-.59-.2-1.19-.6-1.59-1.19-.4-.4-.79-.99-.99-1.79-.2-.6-.4-1.39-.4-1.99s0-1.39,.4-1.99c.2-.6,.59-1.19,.99-1.79,.4-.4,1-.8,1.59-1.19,.6-.2,1.2-.4,1.99-.4s1.39,.2,1.99,.4c.6,.2,1,.6,1.59,1.19,.4,.4,.8,.99,1,1.79,.2,.6,.39,1.39,.39,1.99s0,1.39-.39,1.99c-.2,.6-.6,1.19-1,1.79-.4,.4-.99,.79-1.59,1.19-.6,.2-1.39,.4-1.99,.4-.59,.2-1.39,0-1.99-.4Zm3.58-.99c.4-.2,.8-.6,1.2-.99,.2-.4,.59-.79,.59-1.39,.2-.6,.2-.99,.2-1.59s0-.99-.2-1.59c-.2-.6-.39-.99-.59-1.39-.2-.4-.6-.79-1.2-.99-.39-.2-.99-.4-1.59-.4s-1.19,.2-1.59,.4-.79,.6-1.19,.99c-.2,.4-.6,.79-.6,1.39-.2,.6-.2,.99-.2,1.59s0,.99,.2,1.59c.2,.6,.4,.99,.6,1.39,.2,.4,.59,.79,1.19,.99,.4,.2,1,.4,1.59,.4,.8,0,1.2,0,1.59-.4Z"/>
    <path d="M1076.68,222.52c.59,.4,.79,.99,.79,1.79,0,.6-.2,1.19-.4,1.59-.39,.4-.79,.6-1.39,.79,.6,.2,1.19,.4,1.59,.79,.4,.4,.6,.99,.6,1.79,0,.99-.4,1.59-1,2.18-.59,.4-1.59,.79-2.78,.79h-4.57v-10.13h4.57c1.19-.2,1.99,0,2.59,.4Zm-1,3.38c.4-.2,.6-.79,.6-1.19,0-1.19-.8-1.59-2.19-1.59h-3.38v3.38h3.38c.8-.2,1.19-.4,1.59-.6Zm.4,4.57c.4-.4,.6-.79,.6-1.39s-.2-.99-.6-1.39c-.4-.4-1-.4-1.99-.4h-3.38v3.77h3.38c.8,0,1.59-.2,1.99-.6Z"/>
    <path d="M1081.25,232.25c-.4-.2-.79-.2-.99-.6-.4-.2-.6-.6-.8-.99-.2-.4-.2-.79-.2-1.39,0-.79,.2-1.19,.4-1.59,.4-.4,.8-.6,1.19-.99,.6-.2,1.2-.4,1.79-.4l1.99-.2h.6c.2,0,.4-.2,.4-.2,.2,0,.2-.2,.39-.4v-.6c0-.4,0-.79-.19-.99-.2-.2-.4-.4-.6-.6-.2-.2-.6-.2-.8-.4h-.99c-.8,0-1.39,.2-1.99,.6-.4,.4-.8,.99-.8,1.79h-.99c0-1.19,.4-1.99,1.19-2.58,.8-.6,1.79-.79,2.99-.79,.39,0,.79,0,1.39,.2,.4,0,.79,.2,1.19,.4,.4,.2,.6,.6,.8,.99,.2,.4,.4,.99,.4,1.59v5.36c0,.4,.19,.79,.79,.79h.4v.99h-.8c-.39,0-.59,0-.79-.2-.2,0-.4-.2-.4-.4s-.2-.4-.2-.6v-.79c-.2,.4-.4,.6-.6,.79-.19,.2-.39,.4-.79,.6-.2,.2-.6,.2-1,.4-.39,0-.79,.2-1.19,.2-.79,.2-1.19,0-1.79,0Zm2.98-1.19c.4-.2,.8-.4,1.2-.6,.4-.2,.59-.6,.79-.99,.2-.4,.2-.79,.2-1.39v-1.59c0,.2-.2,.2-.4,.4-.19,0-.39,.2-.59,.2-.6,0-1,.2-1.59,.2s-1,.2-1.59,.4c-.4,.2-.8,.4-1.2,.6-.2,.2-.4,.6-.4,1.19,0,.4,0,.6,.2,.79,.2,.2,.2,.4,.4,.6,.2,.2,.4,.4,.8,.4,.2,0,.59,.2,.79,.2,.4-.2,.8-.2,1.39-.4Z"/>
    <path d="M1091.2,223.91c.2-.79,.79-1.19,1.39-1.59,.6-.4,1.39-.6,2.19-.6s1.39,.2,1.99,.4c.59,.2,.99,.6,1.39,1.19,.4,.4,.59,.99,.79,1.79,.2,.6,.2,1.39,.2,1.99s0,1.39-.2,1.99c-.2,.6-.39,1.19-.79,1.79-.4,.4-.8,.8-1.39,1.19-.6,.2-1.2,.4-1.99,.4-.4,0-.8,0-1.2-.2-.39,0-.79-.2-.99-.4-.4-.2-.6-.4-.8-.6-.2-.2-.39-.6-.59-.99v5.76h-1.2v-13.91h1.2v1.79Zm5.17,6.95c.4-.2,.79-.6,.99-.99,.2-.4,.4-.79,.6-1.39,.2-.6,.2-.99,.2-1.59s0-.99-.2-1.59c-.2-.6-.4-.99-.6-1.39-.2-.4-.59-.79-.99-.99s-1-.4-1.59-.4-1.2,.2-1.79,.4c-.4,.2-.8,.6-1.2,.99-.2,.4-.39,.79-.59,1.39-.2,.6-.2,.99-.2,1.59s0,.99,.2,1.59c.2,.6,.39,.99,.59,1.39,.2,.4,.6,.79,1.2,.99,.39,.2,.99,.4,1.59,.4,.99,0,1.39,0,1.79-.4Z"/>
    <path d="M1108.3,221.92h1.59v10.13h-1.19v-8.74l-5.57,8.74h-1.59v-10.13h1.19v8.74l5.57-8.74Z"/>
    <path d="M1119.24,222.52c.6,.4,.8,.99,.8,1.79,0,.6-.2,1.19-.4,1.59-.4,.4-.8,.6-1.39,.79,.59,.2,1.19,.4,1.59,.79,.4,.4,.6,.99,.6,1.79,0,.99-.4,1.59-1,2.18-.6,.6-1.59,.79-2.78,.79h-4.58v-10.13h4.58c1.19-.2,1.99,0,2.58,.4Zm-.79,3.38c.39-.2,.59-.79,.59-1.19,0-1.19-.79-1.59-2.18-1.59h-3.39v3.38h3.39c.59-.2,1.19-.4,1.59-.6Zm.2,4.57c.39-.4,.59-.79,.59-1.39s-.2-.99-.59-1.39c-.4-.4-1-.4-1.99-.4h-3.19v3.77h3.39c.79,0,1.39-.2,1.79-.6Z"/>
    <path d="M1124.02,232.25c-.4-.2-.8-.2-1-.6-.4-.2-.59-.6-.79-.99-.2-.4-.2-.79-.2-1.39,0-.79,.2-1.19,.4-1.59,.39-.4,.79-.6,1.19-.99,.6-.2,1.19-.4,1.79-.4l1.99-.2h.59c.2,0,.4-.2,.4-.2,.2,0,.2-.2,.4-.4v-.6c0-.4,0-.79-.2-.99-.2-.2-.4-.4-.6-.6-.19-.2-.59-.2-.79-.4h-1c-.79,0-1.39,.2-1.98,.6-.4,.4-.8,.99-.8,1.79h-1.19c0-1.19,.39-1.99,1.19-2.58,.8-.6,1.79-.79,2.98-.79,.4,0,.8,0,1.4,.2,.39,0,.79,.2,1.19,.4,.4,.2,.6,.6,.79,.99,.2,.4,.4,.99,.4,1.59v5.36c0,.4,.2,.79,.8,.79h.4v.99h-.8c-.4,0-.6,0-.8-.2-.19,0-.39-.2-.39-.4s-.2-.4-.2-.6v-.79c-.2,.4-.4,.6-.6,.79-.2,.2-.4,.4-.79,.6-.2,.2-.6,.2-1,.4-.4,0-.79,.2-1.19,.2-.8,.2-1.2,0-1.59,0Zm2.78-1.19c.4-.2,.8-.4,1.19-.6,.4-.2,.6-.6,.8-.99,.2-.4,.2-.79,.2-1.39v-1.59c0,.2-.2,.2-.4,.4-.2,0-.4,.2-.6,.2-.59,0-.99,.2-1.59,.2s-.99,.2-1.59,.4c-.4,.2-.79,.4-1.19,.6-.2,.2-.4,.6-.4,1.19,0,.4,0,.6,.2,.79,.2,.2,.2,.4,.4,.6,.2,.2,.4,.4,.79,.4,.2,0,.6,.2,.8,.2,.4-.2,.99-.2,1.39-.4Z"/>
    <path d="M1140.33,221.92v.99h-3.78v9.14h-1.2v-9.14h-3.78v-.99h8.76Z"/>
    <path d="M1146.49,225.89c1,0,1.79,.2,2.39,.79,.6,.6,.8,1.19,.8,2.18s-.2,1.79-.8,2.19c-.6,.6-1.39,.79-2.39,.79h-4.97v-10.13h1.19v4.17h3.78Zm1.4,4.57c.39-.4,.59-.79,.59-1.59,0-.6-.2-1.19-.59-1.59-.4-.4-1-.4-1.6-.4h-3.38v3.97h3.38c.6,.2,1.2,0,1.6-.4Z"/>
    <path class="cls-3" d="M1970.27,0h-480.57V480h480.57V0Z"/>
    <path d="M1842.17,408.48c-.6,.2-1,.2-1.59,.4-.6,.2-1.2,.2-1.79,.2s-1.2,.2-1.79,.2c-1.99,0-3.38-.4-4.18-1.39-.8-.99-.99-2.58-.6-4.77l1.2-5.76h2.38l-1.19,6.16c-.2,.99-.2,1.59,0,2.18,.2,.6,.4,.99,.8,1.19,.39,.2,.79,.4,1.19,.4h1.39c1,0,2.19-.2,3.38-.4,1.2-.2,2.19-.4,2.79-.8l1.79-8.74h2.39l-4.18,19.27h-2.39l1.79-8.34c-.4-.2-.79,0-1.39,.2Z"/>
    <path d="M1851.52,416.62c-.8-.2-1.39-.6-1.79-.99-.4-.4-.8-.99-1-1.79-.2-.8-.2-1.59,0-2.58,.4-1.39,.8-2.38,1.59-3.18,.8-.79,1.6-1.39,2.79-1.79,.99-.4,2.19-.6,3.58-.79l3.78-.4c.4,0,.99-.2,1.39-.2s.8-.2,1-.4c.39-.2,.59-.4,.79-.79,.2-.4,.4-.8,.4-1.19,.2-.8,.2-1.39,0-1.99-.2-.4-.4-.99-.8-1.19-.39-.4-.99-.6-1.39-.6-.6-.2-1.19-.2-1.99-.2-1.59,0-2.78,.4-3.98,.99-.99,.79-1.79,1.79-2.18,3.38h-2.39c.6-2.18,1.79-3.97,3.38-4.97,1.59-.99,3.58-1.59,5.77-1.59,.79,0,1.59,0,2.58,.2,.8,.2,1.6,.4,2.19,.99,.6,.6,1,.99,1.2,1.79,.19,.79,.19,1.79,0,3.18l-2.19,10.33c-.2,.99,.2,1.39,.99,1.39,.4,0,.6,0,.8-.2l-.4,1.99-.8,.2h-.79c-.6,0-1,0-1.39-.2-.4-.2-.6-.4-.8-.6-.2-.4-.2-.6-.2-.99s.2-.8,.2-1.39c-.6,.6-1.19,1.19-1.59,1.59-.6,.4-1.19,.99-1.79,1.19-.6,.4-1.19,.6-1.99,.79-.8,.2-1.59,.2-2.59,.2-.79,.2-1.79,0-2.38-.2Zm5.57-1.99c.79-.2,1.59-.6,2.38-1.19,.8-.6,1.4-1.19,1.79-1.99,.6-.8,1-1.59,1-2.58l.6-2.98c-.2,.2-.6,.4-1,.6s-.79,.2-1.19,.2c-1,.2-2.19,.4-3.18,.4-1,.2-2.19,.4-2.99,.6-.99,.2-1.79,.6-2.39,1.19-.59,.6-1.19,1.19-1.39,2.19-.2,.6-.2,1.19,0,1.59,.2,.4,.4,.8,.8,1.19s.79,.6,1.19,.79c.4,.2,1,.2,1.59,.2,1.2,.2,1.99,0,2.79-.2Z"/>
    <path d="M1885.13,397.15h2.99l-4.18,19.27h-2.39l3.58-16.49-14.12,16.49h-2.98l4.17-19.27h2.39l-3.58,16.49,14.12-16.49Zm-7.95-4.17c-.8-.79-1-1.99-.8-3.58h1.39c0,.99,.2,1.59,.8,2.18,.6,.6,1.39,.8,2.59,.8,.99,0,1.98-.2,2.78-.8,.8-.6,1.39-1.19,1.79-2.18h1.39c-.59,1.59-1.39,2.78-2.58,3.58-1,.79-2.39,1.19-3.98,1.19-1.59,.2-2.59-.4-3.38-1.19Z"/>
    <path d="M1904.03,405.3l1.79-8.15h2.39l-4.18,19.27h-2.39l1.99-9.14h-10.94l-1.99,9.14h-2.38l4.17-19.27h2.39l-1.79,8.15h10.94Z"/>
    <path d="M1925.71,397.15h2.98l-4.17,19.27h-2.39l3.58-16.49-14.12,16.49h-2.99l4.18-19.27h2.39l-3.58,16.49,14.12-16.49Z"/>
    <path d="M1946.2,397.15h3.18l-9.75,7.55,6.17,11.72h-2.98l-5.37-10.13-4.78,3.58-1.39,6.56h-2.39l4.18-19.27h2.39l-2.19,9.93,12.93-9.93Z"/>
    <path d="M1844.36,433.71l-15.32,30.99h-2.19l15.32-30.99h2.19Z"/>
    <path d="M1854.7,433.71l-15.32,30.99h-2.18l15.31-30.99h2.19Z"/>
    <path d="M1878.37,443.24c1,.8,1.19,1.99,.8,3.38-.2,1.19-.8,2.19-1.6,2.98-.79,.79-1.59,1.39-2.78,1.59,1.19,.2,2.19,.8,2.78,1.59,.6,.79,.6,1.79,.4,3.38-.4,1.79-1.19,2.98-2.58,3.97-1.4,.99-3.19,1.39-5.57,1.39h-8.75l4.17-19.27h8.75c1.99-.2,3.58,.2,4.38,.99Zm-4.38,15.3c1-.6,1.6-1.59,1.79-2.78,.2-1.19,0-1.99-.59-2.58-.6-.6-1.79-.99-3.58-.99h-6.17l-1.59,7.15h6.17c1.79,0,2.98-.2,3.97-.8Zm1.4-8.94c.79-.6,1.39-1.39,1.59-2.38,.4-2.19-.6-3.18-3.38-3.18h-6.17l-1.39,6.36h6.16c1.2,0,2.39-.2,3.19-.79Z"/>
    <path d="M1897.66,442.05h2.99l-4.18,19.27h-2.39l3.58-16.49-14.12,16.49h-2.98l4.18-19.27h2.38l-3.58,16.49,14.12-16.49Z"/>
    <path d="M1905.02,453.18c1-2.38,1.79-5.17,2.39-8.74l.6-2.58h12.93l-3.58,17.29h2.98l-1.79,8.15h-2.39l1.4-6.16h-16.12l-1.39,6.16h-2.39l1.6-8.15h2.18c1.4-1.39,2.59-3.58,3.58-5.96Zm4.58-7.75c-.6,3.18-1.59,5.96-2.39,8.34-.99,2.38-1.99,4.17-2.98,5.56h10.94l3.18-15.3h-8.35l-.4,1.39Z"/>
    <path d="M1949.78,435.3h2.19l-3.78,17.68h3.58l-.4,1.99h-3.58l-1.39,6.56h-2.39l1.39-6.56h-12.13l.4-1.99,16.11-17.68Zm-13.73,17.48h9.75l2.98-14.11-12.73,14.11Z"/>
    <path d="M1525.11,31.99h1.59v10.13h-1.2v-8.34l-3.58,8.34h-1.19l-3.58-8.34v8.34h-1.19v-10.13h1.59l3.78,8.74,3.78-8.74Z"/>
    <path d="M1530.68,42.32c-.4-.2-.8-.2-1-.6-.4-.2-.6-.6-.79-.99-.2-.4-.2-.79-.2-1.39,0-.79,.2-1.19,.39-1.59,.4-.4,.8-.6,1.2-.99,.59-.2,1.19-.4,1.79-.4l1.99-.2h.59c.2,0,.4-.2,.4-.2,.2,0,.2-.2,.4-.4v-.6c0-.4,0-.79-.2-.99-.2-.2-.4-.4-.6-.6-.2-.2-.59-.2-.79-.4h-1c-.79,0-1.39,.2-1.99,.6-.39,.4-.79,.99-.79,1.79h-1.19c0-1.19,.39-1.99,1.19-2.58,.79-.6,1.79-.79,2.98-.79,.4,0,.8,0,1.39,.2,.4,0,.8,.2,1.2,.4,.4,.2,.6,.6,.79,.99,.2,.4,.4,.99,.4,1.59v5.36c0,.4,.2,.79,.8,.79h.4v.99h-.8c-.4,0-.6,0-.8-.2-.19,0-.39-.2-.39-.4s-.2-.4-.2-.6v-.79c-.2,.4-.4,.6-.6,.79s-.4,.4-.8,.6c-.19,.2-.59,.2-.99,.4-.4,0-.8,.2-1.19,.2-.8,.2-1.2,.2-1.59,0Zm2.78-.99c.4-.2,.8-.4,1.19-.6,.4-.2,.6-.6,.8-.99,.2-.4,.2-.79,.2-1.39v-1.59c0,.2-.2,.2-.4,.4-.2,0-.4,.2-.6,.2-.59,0-.99,.2-1.59,.2s-.99,.2-1.59,.4c-.4,.2-.79,.4-1.19,.6-.2,.2-.4,.6-.4,1.19,0,.4,0,.6,.2,.79,.2,.2,.2,.4,.4,.6,.2,.2,.39,.4,.79,.4,.2,0,.6,.2,.8,.2,.4-.2,.99-.4,1.39-.4Z"/>
    <path d="M1546.99,31.99v.99h-3.78v9.14h-1.2v-9.14h-3.78v-.99h8.76Z"/>
    <path d="M1550.17,42.12c-.6-.2-1-.6-1.39-1.19-.4-.4-.6-.99-.8-1.79-.2-.6-.2-1.39-.2-1.99s0-1.39,.2-1.99c.2-.6,.4-1.19,.8-1.79,.39-.4,.79-.99,1.39-1.19,.6-.2,1.19-.4,2.19-.4,.79,0,1.59,.2,2.18,.4,.6,.4,1,.79,1.4,1.19,.4,.6,.59,1.19,.79,1.79,.2,.6,.2,1.39,.2,2.19h-7.95c0,.4,0,.99,.19,1.39,.2,.4,.4,.99,.6,1.19,.2,.4,.6,.6,1,.99,.39,.2,.99,.4,1.59,.4,.99,0,1.59-.2,2.18-.79,.6-.4,.8-1.19,1-1.99h1.19c-.2,1.19-.79,1.99-1.39,2.78-.8,.6-1.79,.99-2.98,.99-1,.2-1.59,0-2.19-.2Zm5.17-7.15c-.2-.4-.4-.79-.6-1.19-.2-.4-.59-.6-.99-.79-.4-.2-.8-.2-1.39-.2s-1,0-1.4,.2c-.39,.2-.79,.4-.99,.79-.2,.4-.4,.79-.6,1.19-.2,.4-.2,.99-.39,1.39h6.56c0-.4-.2-.79-.2-1.39Z"/>
    <path d="M1559.52,33.97c.2-.79,.79-1.19,1.39-1.59,.6-.4,1.39-.6,2.19-.6s1.39,.2,1.99,.4c.59,.2,.99,.6,1.39,1.19,.4,.4,.6,.99,.8,1.79,.19,.6,.19,1.39,.19,1.99,0,.79,0,1.39-.19,1.99-.2,.6-.4,1.19-.8,1.79-.4,.4-.8,.79-1.39,1.19-.6,.2-1.2,.4-1.99,.4-.4,0-.8,0-1.2-.2-.39,0-.79-.2-.99-.4-.4-.2-.6-.4-.8-.6-.19-.2-.39-.6-.59-.99v5.76h-1.2v-13.91h1.2v1.79Zm5.17,7.15c.4-.2,.79-.6,.99-.99,.2-.4,.4-.79,.6-1.39,.2-.6,.2-.99,.2-1.59s0-.99-.2-1.59c-.2-.6-.4-.99-.6-1.39-.2-.4-.59-.79-.99-.99-.4-.2-1-.4-1.59-.4s-1.2,.2-1.79,.4c-.4,.2-.8,.6-1.2,.99-.19,.4-.39,.79-.59,1.39-.2,.6-.2,.99-.2,1.59s0,.99,.2,1.59c.2,.6,.4,.99,.59,1.39,.2,.4,.6,.79,1.2,.99,.4,.2,.99,.4,1.59,.4,.99,0,1.39-.2,1.79-.4Z"/>
    <path d="M1576.62,31.99h1.6v10.13h-1.2v-8.74l-5.57,8.74h-1.59v-10.13h1.19v8.74l5.57-8.74Z"/>
    <path d="M1582.19,42.32c-.39-.2-.79-.2-.99-.6-.4-.2-.6-.6-.8-.99-.2-.4-.2-.79-.2-1.39,0-.79,.2-1.19,.4-1.59,.4-.4,.8-.6,1.2-.99,.59-.2,1.19-.4,1.79-.4l1.98-.2h.6c.2,0,.4-.2,.4-.2,.2,0,.2-.2,.4-.4v-.6c0-.4,0-.79-.2-.99-.2-.2-.4-.4-.6-.6-.2-.2-.6-.2-.79-.4h-1c-.79,0-1.39,.2-1.99,.6-.4,.4-.79,.99-.79,1.79h-1.2c0-1.19,.4-1.99,1.2-2.58,.79-.6,1.79-.79,2.98-.79,.4,0,.8,0,1.39,.2,.4,0,.8,.2,1.2,.4,.39,.2,.59,.6,.79,.99,.2,.4,.4,.99,.4,1.59v5.36c0,.4,.2,.79,.8,.79h.39v.99h-.79c-.4,0-.6,0-.8-.2-.2,0-.4-.2-.4-.4s-.19-.4-.19-.6v-.79c-.2,.4-.4,.6-.6,.79-.2,.2-.4,.4-.8,.6-.2,.2-.59,.2-.99,.4-.4,0-.8,.2-1.2,.2-.79,.2-1.19,.2-1.59,0Zm2.79-.99c.4-.2,.79-.4,1.19-.6,.4-.2,.6-.6,.8-.99,.2-.4,.2-.79,.2-1.39v-1.59c0,.2-.2,.2-.4,.4-.2,0-.4,.2-.6,.2-.6,0-.99,.2-1.59,.2s-.99,.2-1.59,.4c-.4,.2-.8,.4-1.19,.6-.2,.2-.4,.6-.4,1.19,0,.4,0,.6,.2,.79,.2,.2,.2,.4,.39,.6,.2,.2,.4,.4,.8,.4,.2,0,.6,.2,.8,.2,.39-.2,.79-.4,1.39-.4Z"/>
    <path d="M1590.55,42.32h-.6v-.99h1.39c.2,0,.4-.2,.4-.4,.2-.2,.4-.4,.4-.79,.2-.4,.2-.99,.4-1.59,0-.6,.2-1.59,.2-2.58v-3.77h6.76v10.13h-1v-9.14h-4.37c0,1.39,0,2.78-.2,3.77,0,.99-.2,1.79-.4,2.58-.2,.6-.4,1.19-.6,1.59-.19,.4-.39,.6-.59,.79-.2,.2-.6,.4-.8,.4h-.99Z"/>
    <path d="M1604.27,34.17h-1.39v-1.79h1.39v1.79Zm0,8.15h-1.39v-1.79h1.39v1.79Z"/>
    <path d="M1521.53,61.79c-.2,0-.6,.2-.8,.2s-.6,.2-.99,.2h-1c-.99,0-1.79-.2-2.39-.79-.59-.4-.79-1.39-.79-2.58v-3.18h1.19v3.18c0,.4,0,.79,.2,1.19,.2,.2,.4,.4,.6,.6,.2,.2,.4,.2,.79,.2h.8c.6,0,1.19,0,1.79-.2,.6-.2,.99-.2,1.39-.4v-4.57h1.19v10.13h-1.19v-4.17c-.4,0-.6,0-.79,.2Z"/>
    <path d="M1525.9,69.74h-.4v-.99h.8c.2,0,.6,0,.6-.2,.2,0,.39-.2,.39-.4,.2-.2,.2-.4,.4-.6,0-.2,.2-.4,.2-.6l.4-1.19-4.18-10.13h1.39l3.39,8.74,3.18-8.74h1.19l-4.37,11.72c-.2,.4-.4,.79-.6,.99-.2,.2-.4,.4-.6,.6-.2,.2-.4,.2-.59,.4h-1c.2,.4,0,.4-.2,.4Z"/>
    <path d="M1536.25,56.82v9.14h-1.2v-10.13h6.76v.99h-5.56Z"/>
    <path d="M1543.01,69.74h-.4v-.99h.8c.19,0,.59,0,.59-.2,.2,0,.4-.2,.4-.4,.2-.2,.2-.4,.4-.6,0-.2,.2-.4,.2-.6l.39-1.19-4.17-10.13h1.39l3.38,8.74,3.18-8.74h1.2l-4.38,11.72c-.2,.4-.4,.79-.6,.99-.19,.2-.39,.4-.59,.6-.2,.2-.4,.2-.6,.4h-.99c.2,.4,0,.4-.2,.4Z"/>
    <path d="M1558.92,60v-4.37h1.19v10.13h-1.19v-4.77h-5.77v4.77h-1.19v-10.13h1.19v4.37h5.77Z"/>
    <path d="M1517.15,198.08v9.14h5.57v-9.14h1.19v9.14h1.59v4.37h-1.19v-3.18h-8.35v-10.13h1.19v-.2Z"/>
    <path d="M1533.86,198.68c.59,.4,.79,.99,.79,1.79,0,.6-.2,1.19-.39,1.59-.4,.4-.8,.6-1.4,.8,.6,.2,1.2,.4,1.59,.79,.4,.4,.6,.99,.6,1.79,0,.99-.4,1.59-.99,2.19-.6,.4-1.59,.79-2.79,.79h-4.57v-10.13h4.57c1.2-.2,1.99,0,2.59,.4Zm-1,3.38c.4-.2,.6-.79,.6-1.19,0-1.19-.8-1.59-2.19-1.59h-3.38v3.38h3.38c.8,0,1.2-.2,1.59-.6Zm.4,4.77c.4-.4,.6-.79,.6-1.39s-.2-.99-.6-1.39c-.4-.4-.99-.4-1.99-.4h-3.38v3.78h3.38c1-.2,1.59-.2,1.99-.6Z"/>
    <path d="M1539.03,208.21c-.6-.2-.99-.6-1.39-1.19-.4-.4-.6-.99-.8-1.79-.2-.6-.2-1.39-.2-1.99s0-1.39,.2-1.99c.2-.6,.4-1.19,.8-1.79,.4-.4,.79-.99,1.39-1.19,.6-.2,1.19-.4,2.19-.4s1.59,.2,2.19,.4c.59,.4,.99,.79,1.39,1.19,.4,.6,.6,1.19,.79,1.79,.2,.6,.2,1.39,.2,2.19h-7.95c0,.4,0,.99,.2,1.39,.19,.4,.39,.99,.59,1.19,.2,.4,.6,.6,1,.99,.39,.2,.99,.4,1.59,.4,.99,0,1.59-.2,2.19-.79,.59-.4,.79-1.19,.99-1.99h1.19c-.19,1.19-.79,1.99-1.39,2.78-.79,.6-1.79,.99-2.98,.99-1,.2-1.59,0-2.19-.2Zm5.17-6.95c-.2-.4-.4-.79-.6-1.19-.19-.4-.59-.6-.99-.79-.4-.2-.8-.2-1.39-.2s-1,0-1.39,.2c-.4,.2-.8,.4-1,.79-.2,.4-.4,.79-.6,1.19-.19,.4-.19,.99-.39,1.39h6.56c0-.6-.2-.99-.2-1.39Z"/>
    <path d="M1554.94,198.08v.99h-3.78v9.14h-1.19v-9.14h-3.78v-.99h8.75Z"/>
    <path d="M1558.32,200.26h-1.39v-1.59h1.39v1.59Zm0,8.15h-1.39v-1.79h1.39v1.79Z"/>
    <path d="M1521.53,227.88c-.2,0-.6,.2-.8,.2s-.6,.2-.99,.2h-1c-.99,0-1.79-.2-2.39-.79-.59-.4-.79-1.39-.79-2.58v-3.18h1.19v3.18c0,.4,0,.79,.2,1.19,.2,.2,.4,.4,.6,.6,.2,.2,.4,.2,.79,.2h.8c.6,0,1.19,0,1.79-.2,.6-.2,.99-.2,1.39-.4v-4.57h1.19v10.13h-1.19v-4.37c-.4,.2-.6,.4-.79,.4Z"/>
    <path d="M1527.69,231.85c-.59-.2-.99-.6-1.39-1.19-.4-.4-.6-.99-.8-1.79-.19-.6-.19-1.39-.19-1.99s0-1.39,.19-1.99c.2-.6,.4-1.19,.8-1.79,.4-.4,.8-.99,1.39-1.19,.6-.2,1.2-.4,2.19-.4,.8,0,1.59,.2,2.19,.4,.59,.4,.99,.79,1.39,1.19,.4,.6,.6,1.19,.8,1.79,.19,.6,.19,1.39,.19,2.18h-7.95c0,.4,0,.99,.2,1.39,.2,.4,.4,.99,.59,1.19,.2,.4,.6,.6,1,.99,.4,.2,.99,.4,1.59,.4,.99,0,1.59-.2,2.19-.79,.59-.4,.79-1.19,.99-1.99h1.2c-.2,1.19-.8,1.99-1.4,2.78-.79,.6-1.79,.99-2.98,.99-.8,.4-1.59,.2-2.19-.2Zm5.17-6.95c-.2-.4-.39-.79-.59-1.19-.2-.4-.6-.6-1-.79s-.79-.2-1.39-.2-.99,0-1.39,.2-.8,.4-1,.79c-.2,.4-.39,.79-.59,1.19-.2,.4-.2,.99-.4,1.39h6.56c0-.6,0-.99-.2-1.39Z"/>
    <path d="M1537.24,223.91c.2-.79,.8-1.19,1.39-1.59,.6-.4,1.39-.6,2.19-.6s1.39,.2,1.99,.4c.6,.2,.99,.6,1.39,1.19,.4,.4,.6,.99,.8,1.79,.2,.6,.2,1.39,.2,1.99s0,1.39-.2,1.99c-.2,.6-.4,1.19-.8,1.79-.4,.4-.79,.8-1.39,1.19-.6,.2-1.19,.4-1.99,.4-.4,0-.8,0-1.19-.2-.4,0-.8-.2-1-.4-.4-.2-.59-.4-.79-.6-.2-.2-.4-.6-.6-.99v5.76h-1.19v-13.91h1.19v1.79Zm5.17,6.95c.4-.2,.8-.6,1-.99,.19-.4,.39-.79,.59-1.39,.2-.6,.2-.99,.2-1.59s0-.99-.2-1.59c-.2-.6-.4-.99-.59-1.39-.2-.4-.6-.79-1-.99s-.99-.4-1.59-.4-1.19,.2-1.79,.4c-.4,.2-.8,.6-1.19,.99-.4,.4-.4,.79-.6,1.39-.2,.6-.2,.99-.2,1.59s0,.99,.2,1.59c.2,.6,.4,.99,.6,1.39,.2,.4,.59,.79,1.19,.99,.4,.2,.99,.4,1.59,.4,.8,0,1.39,0,1.79-.4Z"/>
    <path d="M1554.35,226.29v-4.37h1.19v10.13h-1.19v-4.77h-5.77v4.77h-1.2v-10.13h1.2v4.37h5.77Z"/>
    <path d="M1562.5,225.89c1,0,1.79,.2,2.39,.79,.59,.6,.79,1.19,.79,2.18s-.2,1.79-.79,2.19c-.6,.6-1.39,.79-2.39,.79h-4.57v-10.13h1.19v4.17h3.38Zm1.39,4.57c.4-.4,.6-.79,.6-1.59,0-.6-.2-1.19-.6-1.59-.39-.4-.99-.4-1.59-.4h-2.98v3.97h2.98c.6,.2,1.2,0,1.59-.4Zm3.78,1.59v-10.13h1.2v10.13h-1.2Z"/>
    <path d="M1578.22,221.92h1.59v10.13h-1.2v-8.74l-5.57,8.74h-1.59v-10.13h1.2v8.74l5.57-8.74Zm-4.78-2.18c-.4-.4-.79-.99-.79-1.99h.79c0,.4,.2,.79,.6,1.19,.4,.2,.79,.4,1.39,.4s.99-.2,1.39-.4c.4-.2,.6-.6,.6-1.19h.8c-.2,.79-.4,1.39-1,1.99-.4,.4-1.19,.6-1.99,.6-.6,0-1.19-.2-1.79-.6Z"/>
    <path d="M1926.9,89.21l-37.79-10.33,34.81-29.01c-121.33,6.16-111.19,147.42-103.43,217.15,7.76,69.93-37.4,56.62-37.4,56.62V51.46c0-4.57-115.17,1.99-116.36,0v17.28c-15.51-.99-107.21-2.78-96.27,86.82,10.74,86.62,79.56,83.05,95.28,81.06v10.93c-18.11-.99-106.02-.99-95.28,86.82,10.34,84.83,76.98,83.24,94.28,81.26l-.2,22.05h121.74l-1.6-52.25c21.88,.99,38.79-4.37,51.92-12.91,33.02-21.86,37.39-70.53,33.02-98.94-1.99-13.11-5.57-20.07-8.16-42.71-.99-8.54-.59-24.44-1.39-43.51-3.98-97.95,66.83-98.15,66.83-98.15Zm-335.95,64.97c-1.99-58.81,62.25-61.19,75.58-60.99l-.6,119.21c-14.32,.6-73-.6-74.98-58.21Zm0,178.81c-1.99-57.42,59.27-60.99,74.59-60.99l-.6,119.2c-15.71,.6-72.01-1.79-73.99-58.21Z"/>
  </g>
  <rect x="1970.27" y="0" width="16" height="480"/>
</svg>