<svg width="178" height="222" viewBox="0 0 178 222" fill="none" xmlns="http://www.w3.org/2000/svg">
<path d="M99.9236 86.6668L99.6241 87.4155L87.6453 111.373C87.6453 111.373 85.0998 119.459 78.5115 119.159C71.9232 118.86 58.7465 123.651 58.7465 123.651C58.7465 123.651 33.8905 135.331 32.2434 136.229C30.5963 136.978 28.9492 138.625 24.3074 134.732C19.6656 130.839 15.6228 137.876 16.072 138.176C16.6709 138.475 14.2752 144.614 12.1789 145.962C10.0826 147.16 4.39267 153.748 4.39267 153.748C4.39267 153.748 -0.54858 157.042 0.0503598 158.839C0.6493 160.636 2.59585 160.037 3.79373 159.139C4.99161 158.39 19.3662 154.048 19.3662 154.048L41.2275 144.315C41.2275 144.315 89.2924 133.384 91.3887 133.384C94.3834 133.234 98.1268 128.742 98.1268 128.742L121.336 96.1001L111.603 84.2711" fill="#D4F570"/>
<path d="M111.154 87.5652L137.657 89.362L129.721 122.453L130.02 127.994C130.02 127.994 105.164 175.609 105.464 184.893C105.763 194.177 102.619 218.434 102.619 218.434C102.619 218.434 103.218 220.68 103.817 220.979C104.416 221.279 103.517 222.926 101.271 221.279C99.0251 219.482 94.9823 215.439 96.4796 207.802C96.4796 207.802 94.2336 199.567 91.9876 198.669C89.7415 197.77 85.6987 192.679 90.64 188.337C95.4315 184.144 97.5278 178.305 97.5278 178.305C97.5278 178.305 102.319 140.871 113.4 126.496C113.4 126.496 111.753 95.8007 111.603 86.8166" fill="#D4F570"/>
<path d="M161.914 82.9235C162.513 76.0356 174.342 25.4252 174.342 25.4252C174.342 25.4252 180.93 19.4358 175.69 16.4411C163.112 9.40359 88.9932 -6.76779 86.8969 3.11472C86.7472 3.56392 88.2445 8.50518 88.2445 8.50518L88.0948 12.2486C84.2017 12.0988 77.9128 12.0988 71.025 15.0935C67.8806 16.4411 59.9446 19.885 55.1531 28.5697C54.4044 29.9173 48.415 41.2971 53.9552 53.5754C58.1478 63.0087 67.5811 69.4473 78.362 70.196L78.9609 70.3457L78.6615 72.2923C78.6615 72.2923 76.7149 78.4314 91.6884 84.7203C106.662 91.0091 144.994 96.6991 150.684 94.0038C156.374 91.1589 161.315 89.961 161.914 82.9235ZM73.5705 60.6129C71.9234 60.014 65.6345 57.4685 62.3404 51.3294C58.4472 44.2918 59.7949 34.5591 65.7843 27.9707C71.025 22.2808 78.9609 20.0348 86.5974 21.8316L80.1588 62.1103C78.6615 61.9606 76.2657 61.6611 73.5705 60.6129Z" fill="#DF45A7"/>
<path d="M93.0356 4.01318C93.0356 4.01318 135.111 4.76186 173.294 19.8851C173.144 19.8851 129.87 16.2915 93.0356 4.01318Z" fill="black"/>
</svg>
