<svg width="149" height="185" viewBox="0 0 149 185" fill="none" xmlns="http://www.w3.org/2000/svg">
<path d="M83.7783 72.4199L83.5272 73.0373L73.4839 92.7947C73.4839 92.7947 71.3497 99.4628 65.8259 99.2159C60.3021 98.9689 49.2544 102.92 49.2544 102.92C49.2544 102.92 28.4146 112.552 27.0336 113.293C25.6527 113.91 24.2717 115.269 20.3799 112.058C16.4881 108.848 13.0985 114.651 13.4751 114.898C13.9773 115.145 11.9687 120.208 10.2111 121.319C8.45349 122.307 3.68292 127.741 3.68292 127.741C3.68292 127.741 -0.459942 130.457 0.0422229 131.939C0.544388 133.421 2.17643 132.927 3.18076 132.186C4.18509 131.569 16.2371 127.988 16.2371 127.988L34.5661 119.961C34.5661 119.961 74.8649 110.947 76.6224 110.947C79.1333 110.823 82.2718 107.119 82.2718 107.119L101.731 80.1994L93.5705 70.4442" fill="#D4F570"/>
<path d="M93.1939 73.1608L115.415 74.6426L108.761 101.932L109.012 106.501C109.012 106.501 88.1722 145.769 88.4233 153.425C88.6744 161.081 86.038 181.086 86.038 181.086C86.038 181.086 86.5402 182.938 87.0424 183.185C87.5445 183.432 86.7913 184.79 84.9082 183.432C83.025 181.95 79.6354 178.616 80.8908 172.318C80.8908 172.318 79.0077 165.527 77.1246 164.786C75.2415 164.045 71.8519 159.846 75.9947 156.265C80.012 152.808 81.7696 147.992 81.7696 147.992C81.7696 147.992 85.7869 117.121 95.077 105.267C95.077 105.267 93.6961 79.9524 93.5705 72.5433" fill="#D4F570"/>
<path d="M135.753 69.3328C136.255 63.6525 146.172 21.915 146.172 21.915C146.172 21.915 151.696 16.9756 147.302 14.506C136.757 8.70224 74.6139 -4.63401 72.8564 3.51592C72.7308 3.88637 73.9862 7.96133 73.9862 7.96133L73.8607 11.0484C70.5966 10.9249 65.3239 10.9249 59.549 13.3946C56.9126 14.506 50.2589 17.3461 46.2416 24.5082C45.6139 25.6195 40.5922 35.0043 45.2373 45.1299C48.7524 52.9094 56.6615 58.2192 65.7005 58.8366L66.2027 58.9601L65.9516 60.5654C65.9516 60.5654 64.3195 65.6282 76.8737 70.8146C89.4278 76.0009 121.566 80.6933 126.337 78.4706C131.108 76.1244 135.25 75.1365 135.753 69.3328ZM61.6832 50.9337C60.3022 50.4397 55.0295 48.3405 52.2676 43.2777C49.0035 37.4739 50.1334 29.4475 55.155 24.0142C59.549 19.3218 66.2027 17.4696 72.6053 18.9514L67.207 52.1685C65.9516 52.045 63.9429 51.7981 61.6832 50.9337Z" fill="#DF45A7"/>
<path d="M78.0032 4.25684C78.0032 4.25684 113.28 4.87425 145.293 17.3461C145.168 17.3461 108.886 14.3825 78.0032 4.25684Z" fill="black"/>
</svg>
