<svg width="70" height="87" viewBox="0 0 70 87" fill="none" xmlns="http://www.w3.org/2000/svg">
<path d="M39.0987 33.9114L38.9815 34.2044L34.2944 43.5787C34.2944 43.5787 33.2984 46.7425 30.7205 46.6253C28.1425 46.5081 22.9867 48.383 22.9867 48.383C22.9867 48.383 13.2609 52.9529 12.6164 53.3045C11.9719 53.5974 11.3274 54.2419 9.51116 52.7186C7.69489 51.1952 6.11298 53.9489 6.28875 54.0661C6.52311 54.1833 5.58568 56.5855 4.76543 57.1128C3.94518 57.5815 1.71879 60.1594 1.71879 60.1594C1.71879 60.1594 -0.214652 61.4484 0.0197051 62.1514C0.254062 62.8545 1.01572 62.6201 1.48444 62.2686C1.95315 61.9757 7.57771 60.2766 7.57771 60.2766L16.1317 56.4683C16.1317 56.4683 34.9389 52.1913 35.7591 52.1913C36.9309 52.1327 38.3956 50.375 38.3956 50.375L47.477 37.6025L43.6687 32.974" fill="#D4F570"/>
<path d="M43.4928 34.2629L53.8631 34.966L50.7579 47.9142L50.8751 50.082C50.8751 50.082 41.1493 68.7134 41.2665 72.3459C41.3836 75.9784 40.1533 85.4699 40.1533 85.4699C40.1533 85.4699 40.3876 86.3487 40.622 86.4659C40.8563 86.5831 40.5048 87.2276 39.626 86.5831C38.7471 85.88 37.1652 84.2981 37.7511 81.3101C37.7511 81.3101 36.8723 78.0877 35.9934 77.7361C35.1146 77.3846 33.5327 75.3925 35.4661 73.6935C37.341 72.053 38.1612 69.768 38.1612 69.768C38.1612 69.768 40.0361 55.1207 44.3717 49.4961C44.3717 49.4961 43.7272 37.4853 43.6686 33.97" fill="#D4F570"/>
<path d="M63.3549 32.4468C63.5892 29.7517 68.2178 9.94854 68.2178 9.94854C68.2178 9.94854 70.7957 7.60497 68.7451 6.43319C63.8236 3.67949 34.8219 -2.64814 34.0017 1.21875C33.9431 1.39451 34.529 3.32796 34.529 3.32796L34.4704 4.79269C32.9471 4.7341 30.4863 4.7341 27.7912 5.90588C26.5608 6.43319 23.4556 7.78074 21.5807 11.1789C21.2878 11.7062 18.9442 16.159 21.112 20.9633C22.7525 24.6544 26.4436 27.1738 30.6621 27.4667L30.8964 27.5253L30.7793 28.287C30.7793 28.287 30.0176 30.6891 35.8765 33.1499C41.7354 35.6106 56.7343 37.837 58.9607 36.7824C61.1871 35.6692 63.1205 35.2005 63.3549 32.4468ZM28.7872 23.717C28.1427 23.4827 25.682 22.4866 24.393 20.0845C22.8697 17.3308 23.397 13.5225 25.7406 10.9446C27.7912 8.71817 30.8964 7.83933 33.8845 8.5424L31.3651 24.3029C30.7793 24.2443 29.8418 24.1271 28.7872 23.717Z" fill="#DF45A7"/>
<path d="M36.4035 1.57031C36.4035 1.57031 52.8671 1.86326 67.8073 7.78077C67.7487 7.78077 50.8165 6.37463 36.4035 1.57031Z" fill="black"/>
</svg>
