<svg width="321" height="401" viewBox="0 0 321 401" fill="none" xmlns="http://www.w3.org/2000/svg">
<path d="M180.258 157.136L179.718 158.485L158.133 201.655C158.133 201.655 153.546 216.225 141.674 215.686C129.802 215.146 106.059 223.78 106.059 223.78C106.059 223.78 61.2692 244.826 58.3013 246.445C55.3333 247.794 52.3653 250.762 44.001 243.747C35.6368 236.731 28.3517 249.413 29.1612 249.952C30.2405 250.492 25.9234 261.554 22.146 263.983C18.3686 266.141 8.11559 278.013 8.11559 278.013C8.11559 278.013 -0.78832 283.949 0.290941 287.187C1.3702 290.425 4.8778 289.345 7.03633 287.727C9.19485 286.377 35.0971 278.553 35.0971 278.553L74.4902 261.015C74.4902 261.015 161.101 241.318 164.878 241.318C170.275 241.048 177.02 232.954 177.02 232.954L218.841 174.134L201.303 152.819" fill="#D4F570"/>
<path d="M200.494 158.755L248.252 161.993L233.951 221.622L234.491 231.605C234.491 231.605 189.702 317.406 190.241 334.135C190.781 350.863 185.115 394.574 185.115 394.574C185.115 394.574 186.194 398.621 187.273 399.16C188.353 399.7 186.734 402.668 182.687 399.7C178.639 396.462 171.354 389.177 174.052 375.417C174.052 375.417 170.005 360.577 165.958 358.958C161.911 357.339 154.626 348.165 163.53 340.341C172.164 332.786 175.941 322.263 175.941 322.263C175.941 322.263 184.575 254.809 204.542 228.907C204.542 228.907 201.574 173.595 201.304 157.406" fill="#D4F570"/>
<path d="M291.961 150.391C293.041 137.979 314.356 46.7814 314.356 46.7814C314.356 46.7814 326.228 35.9888 316.784 30.5925C294.12 17.9111 160.561 -11.2289 156.784 6.57889C156.514 7.38834 159.212 16.2922 159.212 16.2922L158.942 23.0376C151.927 22.7678 140.595 22.7678 128.183 28.1641C122.517 30.5925 108.217 36.7982 99.583 52.4475C98.2339 54.8759 87.4413 75.3818 97.4244 97.5067C104.979 114.505 121.978 126.107 141.404 127.456L142.484 127.726L141.944 131.234C141.944 131.234 138.436 142.296 165.418 153.628C192.399 164.961 261.472 175.214 271.725 170.357C281.978 165.23 290.882 163.072 291.961 150.391ZM132.77 110.188C129.802 109.109 118.47 104.522 112.534 93.4595C105.519 80.7781 107.947 63.2401 118.74 51.3683C128.183 41.1153 142.484 37.068 156.244 40.3058L144.642 112.886C141.944 112.616 137.627 112.077 132.77 110.188Z" fill="#DF45A7"/>
<path d="M167.846 8.19778C167.846 8.19778 243.664 9.54686 312.467 36.7982C312.197 36.7982 234.221 30.3227 167.846 8.19778Z" fill="black"/>
</svg>
