<svg width="358" height="349" viewBox="0 0 358 349" fill="none" xmlns="http://www.w3.org/2000/svg">
<path d="M160.636 138.354L161.625 139.343L194.009 169.255C194.009 169.255 202.662 180.38 212.55 175.93C222.438 171.48 245.676 171.233 245.676 171.233C245.676 171.233 290.915 174.694 294.128 174.941C297.342 175.188 300.556 176.672 305.5 168.019C310.197 159.367 320.827 167.772 320.332 168.514C319.591 169.255 326.76 177.413 330.962 178.155C334.918 178.896 347.525 185.571 347.525 185.571C347.525 185.571 357.166 187.796 357.166 191.01C357.166 193.976 353.953 194.223 351.728 193.729C349.503 193.234 324.782 194.965 324.782 194.965L285.229 192.987C285.229 192.987 204.639 204.359 201.426 205.595C196.729 207.078 188.324 202.381 188.324 202.381L132.949 165.3L141.107 141.321" fill="#DF45A7"/>
<path d="M143.827 146.265L104.026 164.558L135.669 210.786L138.388 219.438C138.388 219.438 204.887 278.274 209.831 292.859C214.775 307.197 234.057 342.795 234.057 342.795C234.057 342.795 234.552 346.75 233.81 347.492C233.069 348.234 235.294 350.458 237.766 346.256C240.238 342.301 243.946 333.401 237.271 322.524C237.271 322.524 236.035 308.433 238.754 305.714C241.474 302.995 244.687 292.612 234.799 288.904C224.911 285.196 218.236 277.532 218.236 277.532C218.236 277.532 189.066 223.147 163.356 207.573C163.356 207.573 147.782 159.367 142.591 145.523" fill="#DF45A7"/>
<path d="M62.9897 169.008C58.0456 158.625 10.0873 87.6769 10.0873 87.6769C10.0873 87.6769 -3.75628 82.2383 2.67111 74.5749C17.998 56.2815 122.814 -12.1949 131.961 1.8959C132.455 2.63752 132.949 11.0426 132.949 11.0426L135.422 16.7283C141.107 14.0091 150.996 10.5482 163.356 10.7954C169.042 11.0426 183.38 11.537 195.74 22.1669C197.718 23.8974 213.539 37.9882 212.303 59.9896C211.314 77.047 200.437 92.3738 184.369 100.037L183.627 100.532L185.357 103.498C185.357 103.498 192.032 111.903 172.75 130.197C153.22 148.49 97.3516 180.132 86.9688 179.391C76.3389 178.402 67.9339 179.391 62.9897 169.008ZM185.852 82.7327C188.077 81.0023 196.235 73.0916 197.718 61.7201C199.448 48.6181 191.785 34.2801 178.683 27.6055C167.311 21.9197 153.715 23.1557 143.085 30.3248L176.705 88.6657C178.93 87.6769 182.391 85.6992 185.852 82.7327Z" fill="#D4F570"/>
<path d="M122.567 6.59286C122.567 6.59286 58.046 32.5496 8.11011 78.283C8.35731 78.283 73.1257 47.3821 122.567 6.59286Z" fill="black"/>
</svg>
