<svg width="170" height="166" viewBox="0 0 170 166" fill="none" xmlns="http://www.w3.org/2000/svg">
<path d="M76.2036 65.8555L76.6755 66.3262L92.1313 80.5641C92.1313 80.5641 96.2607 85.8592 100.98 83.7412C105.699 81.6231 116.79 81.5055 116.79 81.5055C116.79 81.5055 138.381 83.1528 139.914 83.2705C141.448 83.3882 142.982 84.0942 145.342 79.9758C147.583 75.8574 152.656 79.8581 152.421 80.2111C152.067 80.5641 155.488 84.4472 157.494 84.8002C159.382 85.1532 165.399 88.3302 165.399 88.3302C165.399 88.3302 170 89.3893 170 90.919C170 92.331 168.466 92.4486 167.404 92.2133C166.343 91.978 154.544 92.8017 154.544 92.8017L135.667 91.8603C135.667 91.8603 97.2045 97.2731 95.6707 97.8614C93.4291 98.5674 89.4177 96.3317 89.4177 96.3317L62.9895 78.6814L66.8829 67.2676" fill="#DF45A7"/>
<path d="M68.1808 69.6209L49.1855 78.3284L64.2874 100.332L65.5852 104.451C65.5852 104.451 97.3226 132.456 99.6822 139.398C102.042 146.223 111.245 163.168 111.245 163.168C111.245 163.168 111.481 165.05 111.127 165.403C110.773 165.756 111.834 166.815 113.014 164.815C114.194 162.932 115.964 158.696 112.778 153.519C112.778 153.519 112.188 146.812 113.486 145.517C114.784 144.223 116.318 139.281 111.599 137.516C106.879 135.751 103.694 132.103 103.694 132.103C103.694 132.103 89.7717 106.216 77.5014 98.8028C77.5014 98.8028 70.0685 75.8574 67.5909 69.2679" fill="#DF45A7"/>
<path d="M29.6003 80.4465C27.2407 75.5044 4.35196 41.7335 4.35196 41.7335C4.35196 41.7335 -2.25508 39.1448 0.812474 35.497C8.12742 26.7895 58.1522 -5.80468 62.5176 0.90243C62.7535 1.25544 62.9895 5.25617 62.9895 5.25617L64.1693 7.96255C66.8829 6.6682 71.6022 5.02083 77.5014 5.1385C80.215 5.25617 87.058 5.49151 92.9572 10.5513C93.901 11.3749 101.452 18.0821 100.862 28.5546C100.39 36.6737 95.1988 43.9692 87.5299 47.6169L87.176 47.8522L88.0019 49.2643C88.0019 49.2643 91.1874 53.265 81.9847 61.9725C72.6641 70.68 45.9999 85.7415 41.0447 85.3885C35.9714 84.9179 31.96 85.3885 29.6003 80.4465ZM88.2378 39.3801C89.2997 38.5564 93.1931 34.791 93.901 29.3782C94.7269 23.1418 91.0694 16.317 84.8163 13.14C79.3891 10.4336 72.9001 11.0219 67.8268 14.4343L83.8725 42.2041C84.9343 41.7335 86.5861 40.7921 88.2378 39.3801Z" fill="#D4F570"/>
<path d="M58.0341 3.13824C58.0341 3.13824 27.2406 15.4935 3.40802 37.2622C3.526 37.2622 34.4375 22.5536 58.0341 3.13824Z" fill="black"/>
</svg>
