<svg width="84" height="82" viewBox="0 0 84 82" fill="none" xmlns="http://www.w3.org/2000/svg">
<path d="M37.6078 32.5311L37.8403 32.7636L45.4547 39.7968C45.4547 39.7968 47.4891 42.4125 49.8141 41.3662C52.1391 40.3199 57.6029 40.2618 57.6029 40.2618C57.6029 40.2618 68.2399 41.0756 68.9955 41.1337C69.7512 41.1918 70.5068 41.5406 71.6693 39.5062C72.7737 37.4718 75.2731 39.4481 75.1568 39.6224C74.9825 39.7968 76.6681 41.715 77.6562 41.8893C78.5862 42.0637 81.5506 43.6331 81.5506 43.6331C81.5506 43.6331 83.8175 44.1562 83.8175 44.9119C83.8175 45.6094 83.0619 45.6675 82.5388 45.5512C82.0156 45.435 76.2031 45.8419 76.2031 45.8419L66.903 45.3769C66.903 45.3769 47.9541 48.0506 47.1985 48.3413C46.0941 48.69 44.1178 47.5856 44.1178 47.5856L31.0977 38.8668L33.0159 33.2286" fill="#DF45A7"/>
<path d="M33.6552 34.3911L24.297 38.6923L31.7371 49.5618L32.3764 51.5962C32.3764 51.5962 48.0122 65.4301 49.1747 68.8595C50.3372 72.2307 54.871 80.6008 54.871 80.6008C54.871 80.6008 54.9873 81.5308 54.8129 81.7052C54.6385 81.8796 55.1616 82.4027 55.7429 81.4146C56.3241 80.4846 57.196 78.392 55.6266 75.8345C55.6266 75.8345 55.336 72.5214 55.9754 71.882C56.6148 71.2426 57.3704 68.8013 55.0454 67.9295C52.7204 67.0576 51.151 65.2557 51.151 65.2557C51.151 65.2557 44.2922 52.4681 38.2471 48.8062C38.2471 48.8062 34.5852 37.4717 33.3646 34.2167" fill="#DF45A7"/>
<path d="M14.6482 39.7386C13.4857 37.2973 2.20935 20.6153 2.20935 20.6153C2.20935 20.6153 -1.04568 19.3366 0.465581 17.5347C4.06936 13.2334 28.7146 -2.86737 30.8652 0.445779C30.9815 0.620155 31.0977 2.59642 31.0977 2.59642L31.679 3.93331C33.0159 3.29393 35.3409 2.48017 38.2472 2.5383C39.584 2.59642 42.9553 2.71267 45.8616 5.21207C46.3266 5.61895 50.0466 8.9321 49.756 14.1053C49.5235 18.1159 46.966 21.7197 43.1878 23.5216L43.0134 23.6379L43.4203 24.3354C43.4203 24.3354 44.9897 26.3116 40.4559 30.6129C35.864 34.9142 22.7276 42.3543 20.2864 42.1799C17.787 41.9474 15.8107 42.1799 14.6482 39.7386ZM43.5366 19.4528C44.0597 19.0459 45.9778 17.1859 46.3266 14.5122C46.7335 11.4315 44.9316 8.06022 41.8509 6.49083C39.1772 5.15394 35.9803 5.44457 33.4809 7.13021L41.3859 20.8478C41.9091 20.6153 42.7228 20.1503 43.5366 19.4528Z" fill="#D4F570"/>
<path d="M28.6563 1.55029C28.6563 1.55029 13.4856 7.65347 1.7442 18.4067C1.80233 18.4067 17.0312 11.141 28.6563 1.55029Z" fill="black"/>
</svg>
