<svg width="233" height="228" viewBox="0 0 233 228" fill="none" xmlns="http://www.w3.org/2000/svg">
<path d="M104.04 90.1523L104.685 90.7966L125.786 110.287C125.786 110.287 131.424 117.536 137.867 114.637C144.311 111.737 159.452 111.576 159.452 111.576C159.452 111.576 188.93 113.831 191.024 113.992C193.118 114.153 195.212 115.12 198.434 109.482C201.494 103.844 208.421 109.321 208.099 109.804C207.616 110.287 212.287 115.603 215.025 116.086C217.603 116.57 225.818 120.919 225.818 120.919C225.818 120.919 232.1 122.369 232.1 124.463C232.1 126.396 230.006 126.557 228.556 126.235C227.106 125.912 210.998 127.04 210.998 127.04L185.225 125.751C185.225 125.751 132.713 133.161 130.619 133.966C127.558 134.933 122.081 131.872 122.081 131.872L85.9991 107.71L91.3148 92.0853" fill="#DF45A7"/>
<path d="M93.0868 95.3069L67.1526 107.227L87.7711 137.349L89.543 142.987C89.543 142.987 132.874 181.324 136.095 190.828C139.317 200.171 151.881 223.367 151.881 223.367C151.881 223.367 152.204 225.944 151.72 226.427C151.237 226.91 152.687 228.36 154.298 225.622C155.909 223.044 158.325 217.246 153.976 210.158C153.976 210.158 153.17 200.976 154.942 199.204C156.714 197.433 158.808 190.667 152.365 188.251C145.921 185.835 141.572 180.841 141.572 180.841C141.572 180.841 122.565 145.403 105.812 135.255C105.812 135.255 95.6641 103.844 92.2813 94.8237" fill="#DF45A7"/>
<path d="M40.4131 110.126C37.1915 103.361 5.94171 57.1306 5.94171 57.1306C5.94171 57.1306 -3.07885 53.5868 1.10927 48.5933C11.0963 36.6733 79.3948 -7.94627 85.3548 1.23537C85.677 1.71862 85.9992 7.19538 85.9992 7.19538L87.61 10.9003C91.3148 9.12836 97.7581 6.87322 105.812 7.0343C109.517 7.19538 118.86 7.51755 126.914 14.444C128.202 15.5716 138.512 24.7533 137.706 39.0895C137.062 50.2041 129.974 60.1912 119.504 65.1847L119.021 65.5069L120.148 67.4398C120.148 67.4398 124.498 72.9166 111.933 84.8366C99.2078 96.7566 62.8034 117.375 56.038 116.892C49.1115 116.247 43.6348 116.892 40.4131 110.126ZM120.471 53.909C121.92 52.7814 127.236 47.6268 128.202 40.2171C129.33 31.6798 124.337 22.337 115.799 17.9878C108.389 14.283 99.53 15.0884 92.6035 19.7597L114.511 57.7749C115.96 57.1306 118.215 55.842 120.471 53.909Z" fill="#D4F570"/>
<path d="M79.2337 4.29596C79.2337 4.29596 37.1915 21.2095 4.65303 51.0096C4.81411 51.0096 47.0174 30.8744 79.2337 4.29596Z" fill="black"/>
</svg>
