<svg width="214" height="208" viewBox="0 0 214 208" fill="none" xmlns="http://www.w3.org/2000/svg">
<path d="M84.1901 114.736L84.7815 114.145L104.151 96.1063C104.151 96.1063 111.1 91.3749 109.03 85.3128C106.812 79.2508 107.699 65.3523 107.699 65.3523C107.699 65.3523 111.839 38.5904 112.135 36.6683C112.431 34.894 113.466 32.824 108.586 29.5712C103.707 26.3183 109.178 20.4041 109.621 20.8477C110.065 21.2912 115.24 17.447 115.831 14.9334C116.423 12.5678 121.006 5.32281 121.006 5.32281C121.006 5.32281 122.633 0 124.407 0C126.181 0 126.181 2.06998 125.738 3.40069C125.294 4.73139 125.146 19.517 125.146 19.517L122.041 43.0261C122.041 43.0261 125.146 91.6707 125.738 93.5928C126.329 96.402 123.224 101.281 123.224 101.281L98.8278 132.331L84.9293 126.417" fill="#DF45A7"/>
<path d="M88.1821 125.086L97.2013 149.63L126.329 132.922L131.652 131.74C131.652 131.74 169.799 94.9235 178.67 92.5578C187.541 90.34 209.572 80.4336 209.572 80.4336C209.572 80.4336 211.938 80.4336 212.381 80.8772C212.825 81.3208 214.155 80.1379 211.938 78.3636C209.572 76.7372 204.693 74.0758 197.743 77.6244C197.743 77.6244 189.316 77.7722 187.837 75.998C186.358 74.2237 180.296 71.858 177.635 77.6244C174.974 83.3907 170.094 86.9393 170.094 86.9393C170.094 86.9393 136.087 101.725 125.59 116.215C125.59 116.215 96.0185 123.164 87.5907 125.678" fill="#DF45A7"/>
<path d="M97.9406 174.322C91.4349 176.836 46.9303 202.119 46.9303 202.119C46.9303 202.119 43.0861 210.103 38.7983 205.963C28.5962 195.909 -7.48064 130.261 1.39071 125.53C1.83428 125.382 6.86138 125.382 6.86138 125.382L10.4099 124.199C9.07922 120.65 7.4528 114.588 8.19208 107.343C8.63565 103.943 9.52279 95.5149 16.472 88.5657C17.6549 87.5307 26.6741 78.6593 39.8332 80.4336C50.0353 81.7643 58.6109 89.0093 62.3073 98.9156L62.603 99.3592L64.3773 98.472C64.3773 98.472 69.7001 94.9235 79.7543 107.343C89.8085 119.763 106.073 154.362 105.038 160.719C104.151 166.781 104.298 171.956 97.9406 174.322ZM52.1053 96.9935C51.0703 95.6628 46.9303 90.34 40.129 88.8614C32.4404 87.235 23.4212 91.0792 18.9856 98.6199C15.1413 105.126 15.1413 113.258 18.9856 120.059L55.3581 102.76C54.7667 101.429 53.7317 99.2113 52.1053 96.9935Z" fill="#5B927F"/>
<path d="M3.90424 131.296C3.90424 131.296 16.472 170.921 41.3118 202.858C41.3118 202.71 25.7869 162.641 3.90424 131.296Z" fill="black"/>
</svg>
