<svg width="85" height="82" viewBox="0 0 85 82" fill="none" xmlns="http://www.w3.org/2000/svg">
<path d="M33.7681 44.9772L33.9995 44.7458L41.5784 37.6876C41.5784 37.6876 44.2975 35.8363 43.4875 33.4643C42.6197 31.0922 42.9668 25.654 42.9668 25.654C42.9668 25.654 44.5868 15.1824 44.7025 14.4303C44.8182 13.7361 45.2232 12.9261 43.314 11.6533C41.4048 10.3805 43.5454 8.06637 43.7189 8.23993C43.8925 8.41349 45.9174 6.90929 46.1488 5.92577C46.3802 5.00011 48.1737 2.16526 48.1737 2.16526C48.1737 2.16526 48.8101 0.0825195 49.5043 0.0825195C50.1986 0.0825195 50.1986 0.892475 50.025 1.41316C49.8515 1.93385 49.7936 7.71924 49.7936 7.71924L48.5787 16.918C48.5787 16.918 49.7936 35.952 50.025 36.7041C50.2564 37.8033 49.0415 39.7125 49.0415 39.7125L39.4956 51.8618L34.0573 49.5477" fill="#DF45A7"/>
<path d="M35.3301 49.0271L38.8592 58.6309L50.2564 52.0934L52.3392 51.6306C52.3392 51.6306 67.2655 37.2249 70.7367 36.2993C74.208 35.4315 82.8282 31.5552 82.8282 31.5552C82.8282 31.5552 83.7539 31.5552 83.9274 31.7288C84.101 31.9024 84.6217 31.4395 83.7539 30.7453C82.8282 30.1089 80.919 29.0675 78.1999 30.456C78.1999 30.456 74.9022 30.5139 74.3237 29.8196C73.7451 29.1254 71.3731 28.1997 70.3318 30.456C69.2904 32.7123 67.3812 34.1008 67.3812 34.1008C67.3812 34.1008 54.0748 39.8862 49.9672 45.5559C49.9672 45.5559 38.3964 48.275 35.0987 49.2586" fill="#DF45A7"/>
<path d="M39.1485 68.2923C36.6029 69.2758 19.1889 79.1688 19.1889 79.1688C19.1889 79.1688 17.6847 82.2929 16.0069 80.673C12.015 76.7389 -2.10139 51.0518 1.36985 49.2005C1.54341 49.1426 3.51045 49.1426 3.51045 49.1426L4.89894 48.6798C4.37826 47.2913 3.74186 44.9193 4.03113 42.0844C4.20469 40.7538 4.55182 37.4561 7.27095 34.737C7.73379 34.332 11.2629 30.8608 16.4119 31.555C20.4038 32.0757 23.7593 34.9105 25.2057 38.7867L25.3214 38.9603L26.0156 38.6132C26.0156 38.6132 28.0984 37.2247 32.0324 42.0844C35.9665 46.9442 42.3305 60.482 41.9255 62.9697C41.5784 65.3417 41.6362 67.3666 39.1485 68.2923ZM21.2138 38.0346C20.8088 37.514 19.1889 35.4312 16.5276 34.8527C13.5192 34.2163 9.99009 35.7205 8.25447 38.671C6.75027 41.2166 6.75027 44.3986 8.25447 47.0599L22.4865 40.2909C22.2551 39.7703 21.8502 38.9025 21.2138 38.0346Z" fill="#5B927F"/>
<path d="M2.35333 51.4568C2.35333 51.4568 7.27092 66.9617 16.9904 79.4582C16.9904 79.4003 10.9157 63.7219 2.35333 51.4568Z" fill="black"/>
</svg>
