<svg width="378" height="367" viewBox="0 0 378 367" fill="none" xmlns="http://www.w3.org/2000/svg">
<path d="M148.899 202.924L149.945 201.878L184.202 169.975C184.202 169.975 196.493 161.607 192.832 150.886C188.909 140.164 190.478 115.583 190.478 115.583C190.478 115.583 197.8 68.2517 198.323 64.8522C198.846 61.7141 200.677 58.0531 192.047 52.3001C183.417 46.5471 193.093 36.0871 193.878 36.8716C194.662 37.6561 203.815 30.8571 204.861 26.4116C205.907 22.2276 214.013 9.41402 214.013 9.41402C214.013 9.41402 216.89 0 220.028 0C223.166 0 223.166 3.66101 222.381 6.01451C221.597 8.36802 221.335 34.5181 221.335 34.5181L215.844 76.0967C215.844 76.0967 221.335 162.13 222.381 165.53C223.427 170.498 217.936 179.128 217.936 179.128L174.788 234.043L150.207 223.583" fill="#DF45A7"/>
<path d="M155.961 221.229L171.913 264.639L223.428 235.089L232.842 232.997C232.842 232.997 300.309 167.883 315.999 163.699C331.689 159.777 370.653 142.256 370.653 142.256C370.653 142.256 374.837 142.256 375.622 143.041C376.406 143.825 378.76 141.733 374.837 138.595C370.653 135.719 362.023 131.012 349.733 137.288C349.733 137.288 334.827 137.549 332.212 134.411C329.597 131.273 318.876 127.089 314.169 137.288C309.462 147.486 300.832 153.762 300.832 153.762C300.832 153.762 240.687 179.912 222.121 205.539C222.121 205.539 169.821 217.83 154.915 222.276" fill="#DF45A7"/>
<path d="M173.22 308.309C161.713 312.755 83.0018 357.471 83.0018 357.471C83.0018 357.471 76.2028 371.592 68.6193 364.27C50.5757 346.488 -13.2304 230.382 2.45964 222.014C3.24414 221.752 12.1352 221.752 12.1352 221.752L18.4112 219.66C16.0577 213.384 13.1812 202.663 14.4887 189.849C15.2732 183.835 16.8422 168.929 29.1327 156.639C31.2247 154.808 47.1762 139.118 70.4498 142.256C88.4933 144.61 103.66 157.423 110.198 174.944L110.721 175.728L113.859 174.159C113.859 174.159 123.273 167.883 141.055 189.849C158.837 211.815 187.602 273.007 185.772 284.251C184.203 294.973 184.464 304.125 173.22 308.309ZM92.1543 171.544C90.3238 169.191 83.0018 159.777 70.9728 157.162C57.3748 154.285 41.4232 161.084 33.5782 174.421C26.7792 185.927 26.7792 200.309 33.5782 212.338L97.9074 181.743C96.8614 179.389 95.0308 175.467 92.1543 171.544Z" fill="#5B927F"/>
<path d="M6.90503 232.213C6.90503 232.213 29.1326 302.295 73.0647 358.779C73.0647 358.517 45.6071 287.651 6.90503 232.213Z" fill="black"/>
</svg>
