<svg width="191" height="186" viewBox="0 0 191 186" fill="none" xmlns="http://www.w3.org/2000/svg">
<path d="M75.4296 103.017L75.9594 102.487L93.3131 86.3259C93.3131 86.3259 99.5392 82.0869 97.6846 76.6556C95.6976 71.2243 96.4924 58.7721 96.4924 58.7721C96.4924 58.7721 100.202 34.7949 100.467 33.0727C100.731 31.4831 101.659 29.6285 97.2872 26.7142C92.9157 23.7998 97.8171 18.501 98.2145 18.8984C98.6119 19.2958 103.248 15.8516 103.778 13.5996C104.308 11.48 108.415 4.98897 108.415 4.98897C108.415 4.98897 109.872 0.220032 111.462 0.220032C113.051 0.220032 113.051 2.07462 112.654 3.26686C112.256 4.45909 112.124 17.7062 112.124 17.7062L109.342 38.769C109.342 38.769 112.124 82.3518 112.654 84.0739C113.184 86.5909 110.402 90.9624 110.402 90.9624L88.5442 118.781L76.0919 113.482" fill="#DF45A7"/>
<path d="M79.0063 112.29L87.087 134.28L113.184 119.311L117.953 118.251C117.953 118.251 152.13 85.2662 160.078 83.1467C168.027 81.1596 187.765 72.2841 187.765 72.2841C187.765 72.2841 189.884 72.2841 190.282 72.6815C190.679 73.0789 191.871 72.0192 189.884 70.4295C187.765 68.9723 183.393 66.5879 177.167 69.7672C177.167 69.7672 169.616 69.8996 168.292 68.31C166.967 66.7203 161.536 64.6008 159.151 69.7672C156.767 74.9335 152.395 78.1128 152.395 78.1128C152.395 78.1128 121.927 91.3599 112.521 104.342C112.521 104.342 86.0273 110.568 78.4764 112.82" fill="#DF45A7"/>
<path d="M87.7493 156.403C81.9206 158.655 42.047 181.307 42.047 181.307C42.047 181.307 38.6027 188.461 34.7611 184.752C25.6206 175.744 -6.70224 116.927 1.246 112.688C1.64341 112.555 6.14741 112.555 6.14741 112.555L9.32671 111.495C8.13447 108.316 6.67729 102.885 7.33965 96.3937C7.73706 93.3469 8.53189 85.7961 14.758 79.57C15.8178 78.6427 23.8985 70.6944 35.6884 72.2841C44.8288 73.4763 52.5121 79.9674 55.8239 88.8429L56.0888 89.2403L57.6785 88.4455C57.6785 88.4455 62.4474 85.2662 71.4554 96.3937C80.4634 107.521 95.0352 138.519 94.1079 144.216C93.3131 149.647 93.4456 154.283 87.7493 156.403ZM46.6834 87.1208C45.7561 85.9286 42.047 81.1596 35.9533 79.8349C29.0648 78.3777 20.9841 81.822 17.01 88.578C13.5658 94.4067 13.5658 101.693 17.01 107.786L49.5978 92.2872C49.0679 91.0949 48.1406 89.1079 46.6834 87.1208Z" fill="#5B927F"/>
<path d="M3.49799 117.854C3.49799 117.854 14.758 153.356 37.0131 181.97C37.0131 181.837 23.1036 145.938 3.49799 117.854Z" fill="black"/>
</svg>
