<svg width="86" height="46" viewBox="0 0 86 46" fill="none" xmlns="http://www.w3.org/2000/svg">
<path d="M59.445 28.8218C59.4978 29.0307 59.445 29.0307 59.709 29.0307C60.2369 29.0307 60.8177 29.0307 61.3456 29.0307C61.3984 29.0307 61.4512 29.0307 61.4512 29.0307C61.504 29.0307 61.5568 29.0307 61.5568 28.9262C61.5568 28.874 61.5568 28.8218 61.5568 28.7174C61.5568 23.4438 61.5568 18.1181 61.5568 12.8445C61.5568 12.7923 61.5568 12.7401 61.5568 12.7401C61.5568 12.5834 61.5568 12.5834 61.3984 12.5834C61.3456 12.5834 61.2928 12.5834 61.24 12.5834C60.6593 12.5834 60.0786 12.5834 59.5506 12.5834C59.1811 12.5834 59.2339 12.5312 59.2339 12.8967C59.2339 15.5074 59.2339 18.1703 59.2339 20.7809C59.2339 20.8854 59.2339 21.042 59.2339 21.1464H59.1811C59.1811 21.0942 59.1283 20.9898 59.1283 20.9376C59.0227 20.5199 58.9171 20.1544 58.8115 19.7367C58.2308 17.4393 57.7029 15.1419 57.1221 12.7923C57.1221 12.7401 57.0694 12.6879 57.0694 12.5834C57.0694 12.5312 57.0166 12.5312 57.0166 12.5312C56.9638 12.5312 56.911 12.5312 56.8582 12.5312C56.2775 12.5312 55.6439 12.5312 55.0632 12.5312C54.7993 12.5312 54.7993 12.5312 54.7993 12.7923C54.7993 18.1181 54.7993 23.4438 54.7993 28.7174C54.7993 28.7696 54.7993 28.8218 54.7993 28.874C54.7993 28.9262 54.852 28.9262 54.852 28.9262C54.9048 28.9262 54.9576 28.9262 55.0632 28.9262C55.6439 28.9262 56.2247 28.9262 56.7526 28.9262C57.0694 28.9262 57.0694 28.9784 57.0694 28.6129C57.0694 25.7412 57.0694 22.8695 57.0694 19.9977C57.0694 19.8933 57.0694 19.8411 57.0694 19.7367C57.0694 19.6845 57.0694 19.6845 57.1221 19.6845C57.1749 19.7367 57.1749 19.7367 57.1749 19.7889C57.7557 22.0341 58.3364 24.2792 58.9171 26.5766C59.0755 27.3598 59.2339 28.0908 59.445 28.8218Z" fill="#D4F570"/>
<path d="M39.2781 29.3961C39.2781 29.3439 39.2253 29.2917 39.1725 29.2917C39.1197 29.2917 39.0669 29.2917 39.0141 29.2917C38.4334 29.2917 37.8527 29.2917 37.2192 29.2917C36.9024 29.2917 36.9552 29.2395 36.9552 29.5528C36.9552 31.8502 36.9552 34.1476 36.9552 36.445C36.9552 36.8627 36.9552 37.3326 36.9552 37.7503C36.9552 37.8025 36.9552 37.8025 36.9552 37.8547C36.9552 37.9069 36.9552 37.8547 36.9552 37.8547C36.9552 37.8025 36.9024 37.8025 36.9024 37.7503C36.6912 36.9149 36.4801 36.0795 36.2689 35.244C35.8465 33.4688 35.3714 31.6935 34.9491 29.8661C34.8963 29.7094 34.8435 29.5006 34.8435 29.3439C34.8435 29.2917 34.7907 29.2395 34.7379 29.2395H34.6851C34.0516 29.2395 33.3653 29.2395 32.7317 29.2395H32.679C32.6262 29.2395 32.6262 29.2917 32.5734 29.2917C32.5734 29.3439 32.5734 29.3961 32.5734 29.4484C32.5734 29.7094 32.5734 30.0227 32.5734 30.2838C32.5734 35.2963 32.5734 40.3087 32.5734 45.3212C32.5734 45.4257 32.5734 45.4779 32.5734 45.5823C32.5734 45.6345 32.6262 45.6345 32.6262 45.6345C32.6789 45.6345 32.7317 45.6345 32.7845 45.6345C33.3653 45.6345 33.9988 45.6345 34.5795 45.6345C34.8435 45.6345 34.8435 45.6345 34.8435 45.3734C34.8435 45.3212 34.8435 45.269 34.8435 45.2168C34.8435 42.3973 34.8435 39.5778 34.8435 36.7582C34.8435 36.6538 34.8435 36.4972 34.8435 36.3927H34.8963C34.8963 36.4449 34.9491 36.5494 34.9491 36.6016C35.213 37.5936 35.477 38.5857 35.7409 39.63C36.2161 41.5619 36.6912 43.4415 37.2192 45.3734C37.2192 45.4257 37.272 45.4779 37.272 45.5823C37.272 45.6345 37.3247 45.6345 37.3247 45.6345C37.3775 45.6345 37.4303 45.6345 37.4831 45.6345C38.0111 45.6345 38.4862 45.6345 39.0141 45.6345C39.1197 45.6345 39.2253 45.6867 39.3309 45.5823C39.3309 45.4779 39.3309 45.3734 39.3309 45.269C39.3309 39.9955 39.3309 34.7219 39.3309 29.4484C39.3309 29.3961 39.3309 29.3439 39.3309 29.2917C39.2781 29.4484 39.2781 29.4484 39.2781 29.3961Z" fill="#D4F570"/>
<path d="M6.75751 32.059C6.70471 31.5891 6.65192 31.1192 6.49354 30.7015C6.22958 30.1271 5.80723 29.7094 5.22651 29.5006C4.85695 29.3439 4.43461 29.3439 4.01226 29.3439C2.79802 29.3439 1.58378 29.3439 0.422332 29.3439C0.0527803 29.3439 0.105573 29.2917 0.105573 29.6572C0.105573 32.3201 0.105573 34.9308 0.105573 37.5936C0.105573 40.2565 0.105573 42.9194 0.105573 45.5823C0.105573 45.7911 0.105573 45.7911 0.316746 45.7911C1.58378 45.7911 2.79802 45.7911 4.06506 45.7911C4.32902 45.7911 4.64578 45.7389 4.90975 45.6867C5.64885 45.5301 6.17678 45.0602 6.49354 44.3814C6.54634 44.2247 6.59913 44.0681 6.65192 43.9115C6.75751 43.4937 6.8103 43.0238 6.8103 42.6061C6.8103 39.2122 6.8103 35.8706 6.8103 32.4767C6.75751 32.2679 6.75751 32.1634 6.75751 32.059ZM4.11785 42.4495C4.11785 42.6061 4.06506 42.7628 4.01226 42.9194C3.90668 43.1283 3.7483 43.2849 3.53713 43.3371C3.48433 43.3371 3.43154 43.3371 3.32595 43.3371C3.11478 43.3371 2.85082 43.3371 2.63964 43.3371C2.58685 43.3371 2.58685 43.3371 2.53406 43.2849C2.53406 43.2327 2.53406 43.1283 2.53406 43.076C2.53406 41.1964 2.53406 39.3167 2.53406 37.437C2.53406 35.5573 2.53406 33.6776 2.53406 31.7979C2.53406 31.4847 2.53406 31.5369 2.79802 31.5369C2.9564 31.5369 3.11478 31.5369 3.27316 31.5369C3.37875 31.5369 3.43154 31.5369 3.53713 31.5891C3.7483 31.6413 3.90668 31.7457 3.95947 31.9546C4.01226 32.1112 4.06506 32.2679 4.06506 32.4245C4.06506 32.6334 4.06506 32.79 4.06506 32.9989C4.06506 35.975 4.06506 38.9512 4.06506 41.9273C4.17064 42.084 4.17064 42.2928 4.11785 42.4495Z" fill="#D4F570"/>
<path d="M62.4543 28.9262C62.4543 28.9784 62.4543 28.9784 62.5071 28.9784C62.5599 28.9784 62.6127 28.9784 62.6127 28.9784C63.8269 28.9784 65.0939 28.9784 66.3082 28.9784C66.5721 28.9784 66.8361 28.9784 67.1001 28.874C67.5752 28.7696 68.0504 28.5607 68.3671 28.1952C68.6311 27.882 68.7895 27.5687 68.9478 27.151C69.1062 26.681 69.1062 26.2111 69.1062 25.7412C69.1062 25.2191 69.1062 24.6447 69.1062 24.1226C69.1062 21.2509 69.1062 18.4313 69.1062 15.5596C69.1062 15.0897 69.0534 14.6198 68.9478 14.1498C68.6839 13.3144 68.1559 12.7401 67.2585 12.5834C66.9417 12.5312 66.6777 12.479 66.361 12.479C65.1467 12.479 63.8797 12.479 62.6655 12.479C62.6127 12.479 62.5599 12.479 62.5071 12.479C62.4543 12.479 62.4015 12.479 62.4015 12.5834C62.4015 12.6356 62.4015 12.7401 62.4015 12.7923C62.4015 15.403 62.4015 18.0658 62.4015 20.6765C62.4015 22.9739 62.4015 25.2713 62.4015 27.5687C62.4015 27.9342 62.4015 28.2997 62.4015 28.6652C62.4543 28.8218 62.4543 28.874 62.4543 28.9262ZM64.9884 15.1419C64.9884 15.0897 64.9884 15.0375 64.9884 15.0375C64.9884 14.8286 64.9884 14.8286 65.1995 14.8286C65.4107 14.8286 65.5691 14.8286 65.7803 14.8286C66.1498 14.8286 66.4138 14.9852 66.5194 15.3507C66.5721 15.5074 66.5721 15.664 66.5721 15.8207C66.5721 15.9773 66.5721 16.0817 66.5721 16.2384C66.5721 19.2145 66.5721 22.1907 66.5721 25.1669C66.5721 25.4279 66.5721 25.6368 66.5194 25.8456C66.5194 25.8978 66.4666 25.9501 66.4666 26.0545C66.361 26.3678 66.1498 26.5244 65.8858 26.5766C65.6219 26.6288 65.3579 26.5766 65.0939 26.5766C65.0411 26.5766 65.0411 26.5244 65.0411 26.5244C65.0411 26.4722 65.0411 26.3678 65.0411 26.3156C65.0411 24.4359 65.0411 22.5562 65.0411 20.7287C64.9884 18.849 64.9884 16.9694 64.9884 15.1419Z" fill="#D4F570"/>
<path d="M64.038 37.5414C64.038 34.8786 64.038 32.2679 64.038 29.605C64.038 29.5528 64.038 29.4484 64.038 29.3961C64.038 29.3439 64.038 29.3439 63.9852 29.3439C63.9324 29.3439 63.8797 29.3439 63.7741 29.3439C63.0878 29.3439 62.4542 29.3439 61.7679 29.3439C61.4512 29.3439 61.504 29.2917 61.504 29.605C61.504 31.5891 61.504 33.5732 61.504 35.5573C61.504 35.6095 61.504 35.6618 61.504 35.7662C61.504 35.9228 61.504 35.9228 61.3456 35.9228C60.8704 35.9228 60.3953 35.9228 59.9202 35.9228C59.8674 35.9228 59.8674 35.9228 59.8146 35.9228L59.7618 35.8706C59.7618 35.8184 59.7618 35.7662 59.7618 35.6618C59.7618 34.8263 59.7618 33.9909 59.7618 33.1555C59.7618 31.9546 59.7618 30.7537 59.7618 29.605C59.7618 29.5528 59.7618 29.5006 59.7618 29.3961C59.7618 29.3439 59.7618 29.3439 59.709 29.2917C59.6562 29.2917 59.6562 29.2917 59.6034 29.2917C58.8643 29.2917 58.1252 29.2917 57.3861 29.2917C57.2277 29.2917 57.2277 29.2917 57.2277 29.4484V29.5006C57.2277 34.8263 57.2277 40.1521 57.2277 45.4779C57.2277 45.5301 57.2277 45.5823 57.2277 45.6345C57.2277 45.6867 57.2277 45.6867 57.2805 45.6867C57.3333 45.6867 57.3861 45.6867 57.4917 45.6867C58.1252 45.6867 58.8115 45.6867 59.445 45.6867C59.8146 45.6867 59.7618 45.7389 59.7618 45.3734C59.7618 43.1805 59.7618 40.9353 59.7618 38.7423C59.7618 38.6901 59.7618 38.5857 59.7618 38.5335C59.7618 38.4813 59.7618 38.4813 59.8146 38.4813C59.8674 38.4813 59.9202 38.4813 59.973 38.4813C60.3425 38.4813 60.7649 38.4813 61.1344 38.4813C61.4512 38.4813 61.3984 38.4291 61.3984 38.7423C61.3984 40.9353 61.3984 43.1805 61.3984 45.3734C61.3984 45.4257 61.3984 45.5301 61.3984 45.5823C61.3984 45.6345 61.4512 45.6345 61.4512 45.6345C61.504 45.6345 61.5568 45.6345 61.6623 45.6345C62.2959 45.6345 62.9822 45.6345 63.6157 45.6345C63.9324 45.6345 63.8797 45.6867 63.8797 45.3734C64.038 42.815 64.038 40.2043 64.038 37.5414Z" fill="#D4F570"/>
<path d="M30.9896 27.7775C30.9896 28.0908 30.9896 28.4041 30.9896 28.7696C30.9896 28.8218 30.9896 28.874 30.9896 28.9262C30.9896 28.9784 31.0424 29.0306 31.0951 29.0306C31.1479 29.0306 31.2007 29.0306 31.3063 29.0306C31.9398 29.0306 32.6261 29.0306 33.2597 29.0306C33.5764 29.0306 33.5764 29.0829 33.5764 28.7174C33.5764 26.4722 33.5764 24.227 33.5764 21.9818C33.5764 21.9296 33.5764 21.8252 33.5764 21.773C33.5764 21.6686 33.5764 21.6686 33.682 21.6686C33.8932 21.6686 34.1044 21.6686 34.3683 21.6686C34.4739 21.6686 34.5795 21.6686 34.6851 21.7208C34.8963 21.773 35.0546 21.9296 35.1602 22.1385C35.1602 22.1907 35.213 22.2951 35.213 22.3473C35.213 22.504 35.213 22.6606 35.213 22.765C35.213 24.3836 35.213 26.0023 35.213 27.6209C35.213 27.8297 35.213 27.9864 35.213 28.1952C35.213 28.4041 35.2658 28.6129 35.3714 28.8218C35.4242 28.9262 35.477 28.9784 35.6354 28.9784C36.3745 28.9784 37.0608 28.9784 37.7999 28.9784C37.8527 28.9784 37.8527 28.9784 37.9055 28.9784C37.9583 28.9784 37.9583 28.9262 37.9583 28.874C37.9583 28.8218 37.9055 28.7696 37.9055 28.6651C37.7999 28.4563 37.7471 28.1952 37.7471 27.9342C37.7471 27.7775 37.7471 27.6209 37.7471 27.4642C37.7471 25.5846 37.7471 23.7571 37.7471 21.8774C37.7471 21.7208 37.7471 21.5641 37.7471 21.4597C37.6943 20.8854 37.4303 20.4154 36.8496 20.1022C36.7968 20.1022 36.744 20.0499 36.6912 19.9977L36.744 19.9455C37.1664 19.7367 37.4303 19.3712 37.5887 18.9012C37.6943 18.588 37.7471 18.2747 37.7471 17.9614C37.7471 16.9171 37.7471 15.9251 37.7471 14.8808C37.7471 14.5153 37.6943 14.0976 37.5887 13.7321C37.3775 13.1578 36.9552 12.7401 36.3745 12.5834C36.0577 12.479 35.6882 12.4268 35.3186 12.4268C34.0516 12.4268 32.7317 12.4268 31.4647 12.4268C31.3591 12.4268 31.2535 12.3746 31.1479 12.479C31.0951 12.5312 31.1479 12.6878 31.1479 12.7401C30.9896 17.857 30.9896 22.8172 30.9896 27.7775ZM33.5236 15.0897C33.5236 15.0375 33.5236 14.9852 33.5236 14.8808C33.5236 14.8286 33.5764 14.7764 33.6292 14.7764C33.8932 14.7764 34.1044 14.7764 34.3683 14.7764C34.4739 14.7764 34.5267 14.7764 34.6323 14.8286C34.8435 14.8808 34.949 15.0375 35.0546 15.2463C35.1074 15.4029 35.1074 15.6118 35.1074 15.7684C35.1074 16.5516 35.1074 17.3871 35.1074 18.1703C35.1074 18.3791 35.1074 18.5357 35.0546 18.7446C34.949 19.1101 34.6851 19.2667 34.3155 19.3189C34.1044 19.3189 33.8404 19.3189 33.6292 19.3189C33.5764 19.3189 33.5236 19.2667 33.5236 19.2145C33.5236 19.1623 33.5236 19.1101 33.5236 19.0057C33.5236 18.3269 33.5236 17.6481 33.5236 17.0216C33.5236 16.395 33.5236 15.7162 33.5236 15.0897Z" fill="#D4F570"/>
<path d="M79.4536 31.9546C79.4008 31.4847 79.2952 31.0148 79.0313 30.597C78.7673 30.0749 78.3978 29.7094 77.8698 29.5006C77.5531 29.3439 77.2363 29.2917 76.9195 29.2395C76.4972 29.1873 76.1277 29.1873 75.7053 29.1873C75.4413 29.1873 75.1246 29.2395 74.8606 29.2917C74.0687 29.4484 73.4352 29.9183 73.0657 30.6493C72.9601 30.8581 72.8545 31.1192 72.8017 31.3802C72.6433 31.9024 72.5905 32.4245 72.5905 32.9466C72.5905 35.975 72.5905 38.9512 72.5905 41.9796C72.5905 42.2928 72.5905 42.6583 72.6433 42.9716C72.6961 43.4938 72.8017 43.9637 73.0129 44.4336C73.3824 45.1646 73.9103 45.6345 74.7022 45.8434C75.019 45.9478 75.3358 46 75.6525 46C75.9165 46 76.1804 46 76.3916 46C76.7612 46 77.0779 45.9478 77.4475 45.8434C78.081 45.6345 78.6089 45.269 78.9257 44.6947C79.0841 44.4336 79.1897 44.1725 79.2425 43.9115C79.4008 43.3893 79.4536 42.8672 79.4536 42.2928C79.4536 40.7264 79.4536 39.16 79.4536 37.5936C79.4536 36.0272 79.4536 34.4608 79.4536 32.9466C79.5064 32.5812 79.5064 32.2679 79.4536 31.9546ZM76.9195 42.7628C76.9195 42.8672 76.8668 43.0238 76.814 43.1283C76.7084 43.3893 76.4972 43.546 76.1804 43.546C76.1277 43.546 76.0221 43.546 75.9693 43.546C75.7053 43.4938 75.4941 43.3893 75.3358 43.1283C75.283 42.9716 75.2302 42.8672 75.2302 42.7106C75.2302 42.5539 75.1774 42.3973 75.1774 42.2406C75.1774 39.1078 75.1774 36.0272 75.1774 32.8944C75.1774 32.7378 75.1774 32.5812 75.2302 32.4245C75.2302 32.2679 75.283 32.1634 75.3358 32.059C75.4413 31.8502 75.5997 31.6935 75.8637 31.6413C75.9693 31.6413 76.0749 31.5891 76.1804 31.5891C76.55 31.5891 76.7612 31.7457 76.9195 32.1112C76.9723 32.2679 77.0251 32.4767 77.0251 32.6856C77.0251 32.79 77.0251 32.8944 77.0251 32.9989C77.0251 34.5653 77.0251 36.0795 77.0251 37.6459C77.0251 39.2123 77.0251 40.7787 77.0251 42.3451C76.9195 42.3973 76.9195 42.6061 76.9195 42.7628Z" fill="#D4F570"/>
<path d="M71.7459 31.9546C71.6931 31.5369 71.5875 31.1714 71.4291 30.7537C71.1651 30.1793 70.7956 29.7094 70.2149 29.4484C69.8981 29.2917 69.5813 29.2395 69.2646 29.1873C68.8422 29.1351 68.4199 29.1351 67.9975 29.1351C67.7336 29.1351 67.4168 29.1873 67.1529 29.2395C66.2554 29.4484 65.6219 29.9705 65.2523 30.8059C65.1995 30.9625 65.1467 31.1192 65.0939 31.328C64.9355 31.8502 64.8828 32.3723 64.8828 32.9466C64.8828 34.4608 64.8828 36.0272 64.8828 37.5414C64.8828 39.0034 64.8828 40.4654 64.8828 41.9796C64.8828 42.2928 64.8828 42.6583 64.9355 42.9716C64.9883 43.3893 65.0939 43.8592 65.2523 44.2247C65.6219 45.1124 66.2554 45.6345 67.2056 45.8434C67.8392 46 68.4727 45.9478 69.159 45.8956C69.3174 45.8956 69.4758 45.8434 69.5813 45.8434C70.4788 45.6345 71.1123 45.1124 71.4819 44.277C71.5875 44.0681 71.6403 43.807 71.6931 43.5982C71.7987 43.076 71.8514 42.5017 71.8514 41.9796C71.8514 39.0034 71.8514 36.0272 71.8514 32.9989C71.7987 32.6856 71.7986 32.3201 71.7459 31.9546ZM69.2118 42.815C69.159 42.9716 69.159 43.076 69.0534 43.1805C68.9478 43.3893 68.7367 43.4938 68.5255 43.4938C68.4199 43.4938 68.3671 43.4938 68.2615 43.4938C67.9975 43.4415 67.8392 43.3371 67.6808 43.1283C67.628 42.9716 67.5752 42.8672 67.5224 42.7106C67.5224 42.5539 67.4696 42.3451 67.4696 42.1884C67.4696 39.1078 67.4696 36.0272 67.4696 32.9466C67.4696 32.79 67.4696 32.5812 67.5224 32.4245C67.5224 32.3723 67.5224 32.2679 67.5752 32.2157C67.6808 31.6935 68.1031 31.5369 68.5255 31.5891C68.7894 31.6413 69.0006 31.798 69.1062 32.059C69.2118 32.2679 69.2118 32.4245 69.2118 32.6334C69.2118 32.7378 69.2118 32.79 69.2118 32.8944C69.2118 34.4608 69.2118 36.0272 69.2118 37.5936C69.2118 39.16 69.2118 40.7264 69.2118 42.2928C69.2118 42.4495 69.2118 42.6061 69.2118 42.815Z" fill="#D4F570"/>
<path d="M6.8103 12.6356C6.8103 12.5834 6.75751 12.5834 6.75751 12.5834C6.70471 12.5834 6.65192 12.5834 6.59913 12.5834C5.91282 12.5834 5.17371 12.5834 4.4874 12.5834C4.27623 12.5834 4.27623 12.5834 4.27623 12.7923C4.27623 12.8445 4.27623 12.8967 4.27623 12.9489C4.27623 14.933 4.27623 16.8649 4.27623 18.849C4.27623 18.9012 4.27623 18.9534 4.27623 19.0579C4.27623 19.1623 4.27623 19.1623 4.17064 19.1623C3.6955 19.1623 3.16757 19.1623 2.69243 19.1623C2.58685 19.1623 2.58685 19.1623 2.58685 19.0057C2.58685 18.9534 2.58685 18.9012 2.58685 18.849C2.58685 17.9092 2.58685 16.9693 2.58685 16.0295C2.58685 14.9852 2.58685 13.8887 2.58685 12.8445C2.58685 12.7923 2.58685 12.6878 2.58685 12.6356L2.53406 12.5834C2.48126 12.5834 2.42847 12.5834 2.32288 12.5834C1.68936 12.5834 1.00305 12.5834 0.369537 12.5834C-1.51561e-05 12.5312 0.052778 12.5312 0.052778 12.8445C0.052778 15.4551 0.052778 18.118 0.052778 20.7287C0.052778 23.3916 0.052778 26.0023 0.052778 28.6651C0.052778 28.7174 0.052778 28.8218 0.052778 28.874C0.052778 28.9262 0.105571 28.9262 0.105571 28.9784C0.158364 28.9784 0.211157 28.9784 0.316744 28.9784C0.950261 28.9784 1.58378 28.9784 2.2173 28.9784C2.58685 28.9784 2.53406 29.0306 2.53406 28.6651C2.53406 26.4722 2.53406 24.2792 2.53406 22.034C2.53406 21.9818 2.53406 21.8774 2.53406 21.8252C2.53406 21.773 2.58685 21.773 2.58685 21.773C2.63964 21.773 2.69243 21.773 2.74523 21.773C3.16757 21.773 3.58992 21.773 3.95947 21.773C4.22343 21.773 4.22343 21.7208 4.22343 22.034C4.22343 22.0862 4.22343 22.1385 4.22343 22.1907C4.22343 24.3314 4.22343 26.5244 4.22343 28.6651C4.22343 28.7174 4.22343 28.7696 4.22343 28.874C4.22343 28.9784 4.22344 28.9784 4.32902 28.9784C4.38181 28.9784 4.43461 28.9784 4.4874 28.9784C5.17371 28.9784 5.86002 28.9784 6.49354 28.9784C6.75751 28.9784 6.75751 28.9784 6.75751 28.7173C6.75751 23.3916 6.75751 18.0658 6.75751 12.7401C6.8103 12.7401 6.8103 12.6878 6.8103 12.6356Z" fill="#D4F570"/>
<path d="M31.5175 35.7662C31.4647 35.7662 31.4647 35.7662 31.4119 35.7662C30.356 35.7662 29.353 35.7662 28.2971 35.7662C28.2443 35.7662 28.1915 35.7662 28.1387 35.7662C28.0859 35.7662 28.0859 35.8184 28.0859 35.8184C28.0859 35.8706 28.0859 35.9228 28.0859 35.9228C28.0859 36.6538 28.0859 37.3326 28.0859 38.0636C28.0859 38.2724 28.0859 38.2724 28.2971 38.2724C28.3499 38.2724 28.4027 38.2724 28.4555 38.2724C28.6667 38.2724 28.8778 38.2724 29.089 38.2724C29.1946 38.2724 29.2474 38.2724 29.2474 38.4291C29.2474 38.6379 29.2474 38.7945 29.2474 39.0034C29.2474 40.0999 29.2474 41.2486 29.2474 42.3451C29.2474 42.5539 29.2474 42.7106 29.1946 42.9194C29.089 43.1805 28.9306 43.3371 28.7194 43.4415C28.1915 43.5982 27.7692 43.4415 27.6108 42.8672V42.815C27.558 42.6583 27.558 42.4495 27.558 42.2928C27.558 39.16 27.558 35.975 27.558 32.8422C27.558 32.7378 27.558 32.6334 27.558 32.5289C27.558 32.3201 27.6108 32.1634 27.7164 32.0068C27.9275 31.5891 28.5611 31.5369 28.8778 31.8502C28.9306 31.9024 28.9834 31.9546 28.9834 32.0068C29.0362 32.1112 29.0362 32.1634 29.089 32.2679C29.1418 32.4245 29.1418 32.5812 29.1418 32.7378C29.1418 33.2599 29.1418 33.7821 29.1418 34.3042C29.1418 34.3564 29.1418 34.4086 29.1418 34.4608C29.1418 34.5653 29.1418 34.5653 29.2474 34.5653C29.9865 34.5653 30.6728 34.5653 31.4119 34.5653C31.4647 34.5653 31.4647 34.5653 31.5175 34.5653L31.5703 34.5131C31.5703 34.4608 31.5703 34.4086 31.5703 34.3564C31.5703 33.8865 31.5703 33.4166 31.5703 32.9466C31.5703 32.5812 31.5703 32.2157 31.5175 31.8502C31.4647 31.5369 31.4119 31.1714 31.3063 30.8581C31.1479 30.336 30.884 29.9183 30.4088 29.605C30.0393 29.3961 29.6169 29.2395 29.1946 29.1873C28.7722 29.1351 28.3499 29.1351 27.9275 29.1351C27.6636 29.1351 27.3996 29.1873 27.1356 29.2395C26.6077 29.3439 26.1326 29.605 25.763 30.0227C25.4991 30.336 25.2879 30.7015 25.1823 31.067C25.0239 31.5369 24.9711 32.059 24.9711 32.5812C24.9711 36.0272 24.9711 39.4733 24.9711 42.9194C24.9711 43.1805 24.9711 43.4415 25.0239 43.6504C25.1295 44.1203 25.2879 44.5902 25.6046 45.0079C26.1854 45.7911 27.0829 46.0522 28.0331 45.8434C28.4027 45.7389 28.7194 45.5823 29.0362 45.3212C29.353 45.0079 29.6169 44.6947 29.8281 44.277C29.8281 44.2247 29.8809 44.1725 29.9337 44.1203C29.9865 44.3292 30.0393 44.4858 30.0921 44.6947C30.1449 44.9557 30.2504 45.269 30.3032 45.5301C30.356 45.6345 30.356 45.6345 30.4616 45.6345C30.8312 45.6345 31.2535 45.6345 31.6231 45.6345C31.7287 45.6345 31.7287 45.6345 31.7287 45.5301C31.7287 45.4779 31.7287 45.4257 31.7287 45.3212C31.7287 42.1884 31.7287 39.0556 31.7287 35.9228C31.7287 35.8706 31.7287 35.8184 31.7287 35.714C31.6231 35.7662 31.6231 35.7662 31.5175 35.7662Z" fill="#D4F570"/>
<path d="M48.6225 38.899C48.3585 38.3768 48.0417 37.9069 47.6722 37.4892C47.0915 36.7582 46.5635 36.0272 45.9828 35.3485C45.7716 35.0874 45.5605 34.8263 45.4021 34.5131C45.1909 34.1476 45.0853 33.7821 45.0325 33.4166C44.9797 33.0511 44.9797 32.6856 45.0325 32.3201C45.0325 32.2157 45.0325 32.1112 45.0853 32.0068C45.1909 31.6935 45.3493 31.5369 45.6661 31.5369C46.1412 31.4847 46.4052 31.6935 46.458 32.1635C46.458 32.3201 46.458 32.4767 46.458 32.6334C46.458 33.2599 46.458 33.8865 46.458 34.5131C46.458 34.5653 46.458 34.6175 46.458 34.6697C46.458 34.8263 46.458 34.8263 46.6163 34.8263C47.3554 34.8263 48.0417 34.8263 48.7809 34.8263C48.8864 34.8263 48.9392 34.8263 48.9392 34.6697C48.9392 34.252 48.9392 33.8343 48.9392 33.4688C48.9392 32.9467 48.9392 32.4245 48.9392 31.9024C48.9392 31.5369 48.8864 31.1192 48.7809 30.7537C48.5697 30.1271 48.1473 29.7094 47.5666 29.5006C47.3026 29.3961 47.0387 29.3439 46.7747 29.3439C46.2996 29.2917 45.8244 29.2917 45.2965 29.2917C44.9797 29.2917 44.7158 29.3439 44.399 29.4484C43.5543 29.7094 42.9736 30.2316 42.6568 31.067C42.4985 31.4325 42.4457 31.8502 42.4457 32.2157C42.4457 32.8422 42.3929 33.4166 42.4985 34.0431C42.5513 34.6697 42.7096 35.2963 43.0264 35.8184C43.2904 36.3405 43.6071 36.8104 43.9767 37.2282C44.4518 37.8547 44.9797 38.4813 45.4549 39.1078C45.7188 39.4211 45.93 39.7344 46.1412 40.0999C46.2996 40.361 46.4052 40.6742 46.458 40.9875C46.5635 41.6141 46.5107 42.2406 46.458 42.815C46.458 42.9716 46.4052 43.1283 46.3524 43.2849C46.2996 43.4415 46.194 43.546 46.0356 43.5982C45.5605 43.807 45.0853 43.5982 44.927 43.1283C44.927 43.0761 44.927 43.0238 44.8742 42.9716C44.8214 42.7628 44.8214 42.6061 44.8214 42.3973C44.8214 41.5619 44.8214 40.7265 44.8214 39.891C44.8214 39.8388 44.8214 39.7866 44.8214 39.6822C44.8214 39.6822 44.8214 39.63 44.7686 39.63C44.7158 39.63 44.663 39.63 44.663 39.63C43.9239 39.63 43.2376 39.63 42.4985 39.63C42.4457 39.63 42.3929 39.63 42.3929 39.63C42.3401 39.63 42.3401 39.6822 42.3401 39.6822C42.3401 39.7344 42.3401 39.7866 42.3401 39.891C42.3401 40.4132 42.3401 40.9875 42.3401 41.5097C42.3401 41.6663 42.3401 41.7707 42.3401 41.9274C42.3401 42.3451 42.3401 42.7106 42.3401 43.1283C42.3401 43.5982 42.4457 44.0681 42.6041 44.4858C42.868 45.1124 43.3432 45.5823 43.9767 45.7911C44.1351 45.8434 44.3462 45.8956 44.5574 45.9478C45.0853 46.0522 45.6661 46.0522 46.194 46C46.4052 46 46.5635 45.9478 46.7747 45.9478C47.6722 45.7912 48.3057 45.3212 48.7281 44.4858C48.7809 44.3292 48.8336 44.2247 48.9392 44.0681C49.1504 43.546 49.2032 43.0238 49.2032 42.5017C49.2032 41.8751 49.2032 41.2486 49.1504 40.6742C49.0448 39.9955 48.8864 39.4211 48.6225 38.899Z" fill="#D4F570"/>
<path d="M20.1142 38.5857C19.903 38.2202 19.639 37.9069 19.4279 37.5414C18.8471 36.8104 18.2664 36.0794 17.7385 35.3485C17.5273 35.0874 17.3161 34.8263 17.1578 34.5653C16.9994 34.3042 16.841 33.9909 16.7882 33.6254C16.6826 33.0511 16.6826 32.4767 16.7354 31.9024C16.7882 31.4325 17.0522 31.328 17.4745 31.328H17.5273C17.7913 31.3802 17.9496 31.4847 18.0552 31.7457C18.108 31.9024 18.108 32.059 18.108 32.2679C18.108 32.9466 18.108 33.6776 18.108 34.3564C18.108 34.4086 18.108 34.4608 18.108 34.5653C18.108 34.6175 18.1608 34.6175 18.1608 34.6175C18.2136 34.6175 18.2664 34.6175 18.2664 34.6175C18.9527 34.6175 19.639 34.6175 20.3253 34.6175C20.3781 34.6175 20.4309 34.6175 20.4309 34.6175C20.4837 34.6175 20.4837 34.6175 20.4837 34.5653C20.4837 34.513 20.4837 34.4608 20.4837 34.4608C20.4837 33.5732 20.4837 32.6856 20.4837 31.798C20.4837 31.3802 20.4309 31.0147 20.3253 30.597C20.1142 29.9183 19.6918 29.5006 19.0055 29.2917C18.7943 29.1873 18.5304 29.1873 18.2664 29.1351C17.8441 29.0829 17.4217 29.0829 16.9466 29.0829C16.6826 29.0829 16.3659 29.1351 16.1019 29.1873C15.0988 29.3961 14.4653 29.9705 14.1485 30.9625C14.043 31.2236 13.9902 31.5369 13.9902 31.8502C13.9902 32.5289 13.9374 33.2077 14.043 33.9387C14.0958 34.5653 14.2541 35.1396 14.5709 35.6617C14.7821 36.1317 15.0988 36.5494 15.4156 36.9671C15.9435 37.5936 16.4186 38.2202 16.9466 38.8468C17.1578 39.16 17.4217 39.4211 17.5801 39.7866C17.7913 40.0999 17.8969 40.4654 17.9496 40.8831C18.0024 41.4574 18.0024 42.0318 17.9496 42.6061C17.9496 42.7628 17.8969 42.9716 17.7913 43.1283C17.7385 43.2849 17.5801 43.4415 17.4217 43.4415C16.9994 43.546 16.5242 43.4938 16.3659 42.8672V42.815C16.3131 42.6583 16.3131 42.5017 16.3131 42.2928C16.3131 41.4574 16.3131 40.5698 16.3131 39.7344C16.3131 39.6822 16.3131 39.63 16.3131 39.5255C16.3131 39.4733 16.2603 39.4211 16.2075 39.4211C16.1547 39.4211 16.1547 39.4211 16.1019 39.4211C15.4156 39.4211 14.6765 39.4211 13.9902 39.4211C13.9374 39.4211 13.9374 39.4211 13.8846 39.4211C13.8318 39.4211 13.779 39.4733 13.779 39.5255C13.779 39.5777 13.779 39.63 13.779 39.7344C13.779 40.2565 13.779 40.8309 13.779 41.353C13.779 41.8229 13.779 42.3451 13.779 42.815C13.779 43.1805 13.8318 43.546 13.9374 43.9115C14.1485 44.6424 14.5709 45.2168 15.31 45.5823C15.6268 45.7389 15.9435 45.7911 16.2603 45.8434C16.841 45.8956 17.3689 45.8956 17.9496 45.8434C18.3192 45.7911 18.6888 45.6867 19.0055 45.5301C19.5862 45.2168 20.0086 44.7469 20.2198 44.1725C20.4309 43.7026 20.5365 43.2327 20.5893 42.7106C20.6421 42.0318 20.6421 41.353 20.5893 40.622C20.6949 39.9432 20.5365 39.2123 20.1142 38.5857Z" fill="#D4F570"/>
<path d="M9.34434 28.9784C9.6611 29.0829 9.97786 29.1351 10.2946 29.1351C10.6114 29.1351 10.9281 29.1351 11.2449 29.1351C11.4561 29.1351 11.6144 29.1351 11.8256 29.0829C12.8287 28.9262 13.5678 28.4041 13.9901 27.4642C14.2013 26.9943 14.3069 26.5244 14.3597 26.0545C14.4125 25.3757 14.4125 24.6447 14.3597 23.9659C14.3069 23.1305 14.0429 22.3473 13.6206 21.6163C13.3566 21.2508 13.0927 20.8854 12.8287 20.5199C12.3008 19.8411 11.7728 19.1623 11.2449 18.4835C11.0337 18.1703 10.7698 17.857 10.6114 17.5437C10.453 17.2304 10.3474 16.9171 10.2946 16.5516C10.2418 16.1861 10.2418 15.7684 10.2946 15.4029C10.2946 15.2985 10.3474 15.1419 10.3474 15.0375C10.4002 14.7764 10.6114 14.6197 10.8753 14.6197C11.4033 14.5675 11.6672 14.7764 11.72 15.2463C11.72 15.4029 11.72 15.5596 11.72 15.664C11.72 16.2906 11.72 16.9693 11.72 17.5959C11.72 17.6481 11.72 17.7003 11.72 17.7525C11.72 17.857 11.72 17.857 11.8256 17.857H11.8784C12.5647 17.857 13.251 17.857 13.9373 17.857C13.9901 17.857 14.0429 17.857 14.0429 17.857C14.0957 17.857 14.0957 17.8048 14.0957 17.8048C14.0957 17.7525 14.0957 17.7003 14.0957 17.5959C14.0957 17.0738 14.0957 16.4994 14.0957 15.9773C14.0957 15.6118 14.0957 15.2985 14.0957 14.933C14.0957 14.5675 14.0429 14.1498 13.9373 13.7843C13.7262 13.1578 13.3038 12.7401 12.6703 12.479C12.3535 12.3746 11.984 12.3224 11.6672 12.2701C11.3505 12.2701 11.0337 12.2701 10.6642 12.2701C10.3474 12.2701 10.0306 12.3224 9.71389 12.3746C8.76361 12.5834 8.1301 13.1578 7.81334 14.0976C7.70775 14.4109 7.65496 14.7242 7.65496 15.0375C7.65496 15.7162 7.60217 16.395 7.70775 17.0216C7.76055 17.5437 7.91892 18.0658 8.1301 18.588C8.39406 19.1101 8.71082 19.58 9.02758 20.0499C9.55551 20.7287 10.0834 21.3553 10.5586 22.034C10.8225 22.3473 11.0337 22.6606 11.2449 23.0261C11.4561 23.3916 11.5617 23.7571 11.6144 24.1748C11.6672 24.6969 11.6672 25.1669 11.6144 25.689C11.6144 25.8978 11.5617 26.0545 11.4561 26.2633C11.3505 26.4722 11.1921 26.5766 10.9809 26.6288C10.5058 26.7333 10.1362 26.5766 9.97786 26.0023V25.9501C9.92506 25.7412 9.92506 25.5323 9.92506 25.3235C9.92506 24.4881 9.92506 23.7049 9.92506 22.8695C9.92506 22.8172 9.92506 22.765 9.92506 22.6606L9.87227 22.6084C9.81948 22.6084 9.81948 22.6084 9.76668 22.6084C9.02758 22.6084 8.28848 22.6084 7.54937 22.6084H7.49658C7.44379 22.6084 7.44379 22.6606 7.44379 22.6606C7.44379 22.7128 7.44379 22.765 7.44379 22.8695C7.44379 23.3916 7.44379 23.9137 7.44379 24.4359C7.44379 24.9058 7.44379 25.3757 7.44379 25.8456C7.44379 26.2633 7.49658 26.6288 7.60217 27.0465C7.91892 28.0908 8.44686 28.7174 9.34434 28.9784Z" fill="#D4F570"/>
<path d="M53.9546 35.4529C53.9546 35.5051 53.9546 35.5051 54.0074 35.5051C54.0602 35.5051 54.113 35.5051 54.1658 35.5051C54.8521 35.5051 55.5384 35.5051 56.2247 35.5051C56.2775 35.5051 56.3303 35.5051 56.3303 35.5051C56.3831 35.5051 56.3831 35.4529 56.3831 35.4007C56.3831 35.3485 56.3831 35.3485 56.3831 35.2962C56.3831 34.3042 56.3831 33.3121 56.3831 32.2679C56.3831 31.7457 56.3303 31.2758 56.1719 30.8059C55.9607 30.1793 55.5384 29.6572 54.9049 29.3961C54.5881 29.2395 54.2713 29.1873 53.9546 29.1351C53.4794 29.0829 53.0571 29.0829 52.582 29.0829C52.318 29.0829 52.054 29.1351 51.7901 29.1873C51.1566 29.3439 50.5758 29.7094 50.2063 30.2316C50.0479 30.4926 49.8895 30.8059 49.8367 31.1192C49.7311 31.5891 49.6783 32.0068 49.6783 32.4767C49.6783 34.0953 49.6783 35.7662 49.6783 37.3848C49.6783 39.0034 49.6783 40.622 49.6783 42.2406C49.6783 42.4495 49.6783 42.6061 49.6783 42.815C49.7311 43.2849 49.7839 43.7548 49.9423 44.1725C50.2591 44.9557 50.8398 45.4779 51.6845 45.7389C52.0012 45.8434 52.318 45.8434 52.6348 45.8434C52.8987 45.8434 53.1099 45.8434 53.3739 45.8434C53.585 45.8434 53.7962 45.8434 54.0602 45.7911C54.6937 45.6867 55.2216 45.4256 55.5912 44.9557C55.8551 44.6424 56.0663 44.277 56.1719 43.8592C56.3303 43.3893 56.3831 42.8672 56.3831 42.3451C56.3831 41.1441 56.3831 39.891 56.3831 38.6901C56.3831 38.6379 56.3831 38.5857 56.3831 38.5335C56.3831 38.4813 56.3303 38.4813 56.2775 38.4813C56.2247 38.4813 56.1719 38.4813 56.1191 38.4813C55.4328 38.4813 54.7465 38.4813 54.113 38.4813C53.849 38.4813 53.9018 38.4813 53.9018 38.6901C53.9018 39.891 53.9018 41.0397 53.9018 42.2406C53.9018 42.2928 53.9018 42.3973 53.9018 42.4495C53.9018 42.6583 53.849 42.815 53.7434 43.0238C53.6378 43.2327 53.4267 43.3893 53.1627 43.3893C53.1099 43.3893 53.0571 43.3893 53.0043 43.3893C52.6876 43.3893 52.5292 43.2327 52.3708 42.9716C52.318 42.9194 52.318 42.815 52.318 42.7628C52.2652 42.6061 52.2652 42.3973 52.2652 42.2406C52.2652 39.0034 52.2652 35.7662 52.2652 32.5289C52.2652 32.4245 52.2652 32.3201 52.2652 32.2157C52.2652 32.059 52.318 31.9024 52.3708 31.798C52.4236 31.6935 52.4764 31.5891 52.6348 31.5369C52.9515 31.3802 53.2683 31.4325 53.5322 31.5891C53.6378 31.6413 53.6906 31.6935 53.7434 31.798C53.7962 31.9024 53.849 31.9546 53.849 32.059C53.9018 32.2157 53.9018 32.3723 53.9018 32.5289C53.9018 33.4166 53.9018 34.3042 53.9018 35.1396C53.9546 35.3485 53.9546 35.4007 53.9546 35.4529Z" fill="#D4F570"/>
<path d="M23.4929 28.9784C23.5457 28.9784 23.5985 28.9784 23.5985 28.9784C24.0208 28.9784 24.496 28.9784 24.9183 28.9784C25.1295 28.9784 25.2879 28.9784 25.499 28.9784C25.6046 28.9784 25.6046 28.9784 25.6046 28.874C25.6046 28.6652 25.6574 28.5085 25.6574 28.2997C25.763 27.5687 25.8158 26.7855 25.9214 26.0545C25.9214 26.0023 25.9214 25.9501 25.9214 25.9501C25.9214 25.8979 25.9742 25.8978 25.9742 25.8978C26.027 25.8978 26.0798 25.8978 26.1326 25.8978C26.6077 25.8978 27.03 25.8978 27.5052 25.8978C27.8219 25.8978 27.7691 25.8456 27.7691 26.1589C27.8747 26.9943 27.9275 27.8297 28.0331 28.6652C28.0331 28.7696 28.0331 28.8218 28.0859 28.9262C28.0859 28.9784 28.1387 28.9784 28.1387 28.9784C28.1915 28.9784 28.2443 28.9784 28.2971 28.9784C28.6138 28.9784 28.9306 28.9784 29.3001 28.9784C29.6169 28.9784 29.9337 28.9784 30.2504 28.9784C30.5672 28.9784 30.5672 29.0307 30.5144 28.6652C30.4088 27.882 30.3032 27.0465 30.1976 26.2633C30.092 25.5846 30.0392 24.9058 29.9337 24.227C29.8281 23.4438 29.7225 22.6084 29.6169 21.8252C29.5641 21.2509 29.4585 20.6243 29.4057 20.05C29.3001 19.2668 29.1946 18.4313 29.089 17.6481C28.9834 16.9694 28.9306 16.2384 28.825 15.5596C28.7194 14.8808 28.6666 14.202 28.561 13.5233C28.5082 13.2622 28.5082 12.9489 28.4555 12.6879C28.4555 12.5834 28.4027 12.5834 28.3499 12.5834C28.2971 12.5834 28.2443 12.5834 28.2443 12.5834C27.3996 12.5834 26.5549 12.5834 25.6574 12.5834C25.6046 12.5834 25.5518 12.5834 25.499 12.5834C25.4462 12.5834 25.4462 12.5834 25.4462 12.6356C25.4462 12.6879 25.4462 12.6879 25.4462 12.7401C25.3935 13.1578 25.3407 13.6277 25.2879 14.0454C25.1823 14.7764 25.1295 15.5074 25.0239 16.1862C24.9183 16.9171 24.8127 17.7003 24.7599 18.4313C24.7071 19.0057 24.6016 19.6322 24.5488 20.2066C24.4432 20.9376 24.3904 21.6686 24.2848 22.4518C24.1792 23.1828 24.1264 23.8615 24.0208 24.5925C23.968 25.1669 23.8625 25.7934 23.8097 26.3678C23.7569 26.9943 23.6513 27.6209 23.5985 28.2475C23.5985 28.4563 23.5457 28.6652 23.5457 28.874C23.3873 28.9784 23.3873 28.9784 23.4929 28.9784ZM26.3965 21.9296C26.4493 21.3553 26.5021 20.8332 26.5549 20.2588C26.6077 19.5278 26.7133 18.849 26.7661 18.1181C26.7661 18.0136 26.7661 17.9092 26.8189 17.8048C26.8189 17.7526 26.8189 17.7003 26.8717 17.6481C26.9245 18.3269 27.03 18.9535 27.0828 19.58C27.1884 20.4154 27.294 21.2509 27.3468 22.0863C27.3996 22.504 27.4524 22.9217 27.5052 23.3916C27.5052 23.496 27.5052 23.496 27.3996 23.496C27.03 23.496 26.6605 23.496 26.2909 23.496C26.1853 23.496 26.1853 23.496 26.1853 23.3916C26.2909 22.8695 26.3437 22.3996 26.3965 21.9296Z" fill="#D4F570"/>
<path d="M49.8895 25.8978C50.3118 25.8978 50.787 25.8978 51.2093 25.8978C51.3149 25.8978 51.4205 25.8978 51.5261 25.8978C51.5789 25.8978 51.6316 25.9501 51.6316 26.0023C51.6316 26.2111 51.6844 26.3678 51.6844 26.5766C51.7372 27.3076 51.8428 28.0386 51.8956 28.7174C51.8956 28.7696 51.8956 28.8218 51.8956 28.9262C51.8956 28.9784 51.9484 28.9784 52.0012 28.9784C52.054 28.9784 52.054 28.9784 52.1068 28.9784C52.7931 28.9784 53.4794 28.9784 54.2185 28.9784C54.2713 28.9784 54.3241 28.9784 54.3769 28.9262C54.3769 28.7174 54.3241 28.5607 54.3241 28.3519C54.1657 27.3076 54.0601 26.2111 53.9018 25.1669C53.7962 24.4881 53.7434 23.8093 53.6378 23.1305C53.4794 22.0341 53.3738 20.9376 53.2154 19.8411C53.1099 19.0579 53.0043 18.2747 52.8987 17.4915C52.7931 16.6561 52.6875 15.8207 52.5819 14.9852C52.4763 14.3065 52.4235 13.6799 52.318 13.0011C52.318 12.8445 52.2652 12.7401 52.2652 12.5834C52.2652 12.5312 52.2124 12.479 52.1596 12.479C52.054 12.479 51.8956 12.479 51.79 12.479C50.9981 12.479 50.2062 12.479 49.4143 12.479C49.256 12.479 49.256 12.479 49.256 12.6356C49.2032 13.1578 49.0976 13.6799 49.0448 14.2543C48.9392 15.1419 48.8336 15.9773 48.728 16.8649C48.6224 17.857 48.4641 18.849 48.3585 19.8411C48.2529 20.7287 48.1473 21.5641 48.0417 22.4518C47.9361 23.4438 47.7777 24.4359 47.6722 25.4279C47.5666 26.4722 47.4082 27.5165 47.3026 28.6129C47.3026 28.7174 47.3026 28.8218 47.2498 28.9262C47.2498 28.9784 47.2498 28.9784 47.3026 29.0306C47.3554 29.0306 47.4082 29.0306 47.4082 29.0306C48.0417 29.0306 48.6224 29.0306 49.256 29.0306C49.3088 29.0306 49.3087 29.0306 49.3615 29.0306C49.4671 29.0306 49.4671 29.0307 49.4671 28.9262C49.4671 28.874 49.4671 28.8218 49.4671 28.8218C49.5199 28.2997 49.5727 27.7775 49.6255 27.2554C49.6783 26.8377 49.7311 26.4722 49.7839 26.0545C49.7839 25.8978 49.7839 25.8978 49.8895 25.8978ZM50.1534 22.3473C50.2062 21.6686 50.3118 20.9376 50.3646 20.2588C50.4702 19.4756 50.523 18.6402 50.6286 17.857C50.6286 17.7526 50.6286 17.7003 50.6286 17.5959C50.6286 17.5959 50.6286 17.5959 50.6814 17.5959H50.7342C50.7342 17.7003 50.787 17.7526 50.7342 17.857C50.8397 18.7968 50.9453 19.7367 51.0509 20.6765C51.1565 21.5119 51.2093 22.2951 51.3149 23.1305C51.3149 23.235 51.3149 23.2872 51.3149 23.3916C51.3149 23.4438 51.3149 23.496 51.2093 23.496C50.8397 23.496 50.4702 23.496 50.1006 23.496C49.9951 23.496 49.9951 23.496 49.9951 23.3916C50.0479 23.0261 50.1006 22.6606 50.1534 22.3473Z" fill="#D4F570"/>
<path d="M20.7477 26.4722C19.7974 26.4722 18.7943 26.4722 17.8441 26.4722C17.6329 26.4722 17.6329 26.4722 17.6329 26.2633C17.6329 24.8536 17.6329 23.3916 17.6329 21.9818C17.6329 21.7208 17.6329 21.773 17.8441 21.773C18.5304 21.773 19.2167 21.773 19.8502 21.773C19.903 21.773 19.9558 21.773 20.0614 21.773C20.1142 21.773 20.167 21.7208 20.167 21.6686C20.167 21.6164 20.167 21.5641 20.167 21.5119C20.167 20.9898 20.167 20.4677 20.167 19.9455C20.167 19.7367 20.167 19.58 20.167 19.3712C20.167 19.2668 20.167 19.2668 20.0614 19.2668C19.7446 19.2668 19.4279 19.2668 19.1639 19.2668C18.6888 19.2668 18.2664 19.2668 17.7913 19.2668C17.6857 19.2668 17.6857 19.2668 17.6857 19.1623C17.6857 19.1101 17.6857 19.1101 17.6857 19.0579C17.6857 17.7526 17.6857 16.4472 17.6857 15.1941C17.6857 14.9853 17.6857 14.9853 17.8969 14.9853C18.7943 14.9853 19.7446 14.9853 20.6421 14.9853C20.6949 14.9853 20.7477 14.9853 20.8533 14.9853C20.9061 14.9853 20.9061 14.933 20.9061 14.933C20.9061 14.8808 20.9061 14.8286 20.9061 14.8286C20.9061 14.1498 20.9061 13.4711 20.9061 12.7923C20.9061 12.7401 20.9061 12.6879 20.8533 12.6357C20.8005 12.6357 20.6949 12.6357 20.6421 12.6357C18.8999 12.6357 17.2105 12.6357 15.4684 12.6357C15.4156 12.6357 15.3628 12.6357 15.31 12.6357C15.2044 12.6357 15.2044 12.6357 15.2044 12.7401C15.2044 12.7923 15.2044 12.8445 15.2044 12.8445C15.2044 18.1703 15.2044 23.496 15.2044 28.8218C15.2044 28.874 15.2044 28.9262 15.2044 28.9784C15.2044 29.0307 15.2572 29.0307 15.31 29.0307C15.3628 29.0307 15.4156 29.0307 15.4684 29.0307C17.2633 29.0307 19.1111 29.0307 20.9061 29.0307C20.9589 29.0307 21.0117 29.0307 21.0644 29.0307C21.1172 29.0307 21.1172 29.0307 21.1172 28.9784C21.1172 28.9262 21.1172 28.874 21.1172 28.8218C21.1172 28.143 21.1172 27.4643 21.1172 26.7855C21.0117 26.4722 21.0117 26.4722 20.7477 26.4722Z" fill="#D4F570"/>
<path d="M13.3566 43.2849C13.3038 43.2849 13.251 43.2849 13.1982 43.2849C12.3008 43.2849 11.3505 43.2849 10.453 43.2849C10.4002 43.2849 10.3474 43.2849 10.2418 43.2849C10.189 43.2849 10.189 43.2849 10.1362 43.2327C10.1362 43.1805 10.1362 43.1805 10.1362 43.1283C10.1362 41.6663 10.1362 40.2043 10.1362 38.6901V38.6379C10.1362 38.5857 10.189 38.5857 10.189 38.5335C10.2418 38.5335 10.2946 38.5335 10.4002 38.5335C11.0337 38.5335 11.72 38.5335 12.3536 38.5335C12.4063 38.5335 12.4591 38.5335 12.5647 38.5335C12.6175 38.5335 12.6175 38.4813 12.6175 38.4813C12.6175 38.4291 12.6175 38.4291 12.6175 38.3768C12.6175 37.6459 12.6175 36.9671 12.6175 36.2361C12.6175 36.1839 12.6175 36.1317 12.6175 36.1317C12.6703 36.0272 12.6703 36.0272 12.6175 36.0272C12.5647 36.0272 12.5119 36.0272 12.4063 36.0272C11.72 36.0272 11.0337 36.0272 10.4002 36.0272C10.1362 36.0272 10.189 36.0272 10.189 35.8184C10.189 34.5131 10.189 33.2599 10.189 31.9546C10.189 31.9024 10.189 31.8502 10.189 31.798C10.189 31.7457 10.2418 31.7457 10.2418 31.7457C10.2946 31.7457 10.3474 31.7457 10.453 31.7457C11.3505 31.7457 12.1952 31.7457 13.0927 31.7457C13.1982 31.7457 13.251 31.7457 13.3566 31.7457C13.4094 31.7457 13.4094 31.7457 13.4094 31.6935V31.6413C13.4094 30.9103 13.4094 30.2316 13.4094 29.5006C13.4094 29.3961 13.4094 29.3439 13.251 29.3439C13.1982 29.3439 13.1982 29.3439 13.1455 29.3439C11.4033 29.3439 9.6611 29.3439 7.86614 29.3439C7.60217 29.3439 7.60217 29.3439 7.60217 29.605C7.60217 29.6572 7.60217 29.7094 7.60217 29.7094C7.60217 32.3201 7.60217 34.9308 7.60217 37.5414C7.60217 40.2043 7.60217 42.815 7.60217 45.4779C7.60217 45.5301 7.60217 45.6345 7.60217 45.6867C7.60217 45.7389 7.65497 45.7389 7.65497 45.7389C7.70776 45.7389 7.76055 45.7389 7.81335 45.7389C9.60831 45.7389 11.4033 45.7389 13.1982 45.7389C13.251 45.7389 13.3038 45.7389 13.3038 45.7389C13.4094 45.7389 13.4094 45.7389 13.4094 45.6345C13.4094 45.5823 13.4094 45.5301 13.4094 45.5301C13.4094 45.0079 13.4094 44.4858 13.4094 43.9637C13.4094 43.7548 13.4094 43.5982 13.4094 43.3893C13.515 43.2849 13.515 43.2849 13.3566 43.2849Z" fill="#D4F570"/>
<path d="M42.7096 28.8218C42.7096 28.7696 42.7096 28.7174 42.7096 28.6652C42.7096 24.227 42.7096 19.7889 42.7096 15.3507C42.7096 15.2463 42.7096 15.1941 42.7096 15.0897V15.0375L42.7624 14.9853C42.8152 14.9853 42.868 14.9853 42.9208 14.9853C43.4487 14.9853 44.0295 14.9853 44.5574 14.9853C44.6102 14.9853 44.663 14.9853 44.7686 14.9853C44.8214 14.9853 44.8214 14.933 44.8214 14.933C44.8214 14.8808 44.8214 14.8808 44.8214 14.8286C44.8214 14.1498 44.8214 13.4711 44.8214 12.7401V12.6879C44.8214 12.6356 44.7686 12.6357 44.7686 12.6357C44.7158 12.6357 44.663 12.6357 44.663 12.6357C42.5513 12.6357 40.4395 12.6357 38.3278 12.6357C38.275 12.6357 38.2222 12.6357 38.2222 12.6357C38.1694 12.6357 38.1166 12.6879 38.1166 12.7401C38.1166 12.7923 38.1166 12.7923 38.1166 12.8445C38.1166 13.5233 38.1166 14.2021 38.1166 14.8286C38.1166 14.8808 38.1166 14.933 38.1166 14.933C38.1166 14.9853 38.1694 14.9853 38.2222 14.9853C38.275 14.9853 38.3278 14.9853 38.3806 14.9853C38.9613 14.9853 39.4893 14.9853 40.07 14.9853C40.2812 14.9853 40.2812 14.9853 40.2812 15.1941C40.2812 15.2463 40.2812 15.2985 40.2812 15.3507C40.2812 17.5959 40.2812 19.7889 40.2812 22.0341C40.2812 24.2792 40.2812 26.5244 40.2812 28.7696C40.2812 28.8218 40.2812 28.9262 40.2812 28.9784C40.2812 29.0307 40.2812 29.0307 40.334 29.0307C40.3867 29.0307 40.3867 29.0307 40.4395 29.0307C41.1786 29.0307 41.865 29.0307 42.6041 29.0307C42.7096 28.9784 42.7096 28.9784 42.7096 28.8218Z" fill="#D4F570"/>
<path d="M86 43.3371C86 43.2327 86 43.2327 85.8944 43.2327C85.8416 43.2327 85.7888 43.2327 85.6832 43.2327C84.8386 43.2327 84.0467 43.2327 83.202 43.2327C82.8324 43.2327 82.8852 43.2849 82.8852 42.9194C82.8852 39.7344 82.8852 36.5494 82.8852 33.3643C82.8852 32.1112 82.8852 30.8581 82.8852 29.605C82.8852 29.5528 82.8852 29.5006 82.8852 29.3961C82.8852 29.3439 82.8324 29.2917 82.7796 29.2917C82.7268 29.2917 82.674 29.2917 82.6212 29.2917C81.9877 29.2917 81.3014 29.2917 80.6679 29.2917C80.3511 29.2917 80.4039 29.2395 80.4039 29.605C80.4039 32.2679 80.4039 34.8785 80.4039 37.5414C80.4039 40.1521 80.4039 42.815 80.4039 45.4256C80.4039 45.4779 80.4039 45.5823 80.4039 45.6345C80.4039 45.7389 80.4039 45.7389 80.5623 45.7389C80.6151 45.7389 80.6679 45.7389 80.7207 45.7389C82.4101 45.7389 84.0994 45.7389 85.736 45.7389C85.7888 45.7389 85.8416 45.7389 85.8944 45.7389C86 45.7389 86 45.7389 86 45.6345C86 45.4256 86 45.2168 86 45.0079C86 44.4336 86 43.9115 86 43.3371Z" fill="#D4F570"/>
<path d="M24.0209 37.5414C24.0209 34.8785 24.0209 32.2679 24.0209 29.605C24.0209 29.5528 24.0209 29.4483 24.0209 29.3961C24.0209 29.3439 23.9681 29.2917 23.9153 29.2917C23.8625 29.2917 23.8097 29.2917 23.7041 29.2917C23.0706 29.2917 22.4371 29.2917 21.8036 29.2917C21.434 29.2917 21.4868 29.2395 21.4868 29.605C21.4868 34.8785 21.4868 40.2043 21.4868 45.4779C21.4868 45.5301 21.4868 45.5823 21.4868 45.6345C21.4868 45.7911 21.4868 45.7911 21.6452 45.7911C21.698 45.7911 21.7508 45.7911 21.8036 45.7911C22.4371 45.7911 23.1234 45.7911 23.7569 45.7911C24.0737 45.7911 24.0209 45.8433 24.0209 45.5301C24.0209 42.815 24.0209 40.2043 24.0209 37.5414Z" fill="#D4F570"/>
<path d="M50.6286 17.8578C50.6814 17.8578 50.6814 17.8578 50.7342 17.8578C50.6814 17.8045 50.6286 17.8045 50.6286 17.8578Z" fill="#D4F570"/>
<path d="M4.75138 0.104427C4.96255 0.15664 5.12093 0.31328 5.22652 0.417707C5.33211 0.574347 5.43769 0.730988 5.49049 0.992054C5.54328 1.20091 5.54328 1.46198 5.49049 1.72304C5.43769 1.98411 5.33211 2.24518 5.22652 2.45403C5.12093 2.66288 4.90976 2.87174 4.75138 2.97616C4.48742 3.1328 4.27624 3.28944 4.06507 3.34166C3.80111 3.39387 3.53714 3.44608 3.27317 3.44608H1.16145L0.580724 6.05675H0L1.31983 0H4.01228C4.27624 0 4.54021 0.0522134 4.75138 0.104427ZM4.32904 2.66288C4.6458 2.45403 4.80417 2.14075 4.90976 1.72304C5.01535 1.30533 4.96255 0.992055 4.75138 0.783201C4.54021 0.574347 4.22345 0.469921 3.80111 0.469921H1.79497L1.26704 2.92395H3.27317C3.64273 2.97616 4.01228 2.87174 4.32904 2.66288Z" fill="#DF45A7"/>
<path d="M6.17679 6.00454C5.96561 5.90012 5.75444 5.69126 5.64886 5.48241C5.54327 5.27356 5.49048 5.01249 5.43768 4.75142C5.43768 4.49036 5.43768 4.17708 5.49048 3.8638C5.54327 3.55052 5.64886 3.28945 5.80723 3.02838C5.96561 2.76731 6.12399 2.50625 6.33517 2.29739C6.54634 2.08854 6.75751 1.9319 7.07427 1.77526C7.39103 1.61862 7.70779 1.56641 8.02455 1.56641C8.3941 1.56641 8.65806 1.61862 8.86924 1.77526C9.08041 1.9319 9.23879 2.08854 9.34437 2.34961C9.44996 2.55846 9.50275 2.81953 9.50275 3.13281C9.50275 3.44609 9.44996 3.75937 9.39717 4.02044H6.01841C5.96561 4.22929 5.96561 4.43814 5.96561 4.647C5.96561 4.85585 6.01841 5.01249 6.12399 5.22134C6.22958 5.37798 6.33517 5.53462 6.49355 5.63905C6.65193 5.74348 6.8631 5.79569 7.12706 5.79569C7.49661 5.79569 7.86617 5.69126 8.13013 5.48241C8.3941 5.27356 8.60527 5.01249 8.76365 4.647H9.29158C9.08041 5.16913 8.76365 5.53462 8.3941 5.79569C8.02455 6.05676 7.54941 6.2134 7.02148 6.2134C6.70472 6.16118 6.38796 6.10897 6.17679 6.00454ZM9.02762 2.97617C9.02762 2.76731 8.92203 2.61067 8.86924 2.45403C8.76365 2.29739 8.65806 2.19297 8.49968 2.08854C8.34131 1.98411 8.13013 1.98411 7.91896 1.98411C7.70779 1.98411 7.49662 2.03633 7.28544 2.08854C7.07427 2.19297 6.91589 2.29739 6.75751 2.45403C6.59913 2.61067 6.44075 2.76731 6.33517 2.97617C6.22958 3.18502 6.12399 3.34166 6.0712 3.55052H8.92203C9.08041 3.34166 9.08041 3.18502 9.02762 2.97617Z" fill="#DF45A7"/>
<path d="M11.1921 2.14076L10.3475 6.05676H9.81952L10.7698 1.67084H13.6734L13.5678 2.14076H11.1921Z" fill="#DF45A7"/>
<path d="M17.105 1.67084H17.7913L16.841 6.05676H16.3131L17.105 2.2974L13.8846 6.05676H13.1983L14.1486 1.67084H14.6765L13.8846 5.4302L17.105 1.67084Z" fill="#DF45A7"/>
<path d="M21.434 3.55052L21.8035 1.67084H22.3315L21.3812 6.05676H20.8533L21.2756 3.96823H18.7415L18.3192 6.05676H17.7913L18.7415 1.67084H19.2695L18.8999 3.55052H21.434V3.55052Z" fill="#DF45A7"/>
<path d="M23.1234 6.10897C22.965 6.05676 22.8066 6.00454 22.701 5.8479C22.5954 5.74348 22.4899 5.58684 22.4899 5.4302C22.4371 5.27356 22.4371 5.0647 22.4899 4.85585C22.5426 4.54257 22.701 4.33372 22.8594 4.12486C23.0178 3.96822 23.229 3.81158 23.4929 3.75937C23.7569 3.65494 24.0209 3.60273 24.2848 3.55052L25.1823 3.44609C25.2879 3.44609 25.3935 3.44609 25.4991 3.39388C25.6046 3.39388 25.6574 3.34166 25.763 3.28945C25.8158 3.23723 25.8686 3.18502 25.9214 3.13281C25.8686 3.13281 25.9214 3.02838 25.9742 2.92395C26.027 2.76731 26.027 2.61067 25.9742 2.45403C25.9214 2.34961 25.8686 2.24518 25.763 2.19297C25.6574 2.14075 25.5519 2.08854 25.4463 2.03633C25.2879 2.03633 25.1823 1.98411 25.0239 1.98411C24.7072 1.98411 24.3904 2.03633 24.1264 2.24518C23.8625 2.40182 23.7041 2.66289 23.5985 3.02838H23.0706C23.229 2.50625 23.4929 2.14075 23.8625 1.9319C24.1792 1.67083 24.6544 1.56641 25.1295 1.56641C25.3407 1.56641 25.4991 1.56641 25.7102 1.61862C25.9214 1.67083 26.0798 1.72305 26.1854 1.82747C26.291 1.9319 26.3965 2.08854 26.4493 2.24518C26.5021 2.45403 26.5021 2.66289 26.4493 2.97617L25.9742 5.27356C25.9214 5.48241 26.027 5.58684 26.2382 5.58684C26.291 5.58684 26.3438 5.58684 26.3965 5.53462L26.291 6.00454H26.1326C26.0798 6.00454 26.027 6.00454 25.9214 6.00454C25.763 6.00454 25.6574 6.00454 25.6046 5.95233C25.5519 5.90012 25.4463 5.8479 25.4463 5.79569C25.3935 5.74348 25.3935 5.63905 25.3935 5.53462C25.3935 5.4302 25.3935 5.32577 25.4463 5.22134C25.3407 5.37798 25.1823 5.48241 25.0767 5.58684C24.9711 5.69126 24.8127 5.79569 24.7072 5.8479C24.5488 5.90012 24.3904 5.95233 24.232 6.00454C24.0736 6.05676 23.8625 6.05676 23.6513 6.05676C23.4401 6.16119 23.2817 6.16118 23.1234 6.10897ZM24.3904 5.63905C24.6016 5.58684 24.76 5.48241 24.9183 5.37798C25.0767 5.27356 25.2351 5.11692 25.3407 4.96028C25.4463 4.80364 25.5519 4.59478 25.6046 4.38593L25.763 3.65494C25.7102 3.70716 25.6574 3.75937 25.5519 3.81158C25.4463 3.81158 25.3407 3.8638 25.2879 3.8638C25.0239 3.91601 24.8127 3.91601 24.5488 3.96822C24.2848 4.02044 24.0736 4.07265 23.8625 4.12486C23.6513 4.17708 23.4401 4.2815 23.2817 4.38593C23.1234 4.49036 23.0178 4.647 22.965 4.85585C22.965 5.01249 22.965 5.11692 22.965 5.22134C22.965 5.32577 23.0706 5.4302 23.1234 5.48241C23.1762 5.53462 23.2817 5.63905 23.3873 5.63905C23.4929 5.69126 23.5985 5.69126 23.7569 5.69126C24.0209 5.74348 24.232 5.69126 24.3904 5.63905Z" fill="#DF45A7"/>
<path d="M31.2007 0.469921L29.9865 6.00454H29.4058L30.7256 0H34.5267L34.4211 0.469921H31.2007Z" fill="#DF45A7"/>
<path d="M34.3683 6.10897C34.2099 6.05676 34.0515 6.00454 33.946 5.8479C33.8404 5.74348 33.7348 5.58684 33.7348 5.4302C33.682 5.27356 33.682 5.0647 33.7348 4.85585C33.7876 4.54257 33.946 4.33372 34.1043 4.12486C34.2627 3.96822 34.4739 3.81158 34.7379 3.75937C35.0018 3.65494 35.2658 3.60273 35.5298 3.55052L36.4272 3.44609C36.5328 3.44609 36.6384 3.44609 36.744 3.39388C36.8496 3.39388 36.9024 3.34166 37.008 3.28945C37.0608 3.23723 37.1135 3.18502 37.1663 3.13281C37.2191 3.08059 37.2719 2.97617 37.2719 2.81953C37.3247 2.66289 37.3247 2.50625 37.2719 2.34961C37.2191 2.24518 37.1663 2.14075 37.0607 2.08854C36.9552 2.03633 36.8496 1.98411 36.744 1.9319C36.5856 1.9319 36.48 1.87969 36.3216 1.87969C36.0049 1.87969 35.6881 1.9319 35.4242 2.14075C35.1602 2.29739 35.0018 2.55846 34.8962 2.92395H34.3683C34.5267 2.40182 34.7906 2.03633 35.1602 1.82747C35.4242 1.67083 35.8993 1.56641 36.3744 1.56641C36.5856 1.56641 36.744 1.56641 36.9552 1.61862C37.1663 1.67083 37.3247 1.72305 37.4303 1.82747C37.5359 1.9319 37.6415 2.08854 37.6943 2.24518C37.7471 2.45403 37.7471 2.66289 37.6943 2.97617L37.2191 5.27356C37.1663 5.48241 37.2719 5.58684 37.4831 5.58684C37.5359 5.58684 37.5887 5.58684 37.6415 5.53462L37.5359 6.00454H37.3775C37.3247 6.00454 37.2719 6.00454 37.1663 6.00454C37.008 6.00454 36.9024 6.00454 36.8496 5.95233C36.7968 5.90012 36.6912 5.8479 36.6912 5.79569C36.6384 5.74348 36.6384 5.63905 36.6384 5.53462C36.6384 5.4302 36.6384 5.32577 36.6912 5.22134C36.5856 5.37798 36.4272 5.48241 36.3216 5.58684C36.2161 5.69126 36.0577 5.79569 35.9521 5.8479C35.7937 5.90012 35.6353 5.95233 35.477 6.00454C35.3186 6.05676 35.1074 6.05676 34.8962 6.05676C34.6851 6.16119 34.5267 6.16118 34.3683 6.10897ZM35.6353 5.63905C35.8465 5.58684 36.0049 5.48241 36.1633 5.37798C36.3216 5.27356 36.48 5.11692 36.5856 4.96028C36.6912 4.80364 36.7968 4.59478 36.8496 4.38593L37.008 3.65494C36.9552 3.70716 36.9024 3.75937 36.7968 3.81158C36.6912 3.81158 36.5856 3.8638 36.5328 3.8638C36.2689 3.91601 36.0577 3.91601 35.7937 3.96822C35.5298 4.02044 35.3186 4.07265 35.1074 4.12486C34.8962 4.17708 34.6851 4.2815 34.5267 4.38593C34.3683 4.49036 34.2627 4.647 34.2099 4.85585C34.2099 5.01249 34.2099 5.11692 34.2099 5.22134C34.2099 5.32577 34.3155 5.4302 34.3683 5.48241C34.4211 5.53462 34.5267 5.63905 34.6323 5.63905C34.7379 5.69126 34.8434 5.69126 35.0018 5.69126C35.2658 5.74348 35.477 5.69126 35.6353 5.63905Z" fill="#DF45A7"/>
<path d="M37.9582 6.10898H37.8527C37.7999 6.10898 37.7471 6.10898 37.7471 6.10898C37.6943 6.10898 37.6943 6.10898 37.6943 6.10898L37.7999 5.63906C37.8527 5.63906 37.9054 5.69127 38.011 5.69127C38.1166 5.69127 38.1694 5.69127 38.2222 5.69127C38.275 5.69127 38.3278 5.69127 38.4334 5.69127C38.4862 5.69127 38.5918 5.63906 38.6973 5.53463C38.7501 5.48242 38.8557 5.32578 38.9613 5.16914C39.0669 5.0125 39.1725 4.80365 39.2781 4.49037C39.3837 4.17708 39.4892 3.8638 39.6476 3.39388C39.7532 2.97618 39.9116 2.40183 40.0172 1.77527H42.9736L42.0233 6.16119H41.4954L42.3401 2.24519H40.4395C40.2811 2.87175 40.1756 3.39388 40.0172 3.8638C39.8588 4.17708 39.7004 4.54258 39.5948 4.85586C39.4892 5.16914 39.3309 5.37799 39.2253 5.53463C39.1197 5.69127 38.9613 5.84791 38.8557 5.90013C38.7501 6.00455 38.5918 6.05677 38.4862 6.05677C38.3806 6.05677 38.2222 6.05677 38.1166 6.05677C38.0638 6.10898 38.011 6.10898 37.9582 6.10898Z" fill="#DF45A7"/>
<path d="M46.8803 1.67084H47.5666L46.6164 6.05676H46.0884L46.8803 2.2974L43.6599 6.05676H42.9736L43.9239 1.67084H44.4518L43.6599 5.4302L46.8803 1.67084Z" fill="#DF45A7"/>
<path d="M48.5169 6.00454C48.3057 5.90012 48.0945 5.69126 47.9889 5.48241C47.8834 5.27356 47.8306 5.01249 47.7778 4.75142C47.7778 4.49036 47.7778 4.17708 47.8306 3.8638C47.8834 3.55052 47.9889 3.28945 48.1473 3.02838C48.3057 2.76731 48.4641 2.50625 48.6753 2.29739C48.8864 2.08854 49.0976 1.9319 49.4144 1.77526C49.7311 1.61862 50.0479 1.56641 50.4174 1.56641C50.787 1.56641 51.0509 1.61862 51.2621 1.77526C51.4733 1.9319 51.6317 2.08854 51.7373 2.29739C51.8428 2.50625 51.8956 2.76731 51.8956 3.08059C51.8956 3.39388 51.8428 3.70716 51.79 3.96822H48.4113C48.3585 4.17708 48.3585 4.38593 48.3585 4.59478C48.3585 4.80364 48.4113 4.96028 48.5169 5.16913C48.6225 5.32577 48.728 5.48241 48.8864 5.58684C49.0448 5.69126 49.256 5.74348 49.5199 5.74348C49.8895 5.74348 50.259 5.63905 50.523 5.4302C50.787 5.22134 50.9982 4.96028 51.1565 4.59478H51.6845C51.4733 5.11692 51.1565 5.48241 50.787 5.74348C50.4174 6.00454 49.9423 6.16119 49.4144 6.16119C49.0448 6.16119 48.7808 6.10897 48.5169 6.00454ZM51.4205 2.97617C51.4205 2.76731 51.3149 2.61067 51.2621 2.45403C51.1565 2.29739 51.0509 2.19297 50.8926 2.08854C50.7342 1.98411 50.5758 1.98411 50.3118 1.98411C50.1007 1.98411 49.8895 2.03633 49.6783 2.08854C49.4672 2.19297 49.3088 2.29739 49.1504 2.45403C48.992 2.61067 48.8336 2.76731 48.728 2.97617C48.6225 3.18502 48.5169 3.34166 48.4641 3.55052H51.3149C51.4205 3.34166 51.4205 3.18502 51.4205 2.97617Z" fill="#DF45A7"/>
<path d="M56.0663 1.9319C56.2775 2.08854 56.3303 2.34961 56.2775 2.7151C56.2247 2.97617 56.1191 3.18502 55.9607 3.39388C55.8023 3.55052 55.5912 3.70716 55.3272 3.75937C55.5912 3.81158 55.8023 3.91601 55.9607 4.07265C56.0663 4.22929 56.1191 4.49036 56.0663 4.80364C55.9607 5.22135 55.8023 5.48241 55.4856 5.69127C55.1688 5.90012 54.7465 6.00455 54.2185 6.00455H52.2124L53.1627 1.61862H55.1688C55.4856 1.67084 55.8551 1.77526 56.0663 1.9319ZM55.0632 5.37799C55.2744 5.22135 55.38 5.06471 55.4856 4.75143C55.5384 4.49036 55.4856 4.28151 55.3272 4.17708C55.1688 4.02044 54.9049 3.96822 54.5353 3.96822H53.1099L52.7931 5.58684H54.2185C54.5353 5.58684 54.7993 5.53463 55.0632 5.37799ZM55.3272 3.39388C55.4856 3.28945 55.644 3.0806 55.644 2.87174C55.7495 2.40182 55.4856 2.14076 54.8521 2.14076H53.4266L53.1099 3.60273H54.5353C54.9049 3.55052 55.1688 3.4983 55.3272 3.39388Z" fill="#DF45A7"/>
<path d="M57.1749 6.10897C57.0166 6.05675 56.8582 6.00454 56.7526 5.8479C56.647 5.74347 56.5414 5.58683 56.5414 5.43019C56.4886 5.27355 56.4886 5.0647 56.5414 4.85585C56.5942 4.54257 56.7526 4.33371 56.911 4.12486C57.0694 3.96822 57.2805 3.81158 57.5445 3.75936C57.8085 3.65494 58.0724 3.60272 58.3364 3.55051L59.2339 3.44608C59.3395 3.44608 59.4451 3.44608 59.5506 3.39387C59.6562 3.39387 59.709 3.34166 59.8146 3.28944C59.8674 3.23723 59.9202 3.18502 59.973 3.1328C60.0258 3.08059 60.0786 2.97616 60.0786 2.81952C60.1314 2.66288 60.1314 2.50624 60.0786 2.3496C60.0258 2.24518 59.973 2.14075 59.8674 2.08854C59.7618 2.03632 59.6562 1.98411 59.5506 1.9319C59.3923 1.9319 59.2867 1.87968 59.1283 1.87968C58.8115 1.87968 58.4948 1.9319 58.2308 2.14075C57.9668 2.29739 57.8085 2.55846 57.7029 2.92395H57.1749C57.3333 2.40182 57.5973 2.03632 57.9668 1.82747C58.3364 1.61862 58.7587 1.46198 59.2867 1.46198C59.4978 1.46198 59.6562 1.46198 59.8674 1.51419C60.0786 1.5664 60.2369 1.61862 60.3425 1.72304C60.4481 1.82747 60.5537 1.98411 60.6065 2.14075C60.6593 2.3496 60.6593 2.55846 60.6065 2.87174L60.1314 5.16913C60.0786 5.37798 60.1842 5.48241 60.3953 5.48241C60.4481 5.48241 60.5009 5.48241 60.5537 5.43019L60.4481 5.90011H60.2897C60.2369 5.90011 60.1842 5.90011 60.0786 5.90011C59.9202 5.90011 59.8146 5.90011 59.7618 5.8479C59.709 5.79569 59.6034 5.74347 59.6034 5.69126C59.5506 5.63905 59.5506 5.53462 59.5506 5.43019C59.5506 5.32577 59.5506 5.22134 59.6034 5.11691C59.4978 5.27355 59.3395 5.37798 59.2339 5.48241C59.1283 5.58683 58.9699 5.69126 58.8643 5.74347C58.7059 5.79569 58.5476 5.8479 58.3892 5.90011C58.2308 5.95233 58.0196 5.95233 57.8085 5.95233C57.5445 6.16118 57.3861 6.16118 57.1749 6.10897ZM58.4948 5.63905C58.7059 5.58683 58.8643 5.48241 59.0227 5.37798C59.1811 5.27355 59.3395 5.11691 59.445 4.96027C59.5506 4.80363 59.6562 4.59478 59.709 4.38592L59.8674 3.70715C59.8146 3.75936 59.7618 3.81158 59.6562 3.86379C59.5506 3.86379 59.445 3.916 59.3923 3.916C59.1283 3.96822 58.9171 3.96822 58.6532 4.02043C58.3892 4.07264 58.178 4.12486 57.9668 4.17707C57.7557 4.22928 57.5445 4.33371 57.3861 4.43814C57.2277 4.54257 57.1222 4.69921 57.0694 4.90806C57.0694 5.0647 57.0694 5.16913 57.0694 5.27355C57.0694 5.37798 57.1749 5.48241 57.2277 5.53462C57.2805 5.58683 57.3861 5.69126 57.4917 5.69126C57.5973 5.74347 57.7029 5.74347 57.8613 5.74347C58.1252 5.74347 58.2836 5.69126 58.4948 5.63905Z" fill="#DF45A7"/>
</svg>
