<svg width="261" height="142" viewBox="0 0 261 142" fill="none" xmlns="http://www.w3.org/2000/svg">
<g clip-path="url(#clip0_21_268)">
<path d="M180.409 88.9717C180.569 89.6164 180.409 89.6164 181.21 89.6164C182.812 89.6164 184.575 89.6164 186.177 89.6164C186.337 89.6164 186.497 89.6164 186.497 89.6164C186.658 89.6164 186.818 89.6164 186.818 89.294C186.818 89.1328 186.818 88.9717 186.818 88.6493C186.818 72.3701 186.818 55.9297 186.818 39.6504C186.818 39.4893 186.818 39.3281 186.818 39.3281C186.818 38.8445 186.818 38.8445 186.337 38.8445C186.177 38.8445 186.017 38.8445 185.857 38.8445C184.094 38.8445 182.332 38.8445 180.729 38.8445C179.608 38.8445 179.768 38.6834 179.768 39.8116C179.768 47.8706 179.768 56.0908 179.768 64.1499C179.768 64.4722 179.768 64.9558 179.768 65.2781H179.608C179.608 65.1169 179.448 64.7946 179.448 64.6334C179.127 63.344 178.807 62.2157 178.486 60.9263C176.724 53.8343 175.122 46.7424 173.359 39.4893C173.359 39.3281 173.199 39.1669 173.199 38.8445C173.199 38.6834 173.039 38.6833 173.039 38.6833C172.879 38.6833 172.718 38.6833 172.558 38.6833C170.796 38.6833 168.873 38.6833 167.111 38.6833C166.31 38.6833 166.31 38.6833 166.31 39.4893C166.31 55.9297 166.31 72.3701 166.31 88.6493C166.31 88.8105 166.31 88.9717 166.31 89.1328C166.31 89.294 166.47 89.294 166.47 89.294C166.63 89.294 166.79 89.294 167.111 89.294C168.873 89.294 170.636 89.294 172.238 89.294C173.199 89.294 173.199 89.4552 173.199 88.3269C173.199 79.462 173.199 70.5971 173.199 61.7322C173.199 61.4098 173.199 61.2486 173.199 60.9263C173.199 60.7651 173.199 60.7651 173.359 60.7651C173.52 60.9263 173.52 60.9263 173.52 61.0874C175.282 68.0182 177.044 74.949 178.807 82.0409C179.287 84.4586 179.768 86.7151 180.409 88.9717Z" fill="#D4F570"/>
<path d="M119.205 90.7446C119.205 90.5835 119.044 90.4223 118.884 90.4223C118.724 90.4223 118.564 90.4223 118.403 90.4223C116.641 90.4223 114.879 90.4223 112.956 90.4223C111.995 90.4223 112.155 90.2611 112.155 91.2282C112.155 98.3201 112.155 105.412 112.155 112.504C112.155 113.793 112.155 115.244 112.155 116.534C112.155 116.695 112.155 116.695 112.155 116.856C112.155 117.017 112.155 116.856 112.155 116.856C112.155 116.695 111.995 116.695 111.995 116.534C111.354 113.955 110.713 111.376 110.072 108.797C108.79 103.317 107.348 97.8366 106.066 92.1953C105.906 91.7117 105.746 91.067 105.746 90.5835C105.746 90.4223 105.586 90.2611 105.426 90.2611H105.265C103.343 90.2611 101.26 90.2611 99.3371 90.2611H99.1769C99.0167 90.2611 99.0167 90.4223 98.8564 90.4223C98.8564 90.5835 98.8564 90.7447 98.8564 90.9058C98.8564 91.7117 98.8564 92.6788 98.8564 93.4847C98.8564 108.958 98.8564 124.431 98.8564 139.905C98.8564 140.227 98.8564 140.388 98.8564 140.711C98.8564 140.872 99.0167 140.872 99.0167 140.872C99.1769 140.872 99.3371 140.872 99.4973 140.872C101.26 140.872 103.182 140.872 104.945 140.872C105.746 140.872 105.746 140.872 105.746 140.066C105.746 139.905 105.746 139.744 105.746 139.582C105.746 130.879 105.746 122.175 105.746 113.471C105.746 113.149 105.746 112.665 105.746 112.343H105.906C105.906 112.504 106.066 112.826 106.066 112.988C106.867 116.05 107.669 119.112 108.47 122.336C109.912 128.3 111.354 134.102 112.956 140.066C112.956 140.227 113.116 140.388 113.116 140.711C113.116 140.872 113.276 140.872 113.276 140.872C113.437 140.872 113.597 140.872 113.757 140.872C115.359 140.872 116.801 140.872 118.403 140.872C118.724 140.872 119.044 141.033 119.365 140.711C119.365 140.388 119.365 140.066 119.365 139.744C119.365 123.464 119.365 107.185 119.365 90.9058C119.365 90.7447 119.365 90.5835 119.365 90.4223C119.205 90.9058 119.205 90.9058 119.205 90.7446Z" fill="#D4F570"/>
<path d="M20.5083 98.9648C20.348 97.5142 20.1878 96.0635 19.7072 94.7741C18.906 93.0011 17.6243 91.7117 15.8618 91.0669C14.7403 90.5834 13.4585 90.5834 12.1768 90.5834C8.49168 90.5834 4.8066 90.5834 1.28174 90.5834C0.160191 90.5834 0.320412 90.4222 0.320412 91.5505C0.320412 99.7707 0.320412 107.83 0.320412 116.05C0.320412 124.27 0.320412 132.49 0.320412 140.711C0.320412 141.355 0.320412 141.355 0.961296 141.355C4.8066 141.355 8.49168 141.355 12.337 141.355C13.1381 141.355 14.0994 141.194 14.9005 141.033C17.1436 140.549 18.7458 139.099 19.7072 137.003C19.8674 136.52 20.0276 136.036 20.1878 135.553C20.5083 134.263 20.6685 132.813 20.6685 131.523C20.6685 121.047 20.6685 110.731 20.6685 100.254C20.5083 99.6095 20.5083 99.2871 20.5083 98.9648ZM12.4972 131.04C12.4972 131.523 12.337 132.007 12.1768 132.49C11.8563 133.135 11.3757 133.619 10.7348 133.78C10.5746 133.78 10.4143 133.78 10.0939 133.78C9.45301 133.78 8.6519 133.78 8.01102 133.78C7.8508 133.78 7.8508 133.78 7.69058 133.619C7.69058 133.457 7.69058 133.135 7.69058 132.974C7.69058 127.171 7.69058 121.369 7.69058 115.566C7.69058 109.764 7.69058 103.961 7.69058 98.1589C7.69058 97.1918 7.69058 97.353 8.49168 97.353C8.97235 97.353 9.45301 97.353 9.93367 97.353C10.2541 97.353 10.4143 97.353 10.7348 97.5142C11.3757 97.6753 11.8563 97.9977 12.0165 98.6424C12.1768 99.126 12.337 99.6095 12.337 100.093C12.337 100.738 12.337 101.221 12.337 101.866C12.337 111.053 12.337 120.241 12.337 129.428C12.6574 129.911 12.6574 130.556 12.4972 131.04Z" fill="#D4F570"/>
<path d="M189.542 89.2941C189.542 89.4553 189.542 89.4553 189.702 89.4553C189.862 89.4553 190.022 89.4553 190.022 89.4553C193.707 89.4553 197.553 89.4553 201.238 89.4553C202.039 89.4553 202.84 89.4552 203.641 89.1329C205.083 88.8105 206.525 88.1658 207.486 87.0375C208.287 86.0705 208.768 85.1034 209.249 83.8139C209.729 82.3633 209.729 80.9127 209.729 79.4621C209.729 77.8503 209.729 76.0773 209.729 74.4655C209.729 65.6005 209.729 56.8968 209.729 48.0319C209.729 46.5812 209.569 45.1306 209.249 43.68C208.448 41.1011 206.845 39.3281 204.122 38.8446C203.16 38.6834 202.359 38.5222 201.398 38.5222C197.713 38.5222 193.868 38.5222 190.182 38.5222C190.022 38.5222 189.862 38.5222 189.702 38.5222C189.542 38.5222 189.381 38.5222 189.381 38.8446C189.381 39.0058 189.381 39.3281 189.381 39.4893C189.381 47.5483 189.381 55.7685 189.381 63.8276C189.381 70.9195 189.381 78.0114 189.381 85.1034C189.381 86.2316 189.381 87.3599 189.381 88.4882C189.542 88.9717 189.542 89.1329 189.542 89.2941ZM197.232 46.7424C197.232 46.5812 197.232 46.4201 197.232 46.4201C197.232 45.7753 197.232 45.7753 197.873 45.7753C198.514 45.7753 198.995 45.7753 199.635 45.7753C200.757 45.7753 201.558 46.2589 201.879 47.3871C202.039 47.8707 202.039 48.3542 202.039 48.8378C202.039 49.3213 202.039 49.6437 202.039 50.1272C202.039 59.3145 202.039 68.5018 202.039 77.6891C202.039 78.495 202.039 79.1397 201.879 79.7844C201.879 79.9456 201.718 80.1068 201.718 80.4291C201.398 81.3962 200.757 81.8798 199.956 82.041C199.155 82.2021 198.354 82.041 197.553 82.041C197.392 82.041 197.392 81.8798 197.392 81.8798C197.392 81.7186 197.392 81.3962 197.392 81.235C197.392 75.4326 197.392 69.6301 197.392 63.9887C197.232 58.1862 197.232 52.3837 197.232 46.7424Z" fill="#D4F570"/>
<path d="M194.348 115.889C194.348 107.669 194.348 99.6095 194.348 91.3893C194.348 91.2281 194.348 90.9058 194.348 90.7446C194.348 90.5834 194.348 90.5834 194.188 90.5834C194.028 90.5834 193.868 90.5834 193.547 90.5834C191.464 90.5834 189.542 90.5834 187.459 90.5834C186.497 90.5834 186.658 90.4222 186.658 91.3893C186.658 97.5142 186.658 103.639 186.658 109.764C186.658 109.925 186.658 110.086 186.658 110.409C186.658 110.892 186.658 110.892 186.177 110.892C184.735 110.892 183.293 110.892 181.851 110.892C181.691 110.892 181.691 110.892 181.531 110.892L181.37 110.731C181.37 110.57 181.37 110.409 181.37 110.086C181.37 107.507 181.37 104.928 181.37 102.35C181.37 98.6424 181.37 94.9353 181.37 91.3893C181.37 91.2281 181.37 91.067 181.37 90.7446C181.37 90.5834 181.37 90.5834 181.21 90.4222C181.05 90.4222 181.05 90.4222 180.89 90.4222C178.647 90.4222 176.403 90.4222 174.16 90.4222C173.68 90.4222 173.68 90.4222 173.68 90.9058V91.067C173.68 107.507 173.68 123.948 173.68 140.388C173.68 140.549 173.68 140.711 173.68 140.872C173.68 141.033 173.68 141.033 173.84 141.033C174 141.033 174.16 141.033 174.481 141.033C176.403 141.033 178.486 141.033 180.409 141.033C181.531 141.033 181.37 141.194 181.37 140.066C181.37 133.296 181.37 126.365 181.37 119.596C181.37 119.435 181.37 119.112 181.37 118.951C181.37 118.79 181.37 118.79 181.531 118.79C181.691 118.79 181.851 118.79 182.011 118.79C183.133 118.79 184.414 118.79 185.536 118.79C186.497 118.79 186.337 118.629 186.337 119.596C186.337 126.365 186.337 133.296 186.337 140.066C186.337 140.227 186.337 140.549 186.337 140.711C186.337 140.872 186.497 140.872 186.497 140.872C186.658 140.872 186.818 140.872 187.138 140.872C189.061 140.872 191.144 140.872 193.066 140.872C194.028 140.872 193.868 141.033 193.868 140.066C194.348 132.168 194.348 124.109 194.348 115.889Z" fill="#D4F570"/>
<path d="M94.0498 85.748C94.0498 86.7151 94.0498 87.6822 94.0498 88.8105C94.0498 88.9716 94.0498 89.1328 94.0498 89.294C94.0498 89.4552 94.21 89.6164 94.3702 89.6164C94.5305 89.6164 94.6907 89.6164 95.0111 89.6164C96.9338 89.6164 99.0167 89.6164 100.939 89.6164C101.901 89.6164 101.901 89.7775 101.901 88.6493C101.901 81.7185 101.901 74.7878 101.901 67.857C101.901 67.6958 101.901 67.3735 101.901 67.2123C101.901 66.8899 101.901 66.8899 102.221 66.8899C102.862 66.8899 103.503 66.8899 104.304 66.8899C104.624 66.8899 104.945 66.8899 105.265 67.0511C105.906 67.2123 106.387 67.6958 106.707 68.3405C106.707 68.5017 106.867 68.8241 106.867 68.9853C106.867 69.4688 106.867 69.9523 106.867 70.2747C106.867 75.2713 106.867 80.2679 106.867 85.2645C106.867 85.9092 106.867 86.3928 106.867 87.0375C106.867 87.6822 107.028 88.3269 107.348 88.9716C107.508 89.294 107.669 89.4552 108.149 89.4552C110.392 89.4552 112.475 89.4552 114.718 89.4552C114.879 89.4552 114.879 89.4552 115.039 89.4552C115.199 89.4552 115.199 89.294 115.199 89.1328C115.199 88.9716 115.039 88.8105 115.039 88.4881C114.718 87.8434 114.558 87.0375 114.558 86.2316C114.558 85.748 114.558 85.2645 114.558 84.7809C114.558 78.9785 114.558 73.3371 114.558 67.5346C114.558 67.0511 114.558 66.5676 114.558 66.2452C114.398 64.4722 113.597 63.0216 111.834 62.0545C111.674 62.0545 111.514 61.8933 111.354 61.7321L111.514 61.571C112.796 60.9262 113.597 59.798 114.077 58.3474C114.398 57.3803 114.558 56.4132 114.558 55.4461C114.558 52.2225 114.558 49.1601 114.558 45.9365C114.558 44.8082 114.398 43.5187 114.077 42.3905C113.437 40.6175 112.155 39.3281 110.392 38.8445C109.431 38.5222 108.309 38.361 107.188 38.361C103.343 38.361 99.3371 38.361 95.4918 38.361C95.1713 38.361 94.8509 38.1998 94.5305 38.5222C94.3702 38.6833 94.5305 39.1669 94.5305 39.3281C94.0498 55.1237 94.0498 70.4359 94.0498 85.748ZM101.74 46.5812C101.74 46.42 101.74 46.2588 101.74 45.9365C101.74 45.7753 101.901 45.6141 102.061 45.6141C102.862 45.6141 103.503 45.6141 104.304 45.6141C104.624 45.6141 104.785 45.6141 105.105 45.7753C105.746 45.9365 106.066 46.42 106.387 47.0647C106.547 47.5483 106.547 48.193 106.547 48.6765C106.547 51.0942 106.547 53.6731 106.547 56.0908C106.547 56.7355 106.547 57.2191 106.387 57.8638C106.066 58.9921 105.265 59.4756 104.144 59.6368C103.503 59.6368 102.702 59.6368 102.061 59.6368C101.901 59.6368 101.74 59.4756 101.74 59.3144C101.74 59.1533 101.74 58.9921 101.74 58.6697C101.74 56.5744 101.74 54.479 101.74 52.5449C101.74 50.6107 101.74 48.5153 101.74 46.5812Z" fill="#D4F570"/>
<path d="M241.132 98.6425C240.972 97.1919 240.652 95.7413 239.851 94.4518C239.05 92.84 237.928 91.7118 236.326 91.0671C235.364 90.5835 234.403 90.4223 233.442 90.2612C232.16 90.1 231.039 90.1 229.757 90.1C228.956 90.1 227.994 90.2612 227.193 90.4223C224.79 90.9059 222.867 92.3565 221.746 94.613C221.425 95.2577 221.105 96.0636 220.945 96.8696C220.464 98.4814 220.304 100.093 220.304 101.705C220.304 111.053 220.304 120.241 220.304 129.589C220.304 130.556 220.304 131.685 220.464 132.652C220.624 134.263 220.945 135.714 221.585 137.165C222.707 139.421 224.309 140.872 226.713 141.517C227.674 141.839 228.635 142 229.597 142C230.398 142 231.199 142 231.84 142C232.961 142 233.922 141.839 235.044 141.517C236.967 140.872 238.569 139.744 239.53 137.971C240.011 137.165 240.331 136.359 240.492 135.553C240.972 133.941 241.132 132.329 241.132 130.556C241.132 125.721 241.132 120.885 241.132 116.05C241.132 111.215 241.132 106.379 241.132 101.705C241.293 100.577 241.293 99.6096 241.132 98.6425ZM233.442 132.007C233.442 132.329 233.282 132.813 233.121 133.135C232.801 133.941 232.16 134.425 231.199 134.425C231.039 134.425 230.718 134.425 230.558 134.425C229.757 134.263 229.116 133.941 228.635 133.135C228.475 132.652 228.315 132.329 228.315 131.846C228.315 131.362 228.155 130.879 228.155 130.395C228.155 120.724 228.155 111.215 228.155 101.544C228.155 101.06 228.155 100.577 228.315 100.093C228.315 99.6096 228.475 99.2873 228.635 98.9649C228.956 98.3202 229.436 97.8366 230.237 97.6755C230.558 97.6755 230.878 97.5143 231.199 97.5143C232.32 97.5143 232.961 97.9978 233.442 99.1261C233.602 99.6096 233.762 100.254 233.762 100.899C233.762 101.221 233.762 101.544 233.762 101.866C233.762 106.702 233.762 111.376 233.762 116.211C233.762 121.047 233.762 125.882 233.762 130.717C233.442 130.879 233.442 131.523 233.442 132.007Z" fill="#D4F570"/>
<path d="M217.74 98.6425C217.58 97.353 217.26 96.2248 216.779 94.9353C215.978 93.1623 214.856 91.7117 213.094 90.9058C212.133 90.4223 211.171 90.2611 210.21 90.0999C208.928 89.9387 207.646 89.9387 206.365 89.9387C205.564 89.9387 204.602 90.0999 203.801 90.2611C201.077 90.9058 199.155 92.5176 198.033 95.0965C197.873 95.58 197.713 96.0636 197.553 96.7083C197.072 98.3201 196.912 99.9319 196.912 101.705C196.912 106.379 196.912 111.215 196.912 115.889C196.912 120.402 196.912 124.915 196.912 129.589C196.912 130.556 196.912 131.684 197.072 132.652C197.232 133.941 197.553 135.392 198.033 136.52C199.155 139.26 201.077 140.872 203.961 141.516C205.884 142 207.807 141.839 209.89 141.678C210.37 141.678 210.851 141.516 211.171 141.516C213.895 140.872 215.818 139.26 216.939 136.681C217.26 136.036 217.42 135.23 217.58 134.586C217.901 132.974 218.061 131.201 218.061 129.589C218.061 120.402 218.061 111.215 218.061 101.866C217.901 100.899 217.901 99.7707 217.74 98.6425ZM210.05 132.168C209.89 132.652 209.89 132.974 209.569 133.296C209.249 133.941 208.608 134.263 207.967 134.263C207.646 134.263 207.486 134.263 207.166 134.263C206.365 134.102 205.884 133.78 205.403 133.135C205.243 132.652 205.083 132.329 204.923 131.846C204.923 131.362 204.762 130.717 204.762 130.234C204.762 120.724 204.762 111.215 204.762 101.705C204.762 101.221 204.762 100.577 204.923 100.093C204.923 99.9319 204.923 99.6096 205.083 99.4484C205.403 97.8366 206.685 97.353 207.967 97.5142C208.768 97.6754 209.409 98.1589 209.729 98.9648C210.05 99.6096 210.05 100.093 210.05 100.738C210.05 101.06 210.05 101.221 210.05 101.544C210.05 106.379 210.05 111.215 210.05 116.05C210.05 120.885 210.05 125.721 210.05 130.556C210.05 131.04 210.05 131.523 210.05 132.168Z" fill="#D4F570"/>
<path d="M20.6685 39.0057C20.6685 38.8446 20.5083 38.8446 20.5083 38.8446C20.3481 38.8446 20.1879 38.8446 20.0277 38.8446C17.9448 38.8446 15.7017 38.8446 13.6188 38.8446C12.9779 38.8446 12.9779 38.8446 12.9779 39.4893C12.9779 39.6505 12.9779 39.8116 12.9779 39.9728C12.9779 46.0977 12.9779 52.0614 12.9779 58.1862C12.9779 58.3474 12.9779 58.5086 12.9779 58.8309C12.9779 59.1533 12.9779 59.1533 12.6575 59.1533C11.2155 59.1533 9.61329 59.1533 8.17131 59.1533C7.85086 59.1533 7.85086 59.1533 7.85086 58.6698C7.85086 58.5086 7.85086 58.3474 7.85086 58.1862C7.85086 55.285 7.85086 52.3837 7.85086 49.4825C7.85086 46.2589 7.85086 42.8741 7.85086 39.6505C7.85086 39.4893 7.85086 39.1669 7.85086 39.0057L7.69064 38.8446C7.53042 38.8446 7.3702 38.8446 7.04976 38.8446C5.12711 38.8446 3.04423 38.8446 1.12158 38.8446C3.49196e-05 38.6834 0.160256 38.6834 0.160256 39.6505C0.160256 47.7095 0.160256 55.9297 0.160256 63.9887C0.160256 72.2089 0.160256 80.2679 0.160256 88.4881C0.160256 88.6493 0.160256 88.9717 0.160256 89.1329C0.160256 89.294 0.320477 89.294 0.320477 89.4552C0.480698 89.4552 0.640919 89.4552 0.961361 89.4552C2.88401 89.4552 4.80666 89.4552 6.72932 89.4552C7.85086 89.4552 7.69064 89.6164 7.69064 88.4881C7.69064 81.7186 7.69064 74.949 7.69064 68.0182C7.69064 67.857 7.69064 67.5347 7.69064 67.3735C7.69064 67.2123 7.85086 67.2123 7.85086 67.2123C8.01108 67.2123 8.17131 67.2123 8.33153 67.2123C9.61329 67.2123 10.8951 67.2123 12.0166 67.2123C12.8177 67.2123 12.8177 67.0511 12.8177 68.0182C12.8177 68.1794 12.8177 68.3406 12.8177 68.5018C12.8177 75.1102 12.8177 81.8797 12.8177 88.4881C12.8177 88.6493 12.8177 88.8105 12.8177 89.1329C12.8177 89.4552 12.8177 89.4552 13.1382 89.4552C13.2984 89.4552 13.4586 89.4552 13.6188 89.4552C15.7017 89.4552 17.7846 89.4552 19.7072 89.4552C20.5083 89.4552 20.5083 89.4552 20.5083 88.6493C20.5083 72.2089 20.5083 55.7685 20.5083 39.3281C20.6685 39.3281 20.6685 39.1669 20.6685 39.0057Z" fill="#D4F570"/>
<path d="M95.6521 110.409C95.4919 110.409 95.4919 110.409 95.3316 110.409C92.1272 110.409 89.083 110.409 85.8786 110.409C85.7184 110.409 85.5581 110.409 85.3979 110.409C85.2377 110.409 85.2377 110.57 85.2377 110.57C85.2377 110.731 85.2377 110.892 85.2377 110.892C85.2377 113.149 85.2377 115.244 85.2377 117.501C85.2377 118.145 85.2377 118.145 85.8786 118.145C86.0388 118.145 86.199 118.145 86.3593 118.145C87.0001 118.145 87.641 118.145 88.2819 118.145C88.6023 118.145 88.7626 118.145 88.7626 118.629C88.7626 119.274 88.7626 119.757 88.7626 120.402C88.7626 123.787 88.7626 127.333 88.7626 130.717C88.7626 131.362 88.7626 131.846 88.6023 132.49C88.2819 133.296 87.8012 133.78 87.1604 134.102C85.5582 134.586 84.2764 134.102 83.7957 132.329V132.168C83.6355 131.684 83.6355 131.04 83.6355 130.556C83.6355 120.885 83.6355 111.053 83.6355 101.383C83.6355 101.06 83.6355 100.738 83.6355 100.415C83.6355 99.7707 83.7957 99.2872 84.1162 98.8036C84.757 97.5142 86.6797 97.353 87.641 98.3201C87.8012 98.4813 87.9615 98.6425 87.9615 98.8036C88.1217 99.126 88.1217 99.2872 88.2819 99.6096C88.4421 100.093 88.4421 100.577 88.4421 101.06C88.4421 102.672 88.4421 104.284 88.4421 105.896C88.4421 106.057 88.4421 106.218 88.4421 106.379C88.4421 106.701 88.4421 106.701 88.7626 106.701C91.0057 106.701 93.0885 106.701 95.3316 106.701C95.4919 106.701 95.4919 106.701 95.6521 106.701L95.8123 106.54C95.8123 106.379 95.8123 106.218 95.8123 106.057C95.8123 104.606 95.8123 103.156 95.8123 101.705C95.8123 100.577 95.8123 99.4484 95.6521 98.3201C95.4919 97.353 95.3316 96.2248 95.0112 95.2577C94.5305 93.6459 93.7294 92.3564 92.2874 91.3893C91.1659 90.7446 89.8841 90.2611 88.6023 90.0999C87.3206 89.9387 86.0388 89.9387 84.757 89.9387C83.9559 89.9387 83.1548 90.0999 82.3537 90.2611C80.7515 90.5834 79.3095 91.3893 78.188 92.6788C77.3869 93.6459 76.746 94.7741 76.4256 95.9024C75.9449 97.353 75.7847 98.9648 75.7847 100.577C75.7847 111.215 75.7847 121.852 75.7847 132.49C75.7847 133.296 75.7847 134.102 75.9449 134.747C76.2653 136.198 76.746 137.648 77.7073 138.938C79.4698 141.355 82.1935 142.161 85.0775 141.516C86.199 141.194 87.1604 140.711 88.1217 139.905C89.083 138.938 89.8841 137.971 90.525 136.681C90.525 136.52 90.6852 136.359 90.8454 136.198C91.0057 136.842 91.1659 137.326 91.3261 137.971C91.4863 138.776 91.8068 139.743 91.967 140.549C92.1272 140.872 92.1272 140.872 92.4477 140.872C93.5692 140.872 94.851 140.872 95.9725 140.872C96.293 140.872 96.293 140.872 96.293 140.549C96.293 140.388 96.293 140.227 96.293 139.905C96.293 130.234 96.293 120.563 96.293 110.892C96.293 110.731 96.293 110.57 96.293 110.247C95.9725 110.409 95.9725 110.409 95.6521 110.409Z" fill="#D4F570"/>
<path d="M147.563 120.079C146.762 118.468 145.801 117.017 144.679 115.728C142.917 113.471 141.315 111.215 139.552 109.119C138.911 108.313 138.271 107.507 137.79 106.54C137.149 105.412 136.829 104.284 136.668 103.156C136.508 102.027 136.508 100.899 136.668 99.7707C136.668 99.4484 136.668 99.126 136.829 98.8036C137.149 97.8365 137.63 97.353 138.591 97.353C140.033 97.1918 140.834 97.8365 140.994 99.2872C140.994 99.7707 140.994 100.254 140.994 100.738C140.994 102.672 140.994 104.606 140.994 106.54C140.994 106.701 140.994 106.863 140.994 107.024C140.994 107.507 140.994 107.507 141.475 107.507C143.718 107.507 145.801 107.507 148.044 107.507C148.364 107.507 148.525 107.507 148.525 107.024C148.525 105.734 148.525 104.445 148.525 103.317C148.525 101.705 148.525 100.093 148.525 98.4813C148.525 97.353 148.364 96.0636 148.044 94.9353C147.403 93.0011 146.121 91.7117 144.359 91.067C143.558 90.7446 142.757 90.5834 141.956 90.5834C140.514 90.4222 139.072 90.4222 137.469 90.4222C136.508 90.4222 135.707 90.5834 134.746 90.9058C132.182 91.7117 130.42 93.3235 129.458 95.9024C128.978 97.0306 128.818 98.3201 128.818 99.4484C128.818 101.383 128.657 103.155 128.978 105.09C129.138 107.024 129.619 108.958 130.58 110.57C131.381 112.182 132.342 113.632 133.464 114.922C134.906 116.856 136.508 118.79 137.95 120.724C138.751 121.691 139.392 122.658 140.033 123.787C140.514 124.593 140.834 125.56 140.994 126.527C141.315 128.461 141.155 130.395 140.994 132.168C140.994 132.652 140.834 133.135 140.674 133.619C140.514 134.102 140.193 134.425 139.713 134.586C138.271 135.23 136.829 134.586 136.348 133.135C136.348 132.974 136.348 132.813 136.188 132.652C136.027 132.007 136.027 131.523 136.027 130.879C136.027 128.3 136.027 125.721 136.027 123.142C136.027 122.981 136.027 122.82 136.027 122.497C136.027 122.497 136.027 122.336 135.867 122.336C135.707 122.336 135.547 122.336 135.547 122.336C133.304 122.336 131.221 122.336 128.978 122.336C128.818 122.336 128.657 122.336 128.657 122.336C128.497 122.336 128.497 122.497 128.497 122.497C128.497 122.658 128.497 122.82 128.497 123.142C128.497 124.754 128.497 126.527 128.497 128.138C128.497 128.622 128.497 128.944 128.497 129.428C128.497 130.717 128.497 131.846 128.497 133.135C128.497 134.586 128.818 136.036 129.298 137.326C130.099 139.26 131.541 140.711 133.464 141.355C133.945 141.516 134.585 141.678 135.226 141.839C136.829 142.161 138.591 142.161 140.193 142C140.834 142 141.315 141.839 141.956 141.839C144.679 141.355 146.602 139.905 147.884 137.326C148.044 136.842 148.204 136.52 148.525 136.036C149.166 134.425 149.326 132.813 149.326 131.201C149.326 129.267 149.326 127.333 149.166 125.56C148.845 123.464 148.364 121.691 147.563 120.079Z" fill="#D4F570"/>
<path d="M61.0444 119.112C60.4035 117.984 59.6024 117.017 58.9615 115.889C57.1991 113.632 55.4367 111.376 53.8344 109.119C53.1936 108.313 52.5527 107.507 52.072 106.702C51.5914 105.896 51.1107 104.929 50.9505 103.8C50.63 102.027 50.63 100.254 50.7902 98.4813C50.9505 97.0307 51.7516 96.7083 53.0333 96.7083H53.1936C53.9947 96.8695 54.4753 97.1919 54.7958 97.9978C54.956 98.4813 54.956 98.9649 54.956 99.6096C54.956 101.705 54.956 103.961 54.956 106.057C54.956 106.218 54.956 106.379 54.956 106.702C54.956 106.863 55.1162 106.863 55.1162 106.863C55.2764 106.863 55.4367 106.863 55.4367 106.863C57.5195 106.863 59.6024 106.863 61.6853 106.863C61.8455 106.863 62.0057 106.863 62.0057 106.863C62.1659 106.863 62.1659 106.863 62.1659 106.702C62.1659 106.54 62.1659 106.379 62.1659 106.379C62.1659 103.639 62.1659 100.899 62.1659 98.159C62.1659 96.8695 62.0057 95.7413 61.6853 94.4518C61.0444 92.3565 59.7626 91.067 57.6797 90.4223C57.0389 90.0999 56.2378 90.0999 55.4367 89.9388C54.1549 89.7776 52.8731 89.7776 51.4311 89.7776C50.63 89.7776 49.6687 89.9388 48.8676 90.1C45.8234 90.7447 43.9007 92.5177 42.9394 95.5801C42.619 96.386 42.4588 97.3531 42.4588 98.3202C42.4588 100.415 42.2985 102.511 42.619 104.767C42.7792 106.702 43.2599 108.475 44.2212 110.086C44.8621 111.537 45.8234 112.826 46.7847 114.116C48.3869 116.05 49.8289 117.984 51.4311 119.918C52.072 120.885 52.8731 121.691 53.3538 122.82C53.9947 123.787 54.3151 124.915 54.4753 126.204C54.6355 127.977 54.6355 129.75 54.4753 131.523C54.4753 132.007 54.3151 132.652 53.9947 133.135C53.8344 133.619 53.3538 134.102 52.8731 134.102C51.5914 134.425 50.1494 134.263 49.6687 132.329V132.168C49.5085 131.685 49.5085 131.201 49.5085 130.556C49.5085 127.977 49.5085 125.237 49.5085 122.658C49.5085 122.497 49.5085 122.336 49.5085 122.014C49.5085 121.852 49.3483 121.691 49.188 121.691C49.0278 121.691 49.0278 121.691 48.8676 121.691C46.7847 121.691 44.5416 121.691 42.4588 121.691C42.2985 121.691 42.2985 121.691 42.1383 121.691C41.9781 121.691 41.8179 121.852 41.8179 122.014C41.8179 122.175 41.8179 122.336 41.8179 122.658C41.8179 124.27 41.8179 126.043 41.8179 127.655C41.8179 129.106 41.8179 130.717 41.8179 132.168C41.8179 133.296 41.9781 134.425 42.2985 135.553C42.9394 137.809 44.2212 139.582 46.4643 140.711C47.4256 141.194 48.3869 141.355 49.3483 141.517C51.1107 141.678 52.7129 141.678 54.4753 141.517C55.5969 141.355 56.7184 141.033 57.6797 140.549C59.4422 139.582 60.7239 138.132 61.3648 136.359C62.0057 134.908 62.3262 133.458 62.4864 131.846C62.6466 129.75 62.6466 127.655 62.4864 125.398C62.8068 123.303 62.3262 121.047 61.0444 119.112Z" fill="#D4F570"/>
<path d="M28.3593 89.4552C29.3206 89.7776 30.2819 89.9387 31.2432 89.9387C32.2046 89.9387 33.1659 89.9387 34.1272 89.9387C34.7681 89.9387 35.2488 89.9387 35.8896 89.7776C38.9338 89.294 41.1769 87.6822 42.4587 84.781C43.0996 83.3303 43.42 81.8797 43.5803 80.4291C43.7405 78.3337 43.7405 76.0772 43.5803 73.9819C43.42 71.403 42.6189 68.9853 41.3372 66.7287C40.5361 65.6005 39.735 64.4722 38.9338 63.344C37.3316 61.2486 35.7294 59.1533 34.1272 57.0579C33.4863 56.0908 32.6852 55.1237 32.2046 54.1567C31.7239 53.1896 31.4035 52.2225 31.2432 51.0942C31.083 49.966 31.083 48.6765 31.2432 47.5483C31.2432 47.2259 31.4035 46.7424 31.4035 46.42C31.5637 45.6141 32.2046 45.1306 33.0057 45.1306C34.6079 44.9694 35.409 45.6141 35.5692 47.0647C35.5692 47.5483 35.5692 48.0318 35.5692 48.3542C35.5692 50.2883 35.5692 52.3837 35.5692 54.3179C35.5692 54.479 35.5692 54.6402 35.5692 54.8014C35.5692 55.1238 35.5692 55.1238 35.8896 55.1238H36.0499C38.1327 55.1238 40.2156 55.1238 42.2985 55.1238C42.4587 55.1238 42.6189 55.1238 42.6189 55.1238C42.7792 55.1238 42.7792 54.9626 42.7792 54.9626C42.7792 54.8014 42.7792 54.6402 42.7792 54.3179C42.7792 52.706 42.7792 50.9331 42.7792 49.3213C42.7792 48.193 42.7792 47.2259 42.7792 46.0976C42.7792 44.9694 42.6189 43.6799 42.2985 42.5517C41.6576 40.6175 40.3758 39.3281 38.4532 38.5222C37.4919 38.1998 36.3703 38.0386 35.409 37.8774C34.4477 37.8774 33.4863 37.8774 32.3648 37.8774C31.4035 37.8774 30.4421 38.0386 29.4808 38.1998C26.5968 38.8445 24.6742 40.6175 23.7129 43.5188C23.3924 44.4858 23.2322 45.4529 23.2322 46.42C23.2322 48.5154 23.072 50.6107 23.3924 52.5449C23.5526 54.1567 24.0333 55.7685 24.6742 57.3803C25.4753 58.9921 26.4366 60.4427 27.3979 61.8933C29.0001 63.9887 30.6024 65.9228 32.0443 68.0182C32.8455 68.9853 33.4863 69.9524 34.1272 71.0806C34.7681 72.2089 35.0885 73.3371 35.2488 74.6266C35.409 76.2384 35.409 77.689 35.2488 79.3008C35.2488 79.9455 35.0885 80.4291 34.7681 81.0738C34.4477 81.7185 33.967 82.0409 33.3261 82.2021C31.8841 82.5244 30.7626 82.0409 30.2819 80.2679V80.1067C30.1217 79.462 30.1217 78.8173 30.1217 78.1726C30.1217 75.5937 30.1217 73.176 30.1217 70.5971C30.1217 70.4359 30.1217 70.2747 30.1217 69.9524L29.9615 69.7912C29.8013 69.7912 29.8013 69.7912 29.641 69.7912C27.3979 69.7912 25.1548 69.7912 22.9118 69.7912H22.7515C22.5913 69.7912 22.5913 69.9524 22.5913 69.9524C22.5913 70.1135 22.5913 70.2747 22.5913 70.5971C22.5913 72.2089 22.5913 73.8207 22.5913 75.4325C22.5913 76.8831 22.5913 78.3337 22.5913 79.7844C22.5913 81.0738 22.7515 82.2021 23.072 83.4915C24.0333 86.7151 25.6355 88.6493 28.3593 89.4552Z" fill="#D4F570"/>
<path d="M163.746 109.442C163.746 109.603 163.746 109.603 163.906 109.603C164.066 109.603 164.227 109.603 164.387 109.603C166.47 109.603 168.553 109.603 170.635 109.603C170.796 109.603 170.956 109.603 170.956 109.603C171.116 109.603 171.116 109.442 171.116 109.28C171.116 109.119 171.116 109.119 171.116 108.958C171.116 105.896 171.116 102.833 171.116 99.6096C171.116 97.9978 170.956 96.5472 170.475 95.0965C169.834 93.1624 168.553 91.5506 166.63 90.7447C165.669 90.2611 164.707 90.0999 163.746 89.9388C162.304 89.7776 161.022 89.7776 159.58 89.7776C158.779 89.7776 157.978 89.9388 157.177 90.1C155.254 90.5835 153.492 91.7118 152.37 93.3236C151.89 94.1295 151.409 95.0965 151.249 96.0636C150.928 97.5142 150.768 98.8037 150.768 100.254C150.768 105.251 150.768 110.409 150.768 115.405C150.768 120.402 150.768 125.398 150.768 130.395C150.768 131.04 150.768 131.523 150.768 132.168C150.928 133.619 151.089 135.069 151.569 136.359C152.53 138.776 154.293 140.388 156.856 141.194C157.818 141.517 158.779 141.517 159.74 141.517C160.542 141.517 161.182 141.517 161.984 141.517C162.624 141.517 163.265 141.517 164.066 141.355C165.989 141.033 167.591 140.227 168.713 138.776C169.514 137.809 170.155 136.681 170.475 135.392C170.956 133.941 171.116 132.329 171.116 130.717C171.116 127.01 171.116 123.142 171.116 119.435C171.116 119.274 171.116 119.112 171.116 118.951C171.116 118.79 170.956 118.79 170.796 118.79C170.635 118.79 170.475 118.79 170.315 118.79C168.232 118.79 166.149 118.79 164.227 118.79C163.426 118.79 163.586 118.79 163.586 119.435C163.586 123.142 163.586 126.688 163.586 130.395C163.586 130.556 163.586 130.879 163.586 131.04C163.586 131.685 163.426 132.168 163.105 132.813C162.785 133.458 162.144 133.941 161.343 133.941C161.182 133.941 161.022 133.941 160.862 133.941C159.901 133.941 159.42 133.458 158.939 132.652C158.779 132.49 158.779 132.168 158.779 132.007C158.619 131.523 158.619 130.879 158.619 130.395C158.619 120.402 158.619 110.409 158.619 100.415C158.619 100.093 158.619 99.7708 158.619 99.4484C158.619 98.9649 158.779 98.4813 158.939 98.159C159.1 97.8366 159.26 97.5143 159.74 97.3531C160.702 96.8695 161.663 97.0307 162.464 97.5143C162.785 97.6754 162.945 97.8366 163.105 98.159C163.265 98.4813 163.426 98.6425 163.426 98.9649C163.586 99.4484 163.586 99.932 163.586 100.415C163.586 103.156 163.586 105.896 163.586 108.475C163.746 109.119 163.746 109.28 163.746 109.442Z" fill="#D4F570"/>
<path d="M71.2985 89.4552C71.4587 89.4552 71.619 89.4552 71.619 89.4552C72.9007 89.4552 74.3427 89.4552 75.6245 89.4552C76.2654 89.4552 76.746 89.4552 77.3869 89.4552C77.7074 89.4552 77.7074 89.4552 77.7074 89.1328C77.7074 88.4881 77.8676 88.0045 77.8676 87.3598C78.188 85.1033 78.3482 82.6856 78.6687 80.429C78.6687 80.2679 78.6687 80.1067 78.6687 80.1067C78.6687 79.9455 78.8289 79.9455 78.8289 79.9455C78.9891 79.9455 79.1494 79.9455 79.3096 79.9455C80.7516 79.9455 82.0333 79.9455 83.4753 79.9455C84.4366 79.9455 84.2764 79.7843 84.2764 80.7514C84.5969 83.3303 84.7571 85.9092 85.0775 88.4881C85.0775 88.8104 85.0775 88.9716 85.2378 89.294C85.2378 89.4552 85.398 89.4552 85.398 89.4552C85.5582 89.4552 85.7184 89.4552 85.8786 89.4552C86.84 89.4552 87.8013 89.4552 88.9228 89.4552C89.8842 89.4552 90.8455 89.4552 91.8068 89.4552C92.7681 89.4552 92.7681 89.6163 92.6079 88.4881C92.2875 86.0704 91.967 83.4915 91.6466 81.0738C91.3261 78.9784 91.1659 76.8831 90.8455 74.7877C90.525 72.37 90.2046 69.7911 89.8842 67.3734C89.7239 65.6004 89.4035 63.6663 89.2433 61.8933C88.9228 59.4756 88.6024 56.8967 88.2819 54.479C87.9615 52.3836 87.8013 50.1271 87.4808 48.0318C87.1604 45.9364 87.0002 43.8411 86.6797 41.7457C86.5195 40.9398 86.5195 39.9727 86.3593 39.1668C86.3593 38.8445 86.1991 38.8445 86.0389 38.8445C85.8786 38.8445 85.7184 38.8445 85.7184 38.8445C83.1549 38.8445 80.5913 38.8445 77.8676 38.8445C77.7074 38.8445 77.5471 38.8445 77.3869 38.8445C77.2267 38.8445 77.2267 38.8445 77.2267 39.0057C77.2267 39.1668 77.2267 39.1668 77.2267 39.328C77.0665 40.6175 76.9063 42.0681 76.746 43.3575C76.4256 45.6141 76.2654 47.8706 75.9449 49.9659C75.6245 52.2225 75.3041 54.6402 75.1438 56.8967C74.9836 58.6697 74.6632 60.6038 74.5029 62.3768C74.1825 64.6334 74.0223 66.8899 73.7018 69.3076C73.3814 71.5641 73.2212 73.6595 72.9007 75.916C72.7405 77.689 72.4201 79.6231 72.2598 81.3961C72.0996 83.3303 71.7792 85.2645 71.619 87.1986C71.619 87.8433 71.4587 88.4881 71.4587 89.1328C70.9781 89.4552 70.9781 89.4552 71.2985 89.4552ZM80.1107 67.6958C80.2709 65.9228 80.4311 64.311 80.5913 62.538C80.7516 60.2815 81.072 58.1861 81.2322 55.9296C81.2322 55.6073 81.2322 55.2849 81.3924 54.9625C81.3924 54.8013 81.3924 54.6402 81.5527 54.479C81.7129 56.5743 82.0333 58.5085 82.1936 60.4427C82.514 63.0216 82.8344 65.6004 82.9947 68.1793C83.1549 69.4688 83.3151 70.7582 83.4753 72.2088C83.4753 72.5312 83.4753 72.5312 83.1549 72.5312C82.0333 72.5312 80.9118 72.5312 79.7902 72.5312C79.4698 72.5312 79.4698 72.5312 79.4698 72.2088C79.7902 70.597 79.9505 69.1464 80.1107 67.6958Z" fill="#D4F570"/>
<path d="M151.409 79.9456C152.691 79.9456 154.133 79.9456 155.415 79.9456C155.735 79.9456 156.055 79.9456 156.376 79.9456C156.536 79.9456 156.696 80.1068 156.696 80.268C156.696 80.9127 156.857 81.3962 156.857 82.041C157.017 84.2975 157.337 86.554 157.497 88.6493C157.497 88.8105 157.497 88.9717 157.497 89.2941C157.497 89.4553 157.658 89.4553 157.818 89.4553C157.978 89.4553 157.978 89.4553 158.138 89.4553C160.221 89.4553 162.304 89.4553 164.547 89.4553C164.707 89.4553 164.868 89.4553 165.028 89.2941C165.028 88.6494 164.868 88.1658 164.868 87.5211C164.387 84.2975 164.066 80.9127 163.586 77.6891C163.265 75.5937 163.105 73.4984 162.785 71.403C162.304 68.0182 161.984 64.6335 161.503 61.2487C161.182 58.831 160.862 56.4133 160.542 53.9955C160.221 51.4167 159.901 48.8378 159.58 46.2589C159.26 44.1635 159.1 42.2294 158.779 40.134C158.779 39.6505 158.619 39.3281 158.619 38.8446C158.619 38.6834 158.459 38.5222 158.299 38.5222C157.978 38.5222 157.497 38.5222 157.177 38.5222C154.774 38.5222 152.37 38.5222 149.967 38.5222C149.486 38.5222 149.486 38.5222 149.486 39.0058C149.326 40.6176 149.006 42.2294 148.845 44.0024C148.525 46.7424 148.205 49.3213 147.884 52.0614C147.564 55.1238 147.083 58.1862 146.763 61.2487C146.442 63.9887 146.122 66.5676 145.801 69.3077C145.481 72.3701 145 75.4325 144.68 78.495C144.359 81.7186 143.879 84.9422 143.558 88.327C143.558 88.6493 143.558 88.9717 143.398 89.2941C143.398 89.4553 143.398 89.4552 143.558 89.6164C143.718 89.6164 143.879 89.6164 143.879 89.6164C145.801 89.6164 147.564 89.6164 149.486 89.6164C149.647 89.6164 149.647 89.6164 149.807 89.6164C150.127 89.6164 150.127 89.6164 150.127 89.2941C150.127 89.1329 150.127 88.9717 150.127 88.9717C150.287 87.3599 150.448 85.7481 150.608 84.1363C150.768 82.8469 150.928 81.7186 151.089 80.4291C151.089 79.9456 151.089 79.9456 151.409 79.9456ZM152.21 68.9853C152.37 66.89 152.691 64.6335 152.851 62.5381C153.171 60.1204 153.332 57.5415 153.652 55.1238C153.652 54.8014 153.652 54.6403 153.652 54.3179C153.652 54.3179 153.652 54.3179 153.812 54.3179H153.973C153.973 54.6403 154.133 54.8014 153.973 55.1238C154.293 58.0251 154.613 60.9263 154.934 63.8276C155.254 66.4064 155.415 68.8241 155.735 71.403C155.735 71.7254 155.735 71.8866 155.735 72.2089C155.735 72.3701 155.735 72.5313 155.415 72.5313C154.293 72.5313 153.171 72.5313 152.05 72.5313C151.729 72.5313 151.729 72.5313 151.729 72.2089C151.89 71.0807 152.05 69.9524 152.21 68.9853Z" fill="#D4F570"/>
<path d="M62.9668 81.7186C60.0828 81.7186 57.0386 81.7186 54.1546 81.7186C53.5137 81.7186 53.5137 81.7186 53.5137 81.0738C53.5137 76.722 53.5137 72.2089 53.5137 67.857C53.5137 67.0511 53.5137 67.2123 54.1546 67.2123C56.2375 67.2123 58.3203 67.2123 60.243 67.2123C60.4032 67.2123 60.5634 67.2123 60.8839 67.2123C61.0441 67.2123 61.2043 67.0511 61.2043 66.89C61.2043 66.7288 61.2043 66.5676 61.2043 66.4064C61.2043 64.7946 61.2043 63.1828 61.2043 61.571C61.2043 60.9263 61.2043 60.4427 61.2043 59.798C61.2043 59.4757 61.2043 59.4757 60.8839 59.4757C59.9226 59.4757 58.9612 59.4757 58.1601 59.4757C56.7181 59.4757 55.4364 59.4757 53.9944 59.4757C53.6739 59.4757 53.6739 59.4757 53.6739 59.1533C53.6739 58.9921 53.6739 58.9921 53.6739 58.8309C53.6739 54.8014 53.6739 50.7719 53.6739 46.9036C53.6739 46.2589 53.6739 46.2589 54.3148 46.2589C57.0386 46.2589 59.9226 46.2589 62.6463 46.2589C62.8065 46.2589 62.9668 46.2589 63.2872 46.2589C63.4474 46.2589 63.4474 46.0977 63.4474 46.0977C63.4474 45.9365 63.4474 45.7753 63.4474 45.7753C63.4474 43.68 63.4474 41.5846 63.4474 39.4893C63.4474 39.3281 63.4474 39.1669 63.2872 39.0057C63.127 39.0057 62.8065 39.0057 62.6463 39.0057C57.359 39.0057 52.232 39.0057 46.9447 39.0057C46.7844 39.0057 46.6242 39.0057 46.464 39.0057C46.1436 39.0057 46.1436 39.0057 46.1436 39.3281C46.1436 39.4893 46.1436 39.6505 46.1436 39.6505C46.1436 56.0909 46.1436 72.5313 46.1436 88.9717C46.1436 89.1329 46.1436 89.294 46.1436 89.4552C46.1436 89.6164 46.3038 89.6164 46.464 89.6164C46.6242 89.6164 46.7844 89.6164 46.9447 89.6164C52.3922 89.6164 57.9999 89.6164 63.4474 89.6164C63.6076 89.6164 63.7679 89.6164 63.9281 89.6164C64.0883 89.6164 64.0883 89.6164 64.0883 89.4552C64.0883 89.294 64.0883 89.1329 64.0883 88.9717C64.0883 86.8763 64.0883 84.781 64.0883 82.6856C63.7679 81.7186 63.7679 81.7186 62.9668 81.7186Z" fill="#D4F570"/>
<path d="M40.5359 133.619C40.3756 133.619 40.2154 133.619 40.0552 133.619C37.3314 133.619 34.4475 133.619 31.7237 133.619C31.5635 133.619 31.4033 133.619 31.0828 133.619C30.9226 133.619 30.9226 133.619 30.7624 133.458C30.7624 133.296 30.7624 133.296 30.7624 133.135C30.7624 128.622 30.7624 124.109 30.7624 119.435V119.274C30.7624 119.112 30.9226 119.112 30.9226 118.951C31.0828 118.951 31.243 118.951 31.5635 118.951C33.4861 118.951 35.569 118.951 37.4917 118.951C37.6519 118.951 37.8121 118.951 38.1326 118.951C38.2928 118.951 38.2928 118.79 38.2928 118.79C38.2928 118.629 38.2928 118.629 38.2928 118.468C38.2928 116.211 38.2928 114.116 38.2928 111.859C38.2928 111.698 38.2928 111.537 38.2928 111.537C38.453 111.215 38.453 111.215 38.2928 111.215C38.1326 111.215 37.9723 111.215 37.6519 111.215C35.569 111.215 33.4861 111.215 31.5635 111.215C30.7624 111.215 30.9226 111.215 30.9226 110.57C30.9226 106.54 30.9226 102.672 30.9226 98.6425C30.9226 98.4813 30.9226 98.3202 30.9226 98.159C30.9226 97.9978 31.0828 97.9978 31.0828 97.9978C31.243 97.9978 31.4033 97.9978 31.7237 97.9978C34.4475 97.9978 37.011 97.9978 39.7348 97.9978C40.0552 97.9978 40.2154 97.9978 40.5359 97.9978C40.6961 97.9978 40.6961 97.9978 40.6961 97.8366V97.6754C40.6961 95.4189 40.6961 93.3236 40.6961 91.067C40.6961 90.7447 40.6961 90.5835 40.2154 90.5835C40.0552 90.5835 40.0552 90.5835 39.895 90.5835C34.6077 90.5835 29.3204 90.5835 23.8729 90.5835C23.0718 90.5835 23.0718 90.5835 23.0718 91.3894C23.0718 91.5506 23.0718 91.7118 23.0718 91.7118C23.0718 99.7708 23.0718 107.83 23.0718 115.889C23.0718 124.109 23.0718 132.168 23.0718 140.388C23.0718 140.549 23.0718 140.872 23.0718 141.033C23.0718 141.194 23.232 141.194 23.232 141.194C23.3922 141.194 23.5524 141.194 23.7127 141.194C29.1602 141.194 34.6077 141.194 40.0552 141.194C40.2154 141.194 40.3756 141.194 40.3756 141.194C40.6961 141.194 40.6961 141.194 40.6961 140.872C40.6961 140.711 40.6961 140.549 40.6961 140.549C40.6961 138.938 40.6961 137.326 40.6961 135.714C40.6961 135.069 40.6961 134.586 40.6961 133.941C41.0165 133.619 41.0165 133.619 40.5359 133.619Z" fill="#D4F570"/>
<path d="M129.619 88.9717C129.619 88.8105 129.619 88.6493 129.619 88.4881C129.619 74.7878 129.619 61.0875 129.619 47.3871C129.619 47.0648 129.619 46.9036 129.619 46.5812V46.42L129.779 46.2589C129.939 46.2589 130.1 46.2589 130.26 46.2589C131.862 46.2589 133.624 46.2589 135.227 46.2589C135.387 46.2589 135.547 46.2589 135.868 46.2589C136.028 46.2589 136.028 46.0977 136.028 46.0977C136.028 45.9365 136.028 45.9365 136.028 45.7753C136.028 43.68 136.028 41.5846 136.028 39.3281V39.1669C136.028 39.0057 135.868 39.0057 135.868 39.0057C135.707 39.0057 135.547 39.0057 135.547 39.0057C129.138 39.0057 122.729 39.0057 116.321 39.0057C116.16 39.0057 116 39.0057 116 39.0057C115.84 39.0057 115.68 39.1669 115.68 39.3281C115.68 39.4893 115.68 39.4893 115.68 39.6505C115.68 41.7458 115.68 43.8411 115.68 45.7753C115.68 45.9365 115.68 46.0977 115.68 46.0977C115.68 46.2589 115.84 46.2589 116 46.2589C116.16 46.2589 116.321 46.2589 116.481 46.2589C118.243 46.2589 119.845 46.2589 121.608 46.2589C122.249 46.2589 122.249 46.2589 122.249 46.9036C122.249 47.0648 122.249 47.2259 122.249 47.3871C122.249 54.3179 122.249 61.0875 122.249 68.0182C122.249 74.949 122.249 81.8797 122.249 88.8105C122.249 88.9717 122.249 89.294 122.249 89.4552C122.249 89.6164 122.249 89.6164 122.409 89.6164C122.569 89.6164 122.569 89.6164 122.729 89.6164C124.973 89.6164 127.055 89.6164 129.298 89.6164C129.619 89.4552 129.619 89.4552 129.619 88.9717Z" fill="#D4F570"/>
<path d="M261 133.78C261 133.457 261 133.457 260.68 133.457C260.52 133.457 260.359 133.457 260.039 133.457C257.475 133.457 255.072 133.457 252.509 133.457C251.387 133.457 251.547 133.619 251.547 132.49C251.547 122.658 251.547 112.826 251.547 102.994C251.547 99.126 251.547 95.2577 251.547 91.3894C251.547 91.2282 251.547 91.067 251.547 90.7446C251.547 90.5834 251.387 90.4223 251.227 90.4223C251.067 90.4223 250.906 90.4223 250.746 90.4223C248.823 90.4223 246.741 90.4223 244.818 90.4223C243.857 90.4223 244.017 90.2611 244.017 91.3894C244.017 99.6096 244.017 107.669 244.017 115.889C244.017 123.948 244.017 132.168 244.017 140.227C244.017 140.388 244.017 140.711 244.017 140.872C244.017 141.194 244.017 141.194 244.498 141.194C244.658 141.194 244.818 141.194 244.978 141.194C250.105 141.194 255.232 141.194 260.199 141.194C260.359 141.194 260.52 141.194 260.68 141.194C261 141.194 261 141.194 261 140.872C261 140.227 261 139.582 261 138.938C261 137.165 261 135.553 261 133.78Z" fill="#D4F570"/>
<path d="M72.9007 115.889C72.9007 107.669 72.9007 99.6096 72.9007 91.3894C72.9007 91.2282 72.9007 90.9058 72.9007 90.7446C72.9007 90.5834 72.7404 90.4223 72.5802 90.4223C72.42 90.4223 72.2598 90.4223 71.9393 90.4223C70.0167 90.4223 68.094 90.4223 66.1714 90.4223C65.0498 90.4223 65.2101 90.2611 65.2101 91.3894C65.2101 107.669 65.2101 124.109 65.2101 140.388C65.2101 140.549 65.2101 140.711 65.2101 140.872C65.2101 141.355 65.2101 141.355 65.6907 141.355C65.8509 141.355 66.0112 141.355 66.1714 141.355C68.094 141.355 70.1769 141.355 72.0996 141.355C73.0609 141.355 72.9007 141.516 72.9007 140.549C72.9007 132.168 72.9007 124.109 72.9007 115.889Z" fill="#D4F570"/>
<path d="M153.652 55.1237C153.812 55.1237 153.812 55.1237 153.972 55.1237C153.812 54.9625 153.652 54.9625 153.652 55.1237Z" fill="#D4F570"/>
<path d="M14.4199 0.322361C15.0608 0.483541 15.5414 0.967083 15.8619 1.28944C16.1823 1.77299 16.5028 2.25653 16.663 3.06243C16.8232 3.70715 16.8232 4.51305 16.663 5.31896C16.5028 6.12486 16.1823 6.93076 15.8619 7.57548C15.5414 8.22021 14.9006 8.86493 14.4199 9.18729C13.6188 9.67083 12.9779 10.1544 12.337 10.3156C11.5359 10.4767 10.7348 10.6379 9.9337 10.6379H3.52486L1.76243 18.6969H0L4.00553 0H12.1768C12.9779 0 13.779 0.16118 14.4199 0.322361ZM13.1381 8.22021C14.0994 7.57548 14.5801 6.6084 14.9006 5.31896C15.221 4.02951 15.0608 3.06243 14.4199 2.41771C13.779 1.77299 12.8177 1.45062 11.5359 1.45062H5.44751L3.8453 9.02611H9.9337C11.0552 9.18729 12.1768 8.86493 13.1381 8.22021Z" fill="#DF45A7"/>
<path d="M18.746 18.5358C18.1051 18.2134 17.4643 17.5687 17.1438 16.924C16.8234 16.2793 16.6632 15.4734 16.5029 14.6675C16.5029 13.8616 16.5029 12.8945 16.6631 11.9274C16.8234 10.9603 17.1438 10.1544 17.6245 9.3485C18.1051 8.5426 18.5858 7.7367 19.2267 7.09198C19.8676 6.44725 20.5085 5.96371 21.4698 5.48017C22.4311 4.99663 23.3924 4.83545 24.3538 4.83545C25.4753 4.83545 26.2764 4.99663 26.9173 5.48017C27.5582 5.96371 28.0388 6.44725 28.3593 7.25316C28.6797 7.89788 28.8399 8.70378 28.8399 9.67086C28.8399 10.6379 28.6797 11.605 28.5195 12.4109H18.2654C18.1051 13.0557 18.1051 13.7004 18.1051 14.3451C18.1051 14.9898 18.2654 15.4734 18.5858 16.1181C18.9062 16.6016 19.2267 17.0852 19.7074 17.4075C20.188 17.7299 20.8289 17.8911 21.63 17.8911C22.7515 17.8911 23.8731 17.5687 24.6742 16.924C25.4753 16.2793 26.1162 15.4734 26.5969 14.3451H28.1991C27.5582 15.9569 26.5969 17.0852 25.4753 17.8911C24.3538 18.697 22.9118 19.1805 21.3096 19.1805C20.3482 19.0193 19.3869 18.8582 18.746 18.5358ZM27.398 9.18732C27.398 8.5426 27.0775 8.05906 26.9173 7.57552C26.5969 7.09198 26.2764 6.76962 25.7957 6.44725C25.3151 6.12489 24.6742 6.12489 24.0333 6.12489C23.3924 6.12489 22.7515 6.28607 22.1107 6.44725C21.4698 6.76962 20.9891 7.09198 20.5085 7.57552C20.0278 8.05906 19.5471 8.5426 19.2267 9.18732C18.9062 9.83204 18.5858 10.3156 18.4256 10.9603H27.0775C27.5582 10.3156 27.5582 9.83204 27.398 9.18732Z" fill="#DF45A7"/>
<path d="M33.967 6.60834L31.4035 18.6969H29.8013L32.6852 5.15771H41.4974L41.177 6.60834H33.967Z" fill="#DF45A7"/>
<path d="M51.9115 5.15771H53.9944L51.1104 18.6969H49.5082L51.9115 7.09188L42.138 18.6969H40.0552L42.9392 5.15771H44.5414L42.138 16.7627L51.9115 5.15771Z" fill="#DF45A7"/>
<path d="M65.0499 10.9602L66.1714 5.15771H67.7736L64.8897 18.6969H63.2874L64.5692 12.2497H56.8786L55.5968 18.6969H53.9946L56.8786 5.15771H58.4808L57.3593 10.9602H65.0499V10.9602Z" fill="#DF45A7"/>
<path d="M70.1766 18.8582C69.6959 18.697 69.2153 18.5358 68.8948 18.0522C68.5744 17.7299 68.254 17.2463 68.254 16.7628C68.0937 16.2793 68.0937 15.6345 68.254 14.9898C68.4142 14.0227 68.8948 13.378 69.3755 12.7333C69.8562 12.2498 70.4971 11.7662 71.2982 11.605C72.0993 11.2827 72.9004 11.1215 73.7015 10.9603L76.4252 10.6379C76.7457 10.6379 77.0661 10.6379 77.3866 10.4768C77.707 10.4768 77.8672 10.3156 78.1877 10.1544C78.3479 9.99323 78.5081 9.83204 78.6683 9.67086C78.5081 9.67086 78.6683 9.3485 78.8285 9.02614C78.9888 8.5426 78.9888 8.05906 78.8285 7.57552C78.6683 7.25316 78.5081 6.9308 78.1877 6.76961C77.8672 6.60843 77.5468 6.44725 77.2263 6.28607C76.7457 6.28607 76.4252 6.12489 75.9446 6.12489C74.9832 6.12489 74.0219 6.28607 73.2208 6.9308C72.4197 7.41434 71.939 8.22024 71.6186 9.3485H70.0164C70.4971 7.7367 71.2982 6.60843 72.4197 5.96371C73.381 5.15781 74.823 4.83545 76.265 4.83545C76.9059 4.83545 77.3866 4.83545 78.0274 4.99663C78.6683 5.15781 79.149 5.31899 79.4694 5.64135C79.7899 5.96371 80.1103 6.44725 80.2705 6.9308C80.4307 7.57552 80.4307 8.22024 80.2705 9.18732L78.8285 16.2793C78.6683 16.924 78.9888 17.2463 79.6296 17.2463C79.7899 17.2463 79.9501 17.2463 80.1103 17.0852L79.7899 18.5358H79.3092C79.149 18.5358 78.9888 18.5358 78.6683 18.5358C78.1877 18.5358 77.8672 18.5358 77.707 18.3746C77.5468 18.2134 77.2263 18.0523 77.2263 17.8911C77.0661 17.7299 77.0661 17.4075 77.0661 17.0852C77.0661 16.7628 77.0661 16.4404 77.2263 16.1181C76.9059 16.6016 76.4252 16.924 76.1048 17.2463C75.7843 17.5687 75.3037 17.8911 74.9832 18.0522C74.5026 18.2134 74.0219 18.3746 73.5413 18.5358C73.0606 18.697 72.4197 18.697 71.7788 18.697C71.1379 19.0193 70.6573 19.0193 70.1766 18.8582ZM74.0219 17.4075C74.6628 17.2463 75.1435 16.924 75.6241 16.6016C76.1048 16.2793 76.5854 15.7957 76.9059 15.3122C77.2263 14.8286 77.5468 14.1839 77.707 13.5392L78.1877 11.2827C78.0274 11.4438 77.8672 11.605 77.5468 11.7662C77.2263 11.7662 76.9059 11.9274 76.7457 11.9274C75.9446 12.0886 75.3037 12.0886 74.5026 12.2498C73.7015 12.4109 73.0606 12.5721 72.4197 12.7333C71.7788 12.8945 71.1379 13.2168 70.6573 13.5392C70.1766 13.8616 69.8562 14.3451 69.6959 14.9898C69.6959 15.4734 69.6959 15.7957 69.6959 16.1181C69.6959 16.4404 70.0164 16.7628 70.1766 16.924C70.3368 17.0852 70.6573 17.4075 70.9777 17.4075C71.2982 17.5687 71.6186 17.5687 72.0993 17.5687C72.9004 17.7299 73.5413 17.5687 74.0219 17.4075Z" fill="#DF45A7"/>
<path d="M94.6907 1.45062L91.0056 18.5358H89.2432L93.2487 0H104.785L104.464 1.45062H94.6907Z" fill="#DF45A7"/>
<path d="M104.304 18.8582C103.823 18.697 103.343 18.5358 103.022 18.0522C102.702 17.7299 102.381 17.2463 102.381 16.7628C102.221 16.2793 102.221 15.6345 102.381 14.9898C102.542 14.0227 103.022 13.378 103.503 12.7333C103.984 12.2498 104.624 11.7662 105.426 11.605C106.227 11.2827 107.028 11.1215 107.829 10.9603L110.553 10.6379C110.873 10.6379 111.194 10.6379 111.514 10.4768C111.834 10.4768 111.995 10.3156 112.315 10.1544C112.475 9.99323 112.636 9.83204 112.796 9.67086C112.956 9.50968 113.116 9.18732 113.116 8.70378C113.276 8.22024 113.276 7.7367 113.116 7.25316C112.956 6.9308 112.796 6.60843 112.475 6.44725C112.155 6.28607 111.834 6.12489 111.514 5.96371C111.033 5.96371 110.713 5.80253 110.232 5.80253C109.271 5.80253 108.31 5.96371 107.508 6.60843C106.707 7.09198 106.227 7.89788 105.906 9.02614H104.304C104.785 7.41434 105.586 6.28607 106.707 5.64135C107.508 5.15781 108.95 4.83545 110.392 4.83545C111.033 4.83545 111.514 4.83545 112.155 4.99663C112.796 5.15781 113.276 5.31899 113.597 5.64135C113.917 5.96371 114.238 6.44725 114.398 6.9308C114.558 7.57552 114.558 8.22024 114.398 9.18732L112.956 16.2793C112.796 16.924 113.116 17.2463 113.757 17.2463C113.917 17.2463 114.078 17.2463 114.238 17.0852L113.917 18.5358H113.437C113.276 18.5358 113.116 18.5358 112.796 18.5358C112.315 18.5358 111.995 18.5358 111.834 18.3746C111.674 18.2134 111.354 18.0523 111.354 17.8911C111.194 17.7299 111.194 17.4075 111.194 17.0852C111.194 16.7628 111.194 16.4404 111.354 16.1181C111.033 16.6016 110.553 16.924 110.232 17.2463C109.912 17.5687 109.431 17.8911 109.111 18.0522C108.63 18.2134 108.149 18.3746 107.669 18.5358C107.188 18.697 106.547 18.697 105.906 18.697C105.265 19.0193 104.785 19.0193 104.304 18.8582ZM108.149 17.4075C108.79 17.2463 109.271 16.924 109.752 16.6016C110.232 16.2793 110.713 15.7957 111.033 15.3122C111.354 14.8286 111.674 14.1839 111.834 13.5392L112.315 11.2827C112.155 11.4438 111.995 11.605 111.674 11.7662C111.354 11.7662 111.033 11.9274 110.873 11.9274C110.072 12.0886 109.431 12.0886 108.63 12.2498C107.829 12.4109 107.188 12.5721 106.547 12.7333C105.906 12.8945 105.265 13.2168 104.785 13.5392C104.304 13.8616 103.984 14.3451 103.823 14.9898C103.823 15.4734 103.823 15.7957 103.823 16.1181C103.823 16.4404 104.144 16.7628 104.304 16.924C104.464 17.0852 104.785 17.4075 105.105 17.4075C105.426 17.5687 105.746 17.5687 106.227 17.5687C107.028 17.7299 107.669 17.5687 108.149 17.4075Z" fill="#DF45A7"/>
<path d="M115.199 18.8581H114.879C114.718 18.8581 114.558 18.8581 114.558 18.8581C114.398 18.8581 114.398 18.8581 114.398 18.8581L114.718 17.4075C114.879 17.4075 115.039 17.5686 115.359 17.5686C115.68 17.5686 115.84 17.5686 116 17.5686C116.16 17.5686 116.321 17.5686 116.641 17.5686C116.801 17.5686 117.122 17.4075 117.442 17.0851C117.602 16.9239 117.923 16.4404 118.243 15.9568C118.564 15.4733 118.884 14.8286 119.205 13.8615C119.525 12.8944 119.845 11.9273 120.326 10.4767C120.647 9.18725 121.127 7.41427 121.448 5.4801H130.42L127.536 19.0193H125.934L128.497 6.93073H122.729C122.249 8.86489 121.928 10.4767 121.448 11.9273C120.967 12.8944 120.486 14.0227 120.166 14.9898C119.845 15.9568 119.365 16.6016 119.044 17.0851C118.724 17.5686 118.243 18.0522 117.923 18.2134C117.602 18.5357 117.122 18.6969 116.801 18.6969C116.481 18.6969 116 18.6969 115.68 18.6969C115.519 18.8581 115.359 18.8581 115.199 18.8581Z" fill="#DF45A7"/>
<path d="M142.276 5.15771H144.359L141.475 18.6969H139.873L142.276 7.09188L132.503 18.6969H130.42L133.304 5.15771H134.906L132.503 16.7627L142.276 5.15771Z" fill="#DF45A7"/>
<path d="M147.243 18.5358C146.602 18.2134 145.961 17.5687 145.641 16.924C145.32 16.2793 145.16 15.4734 145 14.6675C145 13.8616 145 12.8945 145.16 11.9274C145.32 10.9603 145.641 10.1544 146.122 9.3485C146.602 8.5426 147.083 7.7367 147.724 7.09198C148.365 6.44725 149.006 5.96371 149.967 5.48017C150.928 4.99663 151.89 4.83545 153.011 4.83545C154.133 4.83545 154.934 4.99663 155.575 5.48017C156.215 5.96371 156.696 6.44725 157.017 7.09198C157.337 7.7367 157.497 8.5426 157.497 9.50968C157.497 10.4768 157.337 11.4438 157.177 12.2498H146.923C146.762 12.8945 146.762 13.5392 146.762 14.1839C146.762 14.8286 146.923 15.3122 147.243 15.9569C147.564 16.4404 147.884 16.924 148.365 17.2463C148.845 17.5687 149.486 17.7299 150.287 17.7299C151.409 17.7299 152.53 17.4075 153.331 16.7628C154.133 16.1181 154.773 15.3122 155.254 14.1839H156.856C156.215 15.7957 155.254 16.924 154.133 17.7299C153.011 18.5358 151.569 19.0193 149.967 19.0193C148.845 19.0193 148.044 18.8582 147.243 18.5358ZM156.055 9.18732C156.055 8.5426 155.735 8.05906 155.575 7.57552C155.254 7.09198 154.934 6.76962 154.453 6.44725C153.972 6.12489 153.492 6.12489 152.691 6.12489C152.05 6.12489 151.409 6.28607 150.768 6.44725C150.127 6.76962 149.646 7.09198 149.166 7.57552C148.685 8.05906 148.204 8.5426 147.884 9.18732C147.564 9.83204 147.243 10.3156 147.083 10.9603H155.735C156.055 10.3156 156.055 9.83204 156.055 9.18732Z" fill="#DF45A7"/>
<path d="M170.155 5.96367C170.796 6.44721 170.956 7.25311 170.796 8.38137C170.635 9.18727 170.315 9.832 169.834 10.4767C169.354 10.9603 168.713 11.4438 167.912 11.605C168.713 11.7662 169.354 12.0885 169.834 12.5721C170.155 13.0556 170.315 13.8615 170.155 14.8286C169.834 16.118 169.354 16.9239 168.392 17.5687C167.431 18.2134 166.149 18.5357 164.547 18.5357H158.458L161.342 4.99658H167.431C168.392 5.15776 169.514 5.48012 170.155 5.96367ZM167.11 16.6016C167.751 16.118 168.072 15.6345 168.392 14.6674C168.552 13.8615 168.392 13.2168 167.912 12.8944C167.431 12.4109 166.63 12.2497 165.508 12.2497H161.182L160.221 17.2463H164.547C165.508 17.2463 166.309 17.0851 167.11 16.6016ZM167.912 10.4767C168.392 10.1544 168.873 9.50964 168.873 8.86491C169.193 7.41429 168.392 6.60839 166.47 6.60839H162.144L161.182 11.1214H165.508C166.63 10.9603 167.431 10.7991 167.912 10.4767Z" fill="#DF45A7"/>
<path d="M173.519 18.8581C173.039 18.6969 172.558 18.5358 172.238 18.0522C171.917 17.7299 171.597 17.2463 171.597 16.7628C171.437 16.2792 171.437 15.6345 171.597 14.9898C171.757 14.0227 172.238 13.378 172.718 12.7333C173.199 12.2497 173.84 11.7662 174.641 11.605C175.442 11.2826 176.243 11.1215 177.044 10.9603L179.768 10.6379C180.088 10.6379 180.409 10.6379 180.729 10.4767C181.05 10.4767 181.21 10.3156 181.53 10.1544C181.691 9.9932 181.851 9.83202 182.011 9.67084C182.171 9.50966 182.332 9.1873 182.332 8.70375C182.492 8.22021 182.492 7.73667 182.332 7.25313C182.171 6.93077 182.011 6.60841 181.691 6.44723C181.37 6.28605 181.05 6.12487 180.729 5.96369C180.249 5.96369 179.928 5.80251 179.448 5.80251C178.486 5.80251 177.525 5.96369 176.724 6.60841C175.923 7.09195 175.442 7.89785 175.122 9.02612H173.519C174 7.41431 174.801 6.28605 175.923 5.64132C177.044 4.9966 178.326 4.51306 179.928 4.51306C180.569 4.51306 181.05 4.51306 181.691 4.67424C182.332 4.83542 182.812 4.9966 183.133 5.31896C183.453 5.64132 183.774 6.12487 183.934 6.60841C184.094 7.25313 184.094 7.89785 183.934 8.86493L182.492 15.9569C182.332 16.6016 182.652 16.924 183.293 16.924C183.453 16.924 183.613 16.924 183.774 16.7628L183.453 18.2134H182.972C182.812 18.2134 182.652 18.2134 182.332 18.2134C181.851 18.2134 181.53 18.2134 181.37 18.0522C181.21 17.891 180.89 17.7299 180.89 17.5687C180.729 17.4075 180.729 17.0851 180.729 16.7628C180.729 16.4404 180.729 16.1181 180.89 15.7957C180.569 16.2792 180.088 16.6016 179.768 16.924C179.448 17.2463 178.967 17.5687 178.646 17.7299C178.166 17.891 177.685 18.0522 177.204 18.2134C176.724 18.3746 176.083 18.3746 175.442 18.3746C174.641 19.0193 174.16 19.0193 173.519 18.8581ZM177.525 17.4075C178.166 17.2463 178.646 16.924 179.127 16.6016C179.608 16.2792 180.088 15.7957 180.409 15.3122C180.729 14.8286 181.05 14.1839 181.21 13.5392L181.691 11.4438C181.53 11.605 181.37 11.7662 181.05 11.9274C180.729 11.9274 180.409 12.0885 180.249 12.0885C179.448 12.2497 178.807 12.2497 178.006 12.4109C177.204 12.5721 176.564 12.7333 175.923 12.8944C175.282 13.0556 174.641 13.378 174.16 13.7003C173.68 14.0227 173.359 14.5063 173.199 15.151C173.199 15.6345 173.199 15.9569 173.199 16.2792C173.199 16.6016 173.519 16.924 173.68 17.0851C173.84 17.2463 174.16 17.5687 174.481 17.5687C174.801 17.7299 175.122 17.7299 175.602 17.7299C176.403 17.7299 176.884 17.5687 177.525 17.4075Z" fill="#DF45A7"/>
</g>
<defs>
<clipPath id="clip0_21_268">
<rect width="261" height="142" fill="white"/>
</clipPath>
</defs>
</svg>
