<svg width="163" height="89" viewBox="0 0 163 89" fill="none" xmlns="http://www.w3.org/2000/svg">
<g clip-path="url(#clip0_1_534)">
<path d="M112.6 55.2C112.7 55.6 112.6 55.6 113.1 55.6C114.1 55.6 115.2 55.6 116.2 55.6C116.3 55.6 116.4 55.6 116.4 55.6C116.5 55.6 116.6 55.6 116.6 55.4C116.6 55.3 116.6 55.2 116.6 55C116.6 44.9 116.6 34.7 116.6 24.6C116.6 24.5 116.6 24.4 116.6 24.4C116.6 24.1 116.6 24.1 116.3 24.1C116.2 24.1 116.1 24.1 116 24.1C114.9 24.1 113.8 24.1 112.8 24.1C112.1 24.1 112.2 24 112.2 24.7C112.2 29.7 112.2 34.8 112.2 39.8C112.2 40 112.2 40.3 112.2 40.5H112.1C112.1 40.4 112 40.2 112 40.1C111.8 39.3 111.6 38.6 111.4 37.8C110.3 33.4 109.3 29 108.2 24.5C108.2 24.4 108.1 24.3 108.1 24.1C108.1 24 108 24 108 24C107.9 24 107.8 24 107.7 24C106.6 24 105.4 24 104.3 24C103.8 24 103.8 24 103.8 24.5C103.8 34.7 103.8 44.9 103.8 55C103.8 55.1 103.8 55.2 103.8 55.3C103.8 55.4 103.9 55.4 103.9 55.4C104 55.4 104.1 55.4 104.3 55.4C105.4 55.4 106.5 55.4 107.5 55.4C108.1 55.4 108.1 55.5 108.1 54.8C108.1 49.3 108.1 43.8 108.1 38.3C108.1 38.1 108.1 38 108.1 37.8C108.1 37.7 108.1 37.7 108.2 37.7C108.3 37.8 108.3 37.8 108.3 37.9C109.4 42.2 110.5 46.5 111.6 50.9C111.9 52.4 112.2 53.8 112.6 55.2Z" fill="#D4F570"/>
<path d="M74.4 56.3C74.4 56.2 74.2999 56.1 74.1999 56.1C74.0999 56.1 74 56.1 73.9 56.1C72.8 56.1 71.7 56.1 70.5 56.1C69.9 56.1 70 56 70 56.6C70 61 70 65.4 70 69.8C70 70.6 70 71.5 70 72.3C70 72.4 70 72.4 70 72.5C70 72.6 70 72.5 70 72.5C70 72.4 69.9 72.4 69.9 72.3C69.5 70.7 69.0999 69.1 68.6999 67.5C67.8999 64.1 66.9999 60.7 66.1999 57.2C66.0999 56.9 66 56.5 66 56.2C66 56.1 65.9 56 65.8 56H65.6999C64.4999 56 63.2 56 62 56H61.9C61.8 56 61.8 56.1 61.7 56.1C61.7 56.2 61.7 56.3 61.7 56.4C61.7 56.9 61.7 57.5 61.7 58C61.7 67.6 61.7 77.2 61.7 86.8C61.7 87 61.7 87.1 61.7 87.3C61.7 87.4 61.7999 87.4 61.7999 87.4C61.8999 87.4 61.9999 87.4 62.0999 87.4C63.1999 87.4 64.4 87.4 65.5 87.4C66 87.4 66 87.4 66 86.9C66 86.8 66 86.7 66 86.6C66 81.2 66 75.8 66 70.4C66 70.2 66 69.9 66 69.7H66.0999C66.0999 69.8 66.1999 70 66.1999 70.1C66.6999 72 67.1999 73.9 67.6999 75.9C68.5999 79.6 69.5 83.2 70.5 86.9C70.5 87 70.5999 87.1 70.5999 87.3C70.5999 87.4 70.6999 87.4 70.6999 87.4C70.7999 87.4 70.9 87.4 71 87.4C72 87.4 72.9 87.4 73.9 87.4C74.1 87.4 74.3 87.5 74.5 87.3C74.5 87.1 74.5 86.9 74.5 86.7C74.5 76.6 74.5 66.5 74.5 56.4C74.5 56.3 74.5 56.2 74.5 56.1C74.4 56.4 74.4 56.4 74.4 56.3Z" fill="#D4F570"/>
<path d="M12.7999 61.4C12.6999 60.5 12.5999 59.6 12.2999 58.8C11.7999 57.7 10.9999 56.9 9.89995 56.5C9.19995 56.2 8.39995 56.2 7.59995 56.2C5.29995 56.2 2.99995 56.2 0.799946 56.2C0.0999456 56.2 0.199946 56.1 0.199946 56.8C0.199946 61.9 0.199946 66.9 0.199946 72C0.199946 77.1 0.199946 82.2 0.199946 87.3C0.199946 87.7 0.199946 87.7 0.599946 87.7C2.99995 87.7 5.29995 87.7 7.69995 87.7C8.19995 87.7 8.79995 87.6 9.29995 87.5C10.6999 87.2 11.6999 86.3 12.2999 85C12.3999 84.7 12.4999 84.4 12.5999 84.1C12.7999 83.3 12.8999 82.4 12.8999 81.6C12.8999 75.1 12.8999 68.7 12.8999 62.2C12.7999 61.8 12.7999 61.6 12.7999 61.4ZM7.79995 81.3C7.79995 81.6 7.69995 81.9 7.59995 82.2C7.39995 82.6 7.09995 82.9 6.69995 83C6.59995 83 6.49995 83 6.29995 83C5.89995 83 5.39995 83 4.99995 83C4.89995 83 4.89995 83 4.79995 82.9C4.79995 82.8 4.79995 82.6 4.79995 82.5C4.79995 78.9 4.79995 75.3 4.79995 71.7C4.79995 68.1 4.79995 64.5 4.79995 60.9C4.79995 60.3 4.79995 60.4 5.29995 60.4C5.59995 60.4 5.89995 60.4 6.19995 60.4C6.39995 60.4 6.49995 60.4 6.69995 60.5C7.09995 60.6 7.39995 60.8 7.49995 61.2C7.59995 61.5 7.69995 61.8 7.69995 62.1C7.69995 62.5 7.69995 62.8 7.69995 63.2C7.69995 68.9 7.69995 74.6 7.69995 80.3C7.89995 80.6 7.89995 81 7.79995 81.3Z" fill="#D4F570"/>
<path d="M118.3 55.4C118.3 55.5 118.3 55.5 118.4 55.5C118.5 55.5 118.6 55.5 118.6 55.5C120.9 55.5 123.3 55.5 125.6 55.5C126.1 55.5 126.6 55.5 127.1 55.3C128 55.1 128.9 54.7 129.5 54C130 53.4 130.3 52.8 130.6 52C130.9 51.1 130.9 50.2 130.9 49.3C130.9 48.3 130.9 47.2 130.9 46.2C130.9 40.7 130.9 35.3 130.9 29.8C130.9 28.9 130.8 28 130.6 27.1C130.1 25.5 129.1 24.4 127.4 24.1C126.8 24 126.3 23.9 125.7 23.9C123.4 23.9 121 23.9 118.7 23.9C118.6 23.9 118.5 23.9 118.4 23.9C118.3 23.9 118.2 23.9 118.2 24.1C118.2 24.2 118.2 24.4 118.2 24.5C118.2 29.5 118.2 34.6 118.2 39.6C118.2 44 118.2 48.4 118.2 52.8C118.2 53.5 118.2 54.2 118.2 54.9C118.3 55.2 118.3 55.3 118.3 55.4ZM123.1 29C123.1 28.9 123.1 28.8 123.1 28.8C123.1 28.4 123.1 28.4 123.5 28.4C123.9 28.4 124.2 28.4 124.6 28.4C125.3 28.4 125.8 28.7 126 29.4C126.1 29.7 126.1 30 126.1 30.3C126.1 30.6 126.1 30.8 126.1 31.1C126.1 36.8 126.1 42.5 126.1 48.2C126.1 48.7 126.1 49.1 126 49.5C126 49.6 125.9 49.7 125.9 49.9C125.7 50.5 125.3 50.8 124.8 50.9C124.3 51 123.8 50.9 123.3 50.9C123.2 50.9 123.2 50.8 123.2 50.8C123.2 50.7 123.2 50.5 123.2 50.4C123.2 46.8 123.2 43.2 123.2 39.7C123.1 36.1 123.1 32.5 123.1 29Z" fill="#D4F570"/>
<path d="M121.3 71.9C121.3 66.8 121.3 61.8 121.3 56.7C121.3 56.6 121.3 56.4 121.3 56.3C121.3 56.2 121.3 56.2 121.2 56.2C121.1 56.2 121 56.2 120.8 56.2C119.5 56.2 118.3 56.2 117 56.2C116.4 56.2 116.5 56.1 116.5 56.7C116.5 60.5 116.5 64.3 116.5 68.1C116.5 68.2 116.5 68.3 116.5 68.5C116.5 68.8 116.5 68.8 116.2 68.8C115.3 68.8 114.4 68.8 113.5 68.8C113.4 68.8 113.4 68.8 113.3 68.8L113.2 68.7C113.2 68.6 113.2 68.5 113.2 68.3C113.2 66.7 113.2 65.1 113.2 63.5C113.2 61.2 113.2 58.9 113.2 56.7C113.2 56.6 113.2 56.5 113.2 56.3C113.2 56.2 113.2 56.2 113.1 56.1C113 56.1 113 56.1 112.9 56.1C111.5 56.1 110.1 56.1 108.7 56.1C108.4 56.1 108.4 56.1 108.4 56.4V56.5C108.4 66.7 108.4 76.9 108.4 87.1C108.4 87.2 108.4 87.3 108.4 87.4C108.4 87.5 108.4 87.5 108.5 87.5C108.6 87.5 108.7 87.5 108.9 87.5C110.1 87.5 111.4 87.5 112.6 87.5C113.3 87.5 113.2 87.6 113.2 86.9C113.2 82.7 113.2 78.4 113.2 74.2C113.2 74.1 113.2 73.9 113.2 73.8C113.2 73.7 113.2 73.7 113.3 73.7C113.4 73.7 113.5 73.7 113.6 73.7C114.3 73.7 115.1 73.7 115.8 73.7C116.4 73.7 116.3 73.6 116.3 74.2C116.3 78.4 116.3 82.7 116.3 86.9C116.3 87 116.3 87.2 116.3 87.3C116.3 87.4 116.4 87.4 116.4 87.4C116.5 87.4 116.6 87.4 116.8 87.4C118 87.4 119.3 87.4 120.5 87.4C121.1 87.4 121 87.5 121 86.9C121.3 82 121.3 77 121.3 71.9Z" fill="#D4F570"/>
<path d="M58.7 53.2C58.7 53.8 58.7 54.4 58.7 55.1C58.7 55.2 58.7 55.3 58.7 55.4C58.7 55.5 58.8 55.6 58.9 55.6C59 55.6 59.0999 55.6 59.2999 55.6C60.4999 55.6 61.8 55.6 63 55.6C63.6 55.6 63.5999 55.7 63.5999 55C63.5999 50.7 63.5999 46.4 63.5999 42.1C63.5999 42 63.5999 41.8 63.5999 41.7C63.5999 41.5 63.5999 41.5 63.7999 41.5C64.1999 41.5 64.5999 41.5 65.0999 41.5C65.2999 41.5 65.4999 41.5 65.6999 41.6C66.0999 41.7 66.3999 42 66.5999 42.4C66.5999 42.5 66.6999 42.7 66.6999 42.8C66.6999 43.1 66.6999 43.4 66.6999 43.6C66.6999 46.7 66.6999 49.8 66.6999 52.9C66.6999 53.3 66.6999 53.6 66.6999 54C66.6999 54.4 66.8 54.8 67 55.2C67.1 55.4 67.2 55.5 67.5 55.5C68.9 55.5 70.1999 55.5 71.5999 55.5C71.6999 55.5 71.7 55.5 71.8 55.5C71.9 55.5 71.9 55.4 71.9 55.3C71.9 55.2 71.8 55.1 71.8 54.9C71.6 54.5 71.5 54 71.5 53.5C71.5 53.2 71.5 52.9 71.5 52.6C71.5 49 71.5 45.5 71.5 41.9C71.5 41.6 71.5 41.3 71.5 41.1C71.4 40 70.9 39.1 69.8 38.5C69.7 38.5 69.6 38.4 69.5 38.3L69.5999 38.2C70.3999 37.8 70.8999 37.1 71.1999 36.2C71.3999 35.6 71.5 35 71.5 34.4C71.5 32.4 71.5 30.5 71.5 28.5C71.5 27.8 71.3999 27 71.1999 26.3C70.7999 25.2 70 24.4 68.9 24.1C68.3 23.9 67.6 23.8 66.9 23.8C64.5 23.8 61.9999 23.8 59.5999 23.8C59.3999 23.8 59.2 23.7 59 23.9C58.9 24 59 24.3 59 24.4C58.7 34.2 58.7 43.7 58.7 53.2ZM63.5 28.9C63.5 28.8 63.5 28.7 63.5 28.5C63.5 28.4 63.6 28.3 63.7 28.3C64.2 28.3 64.5999 28.3 65.0999 28.3C65.2999 28.3 65.3999 28.3 65.5999 28.4C65.9999 28.5 66.2 28.8 66.4 29.2C66.5 29.5 66.5 29.9 66.5 30.2C66.5 31.7 66.5 33.3 66.5 34.8C66.5 35.2 66.5 35.5 66.4 35.9C66.2 36.6 65.7 36.9 65 37C64.6 37 64.1 37 63.7 37C63.6 37 63.5 36.9 63.5 36.8C63.5 36.7 63.5 36.6 63.5 36.4C63.5 35.1 63.5 33.8 63.5 32.6C63.5 31.4 63.5 30.1 63.5 28.9Z" fill="#D4F570"/>
<path d="M150.5 61.2C150.4 60.3 150.2 59.4 149.7 58.6C149.2 57.6 148.5 56.9 147.5 56.5C146.9 56.2 146.3 56.1 145.7 56C144.9 55.9 144.2 55.9 143.4 55.9C142.9 55.9 142.3 56 141.8 56.1C140.3 56.4 139.1 57.3 138.4 58.7C138.2 59.1 138 59.6 137.9 60.1C137.6 61.1 137.5 62.1 137.5 63.1C137.5 68.9 137.5 74.6 137.5 80.4C137.5 81 137.5 81.7 137.6 82.3C137.7 83.3 137.9 84.2 138.3 85.1C139 86.5 140 87.4 141.5 87.8C142.1 88 142.7 88.1 143.3 88.1C143.8 88.1 144.3 88.1 144.7 88.1C145.4 88.1 146 88 146.7 87.8C147.9 87.4 148.9 86.7 149.5 85.6C149.8 85.1 150 84.6 150.1 84.1C150.4 83.1 150.5 82.1 150.5 81C150.5 78 150.5 75 150.5 72C150.5 69 150.5 66 150.5 63.1C150.6 62.4 150.6 61.8 150.5 61.2ZM145.7 81.9C145.7 82.1 145.6 82.4 145.5 82.6C145.3 83.1 144.9 83.4 144.3 83.4C144.2 83.4 144 83.4 143.9 83.4C143.4 83.3 143 83.1 142.7 82.6C142.6 82.3 142.5 82.1 142.5 81.8C142.5 81.5 142.4 81.2 142.4 80.9C142.4 74.9 142.4 69 142.4 63C142.4 62.7 142.4 62.4 142.5 62.1C142.5 61.8 142.6 61.6 142.7 61.4C142.9 61 143.2 60.7 143.7 60.6C143.9 60.6 144.1 60.5 144.3 60.5C145 60.5 145.4 60.8 145.7 61.5C145.8 61.8 145.9 62.2 145.9 62.6C145.9 62.8 145.9 63 145.9 63.2C145.9 66.2 145.9 69.1 145.9 72.1C145.9 75.1 145.9 78.1 145.9 81.1C145.7 81.2 145.7 81.6 145.7 81.9Z" fill="#D4F570"/>
<path d="M135.9 61.2001C135.8 60.4001 135.6 59.7001 135.3 58.9001C134.8 57.8001 134.1 56.9001 133 56.4001C132.4 56.1001 131.8 56.0001 131.2 55.9001C130.4 55.8001 129.6 55.8 128.8 55.8C128.3 55.8 127.7 55.9 127.2 56C125.5 56.4 124.3 57.4 123.6 59C123.5 59.3 123.4 59.6 123.3 60C123 61 122.9 62 122.9 63.1C122.9 66 122.9 69.0001 122.9 71.9001C122.9 74.7001 122.9 77.5001 122.9 80.4001C122.9 81.0001 122.9 81.7001 123 82.3001C123.1 83.1001 123.3 84 123.6 84.7C124.3 86.4 125.5 87.4001 127.3 87.8001C128.5 88.1001 129.7 88 131 87.9001C131.3 87.9001 131.6 87.8001 131.8 87.8001C133.5 87.4001 134.7 86.4001 135.4 84.8001C135.6 84.4001 135.7 83.9 135.8 83.5C136 82.5 136.1 81.4001 136.1 80.4001C136.1 74.7001 136.1 69.0001 136.1 63.2001C136 62.6001 136 61.9001 135.9 61.2001ZM131.1 82C131 82.3 131 82.5 130.8 82.7C130.6 83.1 130.2 83.3001 129.8 83.3001C129.6 83.3001 129.5 83.3001 129.3 83.3001C128.8 83.2001 128.5 83 128.2 82.6C128.1 82.3 128 82.1001 127.9 81.8001C127.9 81.5001 127.8 81.1001 127.8 80.8001C127.8 74.9001 127.8 69 127.8 63.1C127.8 62.8 127.8 62.4 127.9 62.1C127.9 62 127.9 61.8001 128 61.7001C128.2 60.7001 129 60.4 129.8 60.5C130.3 60.6 130.7 60.9001 130.9 61.4001C131.1 61.8001 131.1 62.1 131.1 62.5C131.1 62.7 131.1 62.8 131.1 63C131.1 66 131.1 69 131.1 72C131.1 75 131.1 78 131.1 81C131.1 81.3 131.1 81.6 131.1 82Z" fill="#D4F570"/>
<path d="M12.9 24.2C12.9 24.1 12.8 24.1 12.8 24.1C12.7 24.1 12.6 24.1 12.5 24.1C11.2 24.1 9.79997 24.1 8.49997 24.1C8.09997 24.1 8.09997 24.1 8.09997 24.5C8.09997 24.6 8.09997 24.7 8.09997 24.8C8.09997 28.6 8.09997 32.3 8.09997 36.1C8.09997 36.2 8.09997 36.3 8.09997 36.5C8.09997 36.7 8.09997 36.7 7.89997 36.7C6.99997 36.7 5.99997 36.7 5.09997 36.7C4.89997 36.7 4.89997 36.7 4.89997 36.4C4.89997 36.3 4.89997 36.2 4.89997 36.1C4.89997 34.3 4.89997 32.5 4.89997 30.7C4.89997 28.7 4.89997 26.6 4.89997 24.6C4.89997 24.5 4.89997 24.3 4.89997 24.2L4.79997 24.1C4.69997 24.1 4.59997 24.1 4.39997 24.1C3.19997 24.1 1.89997 24.1 0.69997 24.1C-2.99811e-05 24 0.09997 24 0.09997 24.6C0.09997 29.6 0.09997 34.7 0.09997 39.7C0.09997 44.8 0.09997 49.8 0.09997 54.9C0.09997 55 0.09997 55.2 0.09997 55.3C0.09997 55.4 0.19997 55.4 0.19997 55.5C0.29997 55.5 0.39997 55.5 0.59997 55.5C1.79997 55.5 2.99997 55.5 4.19997 55.5C4.89997 55.5 4.79997 55.6 4.79997 54.9C4.79997 50.7 4.79997 46.5 4.79997 42.2C4.79997 42.1 4.79997 41.9 4.79997 41.8C4.79997 41.7 4.89997 41.7 4.89997 41.7C4.99997 41.7 5.09997 41.7 5.19997 41.7C5.99997 41.7 6.79997 41.7 7.49997 41.7C7.99997 41.7 7.99997 41.6 7.99997 42.2C7.99997 42.3 7.99997 42.4 7.99997 42.5C7.99997 46.6 7.99997 50.8 7.99997 54.9C7.99997 55 7.99997 55.1 7.99997 55.3C7.99997 55.5 7.99997 55.5 8.19997 55.5C8.29997 55.5 8.39997 55.5 8.49997 55.5C9.79997 55.5 11.1 55.5 12.3 55.5C12.8 55.5 12.8 55.5 12.8 55C12.8 44.8 12.8 34.6 12.8 24.4C12.9 24.4 12.9 24.3 12.9 24.2Z" fill="#D4F570"/>
<path d="M59.7 68.5C59.6 68.5 59.6 68.5 59.5 68.5C57.5 68.5 55.6 68.5 53.6 68.5C53.5 68.5 53.4 68.5 53.3 68.5C53.2 68.5 53.2 68.6 53.2 68.6C53.2 68.7 53.2 68.8001 53.2 68.8001C53.2 70.2001 53.2 71.5001 53.2 72.9001C53.2 73.3001 53.2 73.3001 53.6 73.3001C53.7 73.3001 53.8 73.3001 53.9 73.3001C54.3 73.3001 54.7 73.3001 55.1 73.3001C55.3 73.3001 55.4 73.3 55.4 73.6C55.4 74 55.4 74.3 55.4 74.7C55.4 76.8 55.4 79 55.4 81.1C55.4 81.5 55.4 81.8 55.3 82.2C55.1 82.7 54.8 83 54.4 83.2C53.4 83.5 52.6 83.2 52.3 82.1V82C52.2 81.7001 52.2 81.3 52.2 81C52.2 75 52.2 68.9001 52.2 62.9001C52.2 62.7001 52.2 62.5 52.2 62.3C52.2 61.9 52.3 61.6 52.5 61.3C52.9 60.5 54.1 60.4 54.7 61C54.8 61.1 54.9 61.2 54.9 61.3C55 61.5 55 61.6 55.1 61.8C55.2 62.1 55.2 62.4001 55.2 62.7001C55.2 63.7001 55.2 64.7 55.2 65.7C55.2 65.8 55.2 65.9 55.2 66C55.2 66.2 55.2 66.2 55.4 66.2C56.8 66.2 58.1 66.2 59.5 66.2C59.6 66.2 59.6 66.2 59.7 66.2L59.8 66.1C59.8 66 59.8 65.9001 59.8 65.8001C59.8 64.9001 59.8 64 59.8 63.1C59.8 62.4 59.8 61.7 59.7 61C59.6 60.4 59.5 59.7 59.3 59.1C59 58.1 58.5 57.3001 57.6 56.7001C56.9 56.3001 56.1 56.0001 55.3 55.9001C54.5 55.8001 53.7 55.8 52.9 55.8C52.4 55.8 51.9 55.9 51.4 56C50.4 56.2 49.5 56.7 48.8 57.5C48.3 58.1 47.9 58.8 47.7 59.5C47.4 60.4 47.3 61.4001 47.3 62.4001C47.3 69.0001 47.3 75.6 47.3 82.2C47.3 82.7 47.3 83.2 47.4 83.6C47.6 84.5 47.9 85.4 48.5 86.2C49.6 87.7 51.3 88.2001 53.1 87.8001C53.8 87.6001 54.4 87.3001 55 86.8001C55.6 86.2001 56.1 85.6001 56.5 84.8001C56.5 84.7001 56.6 84.6 56.7 84.5C56.8 84.9 56.9 85.2 57 85.6C57.1 86.1 57.3 86.7 57.4 87.2C57.5 87.4 57.5 87.4001 57.7 87.4001C58.4 87.4001 59.2 87.4001 59.9 87.4001C60.1 87.4001 60.1 87.4 60.1 87.2C60.1 87.1 60.1 87.0001 60.1 86.8001C60.1 80.8001 60.1 74.8001 60.1 68.8001C60.1 68.7001 60.1 68.6001 60.1 68.4001C59.9 68.5001 59.9 68.5 59.7 68.5Z" fill="#D4F570"/>
<path d="M92.1 74.5C91.6 73.5 91 72.6 90.3 71.8C89.2 70.4 88.2 69 87.1 67.7C86.7 67.2 86.3 66.7 86 66.1C85.6 65.4 85.4 64.7 85.3 64C85.2 63.3 85.2 62.6 85.3 61.9C85.3 61.7 85.3 61.5 85.4 61.3C85.6 60.7 85.9 60.4 86.5 60.4C87.4 60.3 87.9 60.7 88 61.6C88 61.9 88 62.2 88 62.5C88 63.7 88 64.9 88 66.1C88 66.2 88 66.3 88 66.4C88 66.7 88 66.7 88.3 66.7C89.7 66.7 91 66.7 92.4 66.7C92.6 66.7 92.7 66.7 92.7 66.4C92.7 65.6 92.7 64.8 92.7 64.1C92.7 63.1 92.7 62.1 92.7 61.1C92.7 60.4 92.6 59.6 92.4 58.9C92 57.7 91.2 56.9 90.1 56.5C89.6 56.3 89.1 56.2 88.6 56.2C87.7 56.1 86.8 56.1 85.8 56.1C85.2 56.1 84.7 56.2 84.1 56.4C82.5 56.9 81.4 57.9 80.8 59.5C80.5 60.2 80.4 61 80.4 61.7C80.4 62.9 80.3 64 80.5 65.2C80.6 66.4 80.9 67.6 81.5 68.6C82 69.6 82.6 70.5 83.3 71.3C84.2 72.5 85.2 73.7 86.1 74.9C86.6 75.5 87 76.1 87.4 76.8C87.7 77.3 87.9 77.9 88 78.5C88.2 79.7 88.1 80.9 88 82C88 82.3 87.9 82.6 87.8 82.9C87.7 83.2 87.5 83.4 87.2 83.5C86.3 83.9 85.4 83.5 85.1 82.6C85.1 82.5 85.1 82.4 85 82.3C84.9 81.9 84.9 81.6 84.9 81.2C84.9 79.6 84.9 78 84.9 76.4C84.9 76.3 84.9 76.2 84.9 76C84.9 76 84.9 75.9 84.8 75.9C84.7 75.9 84.6 75.9 84.6 75.9C83.2 75.9 81.9 75.9 80.5 75.9C80.4 75.9 80.3 75.9 80.3 75.9C80.2 75.9 80.2 76 80.2 76C80.2 76.1 80.2 76.2 80.2 76.4C80.2 77.4 80.2 78.5 80.2 79.5C80.2 79.8 80.2 80 80.2 80.3C80.2 81.1 80.2 81.8 80.2 82.6C80.2 83.5 80.4 84.4 80.7 85.2C81.2 86.4 82.1 87.3 83.3 87.7C83.6 87.8 84 87.9 84.4 88C85.4 88.2 86.5 88.2 87.5 88.1C87.9 88.1 88.2 88 88.6 88C90.3 87.7 91.5 86.8 92.3 85.2C92.4 84.9 92.5 84.7 92.7 84.4C93.1 83.4 93.2 82.4 93.2 81.4C93.2 80.2 93.2 79 93.1 77.9C92.9 76.6 92.6 75.5 92.1 74.5Z" fill="#D4F570"/>
<path d="M38.1 73.9C37.7 73.2 37.2 72.6 36.8 71.9C35.7 70.5 34.6 69.0999 33.6 67.6999C33.2 67.1999 32.8 66.6999 32.5 66.1999C32.2 65.6999 31.9 65.1 31.8 64.4C31.6 63.3 31.6 62.1999 31.7 61.0999C31.8 60.1999 32.3 60 33.1 60H33.2C33.7 60.1 34 60.2999 34.2 60.7999C34.3 61.0999 34.3 61.3999 34.3 61.7999C34.3 63.0999 34.3 64.5 34.3 65.8C34.3 65.9 34.3 65.9999 34.3 66.1999C34.3 66.2999 34.4 66.3 34.4 66.3C34.5 66.3 34.6 66.3 34.6 66.3C35.9 66.3 37.2 66.3 38.5 66.3C38.6 66.3 38.7 66.3 38.7 66.3C38.8 66.3 38.8 66.2999 38.8 66.1999C38.8 66.0999 38.8 66 38.8 66C38.8 64.3 38.8 62.6 38.8 60.9C38.8 60.1 38.7 59.3999 38.5 58.5999C38.1 57.2999 37.3 56.4999 36 56.0999C35.6 55.8999 35.1 55.8999 34.6 55.7999C33.8 55.6999 33 55.7 32.1 55.7C31.6 55.7 31 55.8 30.5 55.9C28.6 56.3 27.4 57.3999 26.8 59.2999C26.6 59.7999 26.5 60.4 26.5 61C26.5 62.3 26.4 63.6 26.6 65C26.7 66.2 27 67.3 27.6 68.3C28 69.2 28.6 70 29.2 70.8C30.2 72 31.1 73.2 32.1 74.4C32.5 75 33 75.4999 33.3 76.1999C33.7 76.7999 33.9 77.5 34 78.3C34.1 79.4 34.1 80.4999 34 81.5999C34 81.8999 33.9 82.2999 33.7 82.5999C33.6 82.8999 33.3 83.1999 33 83.1999C32.2 83.3999 31.3 83.2999 31 82.0999V82C30.9 81.7 30.9 81.4 30.9 81C30.9 79.4 30.9 77.6999 30.9 76.0999C30.9 75.9999 30.9 75.8999 30.9 75.6999C30.9 75.5999 30.8 75.5 30.7 75.5C30.6 75.5 30.6 75.5 30.5 75.5C29.2 75.5 27.8 75.5 26.5 75.5C26.4 75.5 26.4 75.5 26.3 75.5C26.2 75.5 26.1 75.5999 26.1 75.6999C26.1 75.7999 26.1 75.8999 26.1 76.0999C26.1 77.0999 26.1 78.1999 26.1 79.1999C26.1 80.0999 26.1 81.1 26.1 82C26.1 82.7 26.2 83.3999 26.4 84.0999C26.8 85.4999 27.6 86.6 29 87.3C29.6 87.6 30.2 87.7 30.8 87.8C31.9 87.9 32.9 87.9 34 87.8C34.7 87.7 35.4 87.4999 36 87.1999C37.1 86.5999 37.9 85.6999 38.3 84.5999C38.7 83.6999 38.9 82.8 39 81.8C39.1 80.5 39.1 79.2 39 77.8C39.2 76.5 38.9 75.1 38.1 73.9Z" fill="#D4F570"/>
<path d="M17.7 55.5C18.3 55.7 18.9 55.8 19.5 55.8C20.1 55.8 20.7 55.8 21.3 55.8C21.7 55.8 22 55.8 22.4 55.7C24.3 55.4 25.7 54.4 26.5 52.6C26.9 51.7 27.1 50.8 27.2 49.9C27.3 48.6 27.3 47.2 27.2 45.9C27.1 44.3 26.6 42.8 25.8 41.4C25.3 40.7 24.8 40 24.3 39.3C23.3 38 22.3 36.7 21.3 35.4C20.9 34.8 20.4 34.2 20.1 33.6C19.8 33 19.6 32.4 19.5 31.7C19.4 31 19.4 30.2 19.5 29.5C19.5 29.3 19.6 29 19.6 28.8C19.7 28.3 20.1 28 20.6 28C21.6 27.9 22.1 28.3 22.2 29.2C22.2 29.5 22.2 29.8 22.2 30C22.2 31.2 22.2 32.5 22.2 33.7C22.2 33.8 22.2 33.9 22.2 34C22.2 34.2 22.2 34.2 22.4 34.2H22.5C23.8 34.2 25.1 34.2 26.4 34.2C26.5 34.2 26.6 34.2 26.6 34.2C26.7 34.2 26.7 34.1 26.7 34.1C26.7 34 26.7 33.9 26.7 33.7C26.7 32.7 26.7 31.6 26.7 30.6C26.7 29.9 26.7 29.3 26.7 28.6C26.7 27.9 26.6 27.1 26.4 26.4C26 25.2 25.2 24.4 24 23.9C23.4 23.7 22.7 23.6 22.1 23.5C21.5 23.5 20.9 23.5 20.2 23.5C19.6 23.5 19 23.6 18.4 23.7C16.6 24.1 15.4 25.2 14.8 27C14.6 27.6 14.5 28.2 14.5 28.8C14.5 30.1 14.4 31.4 14.6 32.6C14.7 33.6 15 34.6 15.4 35.6C15.9 36.6 16.5 37.5 17.1 38.4C18.1 39.7 19.1 40.9 20 42.2C20.5 42.8 20.9 43.4 21.3 44.1C21.7 44.8 21.9 45.5 22 46.3C22.1 47.3 22.1 48.2 22 49.2C22 49.6 21.9 49.9 21.7 50.3C21.5 50.7 21.2 50.9 20.8 51C19.9 51.2 19.2 50.9 18.9 49.8V49.7C18.8 49.3 18.8 48.9 18.8 48.5C18.8 46.9 18.8 45.4 18.8 43.8C18.8 43.7 18.8 43.6 18.8 43.4L18.7 43.3C18.6 43.3 18.6 43.3 18.5 43.3C17.1 43.3 15.7 43.3 14.3 43.3H14.2C14.1 43.3 14.1 43.4 14.1 43.4C14.1 43.5 14.1 43.6 14.1 43.8C14.1 44.8 14.1 45.8 14.1 46.8C14.1 47.7 14.1 48.6 14.1 49.5C14.1 50.3 14.2 51 14.4 51.8C15 53.8 16 55 17.7 55.5Z" fill="#D4F570"/>
<path d="M102.2 67.9C102.2 68 102.2 68 102.3 68C102.4 68 102.5 68 102.6 68C103.9 68 105.2 68 106.5 68C106.6 68 106.7 68 106.7 68C106.8 68 106.8 67.9 106.8 67.8C106.8 67.7 106.8 67.6999 106.8 67.5999C106.8 65.6999 106.8 63.7999 106.8 61.7999C106.8 60.7999 106.7 59.9 106.4 59C106 57.8 105.2 56.7999 104 56.2999C103.4 55.9999 102.8 55.8999 102.2 55.7999C101.3 55.6999 100.5 55.7 99.6 55.7C99.1 55.7 98.6 55.8 98.1 55.9C96.9 56.2 95.8 56.9 95.1 57.9C94.8 58.4 94.5 58.9999 94.4 59.5999C94.2 60.4999 94.1 61.3 94.1 62.2C94.1 65.3 94.1 68.4999 94.1 71.5999C94.1 74.6999 94.1 77.8 94.1 80.9C94.1 81.3 94.1 81.6 94.1 82C94.2 82.9 94.3 83.7999 94.6 84.5999C95.2 86.0999 96.3 87.0999 97.9 87.5999C98.5 87.7999 99.1 87.8 99.7 87.8C100.2 87.8 100.6 87.8 101.1 87.8C101.5 87.8 101.9 87.7999 102.4 87.6999C103.6 87.4999 104.6 86.9999 105.3 86.0999C105.8 85.4999 106.2 84.7999 106.4 84C106.7 83.1 106.8 82.0999 106.8 81.0999C106.8 78.7999 106.8 76.3999 106.8 74.0999C106.8 73.9999 106.8 73.9 106.8 73.8C106.8 73.7 106.7 73.6999 106.6 73.6999C106.5 73.6999 106.4 73.6999 106.3 73.6999C105 73.6999 103.7 73.6999 102.5 73.6999C102 73.6999 102.1 73.6999 102.1 74.0999C102.1 76.3999 102.1 78.6 102.1 80.9C102.1 81 102.1 81.2 102.1 81.3C102.1 81.7 102 82 101.8 82.4C101.6 82.8 101.2 83.0999 100.7 83.0999C100.6 83.0999 100.5 83.0999 100.4 83.0999C99.8 83.0999 99.5 82.8 99.2 82.3C99.1 82.2 99.1 82 99.1 81.9C99 81.6 99 81.2 99 80.9C99 74.7 99 68.4999 99 62.2999C99 62.0999 99 61.9 99 61.7C99 61.4 99.1 61.1 99.2 60.9C99.3 60.7 99.4 60.5 99.7 60.4C100.3 60.1 100.9 60.2 101.4 60.5C101.6 60.6 101.7 60.7 101.8 60.9C101.9 61.1 102 61.2 102 61.4C102.1 61.7 102.1 61.9999 102.1 62.2999C102.1 63.9999 102.1 65.7 102.1 67.3C102.2 67.7 102.2 67.8 102.2 67.9Z" fill="#D4F570"/>
<path d="M44.5 55.5C44.6 55.5 44.7 55.5 44.7 55.5C45.5 55.5 46.4 55.5 47.2 55.5C47.6 55.5 47.9 55.5 48.3 55.5C48.5 55.5 48.5 55.5 48.5 55.3C48.5 54.9 48.6 54.6 48.6 54.2C48.8 52.8 48.9 51.3 49.1 49.9C49.1 49.8 49.1 49.7 49.1 49.7C49.1 49.6 49.2 49.6 49.2 49.6C49.3 49.6 49.4 49.6 49.5 49.6C50.4 49.6 51.2 49.6 52.1 49.6C52.7 49.6 52.6 49.5 52.6 50.1C52.8 51.7 52.9 53.3 53.1 54.9C53.1 55.1 53.1 55.2 53.2 55.4C53.2 55.5 53.3 55.5 53.3 55.5C53.4 55.5 53.5 55.5 53.6 55.5C54.2 55.5 54.8 55.5 55.5 55.5C56.1 55.5 56.7 55.5 57.3 55.5C57.9 55.5 57.9 55.6 57.8 54.9C57.6 53.4 57.4 51.8 57.2 50.3C57 49 56.9 47.7 56.7 46.4C56.5 44.9 56.3 43.3 56.1 41.8C56 40.7 55.8 39.5 55.7 38.4C55.5 36.9 55.3 35.3 55.1 33.8C54.9 32.5 54.8 31.1 54.6 29.8C54.4 28.5 54.3 27.2 54.1 25.9C54 25.4 54 24.8 53.9 24.3C53.9 24.1 53.8 24.1 53.7 24.1C53.6 24.1 53.5 24.1 53.5 24.1C51.9 24.1 50.3 24.1 48.6 24.1C48.5 24.1 48.4 24.1 48.3 24.1C48.2 24.1 48.2 24.1 48.2 24.2C48.2 24.3 48.2 24.3 48.2 24.4C48.1 25.2 48 26.1 47.9 26.9C47.7 28.3 47.6 29.7 47.4 31C47.2 32.4 47 33.9 46.9 35.3C46.8 36.4 46.6 37.6 46.5 38.7C46.3 40.1 46.2 41.5 46 43C45.8 44.4 45.7 45.7 45.5 47.1C45.4 48.2 45.2 49.4 45.1 50.5C45 51.7 44.8 52.9 44.7 54.1C44.7 54.5 44.6 54.9 44.6 55.3C44.3 55.5 44.3 55.5 44.5 55.5ZM50 42C50.1 40.9 50.2 39.9 50.3 38.8C50.4 37.4 50.6 36.1 50.7 34.7C50.7 34.5 50.7 34.3 50.8 34.1C50.8 34 50.8 33.9 50.9 33.8C51 35.1 51.2 36.3 51.3 37.5C51.5 39.1 51.7 40.7 51.8 42.3C51.9 43.1 52 43.9 52.1 44.8C52.1 45 52.1 45 51.9 45C51.2 45 50.5 45 49.8 45C49.6 45 49.6 45 49.6 44.8C49.8 43.8 49.9 42.9 50 42Z" fill="#D4F570"/>
<path d="M94.5 49.6C95.3 49.6 96.2 49.6 97 49.6C97.2 49.6 97.4 49.6 97.6 49.6C97.7 49.6 97.8 49.7 97.8 49.8C97.8 50.2 97.9 50.5 97.9 50.9C98 52.3 98.2 53.7 98.3 55C98.3 55.1 98.3 55.2 98.3 55.4C98.3 55.5 98.4 55.5 98.5 55.5C98.6 55.5 98.6 55.5 98.7 55.5C100 55.5 101.3 55.5 102.7 55.5C102.8 55.5 102.9 55.5 103 55.4C103 55 102.9 54.7 102.9 54.3C102.6 52.3 102.4 50.2 102.1 48.2C101.9 46.9 101.8 45.6 101.6 44.3C101.3 42.2 101.1 40.1 100.8 38C100.6 36.5 100.4 35 100.2 33.5C100 31.9 99.8 30.3 99.6 28.7C99.4 27.4 99.3 26.2 99.1 24.9C99.1 24.6 99 24.4 99 24.1C99 24 98.9 23.9 98.8 23.9C98.6 23.9 98.3 23.9 98.1 23.9C96.6 23.9 95.1 23.9 93.6 23.9C93.3 23.9 93.3 23.9 93.3 24.2C93.2 25.2 93 26.2 92.9 27.3C92.7 29 92.5 30.6 92.3 32.3C92.1 34.2 91.8 36.1 91.6 38C91.4 39.7 91.2 41.3 91 43C90.8 44.9 90.5 46.8 90.3 48.7C90.1 50.7 89.8 52.7 89.6 54.8C89.6 55 89.6 55.2 89.5 55.4C89.5 55.5 89.5 55.5 89.6 55.6C89.7 55.6 89.8 55.6 89.8 55.6C91 55.6 92.1 55.6 93.3 55.6C93.4 55.6 93.4 55.6 93.5 55.6C93.7 55.6 93.7 55.6 93.7 55.4C93.7 55.3 93.7 55.2 93.7 55.2C93.8 54.2 93.9 53.2 94 52.2C94.1 51.4 94.2 50.7 94.3 49.9C94.3 49.6 94.3 49.6 94.5 49.6ZM95 42.8C95.1 41.5 95.3 40.1 95.4 38.8C95.6 37.3 95.7 35.7 95.9 34.2C95.9 34 95.9 33.9 95.9 33.7C95.9 33.7 95.9 33.7 96 33.7H96.1C96.1 33.9 96.2 34 96.1 34.2C96.3 36 96.5 37.8 96.7 39.6C96.9 41.2 97 42.7 97.2 44.3C97.2 44.5 97.2 44.6 97.2 44.8C97.2 44.9 97.2 45 97 45C96.3 45 95.6 45 94.9 45C94.7 45 94.7 45 94.7 44.8C94.8 44.1 94.9 43.4 95 42.8Z" fill="#D4F570"/>
<path d="M39.3 50.7C37.5 50.7 35.6 50.7 33.8 50.7C33.4 50.7 33.4 50.6999 33.4 50.2999C33.4 47.5999 33.4 44.7999 33.4 42.0999C33.4 41.5999 33.4 41.7 33.8 41.7C35.1 41.7 36.4 41.7 37.6 41.7C37.7 41.7 37.8 41.7 38 41.7C38.1 41.7 38.2 41.6 38.2 41.5C38.2 41.4 38.2 41.3 38.2 41.2C38.2 40.2 38.2 39.2 38.2 38.2C38.2 37.8 38.2 37.4999 38.2 37.0999C38.2 36.8999 38.2 36.9 38 36.9C37.4 36.9 36.8 36.9 36.3 36.9C35.4 36.9 34.6 36.9 33.7 36.9C33.5 36.9 33.5 36.9 33.5 36.7C33.5 36.6 33.5 36.6 33.5 36.5C33.5 34 33.5 31.5 33.5 29.1C33.5 28.7 33.5 28.7 33.9 28.7C35.6 28.7 37.4 28.7 39.1 28.7C39.2 28.7 39.3 28.7 39.5 28.7C39.6 28.7 39.6 28.6 39.6 28.6C39.6 28.5 39.6 28.4 39.6 28.4C39.6 27.1 39.6 25.8 39.6 24.5C39.6 24.4 39.6 24.3 39.5 24.2C39.4 24.2 39.2 24.2 39.1 24.2C35.8 24.2 32.6 24.2 29.3 24.2C29.2 24.2 29.1 24.2 29 24.2C28.8 24.2 28.8 24.2 28.8 24.4C28.8 24.5 28.8 24.6 28.8 24.6C28.8 34.8 28.8 45 28.8 55.2C28.8 55.3 28.8 55.4 28.8 55.5C28.8 55.6 28.9 55.5999 29 55.5999C29.1 55.5999 29.2 55.5999 29.3 55.5999C32.7 55.5999 36.2 55.5999 39.6 55.5999C39.7 55.5999 39.8 55.5999 39.9 55.5999C40 55.5999 40 55.6 40 55.5C40 55.4 40 55.3 40 55.2C40 53.9 40 52.5999 40 51.2999C39.8 50.6999 39.8 50.7 39.3 50.7Z" fill="#D4F570"/>
<path d="M25.3 82.9C25.2 82.9 25.1 82.9 25 82.9C23.3 82.9 21.5 82.9 19.8 82.9C19.7 82.9 19.6 82.9 19.4 82.9C19.3 82.9 19.3 82.9 19.2 82.8C19.2 82.7 19.2 82.6999 19.2 82.5999C19.2 79.7999 19.2 76.9999 19.2 74.0999V74C19.2 73.9 19.3 73.9 19.3 73.8C19.4 73.8 19.5 73.8 19.7 73.8C20.9 73.8 22.2 73.8 23.4 73.8C23.5 73.8 23.6 73.8 23.8 73.8C23.9 73.8 23.9 73.6999 23.9 73.6999C23.9 73.5999 23.9 73.6 23.9 73.5C23.9 72.1 23.9 70.8 23.9 69.4C23.9 69.3 23.9 69.1999 23.9 69.1999C24 68.9999 24 69 23.9 69C23.8 69 23.7 69 23.5 69C22.2 69 20.9 69 19.7 69C19.2 69 19.3 68.9999 19.3 68.5999C19.3 66.0999 19.3 63.7 19.3 61.2C19.3 61.1 19.3 61 19.3 60.9C19.3 60.8 19.4 60.7999 19.4 60.7999C19.5 60.7999 19.6 60.7999 19.8 60.7999C21.5 60.7999 23.1 60.7999 24.8 60.7999C25 60.7999 25.1 60.7999 25.3 60.7999C25.4 60.7999 25.4 60.8 25.4 60.7V60.5999C25.4 59.1999 25.4 57.9 25.4 56.5C25.4 56.3 25.4 56.2 25.1 56.2C25 56.2 25 56.2 24.9 56.2C21.6 56.2 18.3 56.2 14.9 56.2C14.4 56.2 14.4 56.2 14.4 56.7C14.4 56.8 14.4 56.9 14.4 56.9C14.4 61.9 14.4 66.9 14.4 71.9C14.4 77 14.4 81.9999 14.4 87.0999C14.4 87.1999 14.4 87.4 14.4 87.5C14.4 87.6 14.5 87.5999 14.5 87.5999C14.6 87.5999 14.7 87.5999 14.8 87.5999C18.2 87.5999 21.6 87.5999 25 87.5999C25.1 87.5999 25.2 87.5999 25.2 87.5999C25.4 87.5999 25.4 87.6 25.4 87.4C25.4 87.3 25.4 87.1999 25.4 87.1999C25.4 86.1999 25.4 85.1999 25.4 84.1999C25.4 83.7999 25.4 83.4999 25.4 83.0999C25.6 82.8999 25.6 82.9 25.3 82.9Z" fill="#D4F570"/>
<path d="M80.9 55.2C80.9 55.1 80.9 55 80.9 54.9C80.9 46.4 80.9 37.9 80.9 29.4C80.9 29.2 80.9 29.0999 80.9 28.9V28.7999L81 28.7C81.1 28.7 81.2 28.7 81.3 28.7C82.3 28.7 83.4 28.7 84.4 28.7C84.5 28.7 84.6 28.7 84.8 28.7C84.9 28.7 84.9 28.6 84.9 28.6C84.9 28.5 84.9 28.4999 84.9 28.4C84.9 27.1 84.9 25.8 84.9 24.4V24.2999C84.9 24.1999 84.8 24.2 84.8 24.2C84.7 24.2 84.6 24.2 84.6 24.2C80.6 24.2 76.6 24.2 72.6 24.2C72.5 24.2 72.4 24.2 72.4 24.2C72.3 24.2 72.2 24.3 72.2 24.4C72.2 24.5 72.2 24.5 72.2 24.6C72.2 25.9 72.2 27.1999 72.2 28.4C72.2 28.4999 72.2 28.6 72.2 28.6C72.2 28.7 72.3 28.7 72.4 28.7C72.5 28.7 72.6 28.7 72.7 28.7C73.8 28.7 74.8 28.7 75.9 28.7C76.3 28.7 76.3 28.7 76.3 29.1C76.3 29.2 76.3 29.3 76.3 29.4C76.3 33.7 76.3 37.9 76.3 42.2C76.3 46.5 76.3 50.7999 76.3 55.0999C76.3 55.1999 76.3 55.4 76.3 55.5C76.3 55.6 76.3 55.5999 76.4 55.5999C76.5 55.5999 76.5 55.5999 76.6 55.5999C78 55.5999 79.3 55.5999 80.7 55.5999C80.9 55.4999 80.9 55.5 80.9 55.2Z" fill="#D4F570"/>
<path d="M162.9 83C162.9 82.8 162.9 82.8 162.7 82.8C162.6 82.8 162.5 82.8 162.3 82.8C160.7 82.8 159.2 82.8 157.6 82.8C156.9 82.8 157 82.9 157 82.2C157 76.1 157 70 157 63.9C157 61.5 157 59.1 157 56.7C157 56.6 157 56.5 157 56.3C157 56.2 156.9 56.1 156.8 56.1C156.7 56.1 156.6 56.1 156.5 56.1C155.3 56.1 154 56.1 152.8 56.1C152.2 56.1 152.3 56 152.3 56.7C152.3 61.8 152.3 66.8 152.3 71.9C152.3 76.9 152.3 82 152.3 87C152.3 87.1 152.3 87.3 152.3 87.4C152.3 87.6 152.3 87.6 152.6 87.6C152.7 87.6 152.8 87.6 152.9 87.6C156.1 87.6 159.3 87.6 162.4 87.6C162.5 87.6 162.6 87.6 162.7 87.6C162.9 87.6 162.9 87.6 162.9 87.4C162.9 87 162.9 86.6 162.9 86.2C162.9 85.1 162.9 84.1 162.9 83Z" fill="#D4F570"/>
<path d="M45.4999 71.9C45.4999 66.8 45.4999 61.8 45.4999 56.7C45.4999 56.6 45.4999 56.4 45.4999 56.3C45.4999 56.2 45.3999 56.1 45.2999 56.1C45.1999 56.1 45.0999 56.1 44.8999 56.1C43.6999 56.1 42.4999 56.1 41.2999 56.1C40.5999 56.1 40.6999 56 40.6999 56.7C40.6999 66.8 40.6999 77 40.6999 87.1C40.6999 87.2 40.6999 87.3 40.6999 87.4C40.6999 87.7 40.6999 87.7 40.9999 87.7C41.0999 87.7 41.1999 87.7 41.2999 87.7C42.4999 87.7 43.7999 87.7 44.9999 87.7C45.5999 87.7 45.4999 87.8 45.4999 87.2C45.4999 82 45.4999 77 45.4999 71.9Z" fill="#D4F570"/>
<path d="M95.9 34.2C96 34.2 96 34.2 96.1 34.2C96 34.1 95.9 34.1 95.9 34.2Z" fill="#D4F570"/>
<path d="M9 0.2C9.4 0.3 9.7 0.6 9.9 0.8C10.1 1.1 10.3 1.4 10.4 1.9C10.5 2.3 10.5 2.8 10.4 3.3C10.3 3.8 10.1 4.3 9.9 4.7C9.7 5.1 9.3 5.5 9 5.7C8.5 6 8.1 6.3 7.7 6.4C7.2 6.5 6.7 6.6 6.2 6.6H2.2L1.1 11.6H0L2.5 0H7.6C8.1 0 8.6 0.1 9 0.2ZM8.2 5.1C8.8 4.7 9.1 4.1 9.3 3.3C9.5 2.5 9.4 1.9 9 1.5C8.6 1.1 8 0.9 7.2 0.9H3.4L2.4 5.6H6.2C6.9 5.7 7.6 5.5 8.2 5.1Z" fill="#DF45A7"/>
<path d="M11.7 11.5C11.3 11.3 10.9 10.9 10.7 10.5C10.5 10.1 10.4 9.6 10.3 9.1C10.3 8.6 10.3 8 10.4 7.4C10.5 6.8 10.7 6.3 11 5.8C11.3 5.3 11.6 4.8 12 4.4C12.4 4 12.8 3.7 13.4 3.4C14 3.1 14.6 3 15.2 3C15.9 3 16.4 3.1 16.8 3.4C17.2 3.7 17.5 4 17.7 4.5C17.9 4.9 18 5.4 18 6C18 6.6 17.9 7.2 17.8 7.7H11.4C11.3 8.1 11.3 8.5 11.3 8.9C11.3 9.3 11.4 9.6 11.6 10C11.8 10.3 12 10.6 12.3 10.8C12.6 11 13 11.1 13.5 11.1C14.2 11.1 14.9 10.9 15.4 10.5C15.9 10.1 16.3 9.6 16.6 8.9H17.6C17.2 9.9 16.6 10.6 15.9 11.1C15.2 11.6 14.3 11.9 13.3 11.9C12.7 11.8 12.1 11.7 11.7 11.5ZM17.1 5.7C17.1 5.3 16.9 5 16.8 4.7C16.6 4.4 16.4 4.2 16.1 4C15.8 3.8 15.4 3.8 15 3.8C14.6 3.8 14.2 3.9 13.8 4C13.4 4.2 13.1 4.4 12.8 4.7C12.5 5 12.2 5.3 12 5.7C11.8 6.1 11.6 6.4 11.5 6.8H16.9C17.2 6.4 17.2 6.1 17.1 5.7Z" fill="#DF45A7"/>
<path d="M21.2 4.09995L19.6 11.6H18.6L20.4 3.19995H25.9L25.7 4.09995H21.2Z" fill="#DF45A7"/>
<path d="M32.4 3.19995H33.7L31.9 11.6H30.9L32.4 4.39995L26.3 11.6H25L26.8 3.19995H27.8L26.3 10.4L32.4 3.19995Z" fill="#DF45A7"/>
<path d="M40.6 6.79995L41.3 3.19995H42.3L40.5 11.6H39.5L40.3 7.59995H35.5L34.7 11.6H33.7L35.5 3.19995H36.5L35.8 6.79995H40.6Z" fill="#DF45A7"/>
<path d="M43.8 11.7C43.5 11.6 43.2 11.5 43 11.2C42.8 11 42.6 10.7 42.6 10.4C42.5 10.1 42.5 9.7 42.6 9.3C42.7 8.7 43 8.3 43.3 7.9C43.6 7.6 44 7.3 44.5 7.2C45 7 45.5 6.9 46 6.8L47.7 6.6C47.9 6.6 48.1 6.6 48.3 6.5C48.5 6.5 48.6 6.4 48.8 6.3C48.9 6.2 49 6.1 49.1 6C49 6 49.1 5.8 49.2 5.6C49.3 5.3 49.3 5 49.2 4.7C49.1 4.5 49 4.3 48.8 4.2C48.6 4.1 48.4 4 48.2 3.9C47.9 3.9 47.7 3.8 47.4 3.8C46.8 3.8 46.2 3.9 45.7 4.3C45.2 4.6 44.9 5.1 44.7 5.8H43.7C44 4.8 44.5 4.1 45.2 3.7C45.8 3.2 46.7 3 47.6 3C48 3 48.3 3 48.7 3.1C49.1 3.2 49.4 3.3 49.6 3.5C49.8 3.7 50 4 50.1 4.3C50.2 4.7 50.2 5.1 50.1 5.7L49.2 10.1C49.1 10.5 49.3 10.7 49.7 10.7C49.8 10.7 49.9 10.7 50 10.6L49.8 11.5H49.5C49.4 11.5 49.3 11.5 49.1 11.5C48.8 11.5 48.6 11.5 48.5 11.4C48.4 11.3 48.2 11.2 48.2 11.1C48.1 11 48.1 10.8 48.1 10.6C48.1 10.4 48.1 10.2 48.2 10C48 10.3 47.7 10.5 47.5 10.7C47.3 10.9 47 11.1 46.8 11.2C46.5 11.3 46.2 11.4 45.9 11.5C45.6 11.6 45.2 11.6 44.8 11.6C44.4 11.8 44.1 11.8 43.8 11.7ZM46.2 10.8C46.6 10.7 46.9 10.5 47.2 10.3C47.5 10.1 47.8 9.8 48 9.5C48.2 9.2 48.4 8.8 48.5 8.4L48.8 7C48.7 7.1 48.6 7.2 48.4 7.3C48.2 7.3 48 7.4 47.9 7.4C47.4 7.5 47 7.5 46.5 7.6C46 7.7 45.6 7.8 45.2 7.9C44.8 8 44.4 8.2 44.1 8.4C43.8 8.6 43.6 8.9 43.5 9.3C43.5 9.6 43.5 9.8 43.5 10C43.5 10.2 43.7 10.4 43.8 10.5C43.9 10.6 44.1 10.8 44.3 10.8C44.5 10.9 44.7 10.9 45 10.9C45.5 11 45.9 10.9 46.2 10.8Z" fill="#DF45A7"/>
<path d="M59.1 0.9L56.8 11.5H55.7L58.2 0H65.4L65.2 0.9H59.1Z" fill="#DF45A7"/>
<path d="M65.1 11.7C64.8 11.6 64.5 11.5 64.3 11.2C64.1 11 63.9 10.7 63.9 10.4C63.8 10.1 63.8 9.7 63.9 9.3C64 8.7 64.3 8.3 64.6 7.9C64.9 7.6 65.3 7.3 65.8 7.2C66.3 7 66.8 6.9 67.3 6.8L69 6.6C69.2 6.6 69.4 6.6 69.6 6.5C69.8 6.5 69.9 6.4 70.1 6.3C70.2 6.2 70.3 6.1 70.4 6C70.5 5.9 70.6 5.7 70.6 5.4C70.7 5.1 70.7 4.8 70.6 4.5C70.5 4.3 70.4 4.1 70.2 4C70 3.9 69.8 3.8 69.6 3.7C69.3 3.7 69.1 3.6 68.8 3.6C68.2 3.6 67.6 3.7 67.1 4.1C66.6 4.4 66.3 4.9 66.1 5.6H65.1C65.4 4.6 65.9 3.9 66.6 3.5C67.1 3.2 68 3 68.9 3C69.3 3 69.6 3 70 3.1C70.4 3.2 70.7 3.3 70.9 3.5C71.1 3.7 71.3 4 71.4 4.3C71.5 4.7 71.5 5.1 71.4 5.7L70.5 10.1C70.4 10.5 70.6 10.7 71 10.7C71.1 10.7 71.2 10.7 71.3 10.6L71.1 11.5H70.8C70.7 11.5 70.6 11.5 70.4 11.5C70.1 11.5 69.9 11.5 69.8 11.4C69.7 11.3 69.5 11.2 69.5 11.1C69.4 11 69.4 10.8 69.4 10.6C69.4 10.4 69.4 10.2 69.5 10C69.3 10.3 69 10.5 68.8 10.7C68.6 10.9 68.3 11.1 68.1 11.2C67.8 11.3 67.5 11.4 67.2 11.5C66.9 11.6 66.5 11.6 66.1 11.6C65.7 11.8 65.4 11.8 65.1 11.7ZM67.5 10.8C67.9 10.7 68.2 10.5 68.5 10.3C68.8 10.1 69.1 9.8 69.3 9.5C69.5 9.2 69.7 8.8 69.8 8.4L70.1 7C70 7.1 69.9 7.2 69.7 7.3C69.5 7.3 69.3 7.4 69.2 7.4C68.7 7.5 68.3 7.5 67.8 7.6C67.3 7.7 66.9 7.8 66.5 7.9C66.1 8 65.7 8.2 65.4 8.4C65.1 8.6 64.9 8.9 64.8 9.3C64.8 9.6 64.8 9.8 64.8 10C64.8 10.2 65 10.4 65.1 10.5C65.2 10.6 65.4 10.8 65.6 10.8C65.8 10.9 66 10.9 66.3 10.9C66.8 11 67.2 10.9 67.5 10.8Z" fill="#DF45A7"/>
<path d="M71.9 11.7H71.7C71.6 11.7 71.5 11.7 71.5 11.7C71.4 11.7 71.4 11.7 71.4 11.7L71.6 10.8C71.7 10.8 71.8 10.9 72 10.9C72.2 10.9 72.3 10.9 72.4 10.9C72.5 10.9 72.6 10.9 72.8 10.9C72.9 10.9 73.1 10.8 73.3 10.6C73.4 10.5 73.6 10.2 73.8 9.90002C74 9.60002 74.2 9.20002 74.4 8.60002C74.6 8.00002 74.8 7.40002 75.1 6.50002C75.3 5.70002 75.6 4.60002 75.8 3.40002H81.4L79.6 11.8H78.6L80.2 4.30002H76.6C76.3 5.50002 76.1 6.50002 75.8 7.40002C75.5 8.00002 75.2 8.70002 75 9.30002C74.8 9.90002 74.5 10.3 74.3 10.6C74.1 10.9 73.8 11.2 73.6 11.3C73.4 11.5 73.1 11.6 72.9 11.6C72.7 11.6 72.4 11.6 72.2 11.6C72.1 11.7 72 11.7 71.9 11.7Z" fill="#DF45A7"/>
<path d="M88.8 3.19995H90.1L88.3 11.6H87.3L88.8 4.39995L82.7 11.6H81.4L83.2 3.19995H84.2L82.7 10.4L88.8 3.19995Z" fill="#DF45A7"/>
<path d="M91.9 11.5C91.5 11.3 91.1 10.9 90.9 10.5C90.7 10.1 90.6 9.6 90.5 9.1C90.5 8.6 90.5 8 90.6 7.4C90.7 6.8 90.9 6.3 91.2 5.8C91.5 5.3 91.8 4.8 92.2 4.4C92.6 4 93 3.7 93.6 3.4C94.2 3.1 94.8 3 95.5 3C96.2 3 96.7 3.1 97.1 3.4C97.5 3.7 97.8 4 98 4.4C98.2 4.8 98.3 5.3 98.3 5.9C98.3 6.5 98.2 7.1 98.1 7.6H91.7C91.6 8 91.6 8.4 91.6 8.8C91.6 9.2 91.7 9.5 91.9 9.9C92.1 10.2 92.3 10.5 92.6 10.7C92.9 10.9 93.3 11 93.8 11C94.5 11 95.2 10.8 95.7 10.4C96.2 10 96.6 9.5 96.9 8.8H97.9C97.5 9.8 96.9 10.5 96.2 11C95.5 11.5 94.6 11.8 93.6 11.8C92.9 11.8 92.4 11.7 91.9 11.5ZM97.4 5.7C97.4 5.3 97.2 5 97.1 4.7C96.9 4.4 96.7 4.2 96.4 4C96.1 3.8 95.8 3.8 95.3 3.8C94.9 3.8 94.5 3.9 94.1 4C93.7 4.2 93.4 4.4 93.1 4.7C92.8 5 92.5 5.3 92.3 5.7C92.1 6.1 91.9 6.4 91.8 6.8H97.2C97.4 6.4 97.4 6.1 97.4 5.7Z" fill="#DF45A7"/>
<path d="M106.2 3.69998C106.6 3.99998 106.7 4.49998 106.6 5.19998C106.5 5.69998 106.3 6.09998 106 6.49998C105.7 6.79998 105.3 7.09998 104.8 7.19998C105.3 7.29998 105.7 7.49998 106 7.79998C106.2 8.09998 106.3 8.59998 106.2 9.19998C106 9.99998 105.7 10.5 105.1 10.9C104.5 11.3 103.7 11.5 102.7 11.5H98.9L100.7 3.09998H104.5C105.1 3.19998 105.8 3.39998 106.2 3.69998ZM104.3 10.3C104.7 9.99998 104.9 9.69998 105.1 9.09998C105.2 8.59998 105.1 8.19998 104.8 7.99998C104.5 7.69998 104 7.59998 103.3 7.59998H100.6L100 10.7H102.7C103.3 10.7 103.8 10.6 104.3 10.3ZM104.8 6.49998C105.1 6.29998 105.4 5.89998 105.4 5.49998C105.6 4.59998 105.1 4.09998 103.9 4.09998H101.2L100.6 6.89998H103.3C104 6.79998 104.5 6.69998 104.8 6.49998Z" fill="#DF45A7"/>
<path d="M108.3 11.7C108 11.6 107.7 11.5 107.5 11.2C107.3 11 107.1 10.7 107.1 10.4C107 10.1 107 9.70005 107.1 9.30005C107.2 8.70005 107.5 8.30005 107.8 7.90005C108.1 7.60005 108.5 7.30005 109 7.20005C109.5 7.00005 110 6.90005 110.5 6.80005L112.2 6.60005C112.4 6.60005 112.6 6.60005 112.8 6.50005C113 6.50005 113.1 6.40005 113.3 6.30005C113.4 6.20005 113.5 6.10005 113.6 6.00005C113.7 5.90005 113.8 5.70005 113.8 5.40005C113.9 5.10005 113.9 4.80005 113.8 4.50005C113.7 4.30005 113.6 4.10005 113.4 4.00005C113.2 3.90005 113 3.80005 112.8 3.70005C112.5 3.70005 112.3 3.60005 112 3.60005C111.4 3.60005 110.8 3.70005 110.3 4.10005C109.8 4.40005 109.5 4.90005 109.3 5.60005H108.3C108.6 4.60005 109.1 3.90005 109.8 3.50005C110.5 3.10005 111.3 2.80005 112.3 2.80005C112.7 2.80005 113 2.80005 113.4 2.90005C113.8 3.00005 114.1 3.10005 114.3 3.30005C114.5 3.50005 114.7 3.80005 114.8 4.10005C114.9 4.50005 114.9 4.90005 114.8 5.50005L113.9 9.90005C113.8 10.3 114 10.5 114.4 10.5C114.5 10.5 114.6 10.5 114.7 10.4L114.5 11.3H114.2C114.1 11.3 114 11.3 113.8 11.3C113.5 11.3 113.3 11.3 113.2 11.2C113.1 11.1 112.9 11 112.9 10.9C112.8 10.8 112.8 10.6 112.8 10.4C112.8 10.2 112.8 10 112.9 9.80005C112.7 10.1 112.4 10.3 112.2 10.5C112 10.7 111.7 10.9 111.5 11C111.2 11.1 110.9 11.2 110.6 11.3C110.3 11.4 109.9 11.4 109.5 11.4C109 11.8 108.7 11.8 108.3 11.7ZM110.8 10.8C111.2 10.7 111.5 10.5 111.8 10.3C112.1 10.1 112.4 9.80005 112.6 9.50005C112.8 9.20005 113 8.80005 113.1 8.40005L113.4 7.10005C113.3 7.20005 113.2 7.30005 113 7.40005C112.8 7.40005 112.6 7.50005 112.5 7.50005C112 7.60005 111.6 7.60005 111.1 7.70005C110.6 7.80005 110.2 7.90005 109.8 8.00005C109.4 8.10005 109 8.30005 108.7 8.50005C108.4 8.70005 108.2 9.00005 108.1 9.40005C108.1 9.70005 108.1 9.90005 108.1 10.1C108.1 10.3 108.3 10.5 108.4 10.6C108.5 10.7 108.7 10.9 108.9 10.9C109.1 11 109.3 11 109.6 11C110.1 11 110.4 10.9 110.8 10.8Z" fill="#DF45A7"/>
</g>
<defs>
<clipPath id="clip0_1_534">
<rect width="162.9" height="88.1" fill="white"/>
</clipPath>
</defs>
</svg>
