<svg width="297" height="119" viewBox="0 0 297 119" fill="none" xmlns="http://www.w3.org/2000/svg">
<g clip-path="url(#clip0_21_262)">
<path d="M77.946 119L76.6656 110.143H58.2594L57.1391 119H0L28.3294 0H106.596L134.925 119H77.946ZM62.901 74.8782H72.024L68.5028 48.7916L67.8626 43.1556H66.7423L66.102 48.7916L62.901 74.8782Z" fill="#DF45A7"/>
<path d="M246.162 0V39.452H194.945V44.7659H199.587C211.911 44.7659 222.474 45.7321 231.277 47.8254C240.08 49.9188 247.282 53.7835 252.564 59.4195C258.006 65.0555 260.567 73.1069 260.567 83.2517C260.567 92.7524 258.006 99.9986 252.884 105.313C247.763 110.627 240.88 114.169 232.237 116.101C223.595 118.034 213.351 119 201.187 119H138.606V0H246.162ZM202.948 83.7348C203.748 82.6076 204.228 80.8363 204.228 78.2598C204.228 75.5223 203.748 73.751 202.628 72.6238C201.507 71.6576 199.907 71.0135 197.826 71.0135H194.945V85.3451H199.266C200.867 85.3451 202.147 84.862 202.948 83.7348Z" fill="#DF45A7"/>
<path d="M480 47.5034H242.001C242.321 47.5034 242.961 47.6644 243.601 47.8255C253.365 50.2409 258.006 57.6482 259.607 59.7416C261.367 61.996 263.288 65.6996 264.888 70.8525H480V47.5034Z" fill="#DF45A7"/>
</g>
<defs>
<clipPath id="clip0_21_262">
<rect width="480" height="119" fill="white"/>
</clipPath>
</defs>
</svg>
