<svg width="100" height="39" viewBox="0 0 100 39" fill="none" xmlns="http://www.w3.org/2000/svg">
<g clip-path="url(#clip0_22_1330)">
<path d="M25.6572 39L25.2357 36.0974H19.1771L18.8083 39H0L9.32511 0H35.0877L44.4128 39H25.6572ZM20.7049 24.5399H23.7079L22.5488 15.9905L22.3381 14.1434H21.9693L21.7586 15.9905L20.7049 24.5399Z" fill="#DF45A7"/>
<path d="M81.0283 0V12.9296H64.1694V14.6712H65.6972C69.7539 14.6712 73.231 14.9878 76.1287 15.6739C79.0263 16.3599 81.3971 17.6265 83.1357 19.4736C84.9269 21.3207 85.7699 23.9594 85.7699 27.2842C85.7699 30.3978 84.9269 32.7727 83.2411 34.5142C81.5552 36.2558 79.2897 37.4168 76.4448 38.0501C73.5998 38.6834 70.228 39 66.224 39H45.6245V0H81.0283ZM66.8036 27.4425C67.067 27.0731 67.225 26.4926 67.225 25.6482C67.225 24.751 67.067 24.1705 66.6982 23.8011C66.3294 23.4844 65.8026 23.2733 65.1177 23.2733H64.1694V27.9702H65.5918C66.1187 27.9702 66.5402 27.8119 66.8036 27.4425Z" fill="#DF45A7"/>
<path d="M158 15.5683H79.6586C79.7639 15.5683 79.9747 15.6211 80.1854 15.6739C83.3991 16.4655 84.927 18.8931 85.4538 19.5792C86.0334 20.318 86.6656 21.5318 87.1924 23.2206H158V15.5683Z" fill="#DF45A7"/>
</g>
<defs>
<clipPath id="clip0_22_1330">
<rect width="158" height="39" fill="white"/>
</clipPath>
</defs>
</svg>
