<svg width="203" height="74" viewBox="0 0 203 74" fill="none" xmlns="http://www.w3.org/2000/svg">
<g clip-path="url(#clip0_22_1284)">
<path d="M48.7 73.9L47.9 68.4H36.4L35.7 73.9H0L17.7 0H66.6L84.3 73.9H48.7ZM39.3 46.5H45L42.8 30.3L42.4 26.8H41.7L41.3 30.3L39.3 46.5Z" fill="#DF45A7"/>
<path d="M153.8 0V24.5H121.8V27.8H124.7C132.4 27.8 139 28.4 144.5 29.7C150 31 154.5 33.4 157.8 36.9C161.2 40.4 162.8 45.4 162.8 51.7C162.8 57.6 161.2 62.1 158 65.4C154.8 68.7 150.5 70.9 145.1 72.1C139.7 73.3 133.3 73.9 125.7 73.9H86.6V0H153.8ZM126.8 52C127.3 51.3 127.6 50.2 127.6 48.6C127.6 46.9 127.3 45.8 126.6 45.1C125.9 44.5 124.9 44.1 123.6 44.1H121.8V53H124.5C125.5 53 126.3 52.7 126.8 52Z" fill="#DF45A7"/>
<path d="M299.9 29.5H151.2C151.4 29.5 151.8 29.6 152.2 29.7C158.3 31.2 161.2 35.8 162.2 37.1C163.3 38.5 164.5 40.8 165.5 44H299.9V29.5Z" fill="#DF45A7"/>
</g>
<defs>
<clipPath id="clip0_22_1284">
<rect width="299.9" height="73.9" fill="white"/>
</clipPath>
</defs>
</svg>
