<svg width="675" height="430" viewBox="0 0 675 430" fill="none" xmlns="http://www.w3.org/2000/svg">
<g clip-path="url(#clip0_1_306)">
<path d="M407.827 430V216.415L608.913 86.2426V274.224L407.827 430Z" fill="#5B927F"/>
<path d="M407.827 430V216.415L65.5484 90.6895V278.671L407.827 430Z" fill="#D4F570"/>
<path d="M608.913 86.2426C608.913 86.2426 558.305 62.3911 602.183 38.9439C646.062 15.4967 675 0 675 0L438.918 86.2426C438.918 86.2426 389.521 109.016 407.827 216.415L608.913 86.2426Z" fill="white"/>
<path d="M65.5484 90.6894C65.5484 90.6894 89.3719 72.9019 58.8185 48.9157C28.2652 24.9295 0 4.9859 0 4.9859L298.938 80.0439C298.938 80.0439 387.233 82.8737 407.827 216.28L65.5484 90.6894Z" fill="#5B927F"/>
</g>
<defs>
<clipPath id="clip0_1_306">
<rect width="675" height="430" fill="white"/>
</clipPath>
</defs>
</svg>
