<svg width="1024" height="396" viewBox="0 0 1024 396" fill="none" xmlns="http://www.w3.org/2000/svg">
<path d="M0 187.193H33.1679L46.387 77.0867H84.9628L108.517 208.206H134.595V0H166.561V176.267H177.016V67.1207H257.532V214.33H324.709L364.367 26.2959L359.56 13.208H411.475L406.307 25.4554L435.99 154.173H481.776V98.3396L479.253 93.6568H505.33L502.687 98.3396V176.267H558.687V45.1474H630.912V197.159H695.205L712.63 79.9685L709.145 71.5634H749.643L746.279 79.3681L755.652 147.569H784.854V6.604H815.138V171.824H849.388V56.1941H926.539V187.193H942.162L948.531 106.505H971.604L979.656 187.193H1024V396H0V187.193Z" fill="#DF45A7"/>
</svg>
