<svg width="1920" height="744" viewBox="0 0 1920 744" fill="none" xmlns="http://www.w3.org/2000/svg">
<g clip-path="url(#clip0_22_310)">
<path d="M0 351.697H62.1899L86.9757 144.83H159.305L203.469 391.175H252.365V0H312.301V331.168H331.905V126.106H482.873V402.68H608.83L683.188 49.4045L674.174 24.815H771.515L761.826 47.8254L817.482 289.659H903.331V184.759L898.599 175.961H947.495L942.537 184.759V331.168H1047.54V84.8223H1182.96V370.421H1303.51L1336.18 150.244L1329.65 134.452H1405.58L1399.27 149.116L1416.85 277.252H1471.6V12.4075H1528.38V322.821H1592.6V105.577H1737.26V351.697H1766.55L1778.5 200.099H1821.76L1836.85 351.697H1920V744H0V351.697Z" fill="#DF45A7"/>
</g>
<defs>
<clipPath id="clip0_22_310">
<rect width="1920" height="744" fill="white"/>
</clipPath>
</defs>
</svg>
