<svg width="1388" height="537" viewBox="0 0 1388 537" fill="none" xmlns="http://www.w3.org/2000/svg">
<g clip-path="url(#clip0_10_20)">
<path d="M0 253.846H22.4791L40.56 104.534H92.8483L124.612 282.34H182.439V0H225.768V239.029H239.939V91.0197H349.077V290.644H440.133L493.888 35.6589L487.372 17.9109H557.741L550.737 34.5191L590.971 209.069H653.033V133.354L649.612 127.004H684.96L681.376 133.354V239.029H757.283V61.2226H855.181V267.36H942.328L965.948 108.442L961.224 97.0443H1016.12L1011.56 107.628L1024.26 200.113H1063.85V8.95543H1104.89V233.004H1151.32V76.2026H1255.89V253.846H1313.72L1322.35 144.427H1353.79L1364.54 253.846H1388V537H0V253.846Z" fill="#DF45A7"/>
</g>
<defs>
<clipPath id="clip0_10_20">
<rect width="1388" height="537" fill="white"/>
</clipPath>
</defs>
</svg>
