<svg width="414" height="159" viewBox="0 0 414 159" fill="none" xmlns="http://www.w3.org/2000/svg">
<path d="M0 75.161H13.4097L18.7541 30.9515H34.3502L43.873 83.5979H54.4161V0H67.34V70.7738H71.567V26.95H104.119V86.0567H131.279L147.312 10.5582L145.369 5.30321H166.358L164.269 10.2207L176.269 61.903H194.781V39.4848L193.76 37.6046H204.303L203.235 39.4848V70.7738H225.876V18.1273H255.076V79.1625H281.069L288.114 32.1086L286.705 28.7338H303.079L301.718 31.8675L305.508 59.2514H317.314V2.65161H329.558V68.99H343.405V22.5628H374.597V75.161H380.913L383.488 42.7632H392.817L396.072 75.161H414V159H0V75.161Z" fill="#DF45A7"/>
</svg>
