<svg width="1338" height="147" viewBox="0 0 1338 147" fill="none" xmlns="http://www.w3.org/2000/svg">
<g clip-path="url(#clip0_10_22)">
<path d="M83.1979 129.476L81.8312 120.118H62.1849L60.989 129.476H0L30.2383 3.57294H113.778L144.016 129.306H83.1979V129.476ZM67.1392 82.8577H76.8769L73.1185 55.2952L72.4351 49.3403H71.2393L70.5559 55.2952L67.1392 82.8577Z" fill="black"/>
<path d="M262.748 3.57294V45.257H208.08V50.8715H213.034C226.189 50.8715 237.464 51.8924 246.86 54.1042C256.256 56.316 263.944 60.3993 269.582 66.3542C275.39 72.3091 278.124 80.816 278.124 91.5347C278.124 101.573 275.39 109.229 269.923 114.844C264.457 120.458 257.111 124.201 247.885 126.243C238.66 128.285 227.726 129.306 214.743 129.306H147.945V3.57294H262.748ZM216.622 92.0452C217.476 90.8542 217.989 88.9827 217.989 86.2604C217.989 83.3681 217.476 81.4966 216.28 80.3056C215.085 79.2847 213.376 78.6042 211.155 78.6042H208.08V93.5764H212.693C214.401 93.7466 215.768 93.2361 216.622 92.0452Z" fill="black"/>
<path d="M818.825 129.476L817.458 120.118H797.641L796.445 129.476H735.456L765.694 3.74304H849.234L879.472 129.476H818.825ZM802.766 82.8576H812.504L808.745 55.2951L808.062 49.3403H806.866L806.183 55.2951L802.766 82.8576Z" fill="black"/>
<path d="M954.64 3.57294C973.433 3.57294 987.27 6.4653 996.154 12.25C1005.04 18.0347 1009.48 26.882 1009.48 38.7917C1009.48 42.5347 1008.8 46.2778 1007.6 49.6806C1006.4 53.2535 1004.7 56.1459 1002.65 58.6979C1000.6 61.0799 998.375 62.6111 996.154 63.2917C1001.79 65.3334 1006.58 68.7361 1010.16 73.6702C1013.75 78.4341 1015.63 84.3889 1015.63 91.5347C1015.63 105.656 1010.5 115.354 1000.42 120.969C990.345 126.583 976.849 129.306 959.936 129.306H883.572V3.57294H954.64ZM954.128 52.2327C954.982 51.0417 955.324 49.6806 955.324 47.809C955.324 46.1077 954.982 44.7465 954.128 43.5556C953.274 42.3646 952.249 41.8542 950.711 41.8542H943.536V53.9341H950.882C952.249 53.9341 953.274 53.2535 954.128 52.2327ZM954.982 91.1945C955.836 90.0035 956.178 88.4723 956.178 86.6007C956.178 84.5591 955.836 82.8577 954.982 81.6667C954.128 80.4757 952.932 79.7952 951.224 79.7952H943.536V92.8959H951.565C953.103 92.8959 954.299 92.3854 954.982 91.1945Z" fill="black"/>
<path d="M1051.51 125.052C1040.57 119.778 1032.37 112.122 1026.56 102.083C1020.75 92.0451 1017.85 80.1354 1017.85 66.3542C1017.85 52.5729 1020.75 40.6632 1026.56 30.625C1032.37 20.5868 1040.57 13.1007 1051.51 7.82639C1062.44 2.55208 1075.42 0 1090.63 0C1105.83 0 1118.82 2.55208 1129.75 7.82639C1140.68 13.1007 1149.05 20.5868 1154.69 30.625C1160.5 40.6632 1163.4 52.4028 1163.4 66.3542C1163.4 80.3056 1160.5 92.2153 1154.69 102.083C1148.88 112.122 1140.68 119.778 1129.75 125.052C1118.82 130.326 1105.83 132.878 1090.63 132.878C1075.25 132.878 1062.27 130.326 1051.51 125.052ZM1097.29 73.3299C1099.17 71.4583 1100.02 69.0764 1100.02 66.184C1100.02 63.2917 1099.17 60.9097 1097.29 59.0382C1095.41 57.1667 1093.19 56.1458 1090.46 56.1458C1087.72 56.1458 1085.5 57.1667 1083.62 59.0382C1081.74 60.9097 1080.89 63.2917 1080.89 66.184C1080.89 69.0764 1081.74 71.4583 1083.62 73.3299C1085.5 75.2014 1087.72 76.2222 1090.46 76.2222C1093.19 76.2222 1095.41 75.2014 1097.29 73.3299Z" fill="black"/>
<path d="M1181.68 77.5833C1184.08 74.5208 1186.13 71.1181 1188 67.5452C1189.88 63.9722 1191.42 59.3785 1192.79 53.5938C1194.15 47.809 1195.18 40.6632 1195.86 32.1563L1198.08 3.57294H1325.7V77.5833H1338.17V147H1279.92V129.476H1225.93V147.17H1167.5V77.5833H1181.68ZM1263.86 45.0868H1252.92L1252.41 49.6806C1251.73 54.6146 1250.87 59.3785 1249.51 63.9722C1248.14 68.3958 1245.58 72.9896 1241.99 77.5833H1263.86V45.0868Z" fill="black"/>
<path d="M738.36 92.8958C738.36 100.892 736.139 107.868 731.868 113.823C727.597 119.778 720.764 124.542 711.539 127.944C702.313 131.347 690.526 133.049 676.346 133.049C663.021 133.049 651.404 131.177 641.324 127.264C631.245 123.351 623.386 117.736 617.749 110.25C612.111 102.764 608.524 94.4271 608.524 83.7083H659.775C660.287 84.7292 660.971 87.2812 662.508 89.3229C665.242 91.1944 669 91.1944 671.392 91.1944C674.125 91.1944 676.688 91.0243 678.567 89.3229C678.909 88.9826 680.446 87.4514 680.617 85.4097C680.617 84.2187 680.275 83.1979 679.934 82.8576C679.25 81.6667 678.225 80.816 676.688 80.1354C674.125 79.1146 670.025 78.434 664.729 78.434H648.499H282.907C281.199 72.8194 278.978 69.0764 277.269 66.6944C275.561 64.4826 270.607 56.6562 260.186 54.1042C259.502 53.934 258.819 53.7639 258.477 53.7639H664.558C669.683 53.7639 673.271 53.2535 675.492 52.0625C676.688 51.3819 678.567 50.0208 678.738 47.9792C679.079 45.0868 676.346 42.875 676.004 42.5347C674.296 41.1736 672.588 41.0035 671.05 40.8333C669.342 40.6632 666.096 40.6632 663.533 42.0243C660.971 43.3854 660.8 47.2986 660.287 48.3194C643.204 48.3194 626.12 48.3194 609.036 48.3194C609.036 37.7708 611.769 30.2847 617.407 22.7986C623.045 15.3125 630.562 9.69792 640.299 5.78472C650.037 1.87153 661.141 0 673.442 0C692.063 0 706.926 3.23264 718.201 9.52778C729.306 15.8229 734.943 26.0312 734.943 39.9826C734.943 45.7674 733.918 50.8715 731.868 55.125C729.818 59.3785 725.889 62.9514 720.251 65.6736C724.01 67.2049 727.426 69.4167 730.16 72.309C732.893 75.2014 734.943 78.6042 736.31 82.1771C737.677 85.9201 738.36 89.4931 738.36 92.8958Z" fill="black"/>
</g>
<defs>
<clipPath id="clip0_10_22">
<rect width="1338" height="147" fill="white"/>
</clipPath>
</defs>
</svg>
