<svg width="389" height="42" viewBox="0 0 389 42" fill="none" xmlns="http://www.w3.org/2000/svg">
<g clip-path="url(#clip0_22_350)">
<path d="M24.1883 36.9931L23.791 34.3195H18.0792L17.7315 36.9931H0L8.79124 1.02087H33.0789L41.8702 36.9445H24.1883V36.9931ZM19.5195 23.6737H22.3506L21.2579 15.7987L21.0592 14.0973H20.7116L20.5129 15.7987L19.5195 23.6737Z" fill="white"/>
<path d="M76.3894 1.02087V12.9306H60.4957V14.5348H61.936C65.7605 14.5348 69.0386 14.8264 71.7703 15.4584C74.502 16.0903 76.7371 17.257 78.3761 18.9584C80.0649 20.6598 80.8596 23.0903 80.8596 26.1528C80.8596 29.0209 80.0649 31.2084 78.4755 32.8125C76.8861 34.4167 74.7504 35.4862 72.0683 36.0695C69.3862 36.6528 66.2075 36.9445 62.4327 36.9445H43.0125V1.02087H76.3894ZM62.9791 26.2987C63.2274 25.9584 63.3764 25.4237 63.3764 24.6459C63.3764 23.8195 63.2274 23.2848 62.8797 22.9445C62.532 22.6528 62.0354 22.4584 61.3897 22.4584H60.4957V26.7362H61.8367C62.3334 26.7848 62.7307 26.6389 62.9791 26.2987Z" fill="white"/>
<path d="M238.059 36.9931L237.662 34.3195H231.9L231.552 36.9931H213.821L222.612 1.06946H246.9L255.691 36.9931H238.059ZM233.39 23.6736H236.221L235.128 15.7986L234.93 14.0972H234.582L234.383 15.7986L233.39 23.6736Z" fill="white"/>
<path d="M277.545 1.02087C283.008 1.02087 287.032 1.84726 289.614 3.50004C292.197 5.15282 293.488 7.6806 293.488 11.0834C293.488 12.1528 293.29 13.2223 292.942 14.1945C292.594 15.2153 292.098 16.0417 291.502 16.7709C290.906 17.4514 290.26 17.8889 289.614 18.0834C291.253 18.6667 292.644 19.6389 293.687 21.0487C294.73 22.4098 295.276 24.1112 295.276 26.1528C295.276 30.1875 293.786 32.9584 290.856 34.5625C287.926 36.1667 284.002 36.9445 279.085 36.9445H256.883V1.02087H277.545ZM277.396 14.9237C277.644 14.5834 277.744 14.1945 277.744 13.6598C277.744 13.1737 277.644 12.7848 277.396 12.4445C277.148 12.1042 276.85 11.9584 276.403 11.9584H274.317V15.4098H276.452C276.85 15.4098 277.148 15.2153 277.396 14.9237ZM277.644 26.0556C277.893 25.7153 277.992 25.2778 277.992 24.7431C277.992 24.1598 277.893 23.6737 277.644 23.3334C277.396 22.9931 277.048 22.7987 276.552 22.7987H274.317V26.5417H276.651C277.098 26.5417 277.446 26.3959 277.644 26.0556Z" fill="white"/>
<path d="M305.707 35.7292C302.528 34.2222 300.144 32.0347 298.455 29.1667C296.766 26.2986 295.922 22.8958 295.922 18.9583C295.922 15.0208 296.766 11.6181 298.455 8.75C300.144 5.88194 302.528 3.74305 305.707 2.23611C308.885 0.729167 312.66 0 317.081 0C321.501 0 325.276 0.729167 328.455 2.23611C331.633 3.74305 334.067 5.88194 335.706 8.75C337.395 11.6181 338.239 14.9722 338.239 18.9583C338.239 22.9444 337.395 26.3472 335.706 29.1667C334.018 32.0347 331.633 34.2222 328.455 35.7292C325.276 37.2361 321.501 37.9653 317.081 37.9653C312.611 37.9653 308.836 37.2361 305.707 35.7292ZM319.018 20.9514C319.564 20.4167 319.812 19.7361 319.812 18.9097C319.812 18.0833 319.564 17.4028 319.018 16.8681C318.471 16.3333 317.826 16.0417 317.031 16.0417C316.236 16.0417 315.591 16.3333 315.044 16.8681C314.498 17.4028 314.25 18.0833 314.25 18.9097C314.25 19.7361 314.498 20.4167 315.044 20.9514C315.591 21.4861 316.236 21.7778 317.031 21.7778C317.826 21.7778 318.471 21.4861 319.018 20.9514Z" fill="white"/>
<path d="M343.554 22.1667C344.249 21.2917 344.845 20.3195 345.392 19.2987C345.938 18.2778 346.385 16.9653 346.782 15.3125C347.18 13.6598 347.478 11.6181 347.676 9.18754L348.322 1.02087H385.424V22.1667H389.05V42H372.113V36.9931H356.418V42.0487H339.431V22.1667H343.554ZM367.444 12.882H364.265L364.116 14.1945C363.918 15.6042 363.669 16.9653 363.272 18.2778C362.875 19.5417 362.13 20.8542 361.087 22.1667H367.444V12.882Z" fill="white"/>
<path d="M214.665 26.5417C214.665 28.8264 214.02 30.8194 212.778 32.5208C211.536 34.2222 209.549 35.5833 206.867 36.5556C204.185 37.5278 200.758 38.0139 196.636 38.0139C192.762 38.0139 189.384 37.4792 186.454 36.3611C183.523 35.2431 181.239 33.6389 179.6 31.5C177.961 29.3611 176.918 26.9792 176.918 23.9167H191.818C191.967 24.2083 192.166 24.9375 192.613 25.5208C193.407 26.0556 194.5 26.0556 195.195 26.0556C195.99 26.0556 196.735 26.0069 197.281 25.5208C197.381 25.4236 197.828 24.9861 197.877 24.4028C197.877 24.0625 197.778 23.7708 197.679 23.6736C197.48 23.3333 197.182 23.0903 196.735 22.8958C195.99 22.6042 194.798 22.4097 193.258 22.4097H188.54H82.2502C81.7536 20.8056 81.1079 19.7361 80.6112 19.0556C80.1145 18.4236 78.6741 16.1875 75.6444 15.4583C75.4457 15.4097 75.247 15.3611 75.1477 15.3611H193.209C194.699 15.3611 195.742 15.2153 196.387 14.875C196.735 14.6806 197.281 14.2917 197.331 13.7083C197.43 12.8819 196.636 12.25 196.536 12.1528C196.04 11.7639 195.543 11.7153 195.096 11.6667C194.599 11.6181 193.656 11.6181 192.911 12.0069C192.166 12.3958 192.116 13.5139 191.967 13.8056C187 13.8056 182.033 13.8056 177.066 13.8056C177.066 10.7917 177.861 8.65278 179.5 6.51389C181.139 4.375 183.325 2.77083 186.156 1.65278C188.987 0.534722 192.215 0 195.791 0C201.205 0 205.526 0.923611 208.804 2.72222C212.033 4.52083 213.672 7.4375 213.672 11.4236C213.672 13.0764 213.374 14.5347 212.778 15.75C212.182 16.9653 211.039 17.9861 209.4 18.7639C210.493 19.2014 211.486 19.8333 212.281 20.6597C213.076 21.4861 213.672 22.4583 214.069 23.4792C214.467 24.5486 214.665 25.5694 214.665 26.5417Z" fill="white"/>
</g>
<defs>
<clipPath id="clip0_22_350">
<rect width="389" height="42" fill="white"/>
</clipPath>
</defs>
</svg>
