<svg width="1390" height="153" viewBox="0 0 1390 153" fill="none" xmlns="http://www.w3.org/2000/svg">
<g clip-path="url(#clip0_1_576)">
<path d="M86.4313 134.76L85.0115 125.021H64.6016L63.3593 134.76H0L31.4134 3.71875H118.2L149.613 134.583H86.4313V134.76ZM69.7485 86.2396H79.8647L75.9602 57.5521L75.2503 51.3542H74.0079L73.298 57.5521L69.7485 86.2396Z" fill="black"/>
<path d="M272.96 3.71875V47.1042H216.167V52.9479H221.314C234.98 52.9479 246.693 54.0104 256.454 56.3125C266.215 58.6146 274.202 62.8646 280.059 69.0625C286.093 75.2604 288.933 84.1146 288.933 95.2708C288.933 105.719 286.093 113.688 280.414 119.531C274.734 125.375 267.103 129.271 257.519 131.396C247.935 133.521 236.577 134.583 223.089 134.583H153.695V3.71875H272.96ZM225.041 95.8021C225.928 94.5625 226.461 92.6146 226.461 89.7813C226.461 86.7708 225.928 84.8229 224.686 83.5833C223.444 82.5208 221.669 81.8125 219.362 81.8125H216.167V97.3958H220.959C222.734 97.5729 224.153 97.0417 225.041 95.8021Z" fill="black"/>
<path d="M850.647 134.76L849.228 125.021H828.64L827.398 134.76H764.039L795.452 3.89583H882.238L913.652 134.76H850.647ZM833.965 86.2396H844.081L840.176 57.5521L839.466 51.3542H838.224L837.514 57.5521L833.965 86.2396Z" fill="black"/>
<path d="M991.742 3.71875C1011.26 3.71875 1025.64 6.72917 1034.87 12.75C1044.1 18.7708 1048.71 27.9792 1048.71 40.375C1048.71 44.2708 1048 48.1667 1046.76 51.7083C1045.52 55.4271 1043.74 58.4375 1041.61 61.0938C1039.48 63.5729 1037.18 65.1667 1034.87 65.875C1040.73 68 1045.69 71.5417 1049.42 76.6771C1053.15 81.6354 1055.1 87.8333 1055.1 95.2708C1055.1 109.969 1049.78 120.063 1039.31 125.906C1028.83 131.75 1014.81 134.583 997.243 134.583H917.911V3.71875H991.742ZM991.209 54.3646C992.097 53.125 992.451 51.7083 992.451 49.7604C992.451 47.9896 992.097 46.5729 991.209 45.3333C990.322 44.0938 989.257 43.5625 987.66 43.5625H980.206V56.1354H987.837C989.257 56.1354 990.322 55.4271 991.209 54.3646ZM992.097 94.9167C992.984 93.6771 993.339 92.0833 993.339 90.1354C993.339 88.0104 992.984 86.2396 992.097 85C991.209 83.7604 989.967 83.0521 988.192 83.0521H980.206V96.6875H988.547C990.144 96.6875 991.387 96.1563 992.097 94.9167Z" fill="black"/>
<path d="M1092.37 130.156C1081.01 124.667 1072.49 116.698 1066.46 106.25C1060.43 95.8021 1057.41 83.4062 1057.41 69.0625C1057.41 54.7187 1060.43 42.3229 1066.46 31.875C1072.49 21.4271 1081.01 13.6354 1092.37 8.14583C1103.73 2.65625 1117.22 0 1133.01 0C1148.81 0 1162.3 2.65625 1173.66 8.14583C1185.01 13.6354 1193.71 21.4271 1199.57 31.875C1205.6 42.3229 1208.62 54.5417 1208.62 69.0625C1208.62 83.5833 1205.6 95.9792 1199.57 106.25C1193.53 116.698 1185.01 124.667 1173.66 130.156C1162.3 135.646 1148.81 138.302 1133.01 138.302C1117.04 138.302 1103.55 135.646 1092.37 130.156ZM1139.93 76.3229C1141.89 74.375 1142.77 71.8958 1142.77 68.8854C1142.77 65.875 1141.89 63.3958 1139.93 61.4479C1137.98 59.5 1135.68 58.4375 1132.84 58.4375C1130 58.4375 1127.69 59.5 1125.74 61.4479C1123.78 63.3958 1122.9 65.875 1122.9 68.8854C1122.9 71.8958 1123.78 74.375 1125.74 76.3229C1127.69 78.2708 1130 79.3333 1132.84 79.3333C1135.68 79.3333 1137.98 78.2708 1139.93 76.3229Z" fill="black"/>
<path d="M1227.61 80.75C1230.09 77.5625 1232.22 74.0208 1234.18 70.3021C1236.13 66.5833 1237.72 61.8021 1239.14 55.7812C1240.56 49.7604 1241.63 42.3229 1242.34 33.4687L1244.65 3.71875H1377.22V80.75H1390.18V153H1329.66V134.76H1273.58V153.177H1212.88V80.75H1227.61ZM1312.98 46.9271H1301.62L1301.08 51.7083C1300.37 56.8437 1299.49 61.8021 1298.07 66.5833C1296.65 71.1875 1293.99 75.9687 1290.26 80.75H1312.98V46.9271Z" fill="black"/>
<path d="M767.056 96.6875C767.056 105.01 764.748 112.271 760.311 118.469C755.875 124.667 748.776 129.625 739.192 133.167C729.608 136.708 717.362 138.479 702.631 138.479C688.788 138.479 676.72 136.531 666.249 132.458C655.778 128.385 647.614 122.542 641.757 114.75C635.9 106.958 632.173 98.2812 632.173 87.125H685.416C685.949 88.1875 686.659 90.8437 688.256 92.9687C691.095 94.9167 695 94.9167 697.485 94.9167C700.324 94.9167 702.986 94.7396 704.939 92.9687C705.294 92.6146 706.891 91.0208 707.068 88.8958C707.068 87.6562 706.713 86.5937 706.358 86.2396C705.649 85 704.584 84.1146 702.986 83.4062C700.324 82.3437 696.065 81.6354 690.563 81.6354H673.703H293.902C292.127 75.7917 289.82 71.8958 288.045 69.4167C286.27 67.1146 281.124 58.9687 270.298 56.3125C269.588 56.1354 268.878 55.9583 268.523 55.9583H690.386C695.71 55.9583 699.437 55.4271 701.744 54.1875C702.986 53.4792 704.939 52.0625 705.116 49.9375C705.471 46.9271 702.631 44.625 702.277 44.2708C700.502 42.8542 698.727 42.6771 697.13 42.5C695.355 42.3229 691.983 42.3229 689.321 43.7396C686.659 45.1562 686.481 49.2292 685.949 50.2917C668.201 50.2917 650.453 50.2917 632.706 50.2917C632.706 39.3125 635.545 31.5208 641.402 23.7292C647.259 15.9375 655.068 10.0937 665.184 6.02083C675.3 1.94792 686.836 0 699.614 0C718.959 0 734.4 3.36458 746.113 9.91667C757.649 16.4687 763.506 27.0937 763.506 41.6146C763.506 47.6354 762.441 52.9479 760.311 57.375C758.182 61.8021 754.1 65.5208 748.243 68.3542C752.148 69.9479 755.697 72.25 758.537 75.2604C761.376 78.2708 763.506 81.8125 764.926 85.5312C766.346 89.4271 767.056 93.1458 767.056 96.6875Z" fill="black"/>
</g>
<defs>
<clipPath id="clip0_1_576">
<rect width="1390" height="153" fill="white"/>
</clipPath>
</defs>
</svg>
