<svg width="994" height="109" viewBox="0 0 994 109" fill="none" xmlns="http://www.w3.org/2000/svg">
<g clip-path="url(#clip0_22_340)">
<path d="M61.8077 96.0058L60.7924 89.0671H46.1971L45.3087 96.0058H0L22.464 2.64929H84.5255L106.99 95.8796H61.8077V96.0058ZM49.8777 61.4387H57.1119L54.3197 41.0011L53.8121 36.5856H52.9237L52.416 41.0011L49.8777 61.4387Z" fill="black"/>
<path d="M195.196 2.64929V33.5579H154.583V37.721H158.263C168.036 37.721 176.412 38.478 183.392 40.118C190.373 41.7581 196.084 44.7859 200.272 49.2014C204.587 53.6169 206.618 59.9248 206.618 67.8727C206.618 75.316 204.587 80.993 200.526 85.1562C196.465 89.3194 191.007 92.0949 184.154 93.6088C177.301 95.1227 169.178 95.8796 159.532 95.8796H109.909V2.64929H195.196ZM160.928 68.2511C161.563 67.368 161.944 65.9803 161.944 63.9618C161.944 61.8171 161.563 60.4294 160.675 59.5463C159.786 58.7893 158.517 58.2847 156.867 58.2847H154.583V69.3866H158.009C159.279 69.5127 160.294 69.1342 160.928 68.2511Z" fill="black"/>
<path d="M608.305 96.0058L607.289 89.0672H592.567L591.679 96.0058H546.37L568.834 2.77551H630.896L653.36 96.0058H608.305ZM596.375 61.4387H603.609L600.817 41.0012L600.309 36.5857H599.421L598.913 41.0012L596.375 61.4387Z" fill="black"/>
<path d="M709.202 2.64929C723.163 2.64929 733.443 4.79397 740.043 9.08332C746.642 13.3727 749.942 19.9329 749.942 28.7639C749.942 31.5393 749.434 34.3148 748.546 36.8379C747.658 39.4873 746.388 41.6319 744.865 43.5243C743.342 45.2905 741.692 46.4259 740.043 46.9305C744.231 48.4444 747.784 50.9676 750.45 54.6261C753.115 58.1586 754.511 62.5741 754.511 67.8727C754.511 78.3437 750.703 85.5347 743.215 89.6979C735.727 93.8611 725.701 95.8796 713.137 95.8796H656.406V2.64929H709.202ZM708.821 38.7303C709.456 37.8472 709.71 36.8379 709.71 35.4502C709.71 34.1886 709.456 33.1794 708.821 32.2963C708.187 31.4132 707.425 31.0347 706.283 31.0347H700.953V39.9919H706.41C707.425 39.9919 708.187 39.4873 708.821 38.7303ZM709.456 67.6204C710.091 66.7373 710.344 65.6018 710.344 64.2141C710.344 62.7002 710.091 61.4386 709.456 60.5555C708.821 59.6724 707.933 59.1678 706.664 59.1678H700.953V68.8819H706.918C708.06 68.8819 708.948 68.5035 709.456 67.6204Z" fill="black"/>
<path d="M781.163 92.7257C773.041 88.8148 766.949 83.1377 762.634 75.6944C758.318 68.2512 756.161 59.4201 756.161 49.2014C756.161 38.9826 758.318 30.1516 762.634 22.7083C766.949 15.265 773.041 9.71412 781.163 5.80324C789.286 1.89236 798.931 0 810.227 0C821.522 0 831.168 1.89236 839.29 5.80324C847.413 9.71412 853.632 15.265 857.82 22.7083C862.135 30.1516 864.293 38.8565 864.293 49.2014C864.293 59.5463 862.135 68.3773 857.82 75.6944C853.505 83.1377 847.413 88.8148 839.29 92.7257C831.168 96.6366 821.522 98.5289 810.227 98.5289C798.804 98.5289 789.159 96.6366 781.163 92.7257ZM815.176 54.3738C816.572 52.9861 817.207 51.2199 817.207 49.0752C817.207 46.9306 816.572 45.1644 815.176 43.7766C813.78 42.3889 812.13 41.6319 810.1 41.6319C808.069 41.6319 806.419 42.3889 805.023 43.7766C803.627 45.1644 802.993 46.9306 802.993 49.0752C802.993 51.2199 803.627 52.9861 805.023 54.3738C806.419 55.7616 808.069 56.5185 810.1 56.5185C812.13 56.5185 813.78 55.7616 815.176 54.3738Z" fill="black"/>
<path d="M877.873 57.5278C879.649 55.2569 881.172 52.7338 882.569 50.0845C883.965 47.4352 885.107 44.0289 886.122 39.7396C887.137 35.4502 887.899 30.1516 888.407 23.8437L890.056 2.64929H984.862V57.5278H994.127V109H950.849V96.0058H910.744V109.126H867.339V57.5278H877.873ZM938.919 33.4317H930.796L930.415 36.8379C929.908 40.4965 929.273 44.0289 928.258 47.4352C927.243 50.7153 925.339 54.1215 922.674 57.5278H938.919V33.4317Z" fill="black"/>
<path d="M548.528 68.8819C548.528 74.8113 546.878 79.9838 543.705 84.3993C540.532 88.8148 535.455 92.3472 528.602 94.8704C521.749 97.3935 512.991 98.6551 502.457 98.6551C492.558 98.6551 483.928 97.2674 476.44 94.3657C468.952 91.4641 463.114 87.3009 458.925 81.75C454.737 76.1991 452.072 70.0174 452.072 62.0694H490.147C490.527 62.8264 491.035 64.7187 492.177 66.2326C494.208 67.6204 497 67.6204 498.777 67.6204C500.807 67.6204 502.711 67.4942 504.107 66.2326C504.361 65.9803 505.503 64.8449 505.63 63.331C505.63 62.4479 505.376 61.691 505.123 61.4387C504.615 60.5556 503.853 59.9248 502.711 59.4201C500.807 58.6632 497.762 58.1586 493.827 58.1586H481.77H210.172C208.902 53.9954 207.253 51.2199 205.983 49.4537C204.714 47.8137 201.034 42.0104 193.292 40.1181C192.784 39.9919 192.277 39.8657 192.023 39.8657H493.7C497.508 39.8657 500.173 39.4873 501.823 38.6042C502.711 38.0995 504.107 37.0903 504.234 35.5764C504.488 33.4317 502.457 31.7917 502.204 31.5394C500.934 30.5301 499.665 30.4039 498.523 30.2778C497.254 30.1516 494.842 30.1516 492.939 31.1609C491.035 32.1701 490.908 35.0718 490.527 35.8287C477.836 35.8287 465.144 35.8287 452.453 35.8287C452.453 28.0069 454.483 22.456 458.672 16.9051C462.86 11.3542 468.444 7.19097 475.678 4.28935C482.912 1.38773 491.162 0 500.3 0C514.134 0 525.175 2.39699 533.552 7.06481C541.801 11.7326 545.989 19.3021 545.989 29.647C545.989 33.9363 545.228 37.7211 543.705 40.875C542.182 44.0289 539.263 46.6782 535.075 48.6968C537.867 49.8322 540.405 51.4722 542.436 53.6169C544.466 55.7616 545.989 58.2847 547.005 60.934C548.02 63.7095 548.528 66.3588 548.528 68.8819Z" fill="black"/>
</g>
<defs>
<clipPath id="clip0_22_340">
<rect width="994" height="109" fill="white"/>
</clipPath>
</defs>
</svg>
