<svg width="1856" height="205" viewBox="0 0 1856 205" fill="none" xmlns="http://www.w3.org/2000/svg">
<path d="M115.393 179.579L113.497 166.6H86.2484L84.5898 179.579H0L41.9395 4.95557H157.806L199.746 179.343H115.393V179.579ZM93.1199 114.921H106.626L101.413 76.6926L100.465 68.4334H98.8066L97.8588 76.6926L93.1199 114.921Z" fill="black"/>
<path d="M364.424 4.95557V62.77H288.601V70.5572H295.472C313.717 70.5572 329.356 71.9731 342.388 75.0408C355.42 78.1085 366.082 83.772 373.902 92.0312C381.958 100.29 385.749 112.089 385.749 126.956C385.749 140.878 381.958 151.497 374.375 159.285C366.793 167.072 356.604 172.263 343.809 175.095C331.014 177.927 315.85 179.343 297.842 179.343H205.196V4.95557H364.424ZM300.448 127.664C301.633 126.012 302.344 123.416 302.344 119.64C302.344 115.629 301.633 113.033 299.974 111.381C298.316 109.965 295.946 109.022 292.866 109.022H288.601V129.788H294.998C297.368 130.023 299.263 129.316 300.448 127.664Z" fill="black"/>
<path d="M1135.68 179.579L1133.79 166.6H1106.3L1104.64 179.579H1020.05L1061.99 5.19153H1177.86L1219.8 179.579H1135.68ZM1113.41 114.921H1126.92L1121.7 76.6926L1120.76 68.4334H1119.1L1118.15 76.6926L1113.41 114.921Z" fill="black"/>
<path d="M1324.06 4.95557C1350.12 4.95557 1369.31 8.96718 1381.63 16.9904C1393.96 25.0136 1400.12 37.2844 1400.12 53.8028C1400.12 58.9943 1399.17 64.1858 1397.51 68.9054C1395.85 73.8609 1393.48 77.8725 1390.64 81.4122C1387.79 84.7159 1384.71 86.8397 1381.63 87.7836C1389.45 90.6153 1396.09 95.3348 1401.06 102.178C1406.04 108.786 1408.65 117.045 1408.65 126.956C1408.65 146.542 1401.54 159.993 1387.56 167.78C1373.58 175.567 1354.86 179.343 1331.4 179.343H1225.49V4.95557H1324.06ZM1323.35 72.445C1324.53 70.7932 1325 68.9054 1325 66.3096C1325 63.9499 1324.53 62.062 1323.35 60.4102C1322.16 58.7584 1320.74 58.0504 1318.61 58.0504H1308.65V74.8048H1318.84C1320.74 74.8048 1322.16 73.8609 1323.35 72.445ZM1324.53 126.484C1325.71 124.832 1326.19 122.708 1326.19 120.112C1326.19 117.281 1325.71 114.921 1324.53 113.269C1323.35 111.617 1321.69 110.673 1319.32 110.673H1308.65V128.844H1319.79C1321.92 128.844 1323.58 128.136 1324.53 126.484Z" fill="black"/>
<path d="M1458.4 173.443C1443.24 166.128 1431.87 155.509 1423.81 141.586C1415.75 127.664 1411.73 111.145 1411.73 92.0311C1411.73 72.9169 1415.75 56.3985 1423.81 42.4759C1431.87 28.5532 1443.24 18.1702 1458.4 10.8549C1473.57 3.53966 1491.58 0 1512.66 0C1533.75 0 1551.76 3.53966 1566.93 10.8549C1582.09 18.1702 1593.7 28.5532 1601.52 42.4759C1609.58 56.3985 1613.6 72.681 1613.6 92.0311C1613.6 111.381 1609.58 127.9 1601.52 141.586C1593.46 155.509 1582.09 166.128 1566.93 173.443C1551.76 180.759 1533.75 184.298 1512.66 184.298C1491.34 184.298 1473.33 180.759 1458.4 173.443ZM1521.91 101.706C1524.51 99.1104 1525.7 95.8067 1525.7 91.7951C1525.7 87.7835 1524.51 84.4798 1521.91 81.8841C1519.3 79.2883 1516.22 77.8725 1512.43 77.8725C1508.64 77.8725 1505.56 79.2883 1502.95 81.8841C1500.34 84.4798 1499.16 87.7835 1499.16 91.7951C1499.16 95.8067 1500.34 99.1104 1502.95 101.706C1505.56 104.302 1508.64 105.718 1512.43 105.718C1516.22 105.718 1519.3 104.302 1521.91 101.706Z" fill="black"/>
<path d="M1638.96 107.606C1642.27 103.358 1645.12 98.6385 1647.72 93.683C1650.33 88.7275 1652.46 82.3561 1654.36 74.3329C1656.25 66.3096 1657.68 56.3986 1658.62 44.5997L1661.7 4.95557H1838.7V107.606H1856V203.884H1775.2V179.579H1700.33V204.12H1619.29V107.606H1638.96ZM1752.93 62.534H1737.76L1737.05 68.9054C1736.11 75.7487 1734.92 82.3561 1733.03 88.7275C1731.13 94.8629 1727.58 101.234 1722.6 107.606H1752.93V62.534Z" fill="black"/>
<path d="M1024.08 128.844C1024.08 139.934 1021 149.61 1015.08 157.869C1009.15 166.128 999.677 172.735 986.881 177.455C974.086 182.174 957.737 184.534 938.071 184.534C919.589 184.534 903.476 181.938 889.497 176.511C875.517 171.083 864.617 163.296 856.798 152.913C848.979 142.53 844.003 130.967 844.003 116.101H915.087C915.798 117.517 916.745 121.056 918.878 123.888C922.669 126.484 927.882 126.484 931.199 126.484C934.99 126.484 938.544 126.248 941.151 123.888C941.625 123.416 943.757 121.292 943.994 118.461C943.994 116.809 943.52 115.393 943.046 114.921C942.099 113.269 940.677 112.089 938.544 111.145C934.99 109.729 929.304 108.785 921.958 108.785H899.448H392.383C390.014 100.998 386.934 95.8067 384.564 92.5031C382.195 89.4354 375.323 78.5804 360.869 75.0407C359.922 74.8048 358.974 74.5688 358.5 74.5688H921.721C928.83 74.5688 933.805 73.8609 936.886 72.209C938.544 71.2651 941.151 69.3773 941.388 66.5456C941.862 62.534 938.071 59.4662 937.597 58.9943C935.227 57.1065 932.858 56.8705 930.725 56.6345C928.356 56.3985 923.854 56.3985 920.3 58.2864C916.745 60.1742 916.508 65.6017 915.798 67.0175C892.103 67.0175 868.408 67.0175 844.714 67.0175C844.714 52.3869 848.505 42.0039 856.324 31.6209C864.143 21.2379 874.569 13.4507 888.075 8.02322C901.581 2.59575 916.982 0 934.042 0C959.87 0 980.484 4.48357 996.122 13.2147C1011.52 21.9459 1019.34 36.1045 1019.34 55.4546C1019.34 63.4779 1017.92 70.5572 1015.08 76.4566C1012.23 82.356 1006.78 87.3116 998.966 91.0872C1004.18 93.211 1008.92 96.2787 1012.71 100.29C1016.5 104.302 1019.34 109.021 1021.24 113.977C1023.13 119.168 1024.08 124.124 1024.08 128.844Z" fill="black"/>
</svg>
